<?xml version="1.0" encoding="UTF-8" standalone="no"?>
<svg
   xmlns:dc="http://purl.org/dc/elements/1.1/"
   xmlns:cc="http://creativecommons.org/ns#"
   xmlns:rdf="http://www.w3.org/1999/02/22-rdf-syntax-ns#"
   xmlns:svg="http://www.w3.org/2000/svg"
   xmlns="http://www.w3.org/2000/svg"
   xmlns:sodipodi="http://sodipodi.sourceforge.net/DTD/sodipodi-0.dtd"
   xmlns:inkscape="http://www.inkscape.org/namespaces/inkscape"
   inkscape:export-ydpi="300"
   inkscape:export-xdpi="300"
   inkscape:export-filename="/home/omkarpathak/Documents/GIT/illustrations/pngs/bae.png"
   width="209.51381mm"
   height="195.12517mm"
   viewBox="0 0 209.51381 195.12517"
   version="1.1"
   id="svg8"
   inkscape:version="1.0 (6e3e5246a0, 2020-05-07)"
   sodipodi:docname="bae.svg">
  <defs
     id="defs2" />
  <sodipodi:namedview
     fit-margin-bottom="0"
     fit-margin-right="0"
     fit-margin-left="0"
     fit-margin-top="0"
     id="base"
     pagecolor="#ffffff"
     bordercolor="#666666"
     borderopacity="1.0"
     inkscape:pageopacity="0.0"
     inkscape:pageshadow="2"
     inkscape:zoom="0.49977171"
     inkscape:cx="374.13559"
     inkscape:cy="349.77576"
     inkscape:document-units="mm"
     inkscape:current-layer="layer2"
     inkscape:document-rotation="0"
     showgrid="false"
     inkscape:window-width="1600"
     inkscape:window-height="813"
     inkscape:window-x="0"
     inkscape:window-y="0"
     inkscape:window-maximized="1" />
  <metadata
     id="metadata5">
    <rdf:RDF>
      <cc:Work
         rdf:about="">
        <dc:format>image/svg+xml</dc:format>
        <dc:type
           rdf:resource="http://purl.org/dc/dcmitype/StillImage" />
        <dc:title></dc:title>
      </cc:Work>
    </rdf:RDF>
  </metadata>
  <g
     transform="translate(0.34537251,-57.015883)"
     inkscape:label="Layer 1"
     inkscape:groupmode="layer"
     id="layer1">
    <g
       transform="translate(202.83114,35.831682)"
       style="opacity:0.382313;mix-blend-mode:normal;fill:#5599ff"
       id="g2340" />
  </g>
  <g
     transform="translate(0.34537251,-57.015883)"
     inkscape:groupmode="layer"
     id="layer2"
     inkscape:label="Layer 2">
    <rect
       ry="2.0933378"
       y="57.015884"
       x="-0.34537157"
       height="198.00137"
       width="212.99438"
       id="rect3263"
       style="opacity:1;mix-blend-mode:normal;fill:#fefcfc;fill-opacity:1;stroke:none;stroke-width:1.27569;stroke-miterlimit:4;stroke-dasharray:none;stroke-opacity:0.978802;paint-order:stroke fill markers" />
    <g
       transform="matrix(0.92951667,0,0,0.93082376,-38.903261,43.790751)"
       style="opacity:0.382313;mix-blend-mode:normal;fill:#5599ff"
       id="g877">
      <g
         transform="translate(275.11175,-6.8220074)"
         id="g3261">
        <g
           style="fill:#0000ff;fill-opacity:1;stroke:none"
           id="g1226"
           transform="matrix(1.0200138,0,0,1.0200138,-1.4027978,-1.4947341)">
          <path
             sodipodi:nodetypes="caacc"
             id="path1212"
             d="m -115.83928,97.839321 c 0,0 -21.75967,-52.511273 -45.48606,-55.458906 -24.81589,-3.082987 -56.80328,19.843195 -60.32201,44.601059 -8.21054,57.769636 106.184,139.167736 106.184,139.167736 z"
             style="fill:#0066ff;fill-opacity:1;stroke:none;stroke-width:0.264583px;stroke-linecap:butt;stroke-linejoin:miter;stroke-opacity:1" />
          <path
             style="fill:#0066ff;fill-opacity:1;stroke:none;stroke-width:0.264583px;stroke-linecap:butt;stroke-linejoin:miter;stroke-opacity:1"
             d="m -116.07432,97.839321 c 0,0 21.759657,-49.527088 45.486047,-55.458906 24.25997,-6.065218 56.80328,19.843195 60.32201,44.601059 C -2.0557233,144.75111 -116.45025,226.14921 -116.45025,226.14921 Z"
             id="path1214"
             sodipodi:nodetypes="csacc" />
        </g>
        <g
           id="g881"
           style="fill:#5599ff"
           transform="translate(-224.72503,13.171901)">
          <path
             style="fill:#bdd6ff;fill-opacity:1;stroke:none;stroke-width:0.264583px;stroke-linecap:butt;stroke-linejoin:miter;stroke-opacity:1"
             d="m 104.47639,84.925867 c 0,0 -21.759663,-52.511273 -45.486053,-55.458906 C 34.174446,26.383974 2.1870523,49.310156 -1.3316733,74.06802 -9.5422166,131.83766 104.85232,213.23576 104.85232,213.23576 Z"
             id="path871"
             sodipodi:nodetypes="caacc" />
          <path
             sodipodi:nodetypes="csacc"
             id="path873"
             d="m 104.24135,84.925867 c 0,0 21.75966,-49.527088 45.48605,-55.458906 24.25997,-6.065218 56.80328,19.843195 60.32201,44.601059 8.21054,57.76964 -106.18399,139.16774 -106.18399,139.16774 z"
             style="fill:#bdd5ff;fill-opacity:1;stroke:none;stroke-width:0.264583px;stroke-linecap:butt;stroke-linejoin:miter;stroke-opacity:1" />
          <path
             sodipodi:nodetypes="csscc"
             id="path1144"
             d="m 105.06635,89.588101 c 0,0 -21.210901,-46.907212 -43.795225,-54.676319 C 40.849764,27.886743 1.7262662,51.978707 1.9183894,76.96546 2.3545598,133.69198 103.86543,213.23576 103.86543,213.23576 Z"
             style="fill:#5498ff;fill-opacity:1;stroke:none;stroke-width:0.248322px;stroke-linecap:butt;stroke-linejoin:miter;stroke-opacity:1" />
          <path
             style="fill:#5599ff;stroke:none;stroke-width:0.256196px;stroke-linecap:butt;stroke-linejoin:miter;stroke-opacity:1"
             d="m 104.78847,87.195292 c 0,0 21.73709,-49.305376 45.29386,-52.219321 33.77473,-10.590905 56.43774,17.836184 60.06718,41.995727 8.55774,56.964992 -106.28409,136.264062 -106.28409,136.264062 z"
             id="path1146"
             sodipodi:nodetypes="ccacc" />
          <path
             style="fill:#287eff;fill-opacity:1;stroke:none;stroke-width:0.264583px;stroke-linecap:butt;stroke-linejoin:miter;stroke-opacity:1"
             d="m 78.613674,191.00574 c 0,0 67.599726,-36.2763 93.082106,-63.99644 16.22243,-17.64702 35.62103,-62.469197 35.62103,-62.469197 0,0 1.46252,3.301636 2.25837,7.469494 0.81562,4.271306 0.9612,9.452367 0.63441,12.921891 -0.88933,9.442082 -2.40889,13.073236 -8.70128,27.088412 -5.71868,12.73737 -16.06267,25.1621 -22.91063,33.07795 -10.04582,11.6124 -24.15139,26.24254 -39.01298,39.43211 -17.28766,15.3427 -35.71927,28.7058 -35.71927,28.7058 z"
             id="path1142"
             sodipodi:nodetypes="cacssssscc" />
          <path
             style="opacity:0.382313;fill:#f8faff;fill-opacity:1;stroke:none;stroke-width:1.12287;stroke-miterlimit:4;stroke-dasharray:none;stroke-opacity:0.978802;paint-order:stroke fill markers"
             id="path1208"
             sodipodi:type="arc"
             sodipodi:cx="16.005404"
             sodipodi:cy="68.421799"
             sodipodi:rx="11.01632"
             sodipodi:ry="6.9431682"
             sodipodi:start="0"
             sodipodi:end="6.2767974"
             sodipodi:open="true"
             sodipodi:arc-type="arc"
             d="M 27.021724,68.421799 A 11.01632,6.9431682 0 0 1 16.022996,75.364958 11.01632,6.9431682 0 0 1 4.9891395,68.443975 11.01632,6.9431682 0 0 1 15.952625,61.47871 11.01632,6.9431682 0 0 1 27.021499,68.377447"
             transform="matrix(0.82402297,-0.56655639,0.44388848,0.89608204,0,0)" />
          <path
             transform="matrix(0.84425059,-0.53594863,0.4727664,0.88118779,0,0)"
             d="m 0.85459328,72.430885 a 5.7617149,3.4932706 0 0 1 -5.75251358,3.493266 5.7617149,3.4932706 0 0 1 -5.7708867,-3.482108 5.7617149,3.4932706 0 0 1 5.7340815,-3.504388 5.7617149,3.4932706 0 0 1 5.78920122,3.470916"
             sodipodi:arc-type="arc"
             sodipodi:open="true"
             sodipodi:end="6.2767974"
             sodipodi:start="0"
             sodipodi:ry="3.4932706"
             sodipodi:rx="5.7617149"
             sodipodi:cy="72.430885"
             sodipodi:cx="-4.9071217"
             sodipodi:type="arc"
             id="path1210"
             style="opacity:0.382313;fill:#f8faff;fill-opacity:1;stroke:none;stroke-width:0.576002;stroke-miterlimit:4;stroke-dasharray:none;stroke-opacity:0.978802;paint-order:stroke fill markers" />
        </g>
      </g>
    </g>
    <g
       clip-path="none"
       id="g2908"
       transform="matrix(0.92951667,0,0,0.93082376,10.577028,45.294757)">
      <path
         id="path2834"
         style="opacity:1;fill:#000000;fill-opacity:1;stroke:none;stroke-width:0.665001;paint-order:stroke fill markers"
         d="m 72.783952,93.029678 h 52.951828 c 0.01,0 0.0179,0.008 0.0179,0.01794 v 34.480432 c 0,0.01 -0.008,0.0179 -0.0179,0.0179 H 72.783952 c -0.0099,0 -0.01794,-0.008 -0.01794,-0.0179 V 93.047617 c 0,-0.0099 0.008,-0.01794 0.01794,-0.01794 z" />
      <path
         style="opacity:1;fill:#ffdec7;fill-opacity:1;stroke:none;stroke-width:0.264583px;stroke-linecap:butt;stroke-linejoin:miter;stroke-opacity:1"
         d="m 76.273316,71.483023 c 0,0 -0.66658,0.389945 -3.22024,0.389945 -2.55366,0 -6.2182,-0.405045 -8.33469,1.459268 -3.02949,2.668538 -2.04142,6.71854 -3.57749,11.571156 -1.53394,4.845876 2.30534,15.172628 2.76053,16.104508 0.45519,0.93189 2.27374,5.18468 4.35725,6.95958 2.2561,1.92194 5.33783,2.6557 8.19026,3.46038 1.1548,0.32577 2.35931,0.52499 3.5591,0.5385 1.53771,0.0173 3.18953,0.0782 4.57589,-0.58724 1.72359,-0.82737 3.01226,-2.42961 4.1279,-3.98225 1.54918,-2.15602 3.36826,-5.60001 3.41237,-7.1966 0.0441,-1.596593 -1.32638,-18.629179 -6.05443,-21.567226 -4.72804,-2.93805 -5.15557,-6.136997 -7.07079,-6.599878 -1.91521,-0.462881 -2.72566,-0.550143 -2.72566,-0.550143 z"
         id="path2836"
         sodipodi:nodetypes="csassaaaaasssc" />
      <path
         style="opacity:1;fill:#1a1a1a;fill-opacity:1;stroke:none;stroke-width:0.264583px;stroke-linecap:butt;stroke-linejoin:miter;stroke-opacity:1"
         d="m 73.716146,110.84655 c 0,0 8.15372,2.08825 8.51828,4.70839 0.36458,2.62012 4.42239,4.51315 4.42239,4.51315 l 7.68243,3.50579 -2.21132,2.72613 c 0,0 -8.26125,-7.15253 -10.00191,-7.83856 -1.74066,-0.68602 -6.98349,-2.29591 -8.36333,-2.69021 -1.37984,-0.39431 -2.32779,-0.83304 -3.52032,-1.09189 -1.83093,-0.39743 -3.27019,-0.61077 -5.35375,-0.32043 -2.08354,0.29028 -4.75219,0.92368 -5.17,-0.0779 -0.41781,-1.00158 -3.24976,-1.25187 -5.97467,-5.78133 -2.72491,-4.52946 -6.62768,-10.373155 -6.26365,-15.91994 0.36404,-5.546783 2.65531,-10.546551 3.91956,-13.58396 1.26426,-3.037411 -0.50195,-3.623688 2.86779,-7.508893 3.36973,-3.885205 7.3544,-7.371419 8.76922,-7.738158 1.41482,-0.366741 5.57083,-3.117225 8.08139,-2.717964 2.51055,0.399264 8.30433,1.497981 9.3655,2.316118 1.06118,0.818136 5.96909,10.100831 8.34291,15.451058 3.68441,8.30415 11.08451,25.107609 9.09101,25.693539 -1.9935,0.58593 -2.94321,-0.61957 -3.96247,-1.61782 -2.44402,-2.39365 -2.48657,-6.389427 -4.07627,-9.418562 -1.75802,-3.349856 -3.94959,-4.018196 -6.01072,-9.627087 -2.06114,-5.608891 -2.82603,-13.119792 -7.5949,-12.344998 -3.35454,0.54501 -7.26689,-0.04892 -10.46924,1.416042 -0.81669,0.37361 -0.60628,-0.955553 -2.01908,1.783948 -1.4128,2.739504 -1.26699,5.059622 -2.19978,8.444672 -0.93279,3.385053 -1.32307,9.149694 1.21655,15.071553 2.53962,5.921862 4.28943,10.358362 10.91438,12.647312 z"
         id="path2838"
         sodipodi:nodetypes="cscccssscssssssssassassssssc" />
      <path
         style="opacity:1;fill:#ffbc8f;fill-opacity:1;stroke:none;stroke-width:0.264583px;stroke-linecap:butt;stroke-linejoin:miter;stroke-opacity:1"
         d="m 121.18987,82.357941 -0.9789,14.196017 4.85093,-5.948616 c 0,0 -2.19977,-1.392883 -2.34169,-3.73098 -0.14191,-2.338096 0.90001,-6.087806 0.90001,-6.087806 z"
         id="path2840" />
      <path
         style="opacity:1;fill:#ffccaa;fill-opacity:1;stroke:none;stroke-width:0.264583px;stroke-linecap:butt;stroke-linejoin:miter;stroke-opacity:1"
         d="m 87.412906,78.507279 c 0,0 0.49272,4.686524 1.07828,6.960005 0.50099,1.945147 1.44051,3.751788 2.06887,5.659603 0.55912,1.697606 0.61139,3.600534 1.51207,5.144316 0.58553,1.003612 1.60293,1.682964 2.42759,2.501508 1.06602,1.058109 2.13094,2.119819 3.2569,3.113899 0.76655,0.67677 1.61118,1.26145 2.378384,1.93748 0.79492,0.70045 1.38273,1.66468 2.30162,2.1921 1.2282,0.70496 2.66571,1.1558 4.08167,1.17855 1.6328,0.0262 3.33936,-0.38097 4.748,-1.20708 1.61472,-0.94698 2.54135,-2.75047 3.86451,-4.07461 1.03735,-1.03812 2.27628,-1.88545 3.19223,-3.032097 1.38542,-1.734378 2.77195,-3.595105 3.40609,-5.722388 0.91327,-3.063658 -0.85807,-6.64635 0.40769,-9.58198 0.69708,-1.616725 2.91143,-2.20332 3.6831,-3.785804 0.7339,-1.505044 0.71461,-3.303035 0.67986,-4.97712 -0.0324,-1.5585 -0.0108,-3.27372 -0.82468,-4.60322 -0.42867,-0.700252 -1.62337,-1.837232 -1.96171,-1.489533 -0.33834,0.3477 -2.7339,4.495255 -2.6942,6.447113 0.0397,1.951858 -0.48876,4.213651 -1.12265,1.955914 -0.6339,-2.257735 -0.66789,-4.147712 -2.06283,-5.114611 -1.39494,-0.966898 -1.69942,-1.095287 -1.69942,-1.095287 0,0 3.20576,-0.73533 0,0 -3.20576,0.73533 -4.90909,0.01659 -7.05594,1.02549 -2.14685,1.008899 -8.08142,2.790049 -11.832114,3.533879 -3.75069,0.743829 -10.38346,1.183327 -10.38346,1.183327 z"
         id="path2842"
         sodipodi:nodetypes="caaaaaaaaaaaaaaaasssscsszcc" />
      <path
         style="opacity:1;fill:#000000;fill-opacity:1;stroke:#000000;stroke-width:0.264583px;stroke-linecap:butt;stroke-linejoin:miter;stroke-opacity:1"
         d="m 86.862766,76.656733 c 0,0 -6.351,-3.607337 -5.86551,-7.066475 0.4855,-3.459139 0.85491,-4.330494 1.00449,-9.360665 0.14958,-5.03017 6.30014,-6.041907 8.99492,-9.45749 -0.43574,-2.720458 10.964694,-5.262412 16.698964,-4.835936 2.86039,0.212736 4.80178,1.361529 6.93247,2.609111 2.0842,1.220361 4.0107,2.408521 5.54425,4.664745 1.53356,2.256221 3.6969,3.864051 3.4574,5.580507 -0.23949,1.716452 -0.81796,4.696827 0.0934,7.554682 0.91136,2.857854 0.5671,2.837511 -0.4287,4.795033 -0.9958,1.957522 -2.37217,5.443188 -2.22797,6.43073 0.14419,0.987544 -1.54371,1.446953 -1.54371,1.446953 0,0 -2.46688,-7.017909 -2.92768,-7.5609 -0.46081,-0.542991 -8.66419,0.618463 -9.26773,1.710817 -0.60353,1.092353 0.5507,1.296426 0.5507,1.296426 0,0 -1.37636,0.294249 -2.65445,0.04286 -1.27809,-0.251392 -4.29777,-0.45557 -3.53842,0.08286 0.75936,0.538433 1.76968,0.527487 -0.87867,0.630074 -2.648354,0.102584 -6.193044,0.867031 -6.193044,0.867031 0,0 -4.33137,0.752285 -6.04103,0.660961 l -1.70968,-0.09132 z"
         id="path2844"
         sodipodi:nodetypes="csscsassssscsscssscscc" />
      <path
         transform="matrix(0.26458333,0,0,0.26458333,-293.11289,8.304295)"
         d="m 1580.5039,311.05859 c 0,0 -57.5554,72.51248 -63.9336,81.04688 -6.3782,8.5344 -36.0276,172.11044 -38.9101,257.93164 -0.8013,23.8563 2.5293,67.15234 2.5293,67.15234 l 99.5996,9.04102 96.9433,-85.36524 0.9551,-274.53711 c 0,0 -57.5021,-38.22507 -97.1836,-55.26953 z"
         style="opacity:1;fill:#333333;fill-opacity:1;stroke:none;stroke-width:0.999999px;stroke-linecap:butt;stroke-linejoin:miter;stroke-opacity:1"
         id="path3204" />
      <path
         style="opacity:1;fill:none;stroke:#1f1f1f;stroke-width:0.264583px;stroke-linecap:butt;stroke-linejoin:miter;stroke-opacity:1"
         d="m 125.0619,90.605342 c 0,0 14.30354,11.254458 17.04789,15.833508 2.74436,4.57905 2.74436,4.67802 2.74436,4.67802"
         id="path2848" />
      <path
         style="opacity:1;fill:#000000;stroke:#000000;stroke-width:0.264583px;stroke-linecap:butt;stroke-linejoin:miter;stroke-opacity:1"
         d="m 51.585826,126.06246 c 0,0 -6.27191,11.83063 -4.39647,20.70419 1.87543,8.87355 8.93004,10.52133 10.09579,17.27923 1.16574,6.7579 -1.21505,13.43692 -1.21505,13.43692 l 5.95785,0.51798 4.66186,-52.05748 z"
         id="path2850" />
      <path
         transform="matrix(0.26458333,0,0,0.26458333,-293.11289,8.304295)"
         d="m 1336.1465,401.64258 c 0,0 -21.0724,43.76475 -22.4903,67.41015 -1.5903,26.52163 13.3553,51.64767 16.0098,78.08399 2.1766,21.6765 2.7082,43.75821 -0.1348,65.35742 -1.5945,12.11408 -4.9149,23.90613 -8.539,35.62109 l 5.207,5.36524 c 1.3493,1.39087 6.8039,6.17694 14.2266,12.57226 7.4227,6.39533 16.8128,14.40076 26.0351,22.23243 14.4895,12.30458 23.08,19.5353 28.4493,24.0625 l 85.2812,4.84179 c 0,0 9.0707,-37.52203 8.5469,-55.27148 -0.5239,-17.74946 -8.2246,-32.96751 -6.2715,-49.47656 1.3763,-11.63343 12.4316,-32.8711 12.4316,-32.8711 0,0 -63.4561,-10.76192 -85.3261,-26.71289 -15.5803,-11.36358 -18.9104,-12.64871 -19.6328,-12.50781 l 86.8457,-74.73828 c 0,0 -37.5149,-39.35293 -61.6622,-50.36133 -24.307,-11.08123 -78.9765,-13.60742 -78.9765,-13.60742 z"
         style="opacity:1;fill:#ffaaaa;stroke:none;stroke-width:0.999999px;stroke-linecap:butt;stroke-linejoin:miter;stroke-opacity:1"
         id="path3209" />
      <path
         style="opacity:1;fill:#ffdec7;fill-opacity:1;stroke:none;stroke-width:0.264583px;stroke-linecap:butt;stroke-linejoin:miter;stroke-opacity:1"
         d="m 74.563056,151.34019 c 0,0 13.90683,9.48411 21.92616,10.04106 8.273444,0.57459 21.213054,0.40335 23.835754,-7.13277 2.6227,-7.53612 2.5117,-14.9995 3.16019,-22.56774 0.51537,-6.01458 -1.25909,-12.34986 0.57631,-18.10069 1.13158,-3.54555 4.02231,-6.26624 6.17513,-9.30215 1.39338,-1.96495 2.83689,-5.450097 4.35957,-5.763411 1.52268,-0.313315 3.91623,0.761072 4.69955,-0.610727 0.48885,-0.856114 -0.50497,-1.984895 -1.16234,-2.719584 -1.39927,-1.563839 -3.39866,-2.826695 -5.47925,-3.099953 -3.9512,-0.518936 -8.42623,0.554939 -11.57274,3.000489 -5.38634,4.186405 -7.19418,11.653616 -9.86716,17.930066 -2.96397,6.95971 -6.75281,21.66571 -6.75281,21.66571 l -6.841404,-3.18333 z"
         id="path2854"
         sodipodi:nodetypes="casaaasaaaaaccc" />
      <path
         id="path2856"
         style="opacity:1;fill:#cccccc;fill-opacity:1;stroke:none;stroke-width:0.693292;paint-order:stroke fill markers"
         d="m 91.900412,111.2613 h 15.010208 c 2.31234,0 4.17389,1.86155 4.17389,4.17389 v 37.93116 c 0,2.31233 -1.86155,4.17389 -4.17389,4.17389 H 91.900412 c -2.312334,0 -4.173888,-1.86156 -4.173888,-4.17389 v -37.93116 c 0,-2.31234 1.861554,-4.17389 4.173888,-4.17389 z" />
      <path
         style="opacity:1;fill:#000000;stroke:#000000;stroke-width:0.264583px;stroke-linecap:butt;stroke-linejoin:miter;stroke-opacity:1"
         d="m 122.31798,166.79103 c 0,0 -1.73995,1.64206 -1.2234,4.12205 0.51656,2.47999 2.54367,2.93265 2.54367,2.93265 l 11.99601,-3.05275 -10.59962,-5.70627 z"
         id="path2858" />
      <path
         style="opacity:1;fill:#ffccaa;fill-opacity:1;stroke:none;stroke-width:0.264583px;stroke-linecap:butt;stroke-linejoin:miter;stroke-opacity:1"
         d="m 133.27813,153.91208 c 0,0 6.60281,8.34892 1.39573,12.60754 -5.20708,4.25863 -5.73102,4.30503 -5.73102,4.30503 0,0 -4.13925,-3.44324 -6.62013,-4.34418 -2.03474,-0.73893 -4.30685,-0.45099 -6.45067,-0.75141 -2.72175,-0.3814 -5.46609,-0.68369 -8.13643,-1.33383 -3.74899,-0.91275 -10.300614,-3.54761 -11.005404,-3.58793 -0.70479,-0.0403 -6.76114,-0.99448 -6.76114,-2.09428 0,-1.09979 0.67222,-1.95228 1.38078,-1.79143 0.70856,0.16085 11.312464,0.63833 12.462894,0.40262 1.15044,-0.23571 -2.42779,-1.4235 -2.42779,-1.4235 0,0 -4.260174,-1.05064 -6.820494,-2.01578 -2.56033,-0.96513 -5.16231,-1.63953 -6.80546,-2.29091 -1.64316,-0.65139 -2.63994,-3.19621 -2.11734,-3.80265 0.52261,-0.60643 0.95019,-1.20259 2.26801,-0.99876 1.3178,0.20382 6.08957,1.96136 6.87635,2.00177 0.78679,0.0404 3.76197,1.10701 6.173044,1.42139 2.41107,0.31437 4.29816,0.79028 4.33247,0.47477 0.0343,-0.31552 1.43052,-1.40561 -2.60735,-3.06485 -4.037864,-1.65924 -8.126474,-3.73486 -8.126474,-3.73486 l -4.85969,-1.99735 c 0,0 -3.90935,-2.08951 -3.763,-3.10764 0.14635,-1.01813 -0.0525,-2.55619 1.68593,-2.62227 1.73842,-0.0661 6.23621,1.35305 6.23621,1.35305 l 15.357794,7.18333 c 0,0 1.35753,0.76055 0.86133,0.26313 -0.4962,-0.49743 -10.934234,-5.32338 -10.934234,-5.32338 0,0 -5.96626,-1.56292 -6.6278,-3.38188 -0.66154,-1.81896 -0.15015,-3.4933 0.90927,-3.4933 1.05943,0 3.6374,-0.0604 7.035384,1.47697 3.39799,1.53737 7.24565,2.61097 10.62762,4.42378 2.47379,1.326 6.1566,2.83705 6.99838,4.68231 0.84178,1.84526 3.42759,4.59401 5.7109,6.25429 2.80811,2.04188 5.30316,3.37896 9.48233,4.31021 z"
         id="path2860"
         sodipodi:nodetypes="cscaaasssscssssssssccssccscsssssac" />
      <path
         style="opacity:1;fill:#1e1e1e;fill-opacity:1;stroke:none;stroke-width:0.264583px;stroke-linecap:butt;stroke-linejoin:miter;stroke-opacity:1"
         d="m 133.27813,153.91208 c 0,0 2.23406,3.46696 2.20366,5.41567 -0.0552,3.53582 -1.99852,7.01465 -4.30301,9.69688 -1.94417,2.26285 -7.54053,4.8211 -7.54053,4.8211 0,0 11.20222,2.65191 16.90158,3.37559 3.34296,0.42448 10.09384,0.56052 10.09384,0.56052 l -0.11123,-25.70778 c 0,0 -6.89238,3.56993 -10.6456,3.68335 -2.28292,0.069 -6.59871,-1.84533 -6.59871,-1.84533 z"
         id="path2862"
         sodipodi:nodetypes="caacaccac" />
      <path
         style="opacity:1;fill:#ffccaa;fill-opacity:1;stroke:none;stroke-width:0.264583px;stroke-linecap:butt;stroke-linejoin:miter;stroke-opacity:1"
         d="m 58.021836,114.14984 c 0,0 -3.2209,0.88167 -4.1709,2.11818 -1.65928,2.15968 -2.29902,5.33582 -1.69782,7.99212 0.979,4.3255 5.06226,7.32357 8.09926,10.55543 3.03745,3.23233 7.94829,7.49741 10.03351,8.74045 2.08522,1.24305 3.79192,3.46144 5.19811,3.53241 1.40619,0.071 3.322,-1.06062 1.58981,-2.67939 -1.7322,-1.61878 -5.37138,-4.1152 -5.37138,-4.1152 0,0 7.3251,3.01714 8.74452,3.73737 0,0 2.7464,0.88478 3.45523,-0.58548 0.70882,-1.47026 0.0639,-1.50915 -1.42068,-2.21873 -1.48462,-0.70958 -8.29932,-4.4735 -8.29932,-4.4735 l -4.28923,-2.15829 c 0,0 0.93155,0.89464 5.7959,2.19058 4.86435,1.29594 9.51642,1.67267 9.51642,1.67267 0.73161,-0.46162 0.69484,-2.50045 0.69484,-2.50045 -2.38763,-2.66056 -12.47224,-4.17561 -12.18226,-4.75285 0.4697,-0.935 3.41171,-0.84797 3.41171,-0.84797 0,0 7.78196,0.53249 8.65358,0.53249 0.87161,0 1.92462,-1.04568 0.28463,-2.48772 -1.63996,-1.44204 -4.01912,-1.24555 -6.85573,-1.86055 -2.83661,-0.61499 -6.06131,-0.56961 -7.74777,-2.72634 -0.81719,-1.04506 -1.70121,-4.05058 -0.37688,-3.96201 1.32432,0.0886 3.94667,1.59306 4.93865,2.43055 0.99197,0.83749 1.95726,2.8571 3.17782,3.04843 1.22056,0.19133 3.66423,-0.37885 3.1009,-1.3745 -0.56334,-0.99566 -1.63565,-3.58176 -3.01839,-4.91939 -1.88184,-1.82044 -4.45684,-2.77227 -6.82752,-3.88365 -0.62613,-0.29353 -1.26289,-0.59886 -1.94186,-0.72998 -4.09047,-0.78997 -7.77203,0.44442 -12.49515,-0.27464 z"
         id="path2864"
         sodipodi:nodetypes="caasssscsssccsssscsssacsssaaacc" />
      <path
         id="path2866"
         style="opacity:1;fill:#000000;fill-opacity:1;stroke:none;stroke-width:0.665001;paint-order:stroke fill markers"
         d="m 99.800685,116.38313 c 1.142865,0 2.062935,0.92007 2.062935,2.06293 v 5.52386 c 0,1.14286 -0.92007,2.06293 -2.062935,2.06293 -1.142863,0 -2.06293,-0.92007 -2.06293,-2.06293 v -5.52386 c 0,-1.14286 0.920067,-2.06293 2.06293,-2.06293 z" />
      <path
         style="opacity:1;fill:#333333;stroke:#000000;stroke-width:0.264583px;stroke-linecap:butt;stroke-linejoin:miter;stroke-opacity:1"
         d="m 112.40093,110.25703 -1.37739,3.2882 c 0,0 4.5692,-0.33071 6.80923,0.0355 2.01847,0.32999 5.82645,1.92366 5.82645,1.92366 l 1.23151,-3.79862 c 0,0 -4.32328,-1.37371 -6.56344,-1.61349 -1.96499,-0.21032 -4.18721,-0.0701 -5.92636,0.16474 z"
         id="path2868"
         sodipodi:nodetypes="ccaccac" />
      <path
         style="opacity:1;fill:#000000;stroke:#000000;stroke-width:0.264583px;stroke-linecap:butt;stroke-linejoin:miter;stroke-opacity:1"
         d="m 64.352546,73.475579 c 0,0 1.86577,-1.09008 2.90821,-1.268818 2.93909,-0.503941 6.08024,-0.232269 9.01256,-0.723738 0.75133,-0.125925 3.50812,1.241575 3.50812,1.241575 0,0 -1.84261,-3.728502 -3.60634,-4.479294 -1.76187,-0.750003 -4.41948,0.146004 -5.72233,0.505124 -0.57357,0.158099 -6.10022,4.725151 -6.10022,4.725151 z"
         id="path2870"
         sodipodi:nodetypes="csscasc" />
      <path
         style="opacity:1;fill:#ff9e9e;fill-opacity:1;stroke:none;stroke-width:0.264583px;stroke-linecap:butt;stroke-linejoin:miter;stroke-opacity:1"
         d="m 60.218956,149.68839 c 0,0 0.23695,5.51843 0.23695,7.46332 0,1.94488 -0.63016,2.05556 -0.63016,2.05556 l 15.18949,0.77371 c 0,0 -6.32828,-1.68114 -14.79628,-10.29259 z"
         id="path2872" />
      <path
         style="opacity:1;fill:#ff9e9e;fill-opacity:1;stroke:none;stroke-width:0.264583px;stroke-linecap:butt;stroke-linejoin:miter;stroke-opacity:1"
         d="m 102.41246,161.64893 -9.129154,9.81486 7.485134,9.74757 -2.987944,-8.7332 z"
         id="path2874" />
      <path
         style="opacity:1;fill:none;stroke:#ff9e9e;stroke-width:0.465;stroke-linecap:butt;stroke-linejoin:miter;stroke-miterlimit:4;stroke-dasharray:none;stroke-opacity:1"
         d="m 74.563056,151.34019 -11.4663,-8.42628"
         id="path2876" />
      <path
         style="opacity:1;fill:#1a1a1a;stroke:#1f1f1f;stroke-width:0.264583px;stroke-linecap:butt;stroke-linejoin:miter;stroke-opacity:1"
         d="m 137.35879,153.82022 -7.35104,-19.63066 c 0,0 -3.91992,-5.32469 2.97535,-12.69009 6.89526,-7.3654 10.14909,-10.04143 12.09734,-10.3223 1.94825,-0.28087 5.49032,1.32403 5.49032,1.32403 l -0.0483,39.57286 c 0,0 -11.28462,6.2699 -13.16369,2.40838 z"
         id="path2878"
         sodipodi:nodetypes="ccsscccc" />
      <path
         style="opacity:1;fill:none;stroke:#000000;stroke-width:0.264583px;stroke-linecap:butt;stroke-linejoin:miter;stroke-opacity:1"
         d="m 67.007006,91.934846 c 0,0 0.36154,-1.198096 2.18466,-2.117426 1.82313,-0.919329 4.66825,0.09589 4.66825,0.09589"
         id="path2880" />
      <path
         style="opacity:1;fill:none;stroke:#000000;stroke-width:0.264583px;stroke-linecap:butt;stroke-linejoin:miter;stroke-opacity:1"
         d="m 80.270186,88.059762 c 0,0 1.33163,-2.19809 2.56145,-2.19809 1.22983,0 3.50916,0.527624 3.50916,0.527624"
         id="path2882" />
      <path
         style="opacity:1;fill:#f2f2f2;stroke:#000000;stroke-width:0.228884px;stroke-linecap:butt;stroke-linejoin:miter;stroke-opacity:1"
         d="m 74.305256,102.82363 11.40872,-3.676992 c 0,0 -1.47977,3.979112 -3.23059,4.763882 -2.50946,1.12481 -4.60491,1.12241 -8.17813,-1.08689 z"
         id="path2884"
         sodipodi:nodetypes="ccac" />
      <path
         style="opacity:1;fill:none;stroke:#000000;stroke-width:0.264583px;stroke-linecap:butt;stroke-linejoin:miter;stroke-opacity:1"
         d="m 73.859916,89.913308 -4.31981,1.053346 v 0"
         id="path2886" />
      <path
         style="opacity:1;fill:none;stroke:#000000;stroke-width:0.264583px;stroke-linecap:butt;stroke-linejoin:miter;stroke-opacity:1"
         d="m 80.270186,88.059762 3.2002,-1.020742"
         id="path2888" />
      <path
         style="opacity:1;fill:#1a1a1a;stroke:#000000;stroke-width:0.264583px;stroke-linecap:butt;stroke-linejoin:miter;stroke-opacity:1"
         d="m 73.888336,85.998822 c 0,0 -1.29031,0.808495 -3.84182,0.914765 -2.55151,0.106272 -3.35729,0.27319 -4.30501,1.371914 -0.94771,1.098728 -1.08951,0.991262 -1.08951,0.991262 0,0 0.99509,-2.658978 2.63809,-3.258365 1.64299,-0.599387 3.56263,-1.216731 4.72871,-1.100473 1.16608,0.116257 1.86954,1.080897 1.86954,1.080897 z"
         id="path2890" />
      <path
         style="opacity:1;fill:#1a1a1a;stroke:#000000;stroke-width:0.264583px;stroke-linecap:butt;stroke-linejoin:miter;stroke-opacity:1"
         d="m 83.709906,82.738327 c 0,0 -3.6267,2.42942 -3.92471,1.929434 -0.298,-0.499983 -0.61131,-1.327073 -0.19453,-1.500547 0.41677,-0.173477 2.06732,-2.049693 3.23437,-1.935509 1.16704,0.114183 1.13727,0.114183 1.13727,0.114183 z"
         id="path2892" />
      <path
         style="opacity:1;fill:none;stroke:#000000;stroke-width:0.264583px;stroke-linecap:butt;stroke-linejoin:miter;stroke-opacity:1"
         d="m 92.363796,89.543844 c 0,0 2.18016,0.828905 3.57883,0.159165 1.39868,-0.669737 3.17187,-1.445514 3.17187,-1.445514 l -3.45971,0.66235"
         id="path2894" />
      <path
         style="opacity:1;fill:none;stroke:#000000;stroke-width:0.264583px;stroke-linecap:butt;stroke-linejoin:miter;stroke-opacity:1"
         d="m 104.96992,87.242982 c 0,0 1.17218,-0.909076 1.88492,-0.858943 0.71273,0.05013 3.08541,0.284419 3.87159,-0.326168 0.78617,-0.610589 2.41812,-2.248622 2.41812,-2.248622 l -3.83449,1.21417"
         id="path2896" />
      <path
         style="opacity:1;fill:#1a1a1a;fill-opacity:1;stroke:#000000;stroke-width:0.264583px;stroke-linecap:butt;stroke-linejoin:miter;stroke-opacity:1"
         d="m 102.25301,84.064167 c 0,0 5.22163,-2.968392 7.11796,-3.525824 1.89634,-0.557435 4.1271,-0.622123 4.1271,-0.622123 0,0 -4.52868,2.049857 -5.59859,2.903299 -1.06991,0.85344 -4.1873,2.106348 -4.1873,2.106348 z"
         id="path2898" />
      <path
         style="opacity:1;fill:#1a1a1a;stroke:#000000;stroke-width:0.264583px;stroke-linecap:butt;stroke-linejoin:miter;stroke-opacity:1"
         d="m 96.560746,86.443157 -6.51324,0.08898 0.0977,-1.953008 c 0,0 4.10169,-0.475335 6.41559,1.864026 z"
         id="path2900" />
      <path
         style="opacity:1;fill:#ececec;stroke:#000000;stroke-width:0.264583px;stroke-linecap:butt;stroke-linejoin:miter;stroke-opacity:1"
         d="m 101.14266,100.02719 c 0,0 1.95283,0.56462 3.11996,0.33334 1.16713,-0.23128 6.39824,-1.965471 6.39824,-1.965471 0,0 -2.16074,3.580201 -4.49058,3.910331 -2.32983,0.33013 -5.02762,-2.2782 -5.02762,-2.2782 z"
         id="path2902" />
      <path
         style="fill:#ffd5b8;fill-opacity:1;stroke:#000000;stroke-width:0.264583px;stroke-linecap:butt;stroke-linejoin:miter;stroke-opacity:1"
         d="m 78.340556,97.459868 2.30929,-0.922423 -1.91717,-2.144244"
         id="path2904" />
      <path
         style="fill:#ffba8a;fill-opacity:1;stroke:#000000;stroke-width:0.264583px;stroke-linecap:butt;stroke-linejoin:miter;stroke-opacity:1"
         d="m 102.74996,94.322215 v 2.153235 l 2.01012,-0.246756 v 0"
         id="path2906" />
    </g>
  </g>
</svg>
