<?xml version="1.0" encoding="UTF-8" standalone="no"?>
<svg
   xmlns:dc="http://purl.org/dc/elements/1.1/"
   xmlns:cc="http://creativecommons.org/ns#"
   xmlns:rdf="http://www.w3.org/1999/02/22-rdf-syntax-ns#"
   xmlns:svg="http://www.w3.org/2000/svg"
   xmlns="http://www.w3.org/2000/svg"
   xmlns:sodipodi="http://sodipodi.sourceforge.net/DTD/sodipodi-0.dtd"
   xmlns:inkscape="http://www.inkscape.org/namespaces/inkscape"
   sodipodi:docname="blog-cover.svg"
   inkscape:version="1.0 (6e3e5246a0, 2020-05-07)"
   id="svg905"
   version="1.1"
   viewBox="0 0 297 210"
   height="210mm"
   width="297mm">
  <defs
     id="defs899">
    <inkscape:path-effect
       only_selected="false"
       apply_with_weight="true"
       apply_no_weight="true"
       helper_size="0"
       steps="2"
       weight="33.333333"
       lpeversion="1"
       is_visible="true"
       id="path-effect111"
       effect="bspline" />
    <inkscape:path-effect
       only_selected="false"
       apply_with_weight="true"
       apply_no_weight="true"
       helper_size="0"
       steps="2"
       weight="33.333333"
       lpeversion="1"
       is_visible="true"
       id="path-effect938"
       effect="bspline" />
    <inkscape:path-effect
       only_selected="false"
       apply_with_weight="true"
       apply_no_weight="true"
       helper_size="0"
       steps="2"
       weight="33.333333"
       lpeversion="1"
       is_visible="true"
       id="path-effect942"
       effect="bspline" />
    <inkscape:path-effect
       only_selected="false"
       apply_with_weight="true"
       apply_no_weight="true"
       helper_size="0"
       steps="2"
       weight="33.333333"
       lpeversion="1"
       is_visible="true"
       id="path-effect982"
       effect="bspline" />
    <inkscape:path-effect
       only_selected="false"
       apply_with_weight="true"
       apply_no_weight="true"
       helper_size="0"
       steps="2"
       weight="33.333333"
       lpeversion="1"
       is_visible="true"
       id="path-effect986"
       effect="bspline" />
    <inkscape:path-effect
       only_selected="false"
       apply_with_weight="true"
       apply_no_weight="true"
       helper_size="0"
       steps="2"
       weight="33.333333"
       lpeversion="1"
       is_visible="true"
       id="path-effect990"
       effect="bspline" />
    <inkscape:path-effect
       only_selected="false"
       apply_with_weight="true"
       apply_no_weight="true"
       helper_size="0"
       steps="2"
       weight="33.333333"
       lpeversion="1"
       is_visible="true"
       id="path-effect994"
       effect="bspline" />
    <inkscape:path-effect
       only_selected="false"
       apply_with_weight="true"
       apply_no_weight="true"
       helper_size="0"
       steps="2"
       weight="33.333333"
       lpeversion="1"
       is_visible="true"
       id="path-effect998"
       effect="bspline" />
    <filter
       height="1.0366894"
       y="-0.018344689"
       width="1.0172755"
       x="-0.0086376788"
       id="filter5603"
       style="color-interpolation-filters:sRGB"
       inkscape:collect="always">
      <feGaussianBlur
         id="feGaussianBlur5605"
         stdDeviation="0.85086583"
         inkscape:collect="always" />
    </filter>
    <rect
       id="rect1032"
       height="123.90017"
       width="233.88358"
       y="51.73399"
       x="53.456734" />
    <rect
       id="rect958"
       height="123.90017"
       width="233.88358"
       y="51.73399"
       x="53.456734" />
  </defs>
  <sodipodi:namedview
     inkscape:window-maximized="1"
     inkscape:window-y="0"
     inkscape:window-x="0"
     inkscape:window-height="813"
     inkscape:window-width="1600"
     showgrid="false"
     inkscape:document-rotation="0"
     inkscape:current-layer="layer1"
     inkscape:document-units="mm"
     inkscape:cy="473.10315"
     inkscape:cx="602.43056"
     inkscape:zoom="0.61069888"
     inkscape:pageshadow="2"
     inkscape:pageopacity="0.0"
     borderopacity="1.0"
     bordercolor="#666666"
     pagecolor="#ffffff"
     id="base" />
  <metadata
     id="metadata902">
    <rdf:RDF>
      <cc:Work
         rdf:about="">
        <dc:format>image/svg+xml</dc:format>
        <dc:type
           rdf:resource="http://purl.org/dc/dcmitype/StillImage" />
        <dc:title></dc:title>
      </cc:Work>
    </rdf:RDF>
  </metadata>
  <g
     id="layer1"
     inkscape:groupmode="layer"
     inkscape:label="Layer 1">
    <rect
       ry="0.055192612"
       y="-2.1304164"
       x="-3.7107201"
       height="217.028"
       width="303.66718"
       id="rect3037"
       style="fill:#ffffff;fill-opacity:0.66685045;stroke-width:0.465;paint-order:stroke fill markers" />
    <path
       inkscape:original-d="m 98.555598,45.320433 c -0.52293,0.181183 -1.046128,0.362085 -1.569606,0.542702 -0.352397,0.302362 -0.705057,0.604426 -1.058003,0.906215 -0.363196,0.02214 -0.726654,0.04402 -1.090388,0.06561 -0.135861,0.310694 -0.271978,0.62109 -0.408377,0.931212 -0.203383,0.09056 -0.454187,0.180845 -0.681691,0.270844 -0.126541,0.425744 -0.332083,0.802483 -0.498529,1.203296 -0.103776,0.145117 -0.207831,0.289946 -0.312152,0.434493 0.178246,0.322363 0.356226,0.644429 0.533936,0.966219 -0.08916,0.76722 -0.178611,1.534123 -0.26832,2.300763 2.7e-4,0.331265 2.7e-4,0.662237 0,0.992933 0.270719,0.26164 0.541156,0.522985 0.811315,0.784054 0.483449,0.516952 0.966609,1.033601 1.449499,1.549978 0.144416,0.373792 0.288548,0.747285 0.432415,1.120501 0.08813,0.516673 0.175962,1.03304 0.26353,1.549134 2.79e-4,0.111816 2.79e-4,0.30111 0,0.451242 0.20669,-0.651337 0.413093,-1.302933 0.619227,-1.954824 0.01883,-0.447763 0.03734,-0.895791 0.05564,-1.34411 0.444261,-0.862168 0.888226,-1.724586 1.331926,-2.587304 0.16956,-0.357672 0.338827,-0.715616 0.507826,-1.073849 -0.0162,-0.598859 -0.03281,-1.197974 -0.04953,-1.797385 0.02542,-0.579196 0.05064,-1.158651 0.07546,-1.738401 -0.02988,-0.497475 -0.06006,-0.995212 -0.09065,-1.493246 -0.01762,-0.693087 -0.03548,-1.386429 -0.05369,-2.080073 z"
       inkscape:path-effect="#path-effect111"
       id="path109"
       d="m 98.294075,45.410856 c -0.261523,0.09042 -0.784722,0.271323 -1.22273,0.512832 -0.438008,0.241508 -0.790667,0.543572 -1.148618,0.705545 -0.357951,0.161972 -0.72141,0.183842 -0.971363,0.350059 -0.249953,0.166218 -0.386074,0.476612 -0.557472,0.672814 -0.171398,0.196202 -0.418989,0.294573 -0.617216,0.543801 -0.198228,0.249227 -0.361557,0.643455 -0.496661,0.916375 -0.135104,0.272919 -0.239155,0.417751 -0.202077,0.651341 0.03708,0.23359 0.215054,0.555659 0.259217,1.100122 0.04416,0.544463 -0.04528,1.311367 -0.08998,1.860337 -0.04471,0.54897 -0.04471,0.879942 0.09066,1.176105 0.135364,0.296164 0.405798,0.557512 0.782597,0.946528 0.376798,0.389015 0.859956,0.905666 1.173541,1.350775 0.313584,0.445109 0.457719,0.818601 0.573673,1.263538 0.115954,0.444937 0.203795,0.961303 0.24769,1.275239 0.04389,0.313936 0.04389,0.50323 0.147072,0.252575 0.103179,-0.250656 0.309584,-0.902251 0.422084,-1.452032 0.112501,-0.54978 0.131047,-0.997807 0.362289,-1.653131 0.231243,-0.655324 0.675209,-1.517741 0.981836,-2.127931 0.306626,-0.61019 0.475898,-0.968132 0.552314,-1.446594 0.07642,-0.478463 0.05991,-1.07758 0.06422,-1.666893 0.0043,-0.589312 0.02947,-1.16877 0.02695,-1.707365 -0.0025,-0.538596 -0.03273,-1.03633 -0.0568,-1.631898 -0.02406,-0.595568 -0.04196,-1.288909 -0.05091,-1.635735 -0.009,-0.346826 -0.0088,-0.34683 -0.270313,-0.256407 z"
       style="opacity:0.155573;fill:#000000;stroke:#500000;stroke-width:0;stroke-linejoin:round;stroke-dashoffset:10" />
    <path
       inkscape:original-d="m 96.845125,43.431083 c -0.47413,0.1518 -0.948528,0.303317 -1.423206,0.454551 -0.331059,0.334945 -0.662391,0.66959 -0.993997,1.00396 -0.28037,0.297689 -0.560994,0.59508 -0.841901,0.892198 -0.332932,0.03153 -0.666111,0.06277 -0.999583,0.09375 -0.239965,0.02815 -0.480191,0.05605 -0.720694,0.08364 0.256142,-0.312385 0.512008,-0.625039 0.767601,-0.937984 0.121059,-0.296338 0.24183,-0.592944 0.362338,-0.889843 0.145087,-0.337068 0.289896,-0.674403 0.434445,-1.012027 0.06413,-0.533489 0.127935,-1.067239 0.191495,-1.601284 -0.284917,2.84e-4 -0.598841,2.84e-4 -0.898673,0 -0.07385,0.178079 -0.14789,0.355868 -0.222239,0.533379 -0.202324,0.178752 -0.404921,0.357214 -0.607798,0.535393 0.0512,0.233911 0.102194,0.46753 0.152815,0.700868 0.06072,0.169577 0.121059,0.338862 0.181165,0.507869 2.79e-4,0.130889 2.79e-4,0.261487 0,0.391806 -0.183731,-0.303215 -0.367737,-0.606704 -0.552005,-0.910479 -0.108844,-0.326763 -0.217947,-0.653798 -0.327339,-0.98112 0.114937,-0.230404 0.229593,-0.461083 0.34397,-0.692048 0.01686,-0.190044 0.03351,-0.380364 0.04985,-0.570971"
       inkscape:path-effect="#path-effect938"
       id="path936"
       d="m 96.845125,43.431083 c -0.474237,0.151464 -0.948636,0.30298 -1.351592,0.546098 -0.402957,0.243117 -0.734285,0.577766 -1.040275,0.8938 -0.30599,0.316034 -0.586615,0.613424 -0.893406,0.777732 -0.306791,0.164307 -0.63997,0.195556 -0.926691,0.225119 -0.286722,0.02956 -0.526951,0.05744 -0.519263,-0.08492 0.0077,-0.142362 0.263551,-0.455018 0.45186,-0.759604 0.18831,-0.304586 0.309085,-0.60119 0.441884,-0.918177 0.132799,-0.316986 0.27761,-0.65432 0.38195,-1.089826 0.10434,-0.435506 0.16817,-0.969253 0.05764,-1.236258 -0.110528,-0.267004 -0.424452,-0.267004 -0.611442,-0.178026 -0.186989,0.08898 -0.261062,0.266753 -0.399365,0.444804 -0.138303,0.17805 -0.3409,0.356513 -0.416702,0.562727 -0.0758,0.206215 -0.02486,0.439846 0.03083,0.641313 0.05569,0.201468 0.116072,0.370737 0.146205,0.520657 0.03013,0.149919 0.03013,0.280517 -0.06177,0.194092 -0.0919,-0.08643 -0.275904,-0.389918 -0.422504,-0.705181 -0.146601,-0.315264 -0.255711,-0.642296 -0.253024,-0.921271 0.0027,-0.278974 0.117343,-0.509653 0.182997,-0.720086 0.06565,-0.210432 0.08227,-0.400755 0.09891,-0.591336"
       style="opacity:0.155573;fill:#000000;stroke:#500000;stroke-width:0;stroke-linejoin:round;stroke-dashoffset:10" />
    <path
       sodipodi:nodetypes="ssssssscsssssssssscccscssssssssssssssssssssssssssssssssssss"
       d="m 80.589117,32.802519 c -0.403143,-2.83e-4 -0.824406,0.286364 -1.398268,0.509442 -0.573871,0.223081 -1.30067,0.382833 -2.13483,0.500041 -0.834164,0.117208 -1.775648,0.191669 -2.639942,0.228999 -0.864292,0.03733 -1.651279,0.03732 -2.204318,0.239513 -0.55303,0.202182 -0.871914,0.606791 -1.233104,1.062585 -0.361192,0.455792 -0.7648,0.963038 -1.328256,1.244568 -0.145067,0.07249 -0.300918,0.129483 -0.464489,0.175898 -0.04407,-0.277916 -0.170377,-0.40259 -0.359194,-0.408769 -0.716889,-0.02347 -2.304536,1.605042 -3.448647,2.557171 -1.591794,1.324706 -2.354712,1.371552 -2.822739,1.698147 -0.468026,0.326597 -0.640679,0.932734 -0.726933,1.537732 -0.08626,0.605002 -0.08616,1.208907 -0.393399,1.76895 -0.307259,0.560042 -0.922194,1.07669 -0.979755,1.940972 -0.05761,0.864279 0.441869,2.075875 0.577812,3.05113 0.135934,0.975257 -0.137578,1.864012 -0.118132,3.293405 0.01945,1.429394 0.315017,4.475023 0.329787,6.842911 0.01479,2.367891 0.308907,2.745209 0.568347,1.844999 0.154273,-0.535296 -0.01541,-1.087314 0.632167,-3.227299 l -0.219153,0.87175 c 0.124077,-0.461715 0.24976,-0.92189 0.374688,-1.382853 0.420012,-1.365447 0.950028,-3.005322 1.62545,-4.937339 0.153559,-0.439268 0.321378,-0.905151 0.48586,-1.365156 0.237153,-0.390569 0.43199,-1.903871 0.764614,-2.206133 1.073921,-0.97592 2.807513,-0.258019 3.892026,-0.815678 1.084523,-0.557654 2.144563,-2.685578 2.397654,-2.749125 0.253104,-0.06355 0.136109,1.855554 1.039695,1.426779 0,0 0.360283,0.49732 1.579464,0.278896 1.219195,-0.218424 3.343186,-0.924908 4.681423,-0.754716 1.338245,0.170194 1.725472,1.309974 3.037589,1.926519 1.312121,0.616549 3.526493,1.540828 4.968792,1.961381 1.442303,0.42055 2.493375,-1.005594 3.039971,-0.556032 0.546596,0.449566 -0.209175,2.800613 0.142943,3.775905 0.352122,0.97529 1.037267,2.099771 1.513197,2.839273 0.475929,0.739503 0.902427,1.311362 1.16363,2.080365 0.2612,0.769001 0.432052,1.835855 0.363992,3.296723 -0.06806,1.460868 -0.375049,3.316121 -0.166766,3.6275 0.208295,0.311379 0.931702,-0.92116 1.571458,-1.945397 0.639759,-1.024238 1.196181,-1.840286 1.516941,-2.790046 0.320746,-0.949761 0.405811,-2.033528 0.567644,-3.059426 0.161831,-1.025897 0.400205,-1.994058 0.73869,-2.704309 0.338479,-0.710246 0.77714,-1.162222 0.991516,-1.746817 0.214381,-0.584599 0.204526,-1.30164 0.181738,-1.882343 -0.02279,-0.5807 -0.05854,-1.025228 -0.07647,-1.713078 -0.01793,-0.687848 -0.01772,-1.619186 -0.01975,-2.295535 -0.002,-0.676353 -0.0061,-1.098581 -0.214343,-1.532757 -0.207644,-0.434174 -0.619021,-0.881004 -0.883005,-1.220232 -0.263982,-0.339224 -0.380419,-0.571146 -0.627513,-1.260056 -0.247091,-0.688908 -0.624623,-1.834533 -0.9712,-2.59866 -0.346575,-0.764128 -0.724452,-1.221413 -1.434625,-1.820943 -0.710167,-0.599528 -1.783612,-1.378581 -2.835565,-2.00182 -1.051952,-0.623237 -2.082244,-1.090436 -2.747913,-1.555433 -0.665659,-0.464999 -0.96635,-0.928314 -1.630251,-1.320349 -0.6639,-0.392037 -1.691028,-0.712716 -2.05892,-0.564204 -0.367906,0.14851 -0.07644,0.766449 -0.874462,1.130621 -0.798031,0.364169 -2.685491,0.474726 -3.294179,0.311972 -0.608686,-0.162754 0.06144,-0.599258 0.204181,-0.960808 0.14279,-0.361547 -0.242007,-0.648455 -0.645148,-0.648834 z"
       style="opacity:1;fill:#000000;stroke:#500000;stroke-width:0;stroke-linejoin:round;stroke-dashoffset:10"
       id="path99" />
    <path
       inkscape:original-d="m 61.292693,58.117045 c -0.275597,-0.162574 -0.551467,-0.32543 -0.827603,-0.488569 -0.04613,0.469739 -0.09247,0.939175 -0.139191,1.408341 -0.09029,0.571546 -0.180897,1.142786 -0.271761,1.713757 0.0962,0.300399 0.192148,0.600503 0.287804,0.90033 2.78e-4,0.319224 2.78e-4,0.63815 0,0.956803 2.78e-4,0.369073 2.78e-4,0.737851 0,1.10635 -0.09206,0.15581 -0.184434,0.311334 -0.277057,0.466575 0.117467,0.508417 0.234669,1.016531 0.351591,1.524372 0.03217,0.221115 0.06402,0.441938 0.09567,0.662481 0.03992,0.234324 0.07943,0.468356 0.118784,0.702107 0.296636,0.445393 0.687366,0.890486 1.030645,1.335305 0.08358,-0.27197 0.166929,-0.544216 0.249987,-0.816747 -0.07509,1.249731 -0.15038,2.49913 -0.225991,3.748269 0.428866,1.004041 0.857443,2.007757 1.285762,3.011209 0.595314,0.93865 1.190326,1.876978 1.785081,2.815041 1.030283,0.947997 2.060255,1.895673 3.089968,2.843084 1.870922,0.817526 3.741491,1.634737 5.611819,2.451681 1.468634,0.082 2.93693,0.163717 4.404985,0.245151 0.853496,-0.277358 1.706678,-0.597031 2.559601,-0.895973 1.255139,-0.416189 2.509967,-0.832646 3.764536,-1.249393 0.513538,-0.614704 1.026786,-1.229669 1.539776,-1.844927 0.938754,-1.06276 1.877197,-2.125759 2.815385,-3.189063 0.330976,-0.812881 0.661673,-1.626014 0.992094,-2.439445 0.166537,-0.452203 0.332797,-0.904673 0.498789,-1.357434 0.02069,0.556863 0.150817,1.113418 0.225814,1.669704 0.528888,0.0049 1.057478,0.0094 1.585807,0.0138 0.234297,-0.232104 0.468317,-0.464482 0.702055,-0.697149 0.2295,-0.515371 0.458718,-1.031008 0.68766,-1.546938 0.379683,-0.773477 0.75908,-1.603591 1.138205,-2.405812 0.24948,-0.704097 0.498685,-1.408444 0.74761,-2.113092 0.182352,-0.77098 0.364417,-1.599043 0.546223,-2.398987 -0.02151,-0.535093 -0.04334,-1.070452 -0.06547,-1.6061 -0.164472,-0.07002 -0.329212,-0.140305 -0.494218,-0.21088 -0.231382,0.337661 -0.463023,0.675025 -0.69494,1.01211 -0.162527,0.249418 -0.370944,0.545754 -0.556836,0.818206 -0.0964,0.2581 -0.193081,0.538611 -0.290029,0.807491 -0.172795,-0.03088 -0.345871,-0.06205 -0.519217,-0.0935 0.08575,-1.258794 0.171276,-2.517819 0.256506,-3.777154 -0.05989,-0.916144 -0.120056,-1.832539 -0.180493,-2.749234 -0.249201,-0.628459 -0.498663,-1.257176 -0.748402,-1.886186 -0.563053,-0.814305 -1.126353,-1.628857 -1.689943,-2.44371 -0.170118,-0.362618 -0.340496,-0.725503 -0.511148,-1.088681 -0.0513,-0.448506 -0.102814,-0.897275 -0.154655,-1.346339 0.05275,-0.459424 0.105275,-0.91911 0.157499,-1.379089 0.08761,-0.227855 0.174904,-0.455982 0.261944,-0.684399 -0.204362,-0.208668 -0.438279,-0.347732 -0.657839,-0.522023 -0.246698,0.197773 -0.493668,0.395254 -0.740904,0.592457 -0.707136,2.84e-4 -1.41451,2.84e-4 -2.122171,0 -1.290026,-0.524242 -2.580281,-1.048743 -3.870821,-1.573542 -0.719755,-0.527412 -1.439749,-1.055088 -2.160038,-1.583057 -0.621844,-0.241839 -1.243937,-0.483957 -1.866319,-0.726361 -0.689779,0.03153 -1.379804,0.06277 -2.070121,0.09375 -0.861109,0.274927 -1.722462,0.54956 -2.584106,0.823915 -0.519385,-0.07318 -1.039026,-0.146633 -1.558945,-0.220376 -0.330056,-0.472156 -0.990967,-1.417289 -0.990967,-1.417289 0,0 -0.92628,1.304742 -0.92628,1.304742 0,0 -0.99168,0.921818 -1.487934,1.3823 -0.406518,0.227398 -0.813291,0.454503 -1.220343,0.681328 -0.581194,-0.09461 -1.162648,-0.189498 -1.744391,-0.284673 -0.399697,0.182774 -0.799657,0.365256 -1.199893,0.547462 -0.02514,0.288116 -0.05048,0.575938 -0.07612,0.863483 -0.149087,0.422557 -0.298447,0.844818 -0.448084,1.266804 -0.314769,0.896423 -0.629809,1.830133 -0.945126,2.744773 -0.282065,0.780704 -0.564396,1.561094 -0.846999,2.341217 -0.157176,0.507948 -0.316207,1.15202 -0.47473,1.727608 -0.167385,1.004212 -0.335042,2.008101 -0.502977,3.011726 -0.229187,0.193589 -0.458625,0.386887 -0.688353,0.579907 0.01324,-1.045569 0.02617,-2.091385 0.03879,-3.137503 z"
       inkscape:path-effect="#path-effect942"
       id="path940"
       d="m 61.154921,58.035713 c -0.137771,-0.08133 -0.413641,-0.24419 -0.574947,-0.09086 -0.161307,0.153332 -0.207702,0.622763 -0.276201,1.143109 -0.0685,0.520347 -0.159085,1.09159 -0.156338,1.527325 0.0027,0.435735 0.09868,0.735844 0.146594,1.045342 0.04791,0.309498 0.04791,0.628424 0.04791,0.972287 0,0.343863 0,0.712641 -0.0462,0.974694 -0.0462,0.262053 -0.138558,0.417587 -0.126069,0.749535 0.01249,0.331947 0.129683,0.840063 0.204212,1.204535 0.07453,0.364472 0.106417,0.585289 0.142165,0.812731 0.03575,0.227442 0.07534,0.461461 0.258198,0.789617 0.182858,0.328156 0.544017,0.796074 0.757309,0.882439 0.213291,0.08637 0.296621,-0.185887 0.30064,0.302755 0.004,0.488642 -0.07131,1.738039 0.105402,2.864665 0.176713,1.126626 0.605292,2.130341 1.117137,3.101387 0.511844,0.971046 1.106858,1.909373 1.919418,2.852373 0.81256,0.943001 1.842531,1.890678 3.29287,2.773087 1.45034,0.882409 3.320909,1.699619 4.990368,2.149027 1.669459,0.449407 3.137755,0.531122 4.295186,0.42376 1.157431,-0.107362 2.017168,-0.408308 3.071203,-0.765871 1.054035,-0.357564 2.308862,-0.774022 3.192822,-1.289704 0.883961,-0.515681 1.39721,-1.130645 2.123083,-1.96966 0.725874,-0.839014 1.664317,-1.902014 2.29888,-2.840044 0.634563,-0.93803 0.965256,-1.751165 1.213738,-2.383974 0.248482,-0.632809 0.414742,-1.085279 0.535068,-1.036795 0.120326,0.04848 0.196581,0.612325 0.498641,0.892754 0.30206,0.280429 0.830649,0.285028 1.211822,0.171135 0.381173,-0.113893 0.61519,-0.346274 0.846781,-0.720226 0.231592,-0.373952 0.460808,-0.88959 0.759674,-1.536875 0.298865,-0.647286 0.689158,-1.472245 1.003464,-2.225383 0.314305,-0.753138 0.563503,-1.457487 0.776074,-2.195978 0.21257,-0.738492 0.400792,-1.565153 0.480947,-2.232629 0.08016,-0.667477 0.05833,-1.202836 -0.03479,-1.505743 -0.09313,-0.302908 -0.257861,-0.3732 -0.456244,-0.239694 -0.198382,0.133505 -0.430024,0.470869 -0.629553,0.762551 -0.19953,0.291682 -0.403338,0.591154 -0.542685,0.857128 -0.139347,0.265974 -0.239634,0.54519 -0.374319,0.664135 -0.134686,0.118945 -0.307762,0.08778 -0.351713,-0.55724 -0.04395,-0.645018 0.04155,-1.904045 0.05424,-2.991766 0.01269,-1.087721 -0.04748,-2.004116 -0.202237,-2.776674 -0.154762,-0.772558 -0.404224,-1.401275 -0.810578,-2.122942 -0.406353,-0.721666 -0.969654,-1.536218 -1.336536,-2.124946 -0.366883,-0.588728 -0.537261,-0.951613 -0.64829,-1.357468 -0.111029,-0.405856 -0.162579,-0.854621 -0.162137,-1.308895 4.42e-4,-0.454275 0.05294,-0.913964 0.122835,-1.25793 0.06989,-0.343967 0.157204,-0.572088 0.08739,-0.776301 -0.06981,-0.204212 -0.28106,-0.371845 -0.514327,-0.360239 -0.233266,0.01161 -0.480233,0.209091 -0.957298,0.307844 -0.477065,0.09875 -1.184439,0.09875 -2.183253,-0.163442 -0.998813,-0.262194 -2.289066,-0.7867 -3.294224,-1.312757 -1.005159,-0.526057 -1.725154,-1.053731 -2.39621,-1.438686 -0.671055,-0.384956 -1.293149,-0.627071 -1.949266,-0.732577 -0.656117,-0.105506 -1.346142,-0.07426 -2.121902,0.07867 -0.775761,0.152926 -1.637113,0.427559 -2.327557,0.528197 -0.690445,0.100637 -1.210085,0.02718 -1.635115,-0.245632 -0.425029,-0.272811 -0.755568,-0.745549 -1.08589,-1.217979 0,0 -0.92628,1.304742 -0.92628,1.304742 -0.495978,0.460767 -0.99195,0.921528 -1.443294,1.265447 -0.451343,0.343919 -0.858116,0.571024 -1.352128,0.637182 -0.494011,0.06616 -1.075465,-0.02873 -1.566281,0.01501 -0.490816,0.04375 -0.890775,0.226232 -1.103515,0.461549 -0.21274,0.235317 -0.238112,0.523136 -0.325499,0.878141 -0.08739,0.355005 -0.236745,0.777266 -0.466055,1.437468 -0.229311,0.660202 -0.550135,1.59192 -0.848826,2.439589 -0.29869,0.84767 -0.581018,1.628061 -0.792562,2.274404 -0.211545,0.646343 -0.387269,1.285828 -0.550215,2.075747 -0.162946,0.789919 -0.330602,1.793808 -0.529131,2.392293 -0.198529,0.598484 -0.42797,0.791778 -0.536244,0.365653 -0.108273,-0.426126 -0.09534,-1.471942 -0.08888,-1.994999 0.0065,-0.523057 0.0065,-0.523071 -0.13128,-0.604403 z"
       style="opacity:1;fill:#ffb380;fill-opacity:1;stroke:#500000;stroke-width:0;stroke-linejoin:round;stroke-dashoffset:10" />
    <path
       sodipodi:nodetypes="scccccccccss"
       inkscape:original-d="m 82.241885,54.425938 c -0.239283,0.322127 -0.478837,0.643968 -0.718669,0.965527 0.156899,0.297685 0.311792,0.591822 0.467285,0.887316 0.265378,0.22623 0.530481,0.452168 0.795321,0.677829 0.377936,-0.09737 0.755585,-0.194998 1.132982,-0.292926 1.105355,0.03413 2.2104,0.06797 3.315187,0.10153 0.81448,0.702343 1.628657,1.404375 2.442568,2.106136 0.01552,0.02334 0.01221,0.06913 0.01221,0.06913 l -1.337338,-2.615815 -0.889964,-0.707492 c 0,0 -3.565715,-0.716245 -5.348985,-1.074792 0.04344,-0.03854 0.08658,-0.07735 0.129459,-0.116445 z"
       inkscape:path-effect="#path-effect982"
       id="path980"
       d="m 82.122087,54.586885 c -0.119797,0.160948 -0.359352,0.482788 -0.400713,0.792553 -0.04136,0.309766 0.113538,0.603899 0.324035,0.86472 0.210498,0.260821 0.4756,0.486759 0.796933,0.55076 0.321333,0.064 0.698979,-0.03364 1.440402,-0.06551 0.741423,-0.03187 1.846468,0.002 2.806109,0.370047 0.959641,0.368075 1.773817,1.070109 2.182995,1.433648 0.409178,0.363539 0.412851,0.384334 0.416921,0.407377 0,0 -1.337338,-2.615815 -1.337338,-2.615815 0,0 -0.889964,-0.707492 -0.889964,-0.707492 -1.782995,-0.358264 -3.565671,-0.716464 -4.435741,-0.915045 -0.870069,-0.198582 -0.826926,-0.237388 -0.805355,-0.25679 0.02157,-0.0194 0.02151,-0.0194 -0.09828,0.141547 z"
       style="opacity:0.49299;fill:#1a1a1a;stroke:#500000;stroke-width:0;stroke-linejoin:round;stroke-dashoffset:10" />
    <path
       sodipodi:nodetypes="cccccccccccccc"
       inkscape:original-d="m 74.837892,53.793899 c -0.302494,0.685617 -0.605264,1.370937 -0.908316,2.056 -0.910329,-0.416152 -1.820897,-0.83257 -2.731757,-1.249278 -0.343441,-0.228827 -0.687139,-0.457931 -1.03112,-0.687318 -0.256514,-0.102364 -0.5133,-0.156178 -0.770353,-0.234695 -0.560456,0.04176 -1.12116,0.08324 -1.682154,0.124446 -0.220376,-0.01153 -0.441022,-0.02334 -0.661944,-0.03542 -0.5904,0.425787 -1.181038,0.851268 -1.771986,1.276485 0.18705,-0.322477 0.373807,-0.645222 0.560321,-0.968269 0.10271,-0.187722 0.205203,-0.375716 0.307396,-0.564002 0.542458,-0.383565 1.130404,-0.799819 1.693766,-1.199135 0.177649,0.02715 0.35537,0.05385 0.533046,0.08078 1.365854,0.206927 2.731437,0.413677 4.096836,0.620107 0.789077,0.260402 1.577788,0.520492 2.366265,0.780313 z"
       inkscape:path-effect="#path-effect986"
       id="path984"
       d="m 74.686476,54.136633 c -0.151415,0.342734 -0.454182,1.028055 -1.060676,1.16252 -0.606494,0.134464 -1.517062,-0.281953 -2.144218,-0.604692 -0.627157,-0.322738 -0.970857,-0.551839 -1.274502,-0.706601 -0.303646,-0.154763 -0.553624,-0.230921 -0.962418,-0.249354 -0.408794,-0.01843 -0.969498,0.02305 -1.360165,0.0379 -0.390667,0.01485 -0.611313,0.003 -1.017095,0.209872 -0.405782,0.206825 -0.996422,0.632303 -1.19842,0.683738 -0.201998,0.05143 -0.01523,-0.271306 0.129386,-0.526682 0.144619,-0.255375 0.247088,-0.443382 0.569466,-0.729377 0.322377,-0.285995 0.910326,-0.702245 1.28096,-0.888282 0.370634,-0.186037 0.54832,-0.15911 1.3201,-0.04228 0.771779,0.116834 2.13737,0.323533 3.214618,0.55698 1.077249,0.233447 1.86596,0.493537 2.26017,0.623534 0.39421,0.129997 0.39421,0.129983 0.242794,0.472717 z"
       style="opacity:0.49299;fill:#1a1a1a;stroke:#500000;stroke-width:0;stroke-linejoin:round;stroke-dashoffset:10" />
    <path
       inkscape:original-d="m 64.046989,75.927331 c -0.22055,1.450684 -0.441372,2.901087 -0.66247,4.351205 -0.226894,0.622348 -0.454056,1.244387 -0.681495,1.866154 -0.438445,0.144966 -0.877161,0.289642 -1.316154,0.43404 0.841373,0.872264 1.682433,1.744215 2.523237,2.615899 1.234769,1.032385 2.469221,2.064447 3.703424,3.096245 1.212088,0.711584 2.423854,1.422857 3.635374,2.13386 1.54263,0.769384 3.084913,1.538453 4.626965,2.307257 1.940043,0.164784 3.948005,0.25861 5.921602,0.38749 0.803389,-0.242505 1.606471,-0.485283 2.409293,-0.728351 0.03579,-0.244316 0.07137,-0.488909 0.10669,-0.733789 -0.319309,-0.04724 -0.717384,-0.09476 -1.076486,-0.142568 -0.124026,-0.272445 -0.248332,-0.545158 -0.37291,-0.818159 -0.06485,-0.346894 -0.129902,-0.694056 -0.195263,-1.041509 -0.0052,-0.598539 -0.01107,-1.197338 -0.01707,-1.796432 0.192584,-0.515061 0.384889,-1.030391 0.576912,-1.546011 0.08741,-0.41417 0.174597,-0.828605 0.261482,-1.243333 0.20881,-0.757268 0.417334,-1.514791 0.625599,-2.272612 0.280831,-0.644718 0.561376,-1.346165 0.84166,-2.019671 0.09216,-0.331644 0.183968,-0.663558 0.275538,-0.995759 -1.199304,0.756119 -2.398836,1.511925 -3.598668,2.267462 -1.232673,0.245158 -2.46557,0.490023 -3.698769,0.734606 -1.010486,-0.05246 -2.021219,-0.105208 -3.032242,-0.158242 C 73.99475,82.223959 73.086014,81.822537 72.176994,81.420825 71.338252,81.154942 70.49926,80.888788 69.659987,80.622343 68.765917,80.267822 67.871596,79.91303 66.976999,79.557949 66.617557,78.96998 66.257844,78.381751 65.897854,77.793227 65.281151,77.171534 64.664199,76.54958 64.046958,75.927331 Z"
       inkscape:path-effect="#path-effect990"
       id="path988"
       d="m 63.936559,76.652649 c -0.110429,0.725319 -0.331253,2.175722 -0.555261,3.211917 -0.224008,1.036196 -0.451168,1.658235 -0.784,2.041493 -0.332831,0.383258 -0.771546,0.527937 -0.570302,1.036438 0.201243,0.5085 1.042306,1.380449 2.080107,2.332466 1.037801,0.952017 2.272253,1.98408 3.495411,2.855742 1.223159,0.871661 2.434925,1.582933 3.812002,2.323115 1.377077,0.740182 2.919361,1.509249 4.661611,1.957266 1.742251,0.448016 3.747765,0.57925 5.136199,0.522402 1.388433,-0.05685 2.191515,-0.299627 2.610741,-0.543169 0.419226,-0.243543 0.454789,-0.488139 0.312612,-0.631745 -0.142177,-0.143607 -0.539576,-0.196238 -0.781219,-0.356213 -0.241643,-0.159976 -0.365944,-0.432691 -0.460687,-0.742649 -0.09474,-0.309958 -0.159829,-0.657114 -0.195247,-1.130128 -0.03542,-0.473013 -0.04111,-1.071814 0.05217,-1.628956 0.09328,-0.557141 0.28558,-1.072473 0.425319,-1.537335 0.139739,-0.464863 0.226899,-0.879304 0.374744,-1.465313 0.147845,-0.586009 0.356373,-1.343531 0.595903,-2.046914 0.23953,-0.703384 0.530103,-1.400651 0.716309,-1.903208 0.186205,-0.502556 0.278047,-0.834461 -0.275758,-0.62262 -0.553806,0.211841 -1.753338,0.967646 -2.96952,1.467995 -1.216182,0.500348 -2.449079,0.745211 -3.570882,0.8413 -1.121803,0.09609 -2.132536,0.04334 -3.092269,-0.183683 -0.959733,-0.227025 -1.868468,-0.628449 -2.742351,-0.962267 -0.873883,-0.333818 -1.712874,-0.599975 -2.579544,-0.910443 -0.86667,-0.310468 -1.76099,-0.665263 -2.388079,-1.136688 -0.627089,-0.471424 -0.986798,-1.059656 -1.475106,-1.664789 -0.488307,-0.605133 -1.10526,-1.227086 -1.413882,-1.538209 -0.308622,-0.311123 -0.308591,-0.311123 -0.419021,0.414195 z"
       style="opacity:1;fill:#ffb380;stroke:#500000;stroke-width:0;stroke-linejoin:round;stroke-dashoffset:10" />
    <path
       inkscape:original-d="m 62.021964,82.276883 c -1.109151,0.309549 -3.328271,0.927795 -3.328271,0.927795 0,0 -14.071021,-2.44965 -14.071021,-2.44965 0,0 -9.618223,-0.29071 -9.618223,-0.29071 0,0 -3.20448,3.549148 -4.807124,5.323299 -0.831461,0.899707 -1.771325,1.799095 -2.657398,2.698216 -0.534659,0.690649 -1.069567,1.380984 -1.604766,2.071052 -1.329921,1.727747 -2.660062,3.455142 -3.990502,5.182291 -1.204897,1.92817 -2.410019,3.855981 -3.615438,5.783544 -0.655152,1.27557 -1.31055,2.55079 -1.966235,3.82576 -1.045319,0.93469 -2.090869,1.86905 -3.136715,2.80315 -0.223699,0.55567 -0.447665,1.11102 -0.671908,1.6661 1.691441,1.15578 3.382541,2.31125 5.0734,3.46645 1.66667,1.53822 3.332998,3.0761 4.999088,4.61372 2.056164,1.22907 4.111972,2.45781 6.167532,3.68628 0.684276,-0.26704 1.36824,-0.53437 2.051948,-0.80199 -0.856368,0.55911 -1.712987,1.11792 -2.569893,1.67645 -0.49855,4.28538 -1.496451,12.85502 -1.496451,12.85502 0,0 2.762178,1.16337 4.142865,1.74462 1.767684,0.54662 3.535012,1.09295 5.302116,1.63899 1.33202,-0.0299 2.663708,-0.0601 3.99516,-0.0906 1.043501,-0.7757 2.086693,-1.55164 3.129636,-2.32789 0.723819,-0.66873 1.474591,-1.38202 2.211485,-2.07346 0.468679,-0.0123 0.937067,-0.0249 1.405191,-0.0379 0.670341,-0.45142 1.3586,-0.92194 2.037489,-1.38333 0.614427,-0.33809 1.263826,-0.69469 1.895317,-1.04246 0.615359,-0.28729 1.230429,-0.57484 1.845229,-0.86269 0.253993,-0.61501 0.507704,-1.23028 0.761149,-1.84583 0.166092,-0.49207 0.331908,-0.98443 0.497444,-1.47705 0.272505,-0.25622 0.544723,-0.5127 0.816669,-0.76948 0.397216,0.0236 0.794156,0.0468 1.190823,0.0698 0.07086,0.17967 0.141467,0.35903 0.211793,0.53813 0.101779,0.43679 0.23081,0.90172 0.345798,1.35215 0.09785,0.53806 0.195408,1.07583 0.292696,1.61331 -0.170561,0.93721 -0.354353,1.87412 -0.53195,2.81074 -0.03713,0.17915 -0.07447,0.35802 -0.112161,0.5366 -0.693359,0.652 -1.386954,1.30368 -2.080841,1.95511 -0.476416,-0.0302 -0.98081,-0.0607 -1.471613,-0.0915 -0.487844,0.0946 -0.975928,0.18901 -1.4643,0.28308 -0.396833,0.50526 -0.793928,1.01021 -1.191309,1.5149 0.01986,0.0354 0.07602,0.13624 0.07602,0.13624 0,0 1.19344,0.50921 1.789746,0.76339 1.040585,0.51217 2.080869,1.02405 3.120895,1.53565 0.467241,0.27862 0.934181,0.55695 1.400864,0.83502 1.490513,0.17109 3.008175,0.37035 4.511842,0.55509 1.270302,0.2131 2.565953,0.4259 3.848512,0.63843 0.626002,0.0756 1.251704,0.15098 1.877147,0.22605 0.670962,0.0341 1.341638,0.12389 2.012045,0.1854 0.949086,0.35886 1.897862,0.71742 2.846393,1.07571 0.608698,0.27197 1.217085,0.54366 1.825221,0.81506 0.06993,0.37097 0.193153,0.74164 0.289316,1.11203 0.01334,0.24938 0.02648,0.49846 0.03931,0.74725 -0.07334,0.17603 -0.146897,0.37811 -0.220749,0.56675 -0.141778,0.1451 -0.355005,0.32254 -0.532922,0.48338 -0.142046,0.0314 -0.368595,0.14993 -0.553309,0.22448 -0.353224,-0.11264 -0.706722,-0.22555 -1.060485,-0.33876 -0.476674,-0.1435 -0.953596,-0.28729 -1.430808,-0.43137 -0.360241,-0.0438 -0.720737,-0.0878 -1.081513,-0.13211 -0.475299,-0.0435 -0.950849,-0.0874 -1.426684,-0.1314 -0.476116,-0.0789 -1.006679,-0.15804 -1.510433,-0.23749 -0.481441,-0.0954 -0.963142,-0.19124 -1.445122,-0.28728 -0.520035,2.7e-4 -1.040316,2.7e-4 -1.560878,0 -0.420698,2.7e-4 -0.841642,2.7e-4 -1.262875,0 -0.861739,-0.14973 -1.723724,-0.29975 -2.585998,-0.45003 -0.749399,0.0107 -1.499046,0.0209 -2.24897,0.0309 1.613297,0.13772 3.226263,0.27517 4.838992,0.41232 0.153279,0.32892 0.306287,0.65755 0.459028,0.98589 -0.0062,0.37972 -0.01375,0.75912 -0.021,1.13824 -0.253732,0.31348 -0.507725,0.62666 -0.761998,0.93956 -0.09568,0.20418 -0.213992,0.40808 -0.321398,0.6117 -0.173429,2.7e-4 -0.347123,2.7e-4 -0.521089,0 -0.425578,2.7e-4 -0.851424,2.7e-4 -1.277552,0 -0.783686,0.0846 -1.567611,0.16895 -2.351823,0.253 -0.100644,0.16168 -0.201656,0.32308 -0.302887,0.48418 0.552264,-0.11386 1.104218,-0.228 1.655923,-0.34244 0.469175,2.9e-4 0.938071,2.9e-4 1.4067,0 0.276115,0.37747 0.551943,0.75465 0.8275,1.13156 0.168112,0.17843 0.335931,0.4134 0.503484,0.61968 -0.201735,0.52778 -0.437079,1.02075 -0.656029,1.5307 -0.351229,0.39283 -0.702706,0.78537 -1.054476,1.17762 -0.423622,0.0471 -0.847493,0.094 -1.271643,0.14055 -0.579778,-0.0175 -1.159813,-0.0353 -1.740129,-0.0534 -0.39647,-0.15899 -0.793193,-0.31824 -1.190202,-0.47777 -0.547847,2.7e-4 -1.095963,2.7e-4 -1.644358,0 -0.301322,0.13549 -0.602916,0.27069 -0.904775,0.40563 0.972503,0.0142 2.026545,0.0281 3.039408,0.0418 0.241768,0.31139 0.483243,0.62249 0.724452,0.9333 0.05886,0.44202 0.171967,0.94017 0.257537,1.40982 -0.364199,0.28989 -0.728657,0.57947 -1.093397,0.86879 -0.499699,0.19936 -0.999646,0.39844 -1.499872,0.59724 -0.696813,0.0524 -1.393872,0.10458 -2.091212,0.15636 -1.451422,-0.24168 -2.903075,-0.48365 -4.355015,-0.72589 -0.70513,-0.11114 -1.410498,-0.22255 -2.116151,-0.33426 -1.521151,-0.61211 -3.042495,-1.22446 -4.564159,-1.83712 -0.417356,-0.32623 -0.834958,-0.65275 -1.252864,-0.97956 -2.088461,-1.26854 -4.177118,-2.53734 -6.266086,-3.80642 -0.850165,-0.0358 -1.700565,-0.0717 -2.551268,-0.10802 -2.167206,-0.28464 -6.502317,-0.85477 -6.502317,-0.85477 0,0 0.180499,0.69697 0.270338,1.04504 -0.07595,0.86799 -0.209308,1.69833 -0.314372,2.54708 -0.04342,1.46355 -0.08711,2.92676 -0.131075,4.3897 -0.691774,3.71832 -2.076104,11.15388 -2.076104,11.15388 0,0 64.908227,4.86489 64.908227,4.86489 0,0 0.09795,-3.96734 0.146577,-5.95143 0.371068,-0.9319 0.741845,-1.86404 1.112369,-2.79648 -0.08513,-1.21519 -0.170544,-2.43064 -0.256218,-3.64638 -0.0783,-0.67816 -0.156797,-1.63749 -0.235602,-2.45666 -0.336211,-1.18862 -0.67269,-2.37749 -1.009441,-3.56665 0.232861,-2.47065 0.46542,-4.94147 0.697723,-7.41262 0.473033,-2.15827 0.945776,-4.31677 1.418251,-6.47558 0.383442,-1.60168 0.766601,-3.20359 1.149491,-4.80582 1.383283,-1.8992 2.766242,-3.79861 4.148957,-5.69834 0.451353,-10.61137 1.353222,-31.834322 1.353222,-31.834322 0,0 -3.94755,-1.917259 -5.921726,-2.876312 -0.824573,-0.820063 -1.805354,-1.640373 -2.708443,-2.460983 -0.97056,-0.524861 -1.941358,-1.049983 -2.912448,-1.575404 -1.866046,0.339531 -3.732282,0.67876 -5.598834,1.017716 -3.055022,-1.210986 -6.110204,-2.422158 -9.165732,-3.633638 -0.818904,-0.703688 -1.63806,-1.407628 -2.457501,-2.111868 -1.507195,-1.68261 -3.014609,-3.365436 -4.522321,-5.04858 z"
       inkscape:path-effect="#path-effect994"
       id="path992"
       d="m 61.467342,82.43149 c -0.554622,0.154608 -1.664225,0.463923 -2.773649,0.773188 0,0 -14.071021,-2.44965 -14.071021,-2.44965 0,0 -9.618223,-0.29071 -9.618223,-0.29071 -1.602375,1.774433 -3.204769,3.548887 -4.435544,4.872289 -1.230775,1.323402 -2.143186,2.249828 -2.853566,3.044732 -0.71038,0.794904 -1.245289,1.485238 -2.177848,2.694147 -0.932559,1.208909 -2.262699,2.936304 -3.530376,4.763981 -1.267677,1.827677 -2.472799,3.755487 -3.40309,5.357073 -0.93029,1.60158 -1.585685,2.8768 -2.436154,3.98157 -0.850469,1.10476 -1.896017,2.03913 -2.530827,2.78409 -0.63481,0.74496 -0.858773,1.30031 -0.124986,2.15578 0.733786,0.85547 2.424891,2.01093 4.10364,3.35767 1.67875,1.34673 3.34508,2.88461 5.206225,4.26792 1.861144,1.38331 3.916953,2.61205 5.286776,3.09264 1.369823,0.48058 2.053789,0.21326 1.96742,0.35901 -0.08637,0.14575 -0.942988,0.70456 -1.620763,3.12666 -0.677774,2.4221 -1.176552,6.70677 -1.675369,10.99178 1.380955,0.58154 2.762241,1.16322 4.336422,1.72714 1.574182,0.56392 3.341513,1.11024 4.891043,1.36825 1.549529,0.25801 2.881217,0.22781 4.068583,-0.17529 1.187365,-0.4031 2.230553,-1.17904 3.111577,-1.90401 0.881025,-0.72498 1.636475,-1.43328 2.239391,-1.78517 0.602916,-0.3519 1.071303,-0.36453 1.639681,-0.59782 0.568377,-0.23329 1.258139,-0.7016 1.904936,-1.10112 0.646797,-0.39953 1.29595,-0.75658 1.91939,-1.0741 0.623439,-0.31753 1.238505,-0.60509 1.672817,-1.05642 0.434311,-0.45133 0.688024,-1.0666 0.897789,-1.62039 0.209766,-0.5538 0.375584,-1.04616 0.594636,-1.42067 0.219052,-0.37451 0.491266,-0.63099 0.825993,-0.74759 0.334727,-0.11661 0.731663,-0.0933 0.965355,0.008 0.233693,0.10148 0.304286,0.28085 0.395067,0.58757 0.09078,0.30673 0.210304,0.77409 0.316707,1.26833 0.106402,0.49424 0.203967,1.03201 0.164152,1.76871 -0.03982,0.73671 -0.217356,1.6748 -0.324709,2.23268 -0.107353,0.55789 -0.144739,0.73675 -0.510223,1.15193 -0.365484,0.41519 -1.059077,1.06687 -1.644114,1.37791 -0.585037,0.31105 -1.089377,0.27969 -1.578737,0.31159 -0.489359,0.0319 -0.977453,0.12626 -1.420178,0.42597 -0.442725,0.29971 -0.839817,0.80466 -1.028466,1.07485 -0.188648,0.27019 -0.157746,0.32557 -0.132406,0.37098 0.596582,0.25446 1.1935,0.50907 2.011944,0.89226 0.818445,0.38318 1.85873,0.89506 2.612358,1.29019 0.753628,0.39513 1.220568,0.67346 2.198397,0.90413 0.97783,0.23067 2.497012,0.41758 3.884172,0.61547 1.387161,0.19789 2.682467,0.41277 3.636741,0.55684 0.954275,0.14408 1.57998,0.21943 2.226902,0.28788 0.646921,0.0685 1.320154,0.13049 2.129919,0.34072 0.809764,0.21024 1.758539,0.5688 2.537153,0.88395 0.778613,0.31514 1.387005,0.58682 1.738457,0.90484 0.351452,0.31801 0.449587,0.69521 0.504322,1.00508 0.05474,0.30986 0.06784,0.55894 0.03979,0.77215 -0.02805,0.21322 -0.106084,0.41355 -0.217842,0.57596 -0.111757,0.16241 -0.317039,0.34861 -0.472319,0.45613 -0.155279,0.10753 -0.391101,0.20321 -0.659974,0.18424 -0.268873,-0.019 -0.622368,-0.13189 -1.037587,-0.26024 -0.415219,-0.12836 -0.892142,-0.27215 -1.310885,-0.3661 -0.418742,-0.0939 -0.779234,-0.13798 -1.197273,-0.1819 -0.41804,-0.0439 -0.893599,-0.0877 -1.369892,-0.14712 -0.476294,-0.0594 -1.0062,-0.14271 -1.498786,-0.23016 -0.492587,-0.0875 -0.974304,-0.18322 -1.475333,-0.23113 -0.501029,-0.0479 -1.02131,-0.0479 -1.49194,-0.0479 -0.47063,0 -0.891574,0 -1.53304,-0.075 -0.641466,-0.075 -1.503453,-0.22499 -2.309312,-0.29487 -0.805858,-0.0699 -1.555503,-0.0596 -1.123804,0.0143 0.4317,0.0739 2.044667,0.21132 2.927604,0.44452 0.882937,0.23319 1.035946,0.56182 1.108869,0.91582 0.07292,0.354 0.06592,0.73341 -0.06459,1.07958 -0.130516,0.34618 -0.384509,0.65936 -0.563878,0.91564 -0.179369,0.25627 -0.28892,0.46478 -0.429173,0.56667 -0.140253,0.1019 -0.313947,0.1019 -0.613719,0.1019 -0.299772,0 -0.725618,0 -1.330541,0.0422 -0.604922,0.0422 -1.388849,0.12649 -1.831439,0.2494 -0.442591,0.12291 -0.54357,0.28433 -0.317925,0.30788 0.225644,0.0236 0.777598,-0.0906 1.288072,-0.14764 0.510475,-0.0571 0.979371,-0.0571 1.351719,0.1317 0.372347,0.18876 0.648176,0.56594 0.863065,0.84925 0.21489,0.28331 0.396618,0.50698 0.369209,0.86957 -0.02741,0.36259 -0.242422,0.86428 -0.527489,1.31561 -0.285068,0.45133 -0.636553,0.84386 -1.024115,1.06353 -0.387562,0.21967 -0.811439,0.26652 -1.313381,0.28107 -0.501941,0.0145 -1.081976,-0.003 -1.570346,-0.0917 -0.488369,-0.0885 -0.885092,-0.24772 -1.357548,-0.32742 -0.472456,-0.0797 -1.020572,-0.0797 -1.445505,-0.0121 -0.424934,0.0676 -0.726524,0.20279 -0.391123,0.27711 0.3354,0.0743 1.389434,0.0888 2.01673,0.25148 0.627295,0.16268 0.868776,0.47377 1.029415,0.84824 0.16064,0.37447 0.252352,0.87653 0.113023,1.25612 -0.13933,0.3796 -0.503783,0.66919 -0.935948,0.91351 -0.432165,0.24433 -0.932113,0.44341 -1.530577,0.56902 -0.598464,0.12562 -1.295528,0.17774 -2.369876,0.0828 -1.074348,-0.0949 -2.526002,-0.33685 -3.604538,-0.51354 -1.078535,-0.17669 -1.783902,-0.28811 -2.897294,-0.64997 -1.113392,-0.36187 -2.634733,-0.97422 -3.604254,-1.44362 -0.96952,-0.46939 -1.387129,-0.7959 -2.640302,-1.5936 -1.253172,-0.7977 -3.341836,-2.06649 -4.811422,-2.71899 -1.469587,-0.6525 -2.319982,-0.6885 -3.828927,-0.84895 -1.508944,-0.16046 -3.676649,-0.44542 -5.844088,-0.73034 0.09011,0.34835 0.18031,0.69702 0.171992,1.30313 -0.0083,0.60611 -0.111265,1.4402 -0.185496,2.59637 -0.07423,1.15616 -0.117922,2.61937 -0.485809,5.20998 -0.367887,2.5906 -1.059865,6.30826 -1.7519,10.02622 0,0 64.908227,4.86489 64.908227,4.86489 0.04886,-1.98381 0.09771,-3.96735 0.307513,-5.4254 0.209802,-1.45806 0.580583,-2.3902 0.723315,-3.46394 0.142732,-1.07374 0.05733,-2.28919 -0.01797,-3.23678 -0.07529,-0.94759 -0.167173,-1.90564 -0.37465,-2.90952 -0.207477,-1.00388 -0.543954,-2.19275 -0.595963,-4.02269 -0.05201,-1.82995 0.180561,-4.30077 0.533215,-6.6155 0.352654,-2.31473 0.825398,-4.47323 1.253356,-6.35348 0.427959,-1.88025 0.811116,-3.48216 1.694208,-5.23295 0.883093,-1.75079 2.266052,-3.6502 3.183101,-9.90564 0.91705,-6.25544 1.368126,-16.86694 1.8192,-27.478382 -1.973909,-0.958771 -3.94749,-1.917382 -5.364521,-2.78748 C 88.527357,95.30819 87.581844,94.449065 86.64504,93.776286 85.708236,93.103507 84.737439,92.578383 83.318812,92.48533 81.900186,92.39228 80.03395,92.731507 77.573217,92.295593 75.112483,91.859679 72.057306,90.648493 70.120074,89.690964 68.182839,88.733555 67.363686,88.029611 66.20035,86.836205 65.037014,85.6428 63.529602,83.959972 62.775751,83.118395 62.0219,82.276819 62.021964,82.276883 61.467342,82.43149 Z"
       style="opacity:1;fill:#7779f3;fill-opacity:1;stroke:#500000;stroke-width:0;stroke-linejoin:round;stroke-dashoffset:10" />
    <path
       inkscape:original-d="m 13.533752,110.50219 c -0.610614,0.91069 -1.221502,1.82113 -1.832663,2.73126 -0.594755,1.08502 -1.189758,2.16971 -1.7850491,3.25414 -0.4896238,1.10863 -0.9795018,2.21694 -1.4696634,3.32498 -0.7488894,0.94751 -1.4980225,1.89468 -2.2474442,2.8416 -0.576222,0.93551 -1.1526933,1.8707 -1.729451,2.80562 -0.6961252,1.72919 -1.3924961,3.45803 -2.089155,5.18662 -0.2834049,1.19905 -0.6191172,2.45163 -0.9290858,3.67703 0.2447605,1.45421 0.4892378,2.9081 0.7334459,4.36172 0.4754998,0.59936 0.9507061,1.19841 1.4256493,1.7972 1.0354059,0.41259 2.0704975,0.82489 3.1053356,1.2369 1.5192702,1.24727 3.0382075,2.4942 4.5569017,3.74086 2.473929,1.2608 4.947487,2.52125 7.420818,3.78145 4.997481,0.43849 9.994475,0.87669 14.991286,1.3146 1.102884,0.54396 2.205456,1.08761 3.307771,1.63099 1.362706,1.0211 2.725096,2.04187 4.087234,3.06237 1.624406,0.59834 3.248481,1.19638 4.872318,1.79414 0.675589,0.15763 1.350888,0.31498 2.025917,0.47204 2.220393,0.13531 4.440411,0.27034 6.660214,0.40509 0.48228,-0.26989 0.964271,-0.54007 1.445992,-0.81053 0.03899,-0.57483 0.02482,-1.20462 0.03683,-1.80735 -0.523137,-0.34336 -1.046522,-0.68699 -1.570196,-1.03092 -0.742739,2.9e-4 -1.604579,2.9e-4 -2.407278,0 0.337183,-0.17901 0.67409,-0.3583 1.010713,-0.53787 0.372881,2.8e-4 0.900196,2.8e-4 1.349885,0 0.974821,0.27905 1.949331,0.55781 2.923573,0.83629 0.834949,-0.27038 1.693707,-0.566 2.540159,-0.84941 0.266226,-0.63594 0.532177,-1.27211 0.797854,-1.90859 -0.160929,-0.45559 -0.322132,-0.91145 -0.483614,-1.36759 -0.402304,-0.14264 -0.843645,-0.32566 -1.265871,-0.48891 -0.677513,2.9e-4 -1.355263,2.9e-4 -2.033303,0 -0.179404,-0.0493 -0.359069,-0.0989 -0.539004,-0.14873 0.327587,-0.10705 0.654882,-0.21435 0.981917,-0.32193 0.521895,2.7e-4 1.082258,-0.0398 1.622979,-0.0602 0.556463,-0.008 1.129548,-0.0171 1.693913,-0.0261 0.373792,-0.49232 0.74728,-0.98487 1.120509,-1.47773 0.02566,-0.5368 0.051,-1.07387 0.07602,-1.61124 -0.172495,-0.084 -0.345252,-0.16837 -0.518286,-0.25299 -0.558543,-0.13511 -1.117333,-0.27049 -1.676413,-0.40617 -0.494351,2.8e-4 -0.988971,2.8e-4 -1.483859,0 -0.320934,-0.23794 -0.642118,-0.47612 -0.963589,-0.7146 0.575743,0.0948 1.151187,0.18942 1.726361,0.2837 1.092871,0.10047 2.18541,0.20076 3.277702,0.30071 1.653575,0.15494 3.306797,0.30958 4.959779,0.46394 1.834161,0.41195 3.66797,0.8236 5.501548,1.23499 0.07179,-0.0333 0.09175,-0.0136 0.137268,-0.0209 0.248998,-0.23916 0.497713,-0.47858 0.746161,-0.7183 0.0052,-0.44985 -0.0062,-0.88254 -0.0093,-1.32424 -0.09444,-0.34267 -0.189056,-0.68561 -0.283989,-1.02885 -0.626209,-0.28991 -1.252663,-0.58011 -1.879399,-0.87059 -0.642563,-0.23008 -1.285383,-0.49027 -1.928483,-0.73584 -1.474271,-0.24009 -2.94876,-0.48046 -4.423541,-0.72111 -2.210193,-0.33234 -4.454785,-0.62954 -6.682582,-0.94475 -0.707447,-0.10118 -1.415141,-0.20261 -2.123136,-0.30435 -0.672472,-0.38774 -1.345205,-0.77575 -2.018208,-1.16404 -0.771748,-0.38277 -2.316027,-1.14911 -2.316027,-1.14911 0,0 0.116984,-0.63408 0.175062,-0.95155 0.330046,-0.29426 0.659805,-0.58878 0.989292,-0.8836 -0.03185,-0.1716 -0.06402,-0.34347 -0.0964,-0.51563 -0.760391,0.0956 -1.521044,0.1908 -2.281973,0.28578 1.222378,-0.26094 2.444437,-0.52217 3.666239,-0.78367 0.600671,-0.51147 1.201041,-1.02317 1.801144,-1.53519 0.151591,-0.85097 0.302894,-1.7022 0.453929,-2.55373 0.05596,-0.79412 0.111574,-1.5885 0.16694,-2.38319 -0.206463,-0.66883 -0.413196,-1.33793 -0.620207,-2.00732 -0.258007,-0.0345 -0.516279,-0.0692 -0.774845,-0.10426 -0.343109,0.16209 -0.686479,0.32388 -1.030137,0.4854 -0.205203,0.29452 -0.410683,0.58876 -0.616434,0.88271 -0.193371,0.40981 -0.386996,0.87528 -0.580916,1.3125 -0.122331,0.37333 -0.244939,0.74637 -0.367819,1.11912 -0.368288,0.24422 -0.736832,0.48815 -1.105655,0.73178 -0.763157,0.40484 -1.526547,0.80939 -2.290231,1.21365 -0.81751,0.4768 -1.635256,0.9533 -2.453294,1.42952 -0.452502,0.14612 -0.905251,0.29196 -1.35829,0.43751 -0.700113,0.57403 -1.400471,1.14775 -2.101122,1.72121 -0.767346,0.54386 -1.534925,1.08742 -2.302798,1.63072 -0.731319,0.2839 -1.481056,0.50531 -2.221984,0.75753 -0.884482,-0.0191 -1.794638,-0.0384 -2.692359,-0.0581 -1.040533,-0.25458 -2.081293,-0.50943 -3.122344,-0.76458 -1.80645,-0.60151 -3.613107,-1.20329 -5.420062,-1.80536 -0.899596,-0.43267 -1.79943,-0.86562 -2.699557,-1.29886 -1.030674,-0.79286 -2.111799,-1.61128 -3.168107,-2.41733 -0.476112,-0.70729 -0.919214,-1.44926 -1.379231,-2.17431 -0.853297,-0.67006 -1.706836,-1.34039 -2.560664,-2.01101 0.944338,0.75325 1.888364,1.50618 2.832135,2.25885 0.115273,0.13332 0.192006,0.30594 0.287599,0.45848 0.266617,-0.53618 0.553637,-1.13461 0.830046,-1.70233 0.851323,-0.94773 1.702339,-1.89573 2.553098,-2.84403 0.999512,-1.15102 1.998705,-2.30227 2.997646,-3.45383 0.131186,-0.24803 0.262093,-0.49633 0.392728,-0.7449 0.686852,-0.24041 1.373404,-0.4811 2.059688,-0.72208 0.02328,-0.0411 0.04634,-0.0824 0.06899,-0.1241 -1.20219,-0.28675 -2.404609,-0.57376 -3.607336,-0.86107 -1.032066,-0.7429 -2.064369,-1.48605 -3.096967,-2.22949 -1.446036,-1.22821 -2.911911,-2.45666 -4.368275,-3.68541 -1.228594,-0.86222 -2.457412,-1.72468 -3.686528,-2.58745 -0.26482,-0.22073 -0.529904,-0.44173 -0.795265,-0.66302 -0.07925,-0.11818 -0.158766,-0.23665 -0.23856,-0.35542 -0.22795,-0.0795 -0.456165,-0.15922 -0.684659,-0.23926 z"
       inkscape:path-effect="#path-effect998"
       id="path996"
       d="m 13.228288,110.95743 c -0.305464,0.45524 -0.916361,1.36567 -1.519322,2.36327 -0.602962,0.99759 -1.197966,2.08228 -1.7404243,3.17883 -0.5424586,1.09654 -1.0323386,2.20485 -1.6518516,3.23258 -0.619513,1.02772 -1.3686407,1.9749 -2.0314728,2.91613 -0.6628321,0.94124 -1.2393049,1.87643 -1.8757497,3.20852 -0.6364448,1.33209 -1.3328163,3.06093 -1.8318755,4.52249 -0.4990592,1.46156 -0.8167056,2.71871 -0.849259,4.05857 -0.032553,1.33987 0.2119257,2.79376 0.5718739,3.82024 0.3599481,1.02648 0.8351525,1.62554 1.5903733,2.13114 0.7552207,0.5056 1.7903151,0.91789 3.0673548,1.74759 1.2770397,0.8297 2.7959776,2.07663 4.7923029,3.33032 1.996326,1.25369 4.46988,2.51415 8.205268,3.36342 3.735388,0.84928 8.732383,1.28747 11.782249,1.77847 3.049866,0.49101 4.152437,1.03466 5.384939,1.81693 1.232503,0.78227 2.594891,1.80305 4.088172,2.61241 1.493281,0.80937 3.117358,1.4074 4.267064,1.78508 1.149707,0.37767 1.825007,0.53502 3.272701,0.68118 1.447695,0.14616 3.667713,0.28119 5.018652,0.21358 1.350938,-0.0676 1.832932,-0.33778 2.079749,-0.76054 0.246816,-0.42276 0.259639,-1.052 0.0042,-1.52508 -0.255402,-0.47308 -0.778787,-0.81671 -1.412018,-0.98863 -0.633232,-0.17193 -1.495072,-0.17193 -1.727919,-0.2616 -0.232847,-0.0897 0.10406,-0.26896 0.458901,-0.35858 0.354841,-0.0896 0.882156,-0.0896 1.594438,0.0498 0.712281,0.13943 1.686792,0.41819 2.590034,0.41837 0.903242,1.8e-4 1.764544,-0.28784 2.320775,-0.74742 0.556231,-0.45958 0.822173,-1.09575 0.874634,-1.64169 0.05246,-0.54593 -0.108742,-1.00179 -0.388414,-1.30675 -0.279672,-0.30497 -0.725236,-0.47705 -1.275135,-0.5586 -0.549899,-0.0816 -1.227649,-0.0816 -1.656345,-0.10629 -0.428696,-0.0248 -0.608367,-0.0743 -0.534616,-0.15284 0.07375,-0.0785 0.401044,-0.18582 0.825198,-0.24912 0.424155,-0.0633 0.985232,-0.0841 1.533826,-0.0984 0.548594,-0.0143 1.121683,-0.0231 1.590611,-0.27377 0.468927,-0.25062 0.842412,-0.74318 1.041845,-1.2579 0.199434,-0.51472 0.224773,-1.05179 0.151241,-1.36254 -0.07353,-0.31076 -0.246305,-0.3951 -0.6121,-0.505 -0.365794,-0.1099 -0.924583,-0.24529 -1.451324,-0.31303 -0.526741,-0.0677 -1.021361,-0.0677 -1.429256,-0.18672 -0.407896,-0.11899 -0.729074,-0.35718 -0.601942,-0.42909 0.127133,-0.0719 0.702586,0.0227 1.536598,0.12006 0.834013,0.0974 1.926557,0.19762 3.299491,0.32506 1.372933,0.12745 3.026155,0.28209 4.769738,0.56527 1.743582,0.28318 3.57739,0.69484 4.531716,0.89492 0.954326,0.20007 0.970902,0.19755 1.118052,0.0744 0.147151,-0.12319 0.395862,-0.36261 0.518643,-0.70723 0.122782,-0.34461 0.119743,-0.77736 0.0709,-1.16953 -0.04884,-0.39216 -0.143496,-0.73509 -0.503946,-1.05176 -0.360451,-0.31667 -0.986909,-0.60686 -1.619074,-0.87367 -0.632165,-0.2668 -1.279952,-0.51397 -2.338649,-0.75684 -1.058698,-0.24286 -2.533187,-0.48323 -4.377071,-0.75987 -1.843883,-0.27664 -4.085685,-0.59357 -5.553308,-0.80175 -1.467623,-0.20819 -2.175315,-0.30963 -2.86554,-0.5543 -0.690225,-0.24466 -1.362957,-0.63267 -2.085332,-1.01821 -0.722374,-0.38554 -1.494699,-0.76873 -2.266708,-1.15177 0.05835,-0.31718 0.116666,-0.63414 0.310757,-0.94012 0.19409,-0.30598 0.523845,-0.60051 0.672684,-0.83355 0.148839,-0.23304 0.116706,-0.40492 -0.279609,-0.4434 -0.396315,-0.0385 -1.156961,0.0568 -0.926252,-0.0262 0.230708,-0.083 1.452769,-0.34421 2.363915,-0.73068 0.911146,-0.38647 1.511506,-0.89819 1.887323,-1.57956 0.375817,-0.68137 0.527124,-1.5326 0.630614,-2.3554 0.10349,-0.82281 0.159135,-1.61719 0.08365,-2.34891 -0.07548,-0.73173 -0.282217,-1.40083 -0.514626,-1.7529 -0.232409,-0.35208 -0.490675,-0.38683 -0.79161,-0.32336 -0.300936,0.0635 -0.644304,0.22527 -0.918814,0.45335 -0.27451,0.22808 -0.47999,0.52232 -0.67438,0.87653 -0.19439,0.35421 -0.398378,0.81509 -0.556501,1.22039 -0.158124,0.40529 -0.28073,0.77833 -0.526255,1.08671 -0.245525,0.30837 -0.614073,0.5523 -1.180041,0.87653 -0.565969,0.32424 -1.329363,0.72878 -2.119966,1.16932 -0.790603,0.44053 -1.608351,0.91703 -2.243578,1.2282 -0.635226,0.31117 -1.087978,0.457 -1.664623,0.81681 -0.576646,0.35981 -1.277002,0.93353 -2.010987,1.49218 -0.733985,0.55866 -1.501564,1.10222 -2.25633,1.50049 -0.754766,0.39827 -1.494059,0.65031 -2.306706,0.76705 -0.812647,0.11673 -1.722796,0.0971 -2.691901,-0.04 -0.969105,-0.13708 -2.009864,-0.39193 -3.433611,-0.82024 -1.423747,-0.42832 -3.230405,-1.03009 -4.583678,-1.54744 -1.353273,-0.51735 -2.25311,-0.9503 -3.220092,-1.56125 -0.966982,-0.61095 -2.044972,-1.43348 -2.801409,-2.19634 -0.756436,-0.76286 -1.219185,-1.49237 -1.87579,-2.18997 -0.656605,-0.6976 -1.510147,-1.36792 -1.464892,-1.32661 0.04525,0.0413 0.989278,0.79425 1.507431,1.24439 0.518153,0.45013 0.617527,0.60855 0.796573,0.41569 0.179047,-0.19286 0.469921,-0.78941 1.033802,-1.54719 0.563881,-0.75778 1.414901,-1.70578 2.340037,-2.75543 0.925135,-1.04966 1.924327,-2.20091 2.489375,-2.90066 0.565048,-0.69975 0.695957,-0.94805 1.104803,-1.19263 0.408847,-0.24457 1.095399,-0.48526 1.450076,-0.62622 0.354677,-0.14096 0.377661,-0.18231 -0.211882,-0.34652 -0.589543,-0.16421 -1.79196,-0.45123 -2.909363,-0.96625 -1.117403,-0.51503 -2.149706,-1.25818 -3.391068,-2.24158 -1.241362,-0.9834 -2.703159,-2.21668 -4.04563,-3.26218 -1.34247,-1.0455 -2.571285,-1.90796 -3.318263,-2.4497 -0.746977,-0.54173 -1.012059,-0.76273 -1.184404,-0.93243 -0.172344,-0.16971 -0.251862,-0.28818 -0.405683,-0.3874 -0.153821,-0.0992 -0.382027,-0.17897 -0.496303,-0.21891 -0.114277,-0.0399 -0.114258,-0.0399 -0.419722,0.41533 z"
       style="opacity:1;fill:#ffb380;stroke:#500000;stroke-width:0;stroke-linejoin:round;stroke-dashoffset:10" />
    <rect
       style="opacity:0.949401;fill:#c0c0f5;fill-opacity:1;stroke:none;stroke-width:0.400407;stroke-miterlimit:4;stroke-dasharray:none;paint-order:stroke fill markers;filter:url(#filter5603)"
       id="rect3879"
       width="236.41513"
       height="111.31712"
       x="162.5676"
       y="38.708004"
       ry="0.011503931"
       transform="matrix(0.83951708,0,0,1.0770596,-41.128964,6.4414804)" />
    <text
       transform="matrix(0.84500038,0,0,0.8744517,51.166251,16.701279)"
       y="0"
       x="87.252769"
       style="font-size:25.4px;line-height:1.25;font-family:sans-serif;word-spacing:0px;white-space:pre;shape-inside:url(#rect1032);"
       id="text1030"
       xml:space="preserve"><tspan
         x="55.825588"
         y="74.207422"><tspan
           style="font-style:normal;font-variant:normal;font-weight:normal;font-stretch:normal;font-size:25.4px;font-family:Alegreya;-inkscape-font-specification:Alegreya;text-align:center;text-anchor:middle">Importance of Digital 
</tspan></tspan><tspan
         x="104.31875"
         y="106.29411"><tspan
           style="font-style:normal;font-variant:normal;font-weight:normal;font-stretch:normal;font-size:25.4px;font-family:Alegreya;-inkscape-font-specification:Alegreya;text-align:center;text-anchor:middle">Presence for 
</tspan></tspan><tspan
         x="112.23145"
         y="138.38081"><tspan
           style="font-style:normal;font-variant:normal;font-weight:normal;font-stretch:normal;font-size:25.4px;font-family:Alegreya;-inkscape-font-specification:Alegreya;text-align:center;text-anchor:middle">your career</tspan></tspan></text>
  </g>
</svg>
