<?xml version="1.0" encoding="UTF-8" standalone="no"?>
<svg
   xmlns:dc="http://purl.org/dc/elements/1.1/"
   xmlns:cc="http://creativecommons.org/ns#"
   xmlns:rdf="http://www.w3.org/1999/02/22-rdf-syntax-ns#"
   xmlns:svg="http://www.w3.org/2000/svg"
   xmlns="http://www.w3.org/2000/svg"
   xmlns:sodipodi="http://sodipodi.sourceforge.net/DTD/sodipodi-0.dtd"
   xmlns:inkscape="http://www.inkscape.org/namespaces/inkscape"
   width="210mm"
   height="297mm"
   viewBox="0 0 210 297"
   version="1.1"
   id="svg8"
   inkscape:version="1.0 (5b275a35d9, 2020-05-03)"
   sodipodi:docname="chinmaya.svg"
   inkscape:export-filename="/home/omkarpathak/Documents/Illustrations/chinmaya.png"
   inkscape:export-xdpi="300"
   inkscape:export-ydpi="300">
  <defs
     id="defs2">
    <filter
       inkscape:collect="always"
       style="color-interpolation-filters:sRGB"
       id="filter971"
       x="-0.015872672"
       width="1.0317453"
       y="-0.013379773"
       height="1.0267595">
      <feGaussianBlur
         inkscape:collect="always"
         stdDeviation="0.027551718"
         id="feGaussianBlur973" />
    </filter>
    <filter
       inkscape:collect="always"
       style="color-interpolation-filters:sRGB"
       id="filter1021"
       x="-0.018307123"
       width="1.0366142"
       y="-0.016362008"
       height="1.032724">
      <feGaussianBlur
         inkscape:collect="always"
         stdDeviation="0.063729972"
         id="feGaussianBlur1023" />
    </filter>
    <filter
       inkscape:collect="always"
       style="color-interpolation-filters:sRGB"
       id="filter1115"
       x="-0.021605503"
       width="1.043211"
       y="-0.014397555"
       height="1.0287951">
      <feGaussianBlur
         inkscape:collect="always"
         stdDeviation="0.096377288"
         id="feGaussianBlur1117" />
    </filter>
    <filter
       inkscape:collect="always"
       style="color-interpolation-filters:sRGB"
       id="filter1227"
       x="-0.029533806"
       width="1.0590676"
       y="-0.019540978"
       height="1.039082">
      <feGaussianBlur
         inkscape:collect="always"
         stdDeviation="0.24283589"
         id="feGaussianBlur1229" />
    </filter>
    <filter
       inkscape:collect="always"
       style="color-interpolation-filters:sRGB"
       id="filter1277"
       x="-0.020469054"
       width="1.0409381"
       y="-0.014950699"
       height="1.0299014">
      <feGaussianBlur
         inkscape:collect="always"
         stdDeviation="0.2227522"
         id="feGaussianBlur1279" />
    </filter>
    <filter
       inkscape:collect="always"
       style="color-interpolation-filters:sRGB"
       id="filter1451"
       x="-0.22967033"
       width="1.4593407"
       y="-0.083878721"
       height="1.1677574">
      <feGaussianBlur
         inkscape:collect="always"
         stdDeviation="0.57355955"
         id="feGaussianBlur1453" />
    </filter>
  </defs>
  <sodipodi:namedview
     id="base"
     pagecolor="#ffffff"
     bordercolor="#666666"
     borderopacity="1.0"
     inkscape:pageopacity="0.0"
     inkscape:pageshadow="2"
     inkscape:zoom="1"
     inkscape:cx="289.58157"
     inkscape:cy="489.40681"
     inkscape:document-units="mm"
     inkscape:current-layer="layer1"
     inkscape:document-rotation="0"
     showgrid="false"
     showborder="true"
     inkscape:showpageshadow="false"
     inkscape:window-width="1920"
     inkscape:window-height="1041"
     inkscape:window-x="0"
     inkscape:window-y="0"
     inkscape:window-maximized="1" />
  <metadata
     id="metadata5">
    <rdf:RDF>
      <cc:Work
         rdf:about="">
        <dc:format>image/svg+xml</dc:format>
        <dc:type
           rdf:resource="http://purl.org/dc/dcmitype/StillImage" />
        <dc:title />
      </cc:Work>
    </rdf:RDF>
  </metadata>
  <g
     inkscape:label="Layer 1"
     inkscape:groupmode="layer"
     id="layer1">
    <ellipse
       style="opacity:1;fill:#703fff;fill-opacity:0.56796575;stroke:none;stroke-width:0.00499999;stroke-miterlimit:4;stroke-dasharray:none;stroke-opacity:1"
       id="path1457"
       cx="106.99393"
       cy="135.92813"
       rx="64.033844"
       ry="87.590919" />
    <path
       style="fill:#000000;stroke:none;stroke-width:0.264583px;stroke-linecap:butt;stroke-linejoin:miter;stroke-opacity:1"
       d="m 92.713527,59.97074 c 0,0 -1.330051,-1.074591 -0.810862,-2.451157 0.519192,-1.376567 1.175454,-2.692943 2.668908,-3.32517 1.493451,-0.632227 5.195736,-2.076635 6.493377,-2.203545 1.29765,-0.12691 4.62549,-0.532678 6.25323,0.09492 1.62774,0.627599 4.80581,1.624274 5.8632,2.475547 1.05739,0.851273 3.19203,2.880212 3.56122,5.382308 0.36919,2.502095 0.82679,7.204554 0.18576,8.677883 -0.64103,1.473332 -1.56964,4.582766 -2.3317,6.428425 l -0.76205,1.845657 z"
       id="path849"
       sodipodi:nodetypes="csssssssscc" />
    <path
       style="fill:#262c3a;stroke:none;stroke-width:0.264583px;stroke-linecap:butt;stroke-linejoin:miter;stroke-opacity:1;fill-opacity:1"
       d="m 89.087364,158.41713 c 0,0 2.662401,18.61332 5.161441,25.40419 2.49904,6.79088 4.642683,14.84618 4.580874,19.47236 -0.06181,4.62618 -0.22271,4.37736 -0.22271,4.37736 l 15.047131,0.32815 c 0,0 -1.98254,-7.63876 -1.77499,-11.53497 0.20756,-3.89621 0.84596,-12.35253 0.55236,-13.89472 -0.2936,-1.54219 -1.53608,-12.76434 -1.53608,-12.76434 l 3.92976,14.5696 c 0,0 1.24929,8.28157 1.72774,10.00434 0.47845,1.72277 1.5966,5.2609 1.92733,9.4413 0.33073,4.1804 0.50053,4.2955 0.50053,4.2955 l 15.87268,-0.15 c 0,0 -2.43942,-12.28417 -1.53944,-14.73914 0.89999,-2.45496 0.48074,-7.61531 0.53239,-10.31909 0.0516,-2.7038 0.44768,-12.17208 -0.32246,-14.85013 -0.77013,-2.67805 -2.64385,-10.49262 -2.64385,-10.49262 l -5.68056,-15.15574 -34.226429,1.79603 z"
       id="path1153" />
    <rect
       style="opacity:1;fill:#000000;fill-opacity:1;stroke:none;stroke-width:0.00499999;stroke-miterlimit:4;stroke-dasharray:none;stroke-opacity:1"
       id="rect1459"
       width="25.649221"
       height="23.352852"
       x="93.297081"
       y="120.6301" />
    <path
       sodipodi:nodetypes="cccsssssccc"
       id="path1157"
       d="m 86.792172,138.28674 0.565442,1.37071 0.61393,0.47196 c 0,0 -0.738676,-1.42668 -1.170074,9.70581 -0.4314,11.13249 -2.201732,7.92728 -0.431428,11.22788 1.069248,1.99353 2.090368,2.51627 5.793585,3.53434 3.703217,1.01808 5.860298,0.95328 6.495748,0.50491 0.635452,-0.44838 2.926185,-2.6089 4.254975,-9.7193 1.3288,-7.11041 2.41751,-19.50708 2.41751,-19.50708 l -17.992338,-0.28828 z"
       style="fill:#151a21;fill-opacity:1;stroke:none;stroke-width:0.267695px;stroke-linecap:butt;stroke-linejoin:miter;stroke-opacity:1;filter:url(#filter1227)"
       transform="matrix(0.97957592,0,0,0.97957592,3.5372831,3.073819)" />
    <path
       style="fill:#1e242e;fill-opacity:1;stroke:none;stroke-width:0.267695px;stroke-linecap:butt;stroke-linejoin:miter;stroke-opacity:1"
       d="m 86.792172,138.28674 0.565442,1.37071 0.61393,0.47196 c 0,0 -0.738676,-1.42668 -1.170074,9.70581 -0.4314,11.13249 -2.201732,7.92728 -0.431428,11.22788 1.069248,1.99353 2.090368,2.51627 5.793585,3.53434 3.703217,1.01808 5.860298,0.95328 6.495748,0.50491 0.635452,-0.44838 2.926185,-2.6089 4.254975,-9.7193 1.3288,-7.11041 2.41751,-19.50708 2.41751,-19.50708 l -17.992338,-0.28828 z"
       id="path1147"
       sodipodi:nodetypes="cccsssssccc" />
    <path
       style="fill:#191d26;stroke:none;stroke-width:0.264583px;stroke-linecap:butt;stroke-linejoin:miter;stroke-opacity:1;fill-opacity:1"
       d="m 91.36359,139.97047 c 0,0 1.779706,-1.38527 2.198917,-3.37127 0.419214,-1.986 -0.424653,-4.24869 -0.424653,-4.24869 l -2.099548,-0.22746 c 0,0 -1.130197,5.33312 -0.402458,6.59027 0.727742,1.25715 0.727742,1.25715 0.727742,1.25715 z"
       id="path1143" />
    <path
       sodipodi:nodetypes="csasssssscccc"
       id="path1231"
       d="m 106.25083,135.35768 c 0,0 -0.96752,3.46503 1.29541,10.83543 2.26294,7.37041 3.51129,11.46398 6.96129,16.23591 1.403,1.94061 4.51218,4.60771 5.38249,4.75796 0.8703,0.15026 3.35949,-0.54093 5.86874,-1.41608 2.50925,-0.87516 5.63746,-2.70457 6.03336,-3.6351 0.39591,-0.93054 0.63439,-1.25564 -0.13126,-6.65853 -0.76565,-5.4029 -1.78045,-10.47987 -2.07201,-11.75892 -0.29155,-1.27905 -0.51856,-2.77837 -0.25824,-4.21907 0.26033,-1.44071 -0.66022,-5.17892 -0.66022,-5.17892 l -5.59376,-2.87064 -16.65424,3.67732 z"
       style="fill:#151a21;fill-opacity:1;stroke:none;stroke-width:0.264583px;stroke-linecap:butt;stroke-linejoin:miter;stroke-opacity:1;filter:url(#filter1277)" />
    <path
       id="path1281"
       d="m 104.80321,138.98187 -0.006,11.70757 c 0,0 2.82632,2.69944 3.25594,2.92711 0.42961,0.22766 0.48386,0.33389 0.48386,0.33389 l 2.25376,-4.38426 -3.20007,-12.02685 z"
       style="fill:#151a21;stroke:none;stroke-width:0.264583px;stroke-linecap:butt;stroke-linejoin:miter;stroke-opacity:1;fill-opacity:1;filter:url(#filter1451)" />
    <path
       style="fill:#262e40;stroke:none;stroke-width:0.264583px;stroke-linecap:butt;stroke-linejoin:miter;stroke-opacity:1;fill-opacity:1"
       d="m 104.80321,138.98187 -0.006,11.70757 c 0,0 2.82632,2.69944 3.25594,2.92711 0.42961,0.22766 0.48386,0.33389 0.48386,0.33389 l 2.25376,-4.38426 -3.20007,-12.02685 z"
       id="path1151" />
    <path
       style="fill:#1e242e;fill-opacity:1;stroke:none;stroke-width:0.264583px;stroke-linecap:butt;stroke-linejoin:miter;stroke-opacity:1"
       d="m 107.30917,135.35768 c 0,0 -0.96752,3.46503 1.29541,10.83543 2.26294,7.37041 3.51129,11.46398 6.96129,16.23591 1.403,1.94061 4.51218,4.60771 5.38249,4.75796 0.8703,0.15026 3.35949,-0.54093 5.86874,-1.41608 2.50925,-0.87516 5.63746,-2.70457 6.03336,-3.6351 0.39591,-0.93054 0.63439,-1.25564 -0.13126,-6.65853 -0.76565,-5.4029 -1.78045,-10.47987 -2.07201,-11.75892 -0.29155,-1.27905 -0.51856,-2.77837 -0.25824,-4.21907 0.26033,-1.44071 -0.66022,-5.17892 -0.66022,-5.17892 l -5.59376,-2.87064 -16.65424,3.67732 z"
       id="path1149"
       sodipodi:nodetypes="csasssssscccc" />
    <path
       style="fill:#191d26;stroke:none;stroke-width:0.264583px;stroke-linecap:butt;stroke-linejoin:miter;stroke-opacity:1;fill-opacity:1"
       d="m 116.72459,142.17158 c 0,0 -1.9322,-1.24899 -2.45833,-2.47445 -0.52613,-1.22547 1.0836,-4.31575 1.0836,-4.31575 l 4.42633,2.12569 z"
       id="path1145" />
    <path
       style="opacity:1;fill:#262c3a;fill-opacity:1;stroke:none;stroke-width:0.264583px;stroke-linecap:butt;stroke-linejoin:miter;stroke-opacity:1"
       d="m 92.313002,83.540493 c 0,0 -2.095323,1.183109 -3.425767,1.549781 -3.695667,0.661531 -6.149741,1.29701 -7.9412,2.906183 -1.468705,1.31926 -2.282798,3.430724 -2.75538,6.825933 l -3.93532,8.12905 c 0,0 -0.95442,0.41828 -1.119076,0.8587 -0.08417,0.22514 0.204053,0.47392 0.143785,0.7066 -0.133653,0.51601 -0.784146,0.74727 -1.039484,1.21517 -0.188373,0.34519 -0.266411,0.74349 -0.338987,1.12998 -0.06404,0.34105 -0.15151,0.58908 -0.263097,0.91766 -0.403509,1.18818 -1.867046,3.27926 -1.867046,3.27926 l -0.649727,1.40063 c 0,0 -0.962892,0.66596 -1.254521,1.15346 -0.416285,0.69587 -0.376395,1.57819 -0.603912,2.3565 -0.112177,0.38375 -0.327272,0.74236 -0.374925,1.13931 -0.111913,0.93224 0.306358,1.87287 0.222205,2.80802 -0.08761,0.97357 -0.749528,2.83511 -0.749528,2.83511 0,0 7.277801,8.63774 12.692105,11.37744 5.414304,2.73969 5.072774,3.50078 8.56179,4.73784 3.489012,1.23707 3.748674,1.10335 3.748674,1.10335 0,0 -1.293838,-4.06178 0.3785,-9.22163 1.672339,-5.15985 2.836053,-4.90906 2.836053,-4.90906 l -9.562743,-2.99286 c 0,0 -4.23033,-1.70814 -4.70313,-2.54953 -0.4728,-0.8414 1.510718,-4.04809 1.875999,-5.56426 0.365284,-1.51617 1.719014,-3.79195 1.719014,-3.79195 l 3.753392,12.54193 0.05312,0.16637 6.843601,2.16606 c 0,0 1.783273,-1.17496 3.384497,-1.20178 1.601224,-0.0268 4.144896,0.12224 4.144896,0.12224 0,0 1.82732,0.6844 2.54528,1.25113 0.71797,0.56672 0.97937,0.72967 0.94975,1.14322 -0.0296,0.41355 -0.0198,0.42723 -0.0198,0.42723 0,0 0.1487,-0.22957 1.07825,-0.13823 0.92954,0.0913 4.75074,0.39559 4.75074,0.39559 l 1.20116,0.11813 c 0,0 0.28616,0.0859 0.9714,0.42095 0.68524,0.33505 1.78423,1.01568 1.78423,1.01568 0,0 2.78687,8.89857 2.48677,10.34776 -0.30009,1.4492 -1.10998,2.45412 -1.10998,2.45412 l 19.16794,-8.34714 c 0,0 9.6878,-6.85567 9.64288,-8.07965 -0.0449,-1.22398 -0.52122,-3.36548 -0.2754,-5.29088 0.0733,-0.57378 0.74967,-1.06006 0.50466,-1.66029 -0.24502,-0.60024 -1.07422,-2.11014 -1.07422,-2.11014 l -1.96535,-5.66035 c 0,0 -0.88962,-1.60063 -1.05249,-2.46924 -0.0945,-0.50401 0.17197,-1.09682 -0.0935,-1.53555 -0.12008,-0.19845 -0.48166,-0.15773 -0.59565,-0.35974 -0.34107,-0.60443 -0.21777,-1.35853 -0.51184,-1.98717 -0.19805,-0.42336 -0.5645,-0.99359 -0.5645,-0.99359 l -1.71052,-4.179845 -2.47518,-7.03154 c 0,0 -0.76094,-4.359392 -1.73168,-5.021332 -2.06524,-1.408267 -5.1581,-1.829405 -8.65407,-2.499115 -4.59507,-0.880261 -8.31108,-2.756464 -8.31108,-2.756464 l -3.5251,-4.32644 -20.542564,5.571782 z"
       id="path851"
       sodipodi:nodetypes="cccccssassccassacsscsccssccccscssccccscsccsssccsssscccsscccc" />
    <path
       style="fill:#d383c5;fill-opacity:1;stroke:none;stroke-width:0.264583px;stroke-linecap:butt;stroke-linejoin:miter;stroke-opacity:1;opacity:1"
       d="m 97.576559,81.245741 -6.117576,23.306049 10.411077,16.16851 2.86812,5.19781 0.82384,1.63947 9.9205,-24.56614 2.22913,-16.641394 -14.18984,-9.403943 z"
       id="path919"
       sodipodi:nodetypes="ccccccccc" />
    <path
       sodipodi:nodetypes="ccaccccc"
       id="path975"
       d="M 97.654241,83.914787 96.05239,93.26278 c 0,0 1.515116,-2.645839 2.75181,-3.435273 0.334551,-0.213558 1.156337,-0.284022 1.156337,-0.284022 l 0.225683,1.409636 2.39512,0.974191 1.82583,-1.993839 z"
       style="fill:#9f4f90;fill-opacity:1;stroke:none;stroke-width:0.264583px;stroke-linecap:butt;stroke-linejoin:miter;stroke-opacity:1;filter:url(#filter1021)" />
    <path
       id="path1069"
       d="m 104.40717,89.933473 3.72113,1.401347 1.13295,-1.963558 c 0,0 3.39271,2.133473 4.59021,2.823139 1.19751,0.689668 1.00644,0.700249 1.00644,0.700249 l 0.25513,-11.718449 -2.92037,-4.34716 z"
       style="fill:#9f4f90;fill-opacity:1;stroke:none;stroke-width:0.264583px;stroke-linecap:butt;stroke-linejoin:miter;stroke-opacity:1;filter:url(#filter1115)" />
    <path
       style="fill:#262e40;fill-opacity:1;stroke:none;stroke-width:0.264583px;stroke-linecap:butt;stroke-linejoin:miter;stroke-opacity:1"
       d="m 98.358227,89.377733 c 0,0 1.681423,3.550243 2.888563,3.963802 1.20715,0.413557 5.24819,-0.197664 5.24819,-0.197664 0,0 1.94161,-0.470713 3.23257,-2.042769 1.29097,-1.572056 1.51821,-2.037765 1.51821,-2.037765 l -2.47886,-0.614215 c 0,0 -0.40627,2.247242 -1.43155,2.82397 -1.02528,0.576728 -5.19116,1.304295 -5.19116,1.304295 l -2.54737,-4.375896 z"
       id="path925"
       sodipodi:nodetypes="cscsccsccc" />
    <path
       style="fill:#d383c5;fill-opacity:1;stroke:none;stroke-width:0.264583px;stroke-linecap:butt;stroke-linejoin:miter;stroke-opacity:1"
       d="m 97.693574,83.274926 -1.601851,9.347993 c 0,0 1.515116,-2.645839 2.75181,-3.435273 0.334551,-0.213558 1.156337,-0.284022 1.156337,-0.284022 l 0.22568,1.409636 2.39512,0.974191 1.82583,-1.993839 z"
       id="path915"
       sodipodi:nodetypes="ccaccccc" />
    <path
       style="fill:#d383c5;stroke:none;stroke-width:0.264583px;stroke-linecap:butt;stroke-linejoin:miter;stroke-opacity:1;fill-opacity:1"
       d="m 104.4465,89.293612 3.72113,1.401347 1.13295,-1.963558 c 0,0 3.39271,2.133473 4.59021,2.823139 1.19751,0.689668 1.00644,0.700249 1.00644,0.700249 l 0.25513,-11.718449 -2.92037,-4.34716 z"
       id="path917" />
    <path
       style="opacity:1;fill:#ffd1b3;fill-opacity:1;stroke:none;stroke-width:0.264583px;stroke-linecap:butt;stroke-linejoin:miter;stroke-opacity:1"
       d="m 93.272389,59.541991 c -0.662904,0.399067 -0.71487,0.28161 -1.228214,1.969709 -0.513345,1.6881 -0.925351,2.470944 -1.022525,3.769088 -0.09231,1.233192 0.692173,2.477234 0.42748,3.685217 -0.219047,0.999668 -1.43427,2.297703 -1.596621,2.622338 -0.162353,0.324639 -0.266209,0.957276 -0.216201,1.440109 0.02676,0.258368 0.08098,0.52369 0.27117,0.730546 0.188764,0.205308 0.383882,0.42037 0.468493,0.68323 0.09387,0.291621 0.01706,0.526193 0.02,0.918851 0.0037,0.495419 0.43964,0.918045 0.460933,1.413021 0.01619,0.376345 -0.249176,0.723878 -0.256902,1.100492 -0.01727,0.84198 0.482304,1.639701 0.472964,2.481807 -0.0025,0.229174 -0.131637,0.443516 -0.143663,0.672388 -0.01825,0.347344 0.109888,1.037668 0.109888,1.037668 0,0 0.443603,0.78484 1.298844,1.036261 0.855245,0.251423 1.24126,0.396188 2.210921,0.119758 0.566573,-0.161521 3.14419,-0.956022 2.763131,-0.637166 0.60008,1.051464 1.142587,1.638144 1.441213,2.757621 0.487041,1.230016 1.43413,2.583769 1.942,3.652106 0.67309,1.415894 3.86887,2.674339 3.86887,2.674339 0,0 4.49029,-3.567107 6.2862,-5.773802 1.73768,-2.13515 2.76713,-6.947105 2.68255,-7.560624 -0.0846,-0.613526 0.30169,-1.439336 0.30169,-1.439336 0,0 -1.05158,-0.411194 -1.30269,-0.868751 -0.8015,-1.46044 0.27932,-3.375894 -0.10602,-4.996635 -0.15099,-0.635082 -0.90538,-2.275766 -1.93538,-2.615117 -0.70684,-0.232881 -1.9431,0.370786 -2.1348,0.6537 -0.19169,0.282914 -0.43367,0.996159 -0.43367,0.996159 0,0 -0.77706,-4.241733 -1.92292,-6.002904 -0.87712,-1.348116 -3.21108,-1.15946 -3.60456,-3.207477 -0.39348,-2.048021 -0.32373,-1.934224 -0.32373,-1.934224 0,0 -6.279538,-0.894754 -8.798454,0.621628 z"
       id="path847"
       sodipodi:nodetypes="ssassasassaaacssccscsscasascsscss" />
    <path
       style="fill:#333333;stroke:none;stroke-width:0.264583px;stroke-linecap:butt;stroke-linejoin:miter;stroke-opacity:1"
       d="m 95.158123,83.071609 -1.615793,2.36006 c 0,0 -1.975179,3.901572 -2.567183,5.992439 -0.782177,2.762529 -1.262311,8.52038 -1.262311,8.52038 0,0 -0.150389,0.771782 0.627406,3.395232 0.777793,2.62345 3.539721,8.2066 5.811761,12.04054 1.953397,3.29624 5.427637,8.555 6.681107,9.3537 1.25346,0.79869 1.90507,1.18415 1.90507,1.18415 0,0 -1.08323,-2.70116 -1.64221,-4.04461 -1.63556,-3.93089 -2.80675,-6.25829 -5.007899,-11.75005 -1.029128,-2.56762 -1.974499,-4.71817 -2.788476,-7.28421 -0.685763,-2.16185 0.09563,-4.538125 0.288835,-6.797888 0.385552,-4.509548 1.734794,-13.466719 1.734794,-13.466719 z"
       id="path911"
       sodipodi:nodetypes="ccacsascassacc" />
    <path
       style="fill:#ffd1b3;fill-opacity:1;stroke:none;stroke-width:0.264583px;stroke-linecap:butt;stroke-linejoin:miter;stroke-opacity:1"
       d="m 94.557396,125.81554 c 0,0 1.027317,-0.94196 2.86698,-1.09319 1.839664,-0.15124 5.013624,0.0173 5.356814,0.22811 0.34319,0.21082 2.39097,0.81037 2.5859,1.70874 l 0.19493,0.89838 c 0,0 -0.44181,0.70312 -1.11536,0.69059 -0.67355,-0.0125 -3.97025,-0.56315 -3.97025,-0.56315 0,0 0.54832,0.16352 1.22764,0.26024 0.91791,0.13068 2.05675,0.22259 2.23393,0.40606 0.16396,0.16978 0.36925,0.82586 0.25028,1.41978 -0.10474,0.52286 -0.52691,1.00158 -0.52691,1.00158 0,0 -0.2592,0.51154 -1.0335,0.49075 -0.77429,-0.0208 -2.945811,-0.37966 -2.945811,-0.37966 l 1.792071,0.40049 c 0,0 1.15374,-0.0208 1.92105,0.33811 0.50152,0.2346 0.28222,1.63689 0.28222,1.63689 0,0 -0.46007,0.9924 -0.95356,0.96901 -0.49349,-0.0234 -4.279467,-0.36549 -4.279467,-0.36549 0,0 2.715457,0.43686 4.041137,0.45289 0.44598,0.005 1.22423,-0.0448 1.22423,-0.0448 0.63558,0.61181 -0.14866,1.26606 -0.24427,1.39847 -0.0956,0.1324 -1.52149,0.577 -2.59178,0.60018 -1.070305,0.0232 -2.992861,-0.0217 -3.352403,0.15285 -0.359505,0.17448 -2.561622,0.31902 -3.773412,-0.0181 -0.883285,-0.24576 -2.265332,-1.02813 -2.362064,-1.40924 -0.09673,-0.38111 0.02408,-3.29653 0.410602,-4.33099 0.386519,-1.03446 0.933394,-2.73825 1.329222,-3.37496 0.225875,-0.36333 0.571154,-0.88864 0.90247,-1.1896 0.249296,-0.22646 0.529311,-0.28388 0.529311,-0.28388 z"
       id="path853"
       sodipodi:nodetypes="cssscscssscsccscscsssssasssscc" />
    <path
       style="fill:#ffd1b3;fill-opacity:1;stroke:none;stroke-width:0.264583px;stroke-linecap:butt;stroke-linejoin:miter;stroke-opacity:1"
       d="m 115.3478,129.3697 c 0,0 -2.08839,-1.3345 -2.75563,-1.43663 -0.66724,-0.10213 -3.3322,-0.33577 -5.0034,-0.43322 -0.38458,-0.0224 -1.15519,-0.0348 -1.15519,-0.0348 0,0 0.71141,0.44512 0.50562,1.15691 -0.2058,0.71178 0.26371,0.96828 0.26371,0.96828 0,0 0.69094,0.36356 1.40945,0.3507 0.40324,-0.007 0.89155,-0.55291 1.08523,-0.3252 0.11015,0.1295 0.2629,0.54573 -0.0767,0.50422 -0.33958,-0.0415 -0.66581,-0.12486 -0.9169,0.0502 -0.0585,0.0408 -0.0849,0.19652 -0.0849,0.19652 l -1.5514,-0.67584 -0.48511,-0.31991 c 0,0 0.34756,-0.58811 0.25444,-1.04162 -0.0931,-0.45351 -0.33911,-0.83237 -0.71625,-0.89717 -0.62468,-0.10732 -1.26638,0.63771 -1.61429,1.00484 -0.34791,0.36714 -1.06591,1.90388 -0.8451,2.33563 0.22081,0.43176 0.30043,0.46948 0.30043,0.46948 0,0 -0.28939,0.61883 -0.33819,0.95206 -0.0515,0.35171 -0.0655,0.73019 0.0538,1.06504 0.11071,0.31076 0.60263,0.46786 0.58626,0.79735 -0.0196,0.39384 -0.64569,0.51266 -0.79177,0.87892 -0.20302,0.50903 -0.71528,1.07531 -0.0423,1.64354 0.67294,0.56821 1.1435,0.58897 1.44835,1.11695 0.24634,0.42664 -0.008,1.01683 0.19656,1.46482 0.0984,0.215 0.47021,0.53103 0.47021,0.53103 0,0 3.01144,0.82925 4.55693,0.86023 1.19148,0.0239 2.38209,-0.22742 3.53687,-0.52185 1.08199,-0.27587 2.38298,-1.0251 3.14349,-1.15746 0.76051,-0.13235 0.89239,-0.1065 0.89239,-0.1065 0,0 -1.07741,-5.78334 -1.56752,-7.23801 -0.49011,-1.45467 -0.759,-2.15858 -0.759,-2.15858 z"
       id="path855"
       sodipodi:nodetypes="csscscsssacccsasscaassssacaascscc" />
    <path
       style="fill:#262e40;stroke:#f4f4f4;stroke-width:0.005;stroke-linecap:butt;stroke-linejoin:miter;stroke-opacity:1;fill-opacity:1;stroke-miterlimit:4;stroke-dasharray:none;filter:url(#filter971)"
       d="m 102.14419,92.577387 c 0,0 0.63732,2.734434 0.68836,3.461419 0.051,0.726983 0.0834,0.75311 0.0834,0.75311 0,0 0.86289,-0.322148 1.27316,-0.322148 0.41027,0 0.49844,0.0455 0.49844,0.0455 0,0 -0.84569,-0.243055 0.32741,-1.917624 1.17309,-1.674571 1.29511,-1.847627 1.29511,-1.847627 V 91.84982 c 0,0 -2.05247,0.838104 -4.16591,0.727564 z"
       id="path921" />
    <path
       style="fill:#333333;fill-opacity:1;stroke:none;stroke-width:0.264583px;stroke-linecap:butt;stroke-linejoin:miter;stroke-opacity:1"
       d="m 113.49949,77.863104 c 0,0 1.36646,1.43212 1.36698,5.268528 5.3e-4,3.836406 0.071,14.090116 -0.26877,15.65334 -0.3398,1.563218 -1.51522,7.398258 -2.66932,10.985598 -1.04652,3.25294 -3.84194,9.50427 -3.84194,9.50427 l -2.52442,8.28274 c 0,0 2.65598,-6.71465 4.18084,-8.56106 1.52486,-1.8464 5.0897,-7.5238 7.08522,-11.58768 1.43406,-2.92046 2.93805,-5.91197 3.47598,-9.120739 0.66911,-3.991284 0.48486,-9.814095 -0.38743,-12.13476 -0.8723,-2.320663 -2.89204,-3.963797 -2.89204,-3.963797 z"
       id="path913"
       sodipodi:nodetypes="cscaccsaascc" />
    <path
       style="fill:#262e40;fill-opacity:1;stroke:none;stroke-width:0.264583px;stroke-linecap:butt;stroke-linejoin:miter;stroke-opacity:1"
       d="m 102.91595,96.791914 c 0,0 -0.63753,0.474072 -0.77149,3.344806 -0.13395,2.87074 0.46761,16.82685 0.46761,16.82685 l 0.22024,4.31741 1.90587,4.63713 0.82384,1.63947 2.22356,-7.13441 c 0,0 -1.78851,-13.89651 -1.83951,-15.62417 -0.051,-1.72765 0.71318,-1.60197 -0.27267,-4.942854 l -0.98585,-3.340878 -0.81335,-0.02863 z"
       id="path923"
       sodipodi:nodetypes="cscccccssccc" />
    <path
       style="fill:#785a47;fill-opacity:1;stroke:none;stroke-width:0.264583px;stroke-linecap:butt;stroke-linejoin:miter;stroke-opacity:1"
       d="m 95.361225,67.459391 c 0,0 -2.445745,-1.742937 -4.681665,-1.649627 -1.510703,0.06305 -1.973405,-0.02065 -2.183051,-0.0038 -0.100642,0.0081 0.0036,-0.04906 -0.198268,0.111095 -0.410867,0.325896 -0.409813,0.990144 -0.426717,1.514295 -0.0408,1.265151 0.322711,2.538375 0.792321,3.713848 0.224354,0.561578 0.833495,1.528779 0.948218,1.546681 0,0 0.05395,-0.981851 0.487212,-1.465279 0.433255,-0.483426 0.978818,-1.156642 1.204096,-1.860032 0.09444,-0.294861 0.225686,-0.607912 0.225985,-0.92124 2.71e-4,-0.28497 -0.0011,-0.55107 -0.07359,-0.837359 -0.07222,-0.285048 -0.122835,-0.670592 -0.253856,-0.988421 -0.161986,-0.392947 -0.14896,-0.693629 -0.14896,-0.693629 l 0.96477,0.132735 1.13612,0.367068 c 0,0 -0.917384,-0.0043 -1.290156,0.762736 -0.372771,0.767005 -0.241019,2.241269 -0.241019,2.241269 0,0 0.656854,2.264458 0.864952,2.547504 0.2081,0.283046 0.899115,1.2114 1.367718,1.246632 0.468604,0.03523 1.12154,0.05312 1.469467,-0.306478 C 96.125193,72.090153 96.21916,70.626492 95.91798,69.51553 95.834738,69.208475 95.667,68.627945 95.667,68.627945 l 14.76821,-0.278721 0.0153,-0.4271 -14.908651,0.05858 z"
       id="path1455"
       sodipodi:nodetypes="csssaasssssscccscssasccccc" />
  </g>
</svg>
