<?xml version="1.0" encoding="UTF-8" standalone="no"?>
<svg
   xmlns:dc="http://purl.org/dc/elements/1.1/"
   xmlns:cc="http://creativecommons.org/ns#"
   xmlns:rdf="http://www.w3.org/1999/02/22-rdf-syntax-ns#"
   xmlns:svg="http://www.w3.org/2000/svg"
   xmlns="http://www.w3.org/2000/svg"
   xmlns:xlink="http://www.w3.org/1999/xlink"
   xmlns:sodipodi="http://sodipodi.sourceforge.net/DTD/sodipodi-0.dtd"
   xmlns:inkscape="http://www.inkscape.org/namespaces/inkscape"
   sodipodi:docname="drawing.svg"
   inkscape:version="1.0 (5b275a35d9, 2020-05-03)"
   id="svg8"
   version="1.1"
   viewBox="0 0 210 297"
   height="297mm"
   width="210mm">
  <defs
     id="defs2">
    <linearGradient
       id="linearGradient5088"
       inkscape:collect="always">
      <stop
         id="stop5084"
         offset="0"
         style="stop-color:#0000ff;stop-opacity:1;" />
      <stop
         id="stop5086"
         offset="1"
         style="stop-color:#812b00;stop-opacity:1" />
    </linearGradient>
    <linearGradient
       inkscape:collect="always"
       id="linearGradient5055">
      <stop
         style="stop-color:#5599ff;stop-opacity:1;"
         offset="0"
         id="stop5059" />
      <stop
         style="stop-color:#000c4a;stop-opacity:1"
         offset="1"
         id="stop5061" />
    </linearGradient>
    <radialGradient
       spreadMethod="pad"
       gradientUnits="userSpaceOnUse"
       gradientTransform="matrix(0.24757675,-0.00773026,0.00784062,0.25111115,-3.3791914,6.5523726)"
       r="171.13477"
       fy="455.79739"
       fx="11.439453"
       cy="455.79739"
       cx="11.439453"
       id="radialGradient5057"
       xlink:href="#linearGradient5055"
       inkscape:collect="always" />
    <linearGradient
       gradientTransform="translate(3.155566e-6)"
       gradientUnits="userSpaceOnUse"
       y2="155.12856"
       x2="-14.069223"
       y1="136.7037"
       x1="-13.780331"
       id="linearGradient5090"
       xlink:href="#linearGradient5088"
       inkscape:collect="always" />
    <radialGradient
       spreadMethod="pad"
       r="171.13477"
       fy="455.79739"
       fx="11.439453"
       cy="455.79739"
       cx="11.439453"
       gradientTransform="matrix(0.24757675,-0.00773026,0.00784062,0.25111115,-3.3791914,6.5523726)"
       gradientUnits="userSpaceOnUse"
       id="radialGradient843"
       xlink:href="#linearGradient5055"
       inkscape:collect="always" />
  </defs>
  <sodipodi:namedview
     inkscape:document-rotation="0"
     inkscape:window-maximized="1"
     inkscape:window-y="1080"
     inkscape:window-x="0"
     inkscape:window-height="813"
     inkscape:window-width="1600"
     inkscape:object-paths="true"
     showborder="true"
     showgrid="false"
     inkscape:current-layer="layer1"
     inkscape:document-units="mm"
     inkscape:cy="792.85667"
     inkscape:cx="-337.1028"
     inkscape:zoom="0.35355339"
     inkscape:pageshadow="2"
     inkscape:pageopacity="0.0"
     borderopacity="1.0"
     bordercolor="#666666"
     pagecolor="#ffffff"
     id="base" />
  <metadata
     id="metadata5">
    <rdf:RDF>
      <cc:Work
         rdf:about="">
        <dc:format>image/svg+xml</dc:format>
        <dc:type
           rdf:resource="http://purl.org/dc/dcmitype/StillImage" />
        <dc:title></dc:title>
      </cc:Work>
    </rdf:RDF>
  </metadata>
  <g
     id="layer1"
     inkscape:groupmode="layer"
     inkscape:label="Layer 1">
    <path
       id="path5066"
       d="M 103.93582,39.298558 A 45.376041,44.582291 0 0 0 59.148888,77.075065 65.977034,64.822913 0 0 0 84.330813,91.373415 20.914247,18.904022 0 0 1 103.94409,78.96487 20.914247,18.904022 0 0 1 123.58423,91.419923 65.977034,64.822913 0 0 0 148.73929,77.014602 45.376041,44.582291 0 0 0 103.93582,39.298558 Z"
       style="opacity:1;fill:url(#radialGradient843);fill-opacity:1;stroke-width:0.264583" />
    <path
       id="path4532"
       d="M 149.19921,82.911916 A 65.977034,64.822913 0 0 1 124.63481,97.290882 20.914247,18.904022 0 0 1 103.94409,113.5979 20.914247,18.904022 0 0 1 83.258528,97.345143 65.977034,64.822913 0 0 1 58.640393,82.939305 45.376041,44.582291 0 0 0 103.93582,125.28814 45.376041,44.582291 0 0 0 149.19921,82.911916 Z"
       style="opacity:1;fill:url(#radialGradient5057);fill-opacity:1;stroke-width:0.264583" />
    <path
       id="path4534"
       d="m 60.763259,70.501304 a 45.376041,44.582291 0 0 0 -1.614371,6.573761 65.977034,64.822913 0 0 0 24.582995,14.100947 65.977034,64.822913 0 0 0 0.59893,0.197403 20.914247,18.904022 0 0 1 4.36976,-6.418731 20.914247,18.904021 0 0 1 15.243517,-5.989814 20.914247,18.904021 0 0 1 19.40501,11.917103 20.914247,18.904022 0 0 1 0.0785,0.160713 20.914247,18.904021 0 0 1 0.15658,0.377237 65.977034,64.822913 0 0 0 0.58911,-0.214458 65.977034,64.822913 0 0 0 24.56595,-14.190863 45.376041,44.582291 0 0 0 -1.60663,-6.503995 65.977034,64.822913 0 0 1 -27.34975,13.987777 21.506004,19.802557 0 0 0 -15.83882,-6.432166 21.506004,19.802557 0 0 0 -15.785087,6.409427 65.977034,64.822913 0 0 1 -27.395744,-13.974341 z"
       style="opacity:1;fill:#ff0000;stroke-width:0.264583" />
    <path
       inkscape:connector-curvature="0"
       id="path4539"
       d="m 149.19921,82.911903 a 65.977034,64.822913 0 0 1 -23.92206,14.15779 65.977034,64.822913 0 0 1 -0.64234,0.22117 20.914247,18.904021 0 0 1 -2.75435,7.086907 20.914247,18.904021 0 0 1 -17.93637,9.22011 20.914247,18.904021 0 0 1 -20.685562,-16.252757 65.977034,64.822913 0 0 1 -0.633037,-0.24029 65.977034,64.822913 0 0 1 -23.985098,-14.16554 45.376041,44.582291 0 0 0 1.122929,7.67653 65.977034,64.822913 0 0 0 25.606186,14.008957 21.506004,19.802557 0 0 0 18.574582,9.87175 21.506004,19.802557 0 0 0 18.59214,-9.92653 65.977034,64.822913 0 0 0 25.5416,-14.023427 45.376041,44.582291 0 0 0 1.12138,-7.63467 z"
       style="opacity:0.828571;fill:#ff0000;stroke-width:0.264583" />
    <ellipse
       cx="104.20867"
       cy="96.281334"
       rx="15.357997"
       ry="14.141522"
       id="path4544"
       style="opacity:0.828571;fill:url(#linearGradient5090);fill-opacity:1;stroke-width:0.32878" />
  </g>
</svg>
