<?xml version="1.0" encoding="UTF-8" standalone="no"?>
<svg
   xmlns:dc="http://purl.org/dc/elements/1.1/"
   xmlns:cc="http://creativecommons.org/ns#"
   xmlns:rdf="http://www.w3.org/1999/02/22-rdf-syntax-ns#"
   xmlns:svg="http://www.w3.org/2000/svg"
   xmlns="http://www.w3.org/2000/svg"
   xmlns:sodipodi="http://sodipodi.sourceforge.net/DTD/sodipodi-0.dtd"
   xmlns:inkscape="http://www.inkscape.org/namespaces/inkscape"
   sodipodi:docname="iron-man.svg"
   inkscape:version="1.0 (6e3e5246a0, 2020-05-07)"
   id="svg8"
   version="1.1"
   viewBox="0 0 210 297"
   height="297mm"
   width="210mm">
  <defs
     id="defs2">
    <filter
       height="1.2114725"
       y="-0.10573626"
       width="1.0950617"
       x="-0.04753083"
       id="filter875"
       style="color-interpolation-filters:sRGB"
       inkscape:collect="always">
      <feGaussianBlur
         id="feGaussianBlur877"
         stdDeviation="0.33314174"
         inkscape:collect="always" />
    </filter>
    <filter
       height="1.2114725"
       y="-0.10573626"
       width="1.0950616"
       x="-0.047530821"
       id="filter879"
       style="color-interpolation-filters:sRGB"
       inkscape:collect="always">
      <feGaussianBlur
         id="feGaussianBlur881"
         stdDeviation="0.33314174"
         inkscape:collect="always" />
    </filter>
  </defs>
  <sodipodi:namedview
     inkscape:window-maximized="1"
     inkscape:window-y="0"
     inkscape:window-x="0"
     inkscape:window-height="813"
     inkscape:window-width="1600"
     showgrid="false"
     inkscape:document-rotation="0"
     inkscape:current-layer="layer1"
     inkscape:document-units="mm"
     inkscape:cy="572.37209"
     inkscape:cx="532.64232"
     inkscape:zoom="0.51129729"
     inkscape:pageshadow="2"
     inkscape:pageopacity="0.0"
     borderopacity="1.0"
     bordercolor="#666666"
     pagecolor="#ffffff"
     id="base" />
  <metadata
     id="metadata5">
    <rdf:RDF>
      <cc:Work
         rdf:about="">
        <dc:format>image/svg+xml</dc:format>
        <dc:type
           rdf:resource="http://purl.org/dc/dcmitype/StillImage" />
        <dc:title></dc:title>
      </cc:Work>
    </rdf:RDF>
  </metadata>
  <g
     id="layer1"
     inkscape:groupmode="layer"
     inkscape:label="Layer 1">
    <path
       id="path847"
       d="m 29.859061,45.756416 -2.54292,52.184702 3.467369,73.302272 9.603796,46.36687 19.297128,31.00627 19.327932,17.78226 51.566854,-0.60605 10.79891,-8.1572 24.41294,-37.2221 10.12447,-49.51723 10.40131,-6.15976 -1.27213,-62.42211 -3.97954,-2.09363 L 177.55343,45.239046 162.52947,29.832715 140.4556,18.83319 104.5767,14.356425 53.65192,23.419518 Z"
       style="opacity:1;fill:#9d111e;fill-opacity:1;stroke:#000000;stroke-width:0.583302px;stroke-linecap:butt;stroke-linejoin:miter;stroke-opacity:1" />
    <path
       sodipodi:nodetypes="cccccccccccccccccccccccccccccccccccc"
       id="path849"
       d="m 27.111687,107.77886 0.839913,36.59919 2.910296,17.92589 12.999416,17.51273 18.380487,27.58171 3.215302,16.17759 -4.147599,15.91718 11.822145,12.92205 8.193294,-6.96083 43.764469,0.17929 9.30717,7.16812 11.26501,-14.06579 -3.49939,-23.75788 8.35492,-21.72344 24.67521,-31.29156 3.87143,-54.80157 -6.67325,33.31568 -8.06601,10.58299 -4.69821,-7.40041 5.54869,-2.60319 6.92243,-8.58463 0.81259,-71.429189 -5.66124,-4.707324 -19.13214,6.638613 -28.62499,45.3372 -15.87842,5.03514 L 87.610065,108.6115 63.626805,64.573019 40.7838,56.538755 l -6.151791,5.571757 -0.292974,74.656008 4.81404,4.35211 6.469349,2.28638 -4.233288,5.92516 -9.999065,-9.64573 z"
       style="opacity:1;fill:#eacd85;fill-opacity:1;stroke:#000000;stroke-width:0.583302px;stroke-linecap:butt;stroke-linejoin:miter;stroke-opacity:1" />
    <path
       id="path865"
       d="m 45.23078,142.59106 -3.841644,6.73911 8.041509,12.39302 31.653587,6.72449 6.302395,-5.50683 34.113143,-0.10201 5.1462,4.5394 28.79459,-4.60455 10.46266,-13.46005 -4.6559,-6.91073 -43.10938,16.51894 -29.887251,0.35075 z"
       style="fill:#000000;fill-opacity:1;stroke:#000000;stroke-width:0.583302px;stroke-linecap:butt;stroke-linejoin:miter;stroke-opacity:1" />
    <path
       transform="matrix(2.2446327,0,0,2.165299,-136.19992,-28.48421)"
       id="path851"
       d="m 81.967175,80.42046 -0.05983,2.218704 2.94195,3.022242 8.539845,2.3207 4.123465,-0.111318 1.216247,-0.919953 z"
       style="fill:#ffffff;fill-opacity:1;stroke:#4de5c9;stroke-width:1.265;stroke-linecap:butt;stroke-linejoin:miter;stroke-miterlimit:4;stroke-dasharray:none;stroke-opacity:1;filter:url(#filter875)" />
    <path
       transform="matrix(2.2446327,0,0,2.165299,-136.19992,-28.48421)"
       style="fill:#ffffff;fill-opacity:1;stroke:#4de5c9;stroke-width:1.265;stroke-linecap:butt;stroke-linejoin:miter;stroke-miterlimit:4;stroke-dasharray:none;stroke-opacity:1;filter:url(#filter879)"
       d="m 131.6547,80.749932 0.0598,2.218704 -2.94195,3.022242 -8.53985,2.3207 -4.12346,-0.111318 -1.21625,-0.919953 z"
       id="path853" />
    <path
       id="path855"
       d="m 104.5767,14.356425 25.65674,16.279168 -10.74181,77.675687 0.26209,50.8141 39.87257,-15.46558 4.69821,7.40041 -9.8566,13.56168 -11.613,27.1086 -13.78845,23.5206 -2.69798,16.00388 -1.27906,14.37869 -0.82864,12.73168 -41.087644,-0.4663 -4.16076,8.49975 51.566854,-0.60605 10.79891,-8.1572 24.41294,-37.2221 10.12447,-49.51723 10.40131,-6.15976 -1.27213,-62.42211 -3.97954,-2.09363 L 177.55343,45.239046 162.52947,29.832715 140.4556,18.83319 Z"
       style="opacity:0.292991;fill:#63070c;fill-opacity:1;stroke:#000000;stroke-width:0.584221;stroke-linecap:butt;stroke-linejoin:miter;stroke-miterlimit:4;stroke-dasharray:none;stroke-opacity:1" />
    <path
       id="path857"
       d="m 30.78351,171.24339 -8.823751,-6.09284 -0.130959,-63.05321 5.487327,-4.156222 0.63546,46.436932 2.910292,17.92589 z"
       style="fill:#63070c;fill-opacity:1;stroke:none;stroke-width:0.583302px;stroke-linecap:butt;stroke-linejoin:miter;stroke-opacity:1" />
    <path
       sodipodi:nodetypes="cccccccccc"
       id="path859"
       d="M 83.173126,257.89904 80.102757,224.66358 67.865694,199.37919 42.141845,178.28832 30.861887,162.30394 l -0.07839,8.93945 9.603797,46.36687 19.297128,31.00627 19.327931,17.78226 z"
       style="opacity:0.161913;fill:#3d271e;fill-opacity:1;stroke:#000000;stroke-width:0.583302px;stroke-linecap:butt;stroke-linejoin:miter;stroke-opacity:1" />
    <path
       style="opacity:1;fill:none;fill-opacity:1;stroke:#000000;stroke-width:0.584221;stroke-linecap:butt;stroke-linejoin:miter;stroke-miterlimit:4;stroke-dasharray:none;stroke-opacity:1"
       d="m 104.5767,14.356425 25.65674,16.279168 -10.74181,77.675687 0.26209,50.8141 39.87257,-15.46558 4.69821,7.40041 -9.8566,13.56168 -11.613,27.1086 -13.78845,23.5206 -2.69798,16.00388 -1.27906,14.37869 -0.82864,12.73168 -41.087644,-0.4663 -4.16076,8.49975 51.566854,-0.60605 10.79891,-8.1572 24.41294,-37.2221 10.12447,-49.51723 10.40131,-6.15976 -1.27213,-62.42211 -3.97954,-2.09363 L 177.55343,45.239046 162.52947,29.832715 140.4556,18.83319 Z"
       id="path861" />
    <path
       id="path863"
       d="m 37.69836,68.950064 6.736277,69.871696 32.801246,11.78985 -28.64405,-15.04907 z"
       style="fill:#580000;fill-opacity:1;stroke:none;stroke-width:0.583302px;stroke-linecap:butt;stroke-linejoin:miter;stroke-opacity:1" />
    <path
       sodipodi:nodetypes="ccccccccccc"
       id="path883"
       d="m 63.85802,225.68084 9.008292,15.86605 8.458629,-6.40482 44.629329,0.0195 8.8727,7.18963 9.37757,-17.82406 -10.66637,13.53071 -6.30909,-6.8548 -46.826974,0.2807 -7.358333,6.60057 z"
       style="fill:#3d271e;fill-opacity:1;stroke:none;stroke-width:0.583302px;stroke-linecap:butt;stroke-linejoin:miter;stroke-opacity:1" />
    <path
       style="opacity:1;fill:none;fill-opacity:1;stroke:#000000;stroke-width:0.583302px;stroke-linecap:butt;stroke-linejoin:miter;stroke-opacity:1"
       d="M 83.173126,257.89904 80.102757,224.66358 67.865694,199.37919 42.141845,178.28832 30.861887,162.30394 l -0.07839,8.93945 9.603797,46.36687 19.297128,31.00627 19.327931,17.78226 z"
       id="path885"
       sodipodi:nodetypes="cccccccccc" />
    <path
       sodipodi:nodetypes="ccccccccc"
       id="path887"
       d="m 43.649843,180.11612 -0.620732,7.99826 13.457831,36.52855 3.122845,2.00229 1.699715,12.84793 4.258909,-15.34711 -3.326612,-16.74766 z"
       style="fill:#3d271e;fill-opacity:1;stroke:none;stroke-width:0.583302px;stroke-linecap:butt;stroke-linejoin:miter;stroke-opacity:1" />
    <path
       sodipodi:nodetypes="ccccccccc"
       style="fill:#3d271e;fill-opacity:1;stroke:none;stroke-width:0.583302px;stroke-linecap:butt;stroke-linejoin:miter;stroke-opacity:1"
       d="m 167.19497,171.61796 0.73218,9.40009 -15.52988,39.45583 -3.03803,3.93396 -3.69765,14.32815 -3.49939,-23.75788 8.35492,-21.72344 13.55958,-17.28438 z"
       id="path889" />
    <path
       sodipodi:nodetypes="ccccc"
       id="path891"
       d="m 49.343541,193.67787 10.517428,14.05401 3.534478,15.47441 -4.893366,-5.54409 z"
       style="opacity:0.500381;fill:#afe9dd;fill-opacity:1;stroke:#000000;stroke-width:0.583302px;stroke-linecap:butt;stroke-linejoin:miter;stroke-opacity:1" />
    <path
       style="opacity:0.500381;fill:#afe9dd;fill-opacity:1;stroke:#000000;stroke-width:0.583302px;stroke-linecap:butt;stroke-linejoin:miter;stroke-opacity:1"
       d="m 163.40096,182.58453 -13.36595,21.18634 -5.82988,14.30192 7.09221,-4.27338 z"
       id="path893"
       sodipodi:nodetypes="ccccc" />
    <path
       id="path913"
       d="m 42.687689,61.57812 18.832165,6.737214 13.057953,23.607115 z"
       style="fill:#c29362;fill-opacity:1;stroke:#000000;stroke-width:0.583302px;stroke-linecap:butt;stroke-linejoin:miter;stroke-opacity:1" />
    <path
       id="path915"
       d="m 50.70171,66.196919 9.2036,3.248791 1.627354,2.742654 -7.313299,-1.746017 z"
       style="fill:#885f35;fill-opacity:1;stroke:none;stroke-width:0.583302px;stroke-linecap:butt;stroke-linejoin:miter;stroke-opacity:1" />
    <path
       id="path917"
       d="m 29.85906,45.756416 4.772949,16.354096"
       style="fill:none;stroke:#000000;stroke-width:0.572901px;stroke-linecap:butt;stroke-linejoin:miter;stroke-opacity:1" />
  </g>
</svg>
