<?xml version="1.0" encoding="UTF-8" standalone="no"?>
<svg
   xmlns:dc="http://purl.org/dc/elements/1.1/"
   xmlns:cc="http://creativecommons.org/ns#"
   xmlns:rdf="http://www.w3.org/1999/02/22-rdf-syntax-ns#"
   xmlns:svg="http://www.w3.org/2000/svg"
   xmlns="http://www.w3.org/2000/svg"
   xmlns:sodipodi="http://sodipodi.sourceforge.net/DTD/sodipodi-0.dtd"
   xmlns:inkscape="http://www.inkscape.org/namespaces/inkscape"
   inkscape:export-ydpi="300"
   inkscape:export-xdpi="300"
   inkscape:export-filename="/home/omkarpathak/Documents/GIT/illustrations/pngs/L.png"
   width="299.19232mm"
   height="180.6254mm"
   viewBox="0 0 299.19232 180.6254"
   version="1.1"
   id="svg8"
   inkscape:version="1.0 (6e3e5246a0, 2020-05-07)"
   sodipodi:docname="L.svg">
  <defs
     id="defs2">
    <filter
       height="1.0495572"
       y="-0.024778577"
       width="1.0756404"
       x="-0.037820213"
       id="filter864"
       style="color-interpolation-filters:sRGB"
       inkscape:collect="always">
      <feGaussianBlur
         id="feGaussianBlur866"
         stdDeviation="0.33147121"
         inkscape:collect="always" />
    </filter>
    <filter
       height="1.0734479"
       y="-0.036724016"
       width="1.1121057"
       x="-0.056052864"
       id="filter876"
       style="color-interpolation-filters:sRGB"
       inkscape:collect="always">
      <feGaussianBlur
         id="feGaussianBlur878"
         stdDeviation="0.49126932"
         inkscape:collect="always" />
    </filter>
    <filter
       height="1.0195"
       y="-0.0097500226"
       width="1.0311999"
       x="-0.015599941"
       id="filter952"
       style="color-interpolation-filters:sRGB"
       inkscape:collect="always">
      <feGaussianBlur
         id="feGaussianBlur954"
         stdDeviation="0.56376812"
         inkscape:collect="always" />
    </filter>
    <filter
       height="1.0218939"
       y="-0.010946901"
       width="1.0265546"
       x="-0.013277283"
       id="filter956"
       style="color-interpolation-filters:sRGB"
       inkscape:collect="always">
      <feGaussianBlur
         id="feGaussianBlur958"
         stdDeviation="0.35400672"
         inkscape:collect="always" />
    </filter>
    <filter
       height="1.0292114"
       y="-0.01460569"
       width="1.0203665"
       x="-0.010183279"
       id="filter970"
       style="color-interpolation-filters:sRGB"
       inkscape:collect="always">
      <feGaussianBlur
         id="feGaussianBlur972"
         stdDeviation="0.34952404"
         inkscape:collect="always" />
    </filter>
    <filter
       height="0.98160338"
       y="0.021017075"
       width="0.92490274"
       x="0.07664901"
       id="filter992"
       style="color-interpolation-filters:sRGB"
       inkscape:collect="always">
      <feGaussianBlur
         id="feGaussianBlur994"
         stdDeviation="0.17968464"
         inkscape:collect="always" />
    </filter>
    <filter
       height="1.0358608"
       y="-0.017930387"
       width="1.0180351"
       x="-0.0090175048"
       id="filter1012"
       style="color-interpolation-filters:sRGB"
       inkscape:collect="always">
      <feGaussianBlur
         id="feGaussianBlur1014"
         stdDeviation="0.69427036"
         inkscape:collect="always" />
    </filter>
    <filter
       height="1.0809743"
       y="-0.040487133"
       width="1.0547915"
       x="-0.027395727"
       id="filter1436"
       style="color-interpolation-filters:sRGB"
       inkscape:collect="always">
      <feGaussianBlur
         id="feGaussianBlur1438"
         stdDeviation="0.40191274"
         inkscape:collect="always" />
    </filter>
    <filter
       height="1.0809743"
       y="-0.040487129"
       width="1.0547915"
       x="-0.027395731"
       id="filter1440"
       style="color-interpolation-filters:sRGB"
       inkscape:collect="always">
      <feGaussianBlur
         id="feGaussianBlur1442"
         stdDeviation="0.40191274"
         inkscape:collect="always" />
    </filter>
    <filter
       height="1.0489377"
       y="-0.024468828"
       width="1.0294547"
       x="-0.014727363"
       id="filter1612"
       style="color-interpolation-filters:sRGB"
       inkscape:collect="always">
      <feGaussianBlur
         id="feGaussianBlur1614"
         stdDeviation="0.28452815"
         inkscape:collect="always" />
    </filter>
    <filter
       height="1.045965"
       y="-0.02298251"
       width="1.0285909"
       x="-0.014295455"
       id="filter1616"
       style="color-interpolation-filters:sRGB"
       inkscape:collect="always">
      <feGaussianBlur
         id="feGaussianBlur1618"
         stdDeviation="0.28452815"
         inkscape:collect="always" />
    </filter>
    <clipPath
       id="clipPath1668"
       clipPathUnits="userSpaceOnUse">
      <path
         id="path1670"
         d="m 3.1582029,-136.26939 21.4065301,-8.07776 c 0,0 -3.60615,4.89718 8.575621,7.91131 12.181768,3.01412 30.401199,-5.78075 30.401199,-5.78075 0,0 1.87217,7.3613 14.7032,6.4469 12.831027,-0.9144 33.907527,-8.63262 33.907527,-8.63262 0,0 0.94409,15.26307 5.05545,10.61466 4.11135,-4.64841 14.72548,-11.35977 14.72548,-11.35977 0,0 -1.27531,8.77347 16.36448,5.56623 17.63979,-3.20723 22.99091,-8.96615 22.99091,-8.96615 0,0 1.5394,11.44698 9.08744,7.62051 7.54803,-3.82647 7.85644,-4.67288 7.85644,-4.67288 l 27.13513,18.64649 -4.99509,3.39205 -18.02242,-9.61416 8.03884,11.28603 -15.89243,-10.68422 2.93938,6.1934 c 0,0 -4.28065,-9.97429 -14.0278,-3.75173 -9.74715,6.22257 -10.19319,6.66862 -10.19319,6.66862 0,0 -68.31904,-3.62252 -76.512209,1.89451 -8.193177,5.51704 -25.220229,-12.80737 -25.220229,-12.80737 l -5.017439,16.17999 -16.534461,10.52723 c 0,0 9.70575,-18.03368 -10.070579,-10.55014 -19.77632,7.48355 -28.7952102,12.09529 -28.7952102,12.09529 z"
         style="opacity:0.435832;fill:#a2a2a2;fill-opacity:1;stroke:none;stroke-width:0.264583px;stroke-linecap:butt;stroke-linejoin:miter;stroke-opacity:1" />
    </clipPath>
    <filter
       height="1.7161317"
       y="-0.35806584"
       width="1.1174972"
       x="-0.058748581"
       id="filter1680"
       style="color-interpolation-filters:sRGB"
       inkscape:collect="always">
      <feGaussianBlur
         id="feGaussianBlur1682"
         stdDeviation="0.98940226"
         inkscape:collect="always" />
    </filter>
    <filter
       height="1.7161317"
       y="-0.35806584"
       width="1.1174971"
       x="-0.058748573"
       id="filter1684"
       style="color-interpolation-filters:sRGB"
       inkscape:collect="always">
      <feGaussianBlur
         id="feGaussianBlur1686"
         stdDeviation="0.98940226"
         inkscape:collect="always" />
    </filter>
    <filter
       height="1.7194279"
       y="-0.359714"
       width="1.1180381"
       x="-0.059018992"
       id="filter1788"
       style="color-interpolation-filters:sRGB"
       inkscape:collect="always">
      <feGaussianBlur
         id="feGaussianBlur1790"
         stdDeviation="0.99395648"
         inkscape:collect="always" />
    </filter>
    <filter
       height="1.7194279"
       y="-0.359714"
       width="1.1180381"
       x="-0.059019003"
       id="filter1792"
       style="color-interpolation-filters:sRGB"
       inkscape:collect="always">
      <feGaussianBlur
         id="feGaussianBlur1794"
         stdDeviation="0.99395648"
         inkscape:collect="always" />
    </filter>
    <filter
       height="1.0172931"
       y="-0.0086465646"
       width="1.0392051"
       x="-0.019602539"
       id="filter1808"
       style="color-interpolation-filters:sRGB"
       inkscape:collect="always">
      <feGaussianBlur
         id="feGaussianBlur1810"
         stdDeviation="0.08140175"
         inkscape:collect="always" />
    </filter>
    <filter
       height="1.013927"
       y="-0.0069634761"
       width="1.0867294"
       x="-0.043364704"
       id="filter1812"
       style="color-interpolation-filters:sRGB"
       inkscape:collect="always">
      <feGaussianBlur
         id="feGaussianBlur1814"
         stdDeviation="0.20658368"
         inkscape:collect="always" />
    </filter>
    <filter
       height="1.0146121"
       y="-0.0073060449"
       width="1.0671283"
       x="-0.033564135"
       id="filter1816"
       style="color-interpolation-filters:sRGB"
       inkscape:collect="always">
      <feGaussianBlur
         id="feGaussianBlur1818"
         stdDeviation="0.09270484"
         inkscape:collect="always" />
    </filter>
    <filter
       height="1.0565248"
       y="-0.028262371"
       width="1.132058"
       x="-0.066029005"
       id="filter1828"
       style="color-interpolation-filters:sRGB"
       inkscape:collect="always">
      <feGaussianBlur
         id="feGaussianBlur1830"
         stdDeviation="0.13777186"
         inkscape:collect="always" />
    </filter>
    <filter
       height="1.0239066"
       y="-0.011953309"
       width="1.0240941"
       x="-0.012047057"
       id="filter1834"
       style="color-interpolation-filters:sRGB"
       inkscape:collect="always">
      <feGaussianBlur
         id="feGaussianBlur1836"
         stdDeviation="0.25228002"
         inkscape:collect="always" />
    </filter>
    <filter
       height="1.0177616"
       y="-0.0088808239"
       width="1.0369929"
       x="-0.018496428"
       id="filter1840"
       style="color-interpolation-filters:sRGB"
       inkscape:collect="always">
      <feGaussianBlur
         id="feGaussianBlur1842"
         stdDeviation="0.1468258"
         inkscape:collect="always" />
    </filter>
    <filter
       height="1.0508289"
       y="-0.025414472"
       width="1.0796071"
       x="-0.039803553"
       id="filter1854"
       style="color-interpolation-filters:sRGB"
       inkscape:collect="always">
      <feGaussianBlur
         id="feGaussianBlur1856"
         stdDeviation="0.60765328"
         inkscape:collect="always" />
    </filter>
    <filter
       height="1.0154974"
       y="-0.0077486872"
       width="1.0531737"
       x="-0.026586872"
       id="filter1886"
       style="color-interpolation-filters:sRGB"
       inkscape:collect="always">
      <feGaussianBlur
         id="feGaussianBlur1888"
         stdDeviation="0.068977999"
         inkscape:collect="always" />
    </filter>
  </defs>
  <sodipodi:namedview
     fit-margin-bottom="0"
     fit-margin-right="0"
     fit-margin-left="0"
     fit-margin-top="0"
     id="base"
     pagecolor="#ffffff"
     bordercolor="#666666"
     borderopacity="1.0"
     inkscape:pageopacity="0.0"
     inkscape:pageshadow="2"
     inkscape:zoom="0.49497475"
     inkscape:cx="1062.9462"
     inkscape:cy="263.64182"
     inkscape:document-units="mm"
     inkscape:current-layer="layer1"
     inkscape:document-rotation="0"
     showgrid="false"
     inkscape:showpageshadow="false"
     inkscape:window-width="1920"
     inkscape:window-height="1041"
     inkscape:window-x="0"
     inkscape:window-y="0"
     inkscape:window-maximized="1" />
  <metadata
     id="metadata5">
    <rdf:RDF>
      <cc:Work
         rdf:about="">
        <dc:format>image/svg+xml</dc:format>
        <dc:type
           rdf:resource="http://purl.org/dc/dcmitype/StillImage" />
        <dc:title></dc:title>
      </cc:Work>
    </rdf:RDF>
  </metadata>
  <g
     transform="translate(0.06879415,1.5058443)"
     inkscape:label="Layer 1"
     inkscape:groupmode="layer"
     id="layer1">
    <path
       d="M 0.40562551,-1.2241952 H 298.15818 c 0.0257,0 0.0463,0.020657 0.0463,0.046316 V 175.91833 c 0,0.0257 -0.0207,0.0463 -0.0463,0.0463 H 0.40562551 c -0.0256592,0 -0.0463162,-0.0207 -0.0463162,-0.0463 V -1.177879 c 0,-0.025659 0.020657,-0.046316 0.0463162,-0.046316 z"
       sodipodi:type="rect"
       ry="0.046316221"
       y="-1.2241952"
       x="0.35930929"
       height="177.18884"
       width="297.84518"
       id="rect1016"
       style="opacity:1;fill:#282828;fill-opacity:1;stroke:none;stroke-width:0.609184;stroke-miterlimit:4;stroke-dasharray:none;stroke-opacity:1;paint-order:stroke fill markers" />
    <path
       id="path1802"
       d="M 9.27691,84.33613 5.08599,92.525523 6.17194,110.65191 11.71484,92.346723 10.51837,80.198824 Z"
       style="fill:#a2a2a2;fill-opacity:1;stroke:none;stroke-width:0.264583px;stroke-linecap:butt;stroke-linejoin:miter;stroke-opacity:1;filter:url(#filter1816)" />
    <path
       sodipodi:nodetypes="cscscccssccc"
       id="path1796"
       d="m 60.290372,68.830989 c 0,0 -19.738848,4.953134 -22.426354,9.865815 l -2.687516,4.912682 c 0,0 -13.949177,-8.58123 -23.898004,-3.608038 L -0.55131312,84.82689 -0.00881066,179.0651 298.7617,179.02992 298.63316,75.930376 c -0.007,-5.726945 -28.11512,2.571444 -45.45895,-3.629467 -17.34383,-6.200908 -18.02954,-6.200908 -18.02954,-6.200908 L 165.1953,17.241294 Z"
       style="fill:#f3f3f3;fill-opacity:1;stroke:none;stroke-width:0.259078px;stroke-linecap:butt;stroke-linejoin:miter;stroke-opacity:1" />
    <path
       sodipodi:nodetypes="cacacacac"
       id="path1838"
       d="m 278.85778,179.21358 c 0,0 -1.68652,-7.06433 -1.32517,-10.61016 0.52551,-5.15674 5.00024,-14.72449 5.00024,-14.72449 0,0 -2.10909,9.58753 -1.62079,14.38965 0.39154,3.85059 3.59556,11.04061 3.59556,11.04061 0,0 -0.25497,-7.47312 0.71271,-11.02711 1.95006,-7.162 10.02786,-19.88253 10.02786,-19.88253 0,0 -4.2254,14.45429 -4.58847,21.90587 -0.14166,2.90745 0.95091,8.68076 0.95091,8.68076"
       style="fill:#a2a2a2;fill-opacity:1;stroke:none;stroke-width:0.264583px;stroke-linecap:butt;stroke-linejoin:miter;stroke-opacity:1;filter:url(#filter1840)" />
    <path
       sodipodi:nodetypes="ccccccsccccccccscccccscccccc"
       id="path980"
       d="m 55.886169,48.918186 11.127647,103.896234 16.703401,23.20696 -20.657849,-20.23172 12.901943,23.27683 135.524679,-0.11451 c 0,0 -6.58864,-18.19155 1.10879,-23.97159 7.69739,-5.78003 11.00452,-8.26622 11.00452,-8.26622 l -7.2637,26.28399 7.77465,-0.23288 9.58522,-25.96937 4.68998,-26.9015 -5.47991,8.81272 4.48525,-20.84659 19.85115,23.97003 c 0,0 -7.37852,-29.18368 -3.73745,-22.50692 6.4263,11.78411 24.30768,18.83679 24.30768,18.83679 l -25.12115,-29.890398 3.66529,-0.12546 17.7404,18.470328 -18.94291,-45.611301 c 0,0 21.279,20.122587 22.91148,25.156945 1.63247,5.034356 1.63247,5.266596 1.63247,5.266596 L 267.56848,67.919409 276.87776,48.316057 270.65893,1.3657234 5.6509764,0.36330476 Z"
       style="fill:#a2a2a2;fill-opacity:1;stroke:none;stroke-width:0.327223px;stroke-linecap:butt;stroke-linejoin:miter;stroke-opacity:1;filter:url(#filter992)" />
    <path
       inkscape:original-d="m 68.750126,81.868295 -22.864145,24.327905 72.839769,61.36613 56.76863,6.50259 c 0,0 23.68797,-27.00375 27.5884,-25.96769 3.90043,1.03606 -2.12464,13.78882 -2.12464,13.78882 l -4.15319,12.91102 3.85786,-0.53454 30.00254,-83.42068 z"
       sodipodi:nodetypes="ccccsccccc"
       id="path990"
       d="m 68.750126,81.868295 -22.864145,24.327905 72.839769,61.36613 56.76863,6.50259 c 0,0 23.68797,-27.00375 27.5884,-25.96769 3.90043,1.03606 -2.12464,13.78882 -2.12464,13.78882 l -4.15319,12.91102 3.85786,-0.53454 30.00254,-83.42068 z"
       style="fill:#4c4c4c;fill-opacity:1;stroke:none;stroke-width:0.264583px;stroke-linecap:butt;stroke-linejoin:miter;stroke-opacity:1;filter:url(#filter1012)" />
    <path
       sodipodi:nodetypes="ccccccc"
       id="path1832"
       d="m 227.32377,151.25759 22.9722,-17.37831 -2.06152,14.05039 15.98742,-21.8688 -24.20548,53.00361 -26.93527,-0.174 z"
       style="fill:#a2a2a2;fill-opacity:1;stroke:none;stroke-width:0.264583px;stroke-linecap:butt;stroke-linejoin:miter;stroke-opacity:1;filter:url(#filter1834)" />
    <path
       sodipodi:nodetypes="caccsccccc"
       id="path1844"
       d="m 269.52323,97.218065 c 0,0 12.93737,10.260105 17.62088,16.922055 1.20663,1.71635 2.56581,5.74743 2.56581,5.74743 l -3.30619,-37.732709 c 0,0 4.97734,7.129246 6.81593,13.214811 l 1.68899,5.590388 -6.01778,-25.059573 -0.41924,-1.16159 -24.88399,-0.241649 z"
       style="fill:#a2a2a2;fill-opacity:1;stroke:none;stroke-width:0.264583px;stroke-linecap:butt;stroke-linejoin:miter;stroke-opacity:1" />
    <path
       inkscape:original-d="m 219.47486,43.594843 c 0,0 3.83236,26.730099 -0.55326,45.499751 -4.38563,18.769606 -4.992,17.855506 -4.992,17.855506 0,0 12.16436,-26.259781 13.2753,-31.681819 l 1.11092,-5.42204 c 0,0 -20.85907,81.625869 -24.02105,86.832839 -3.16198,5.20697 -3.33663,5.20697 -3.33663,5.20697 0,0 17.50549,-23.44201 18.49713,-28.38894 0.99164,-4.94692 1.2789,-5.2342 1.2789,-5.2342 0,0 1.97662,10.49219 0.92333,15.59045 -0.2729,1.32091 -1.82036,3.61383 -1.82036,3.61383 0,0 6.20122,-6.38746 7.84679,-12.66853 1.64557,-6.28108 1.64557,-6.51153 1.64557,-6.51153 0,0 -0.33205,24.61308 1.6088,30.74841 l 2.13175,7.60468 c 0,0 -1.554,-24.99231 1.98755,-33.11165 3.54155,-8.11934 3.76641,-8.3442 3.76641,-8.3442 0,0 4.32093,6.47811 2.18805,14.04005 l -4.83241,17.13297 c 0,0 17.31554,-28.34501 16.91346,-43.21618 l -0.40209,-14.871168 c 0,0 11.75803,20.211498 16.21999,21.733598 l 4.46196,1.52212 c 0,0 -6.2353,-5.86075 -7.52596,-10.86223 l -1.29068,-5.00149 c 0,0 9.37541,19.54668 16.8632,23.50517 l 7.48781,3.95851 c 0,0 -14.54926,-21.82632 -17.63655,-32.79724 L 268.1835,89.357616 c 0,0 9.0265,18.867474 10.62661,19.076904 l 1.60012,0.20944 c 0,0 -6.43222,-11.898599 -7.41549,-18.958361 l -0.9833,-7.059789 c 0,0 1.22373,13.064847 13.71149,26.24171 12.48773,13.17689 12.66327,13.17689 12.66327,13.17689 0,0 -14.76998,-33.627349 -16.89209,-46.404004 l -2.12213,-12.776654 c 0,0 10.20056,11.3333 14.70471,21.538883 l 4.5041,10.205578 c 0,0 -9.40416,-26.558447 -12.23906,-30.500111 l -2.8349,-3.941664 -6.62907,-11.850381 -3.78856,-37.65336 z"
       style="opacity:1;fill:#000000;fill-opacity:1;stroke:none;stroke-width:0.327223px;stroke-linecap:butt;stroke-linejoin:miter;stroke-opacity:1"
       d="m 219.47486,43.594843 c 0,0 3.83236,26.730099 -0.55326,45.499751 -4.38563,18.769606 -4.992,17.855506 -4.992,17.855506 0,0 12.16436,-26.259781 13.2753,-31.681819 l 1.11092,-5.42204 c 0,0 -20.85907,81.625869 -24.02105,86.832839 -3.16198,5.20697 -3.33663,5.20697 -3.33663,5.20697 0,0 17.50549,-23.44201 18.49713,-28.38894 0.99164,-4.94692 1.2789,-5.2342 1.2789,-5.2342 0,0 1.97662,10.49219 0.92333,15.59045 -0.2729,1.32091 -1.82036,3.61383 -1.82036,3.61383 0,0 6.20122,-6.38746 7.84679,-12.66853 1.64557,-6.28108 1.64557,-6.51153 1.64557,-6.51153 0,0 -0.33205,24.61308 1.6088,30.74841 l 2.13175,7.60468 c 0,0 -1.554,-24.99231 1.98755,-33.11165 3.54155,-8.11934 3.76641,-8.3442 3.76641,-8.3442 0,0 4.32093,6.47811 2.18805,14.04005 l -4.83241,17.13297 c 0,0 17.31554,-28.34501 16.91346,-43.21618 l -0.40209,-14.871168 c 0,0 11.75803,20.211498 16.21999,21.733598 l 4.46196,1.52212 c 0,0 -6.2353,-5.86075 -7.52596,-10.86223 l -1.29068,-5.00149 c 0,0 9.37541,19.54668 16.8632,23.50517 l 7.48781,3.95851 c 0,0 -14.54926,-21.82632 -17.63655,-32.79724 L 268.1835,89.357616 c 0,0 9.0265,18.867474 10.62661,19.076904 l 1.60012,0.20944 c 0,0 -6.43222,-11.898599 -7.41549,-18.958361 l -0.9833,-7.059789 c 0,0 1.22373,13.064847 13.71149,26.24171 12.48773,13.17689 12.66327,13.17689 12.66327,13.17689 0,0 -14.76998,-33.627349 -16.89209,-46.404004 l -2.12213,-12.776654 c 0,0 10.20056,11.3333 14.70471,21.538883 l 4.5041,10.205578 c 0,0 -9.40416,-26.558447 -12.23906,-30.500111 l -2.8349,-3.941664 -6.62907,-11.850381 -3.78856,-37.65336 z"
       id="path851"
       sodipodi:nodetypes="cscscscscacscccscscscscscscscscscscscscscccc" />
    <path
       inkscape:original-d="m 55.886169,48.918186 c 0,0 9.437028,58.624584 13.860572,65.883524 4.42354,7.25893 49.819219,52.69244 49.819219,52.69244 0,0 20.82989,10.43971 25.46721,10.14697 4.63733,-0.29274 30.23925,-12.40591 34.14556,-15.60707 3.90631,-3.20115 32.66251,-32.81491 32.66251,-32.81491 0,0 13.19754,-26.77046 13.19754,-40.668683 0,-13.898279 -0.31689,-54.202635 -0.31689,-54.202635 L 131.6248,5.8180924 56.491234,4.719538 Z"
       style="opacity:1;fill:#ededed;fill-opacity:1;stroke:none;stroke-width:0.327223px;stroke-linecap:butt;stroke-linejoin:miter;stroke-opacity:1"
       d="m 55.886169,48.918186 c 0,0 9.437028,58.624584 13.860572,65.883524 4.42354,7.25893 49.819219,52.69244 49.819219,52.69244 0,0 20.82989,10.43971 25.46721,10.14697 4.63733,-0.29274 30.23925,-12.40591 34.14556,-15.60707 3.90631,-3.20115 32.66251,-32.81491 32.66251,-32.81491 0,0 13.19754,-26.77046 13.19754,-40.668683 0,-13.898279 -0.31689,-54.202635 -0.31689,-54.202635 L 131.6248,5.8180924 56.491234,4.719538 Z"
       id="path847"
       sodipodi:nodetypes="cscsscscccc" />
    <path
       inkscape:original-d="m 83.549177,91.235343 c 0,0 5.412548,24.224467 7.733164,26.898877 0.912232,1.05131 5.745431,11.30523 15.279049,20.74939 14.71889,14.58078 36.3476,29.96421 36.3476,29.96421 0,0 -5.14055,-1.62172 -10.26246,-3.98244 -3.13539,-1.44513 -6.3259,-3.00778 -8.68855,-4.34039 0,0 -11.2916,-11.15432 -17.5353,-17.36294 -6.08195,-6.04779 -9.380909,-10.87074 -15.869053,-16.89665 -6.238799,-5.79433 -11.634846,-23.95076 -11.634846,-26.693561 0,-2.742808 4.630396,-8.336496 4.630396,-8.336496 z"
       transform="matrix(1.2367509,0,0,1.2367509,-34.579394,-30.967098)"
       style="fill:#a1a1a1;fill-opacity:0.890196;stroke:none;stroke-width:0.264583px;stroke-linecap:butt;stroke-linejoin:miter;stroke-opacity:1;filter:url(#filter956)"
       d="m 83.549177,91.235343 c 0,0 5.412548,24.224467 7.733164,26.898877 0.912232,1.05131 5.745431,11.30523 15.279049,20.74939 14.71889,14.58078 36.3476,29.96421 36.3476,29.96421 0,0 -5.14055,-1.62172 -10.26246,-3.98244 -3.13539,-1.44513 -6.3259,-3.00778 -8.68855,-4.34039 0,0 -11.2916,-11.15432 -17.5353,-17.36294 -6.08195,-6.04779 -9.380909,-10.87074 -15.869053,-16.89665 -6.238799,-5.79433 -11.634846,-23.95076 -11.634846,-26.693561 0,-2.742808 4.630396,-8.336496 4.630396,-8.336496 z"
       id="path877"
       sodipodi:nodetypes="csscsssssc" />
    <path
       inkscape:original-d="m 162.52806,83.666112 c 0,0 8.6427,4.31519 12.05017,6.639113 3.40748,2.323922 3.9637,2.138463 3.9637,2.138463 0,0 -7.98223,-7.301272 -8.86116,-9.265399 -0.87892,-1.964126 -1.30356,-1.62342 2.92218,-0.390787 4.22574,1.232633 10.83412,-1.446799 14.01211,-1.545664 5.52678,-0.171935 16.94177,6.323258 16.62074,13.908721 -0.32103,7.585451 -7.29035,17.978871 -10.05903,21.137111 -2.76868,3.15823 -15.64874,16.31075 -19.42047,21.646 -3.77173,5.33524 -6.32698,7.1638 -10.56141,8.10533 -4.72272,1.05011 -18.68736,-4.43392 -20.51653,-5.05526 -1.82917,-0.62134 -9.32644,-3.68636 -12.66843,-2.1901 -3.34198,1.49627 -7.40285,4.71768 -7.40285,4.71768 0,0 1.87893,-3.06726 4.35443,-1.87821 2.4755,1.18906 8.4583,3.48591 12.41934,3.48591 3.96103,0 11.86495,0.57914 13.333,1.68941 1.46806,1.11027 1.87304,1.71513 1.87304,1.71513 0,0 -1.75534,1.32292 -7.236,1.88989 -5.48065,0.56696 -9.41549,0.76675 -9.41549,0.76675 l 2.74348,16.53172 c 0,0 1.29262,1.19782 3.21124,1.23211 2.5568,0.0457 8.48487,-2.48015 11.09206,-3.61478 2.60237,-1.13254 6.75153,-2.99659 12.0462,-5.66233 1.9844,-0.99909 3.50488,-1.9146 5.32077,-3.3992 5.57077,-5.40657 10.86291,-11.92224 14.66051,-18.14472 2.62933,-4.36689 17.37876,-34.00029 20.1729,-42.843964 2.86189,-9.058129 2.05287,-42.039465 2.05287,-42.039465 L 133.95989,30.171278 150.3337,77.797585 Z"
       transform="matrix(1.2367509,0,0,1.2367509,-34.050227,-31.496265)"
       sodipodi:nodetypes="cscssssssssscssscsccsssccscccc"
       id="path848"
       d="m 162.52806,83.666112 c 0,0 8.6427,4.31519 12.05017,6.639113 3.40748,2.323922 3.9637,2.138463 3.9637,2.138463 0,0 -7.98223,-7.301272 -8.86116,-9.265399 -0.87892,-1.964126 -1.30356,-1.62342 2.92218,-0.390787 4.22574,1.232633 10.83412,-1.446799 14.01211,-1.545664 5.52678,-0.171935 16.94177,6.323258 16.62074,13.908721 -0.32103,7.585451 -7.29035,17.978871 -10.05903,21.137111 -2.76868,3.15823 -15.64874,16.31075 -19.42047,21.646 -3.77173,5.33524 -6.32698,7.1638 -10.56141,8.10533 -4.72272,1.05011 -18.68736,-4.43392 -20.51653,-5.05526 -1.82917,-0.62134 -9.32644,-3.68636 -12.66843,-2.1901 -3.34198,1.49627 -7.40285,4.71768 -7.40285,4.71768 0,0 1.87893,-3.06726 4.35443,-1.87821 2.4755,1.18906 8.4583,3.48591 12.41934,3.48591 3.96103,0 11.86495,0.57914 13.333,1.68941 1.46806,1.11027 1.87304,1.71513 1.87304,1.71513 0,0 -1.75534,1.32292 -7.236,1.88989 -5.48065,0.56696 -9.41549,0.76675 -9.41549,0.76675 l 2.74348,16.53172 c 0,0 1.29262,1.19782 3.21124,1.23211 2.5568,0.0457 8.48487,-2.48015 11.09206,-3.61478 2.60237,-1.13254 6.75153,-2.99659 12.0462,-5.66233 1.9844,-0.99909 3.50488,-1.9146 5.32077,-3.3992 5.57077,-5.40657 10.86291,-11.92224 14.66051,-18.14472 2.62933,-4.36689 17.37876,-34.00029 20.1729,-42.843964 2.86189,-9.058129 2.05287,-42.039465 2.05287,-42.039465 L 133.95989,30.171278 150.3337,77.797585 Z"
       style="fill:#858585;fill-opacity:0.890196;stroke:none;stroke-width:0.264583px;stroke-linecap:butt;stroke-linejoin:miter;stroke-opacity:1;filter:url(#filter952)" />
    <path
       inkscape:original-d="m 175.98154,58.248162 c 0,0 3.99316,4.941141 15.07901,6.277472 11.08585,1.336331 21.21638,-1.367298 23.27824,-3.801681 2.06186,-2.434387 2.06186,-2.434387 2.06186,-2.434387"
       style="fill:none;stroke:#000000;stroke-width:0.665;stroke-linecap:butt;stroke-linejoin:miter;stroke-miterlimit:4;stroke-dasharray:none;stroke-opacity:1;filter:url(#filter1680)"
       d="m 175.98154,58.248162 c 0,0 3.99316,4.941141 15.07901,6.277472 11.08585,1.336331 21.21638,-1.367298 23.27824,-3.801681 2.06186,-2.434387 2.06186,-2.434387 2.06186,-2.434387"
       id="path988" />
    <path
       inkscape:original-d="m 178.62435,39.329511 c 0,0 -5.43152,11.543891 -3.73628,13.946221 1.69526,2.402329 14.60655,9.25754 21.13015,9.25754 6.52362,0 14.23771,-2.140465 16.65813,-5.22409 2.42044,-3.083625 7.47182,-13.942683 7.17412,-14.763521 -0.29771,-0.820837 -10.30844,-9.052181 -20.425,-7.7884 -10.11655,1.263783 -21.82404,3.86866 -23.95533,5.376418 -2.13132,1.507759 -1.97162,1.519244 -1.97162,1.519244 0,0 3.18324,-1.812953 4.26082,-2.1198 1.07759,-0.306845 1.03572,-0.306845 0.86501,-0.203612 z"
       style="fill:#4c4c4c;fill-opacity:1;stroke:#000000;stroke-width:0.822439;stroke-linecap:butt;stroke-linejoin:miter;stroke-miterlimit:4;stroke-dasharray:none;stroke-opacity:1;filter:url(#filter1612)"
       d="m 178.62435,39.329511 c 0,0 -5.43152,11.543891 -3.73628,13.946221 1.69526,2.402329 14.60655,9.25754 21.13015,9.25754 6.52362,0 14.23771,-2.140465 16.65813,-5.22409 2.42044,-3.083625 7.47182,-13.942683 7.17412,-14.763521 -0.29771,-0.820837 -10.30844,-9.052181 -20.425,-7.7884 -10.11655,1.263783 -21.82404,3.86866 -23.95533,5.376418 -2.13132,1.507759 -1.97162,1.519244 -1.97162,1.519244 0,0 3.18324,-1.812953 4.26082,-2.1198 1.07759,-0.306845 1.03572,-0.306845 0.86501,-0.203612 z"
       id="path913" />
    <path
       inkscape:original-d="m 153.14497,63.861735 -1.67013,41.741285 c 0,0 -1.33581,4.1821 -3.23343,5.68843 -1.89762,1.50633 -3.17268,2.24734 -6.7718,1.53296 -3.59912,-0.71438 -8.7683,-1.77685 -8.7683,-1.77685 l 11.68645,9.39197 c 2.86944,2.30606 6.27433,-0.93749 9.34956,-2.27012 5.90034,-2.55685 15.41471,-18.15402 15.41471,-18.15402 0,0 1.00891,-2.594247 -1.64255,-7.605627 -2.65146,-5.011381 -6.89237,-21.704594 -6.89237,-21.704594 -0.002,-2.364122 -6.76342,-6.812036 -7.47214,-6.843434 z"
       transform="matrix(1.2367509,0,0,1.2367509,-34.050227,-31.496265)"
       style="fill:#909090;fill-opacity:1;stroke:none;stroke-width:0.264583px;stroke-linecap:butt;stroke-linejoin:miter;stroke-opacity:1;filter:url(#filter1854)"
       d="m 153.14497,63.861735 -1.67013,41.741285 c 0,0 -1.33581,4.1821 -3.23343,5.68843 -1.89762,1.50633 -3.17268,2.24734 -6.7718,1.53296 -3.59912,-0.71438 -8.7683,-1.77685 -8.7683,-1.77685 l 11.68645,9.39197 c 2.86944,2.30606 6.27433,-0.93749 9.34956,-2.27012 5.90034,-2.55685 15.41471,-18.15402 15.41471,-18.15402 0,0 1.00891,-2.594247 -1.64255,-7.605627 -2.65146,-5.011381 -6.89237,-21.704594 -6.89237,-21.704594 -0.002,-2.364122 -6.76342,-6.812036 -7.47214,-6.843434 z"
       id="path901"
       sodipodi:nodetypes="ccsscsscssc" />
    <path
       inkscape:original-d="m 72.719895,65.020734 c 0,0 22.03918,15.519492 26.42428,16.040849 4.385095,0.521356 0.888545,2.369618 13.572215,0.910336 12.68366,-1.459283 33.16042,-15.089103 33.68964,-17.654342 0.52922,-2.565238 -43.43156,-39.229357 -43.43156,-39.229357 l -38.939695,2.872877 z"
       transform="matrix(1.2367509,0,0,1.2367509,-34.050227,-31.496265)"
       id="path968"
       d="m 72.719895,65.020734 c 0,0 22.03918,15.519492 26.42428,16.040849 4.385095,0.521356 0.888545,2.369618 13.572215,0.910336 12.68366,-1.459283 33.16042,-15.089103 33.68964,-17.654342 0.52922,-2.565238 -43.43156,-39.229357 -43.43156,-39.229357 l -38.939695,2.872877 z"
       style="fill:#878787;fill-opacity:0.960784;stroke:none;stroke-width:0.264583px;stroke-linecap:butt;stroke-linejoin:miter;stroke-opacity:1;filter:url(#filter970)" />
    <path
       inkscape:original-d="m 77.597883,60.635951 c 0,0 3.993163,4.941141 15.079016,6.277472 11.085851,1.336331 21.216381,-1.367298 23.278241,-3.801681 2.06186,-2.434387 2.06186,-2.434387 2.06186,-2.434387"
       id="path982"
       d="m 77.597883,60.635951 c 0,0 3.993163,4.941141 15.079016,6.277472 11.085851,1.336331 21.216381,-1.367298 23.278241,-3.801681 2.06186,-2.434387 2.06186,-2.434387 2.06186,-2.434387"
       style="fill:none;stroke:#000000;stroke-width:0.665;stroke-linecap:butt;stroke-linejoin:miter;stroke-miterlimit:4;stroke-dasharray:none;stroke-opacity:1;filter:url(#filter1684)" />
    <path
       inkscape:original-d="m 79.090619,34.409808 c 0,0 -9.181205,10.925918 -7.014072,13.546394 2.167134,2.620474 5.857005,10.953669 13.070874,14.117869 7.213877,3.164202 21.673629,2.057718 25.413679,-0.851641 3.74003,-2.909355 8.95253,-9.598743 8.95253,-9.598743 0,0 -0.57477,-10.296227 -8.71041,-12.836098 -8.13564,-2.539872 -30.453452,-4.931068 -33.562026,-4.455462 -3.108573,0.475607 -3.249909,0.710515 -3.249909,0.710515 z"
       style="fill:#4c4c4c;fill-opacity:1;stroke:#000000;stroke-width:1.06979;stroke-linecap:butt;stroke-linejoin:miter;stroke-miterlimit:4;stroke-dasharray:none;stroke-opacity:1;filter:url(#filter1616)"
       d="m 79.090619,34.409808 c 0,0 -9.181205,10.925918 -7.014072,13.546394 2.167134,2.620474 5.857005,10.953669 13.070874,14.117869 7.213877,3.164202 21.673629,2.057718 25.413679,-0.851641 3.74003,-2.909355 8.95253,-9.598743 8.95253,-9.598743 0,0 -0.57477,-10.296227 -8.71041,-12.836098 -8.13564,-2.539872 -30.453452,-4.931068 -33.562026,-4.455462 -3.108573,0.475607 -3.249909,0.710515 -3.249909,0.710515 z"
       id="path909" />
    <path
       inkscape:original-d="m 83.558598,36.91456 c 0,0 -6.313836,4.286873 -4.695337,9.346782 1.618499,5.059908 6.63293,10.806529 10.43981,12.100082 3.806894,1.293551 11.763589,3.260333 15.252869,1.940237 3.48929,-1.320095 8.51386,-3.382968 9.15616,-7.740734 0.64231,-4.357765 -1.90593,-13.104612 -9.33985,-14.022245 C 96.938327,37.621046 83.558598,36.91456 83.558598,36.91456 Z"
       style="fill:#f9f9f9;fill-opacity:0.890196;stroke:none;stroke-width:0.327223px;stroke-linecap:butt;stroke-linejoin:miter;stroke-opacity:1;filter:url(#filter1436)"
       d="m 83.558598,36.91456 c 0,0 -6.313836,4.286873 -4.695337,9.346782 1.618499,5.059908 6.63293,10.806529 10.43981,12.100082 3.806894,1.293551 11.763589,3.260333 15.252869,1.940237 3.48929,-1.320095 8.51386,-3.382968 9.15616,-7.740734 0.64231,-4.357765 -1.90593,-13.104612 -9.33985,-14.022245 C 96.938327,37.621046 83.558598,36.91456 83.558598,36.91456 Z"
       id="path911" />
    <path
       inkscape:original-d="m 95.302526,36.501527 c 0,0 -4.4876,-0.449294 -6.454386,1.533811 -1.96681,1.983112 -1.993113,4.979331 -1.543755,7.485959 0.575808,3.211991 2.233539,6.806402 5.20959,8.433154 3.592143,1.963512 8.856195,2.037866 12.437565,0.05673 3.08942,-1.708998 5.63553,-5.841716 5.2383,-8.881736 -0.39726,-3.040023 -1.25806,-6.637062 -5.32699,-7.369384 -4.06891,-0.732319 -9.560324,-1.258537 -9.560324,-1.258534 z"
       sodipodi:nodetypes="csaaasscc"
       id="path921"
       d="m 95.302526,36.501527 c 0,0 -4.4876,-0.449294 -6.454386,1.533811 -1.96681,1.983112 -1.993113,4.979331 -1.543755,7.485959 0.575808,3.211991 2.233539,6.806402 5.20959,8.433154 3.592143,1.963512 8.856195,2.037866 12.437565,0.05673 3.08942,-1.708998 5.63553,-5.841716 5.2383,-8.881736 -0.39726,-3.040023 -1.25806,-6.637062 -5.32699,-7.369384 -4.06891,-0.732319 -9.560324,-1.258537 -9.560324,-1.258534 z"
       style="fill:none;stroke:#3dd2d5;stroke-width:0.397923px;stroke-linecap:butt;stroke-linejoin:miter;stroke-opacity:1" />
    <path
       inkscape:original-d="m 95.681022,35.94675 c 0,0 -3.979976,-0.420088 -5.72429,1.434106 -1.74433,1.854198 -1.767659,4.655648 -1.36913,6.999334 0.510674,3.003195 1.980889,6.363952 4.620301,7.884956 3.185809,1.835874 7.854417,1.905396 11.030677,0.05305 2.73995,-1.597905 4.99806,-5.461976 4.64576,-8.304379 -0.35232,-2.842408 -1.11575,-6.205621 -4.72442,-6.890338 -3.60866,-0.684715 -8.478898,-1.176725 -8.478898,-1.176725 z"
       style="fill:#000000;stroke:#000000;stroke-width:0.362358px;stroke-linecap:butt;stroke-linejoin:miter;stroke-opacity:1"
       d="m 95.681022,35.94675 c 0,0 -3.979976,-0.420088 -5.72429,1.434106 -1.74433,1.854198 -1.767659,4.655648 -1.36913,6.999334 0.510674,3.003195 1.980889,6.363952 4.620301,7.884956 3.185809,1.835874 7.854417,1.905396 11.030677,0.05305 2.73995,-1.597905 4.99806,-5.461976 4.64576,-8.304379 -0.35232,-2.842408 -1.11575,-6.205621 -4.72442,-6.890338 -3.60866,-0.684715 -8.478898,-1.176725 -8.478898,-1.176725 z"
       id="path917"
       sodipodi:nodetypes="csaaasscc" />
    <path
       inkscape:original-d="m 208.6934,35.030303 c 0,0 6.31383,4.286873 4.69534,9.346782 -1.6185,5.059908 -6.63294,10.806529 -10.43982,12.100083 -3.80689,1.293551 -11.76357,3.260332 -15.25286,1.940237 -3.48928,-1.320096 -8.51385,-3.382969 -9.15616,-7.740735 -0.6423,-4.357765 1.90593,-13.104611 9.33986,-14.022245 7.43391,-0.917635 20.81364,-1.624122 20.81364,-1.624122 z"
       id="path915"
       d="m 208.6934,35.030303 c 0,0 6.31383,4.286873 4.69534,9.346782 -1.6185,5.059908 -6.63294,10.806529 -10.43982,12.100083 -3.80689,1.293551 -11.76357,3.260332 -15.25286,1.940237 -3.48928,-1.320096 -8.51385,-3.382969 -9.15616,-7.740735 -0.6423,-4.357765 1.90593,-13.104611 9.33986,-14.022245 7.43391,-0.917635 20.81364,-1.624122 20.81364,-1.624122 z"
       style="fill:#f9f9f9;fill-opacity:0.890196;stroke:none;stroke-width:0.327223px;stroke-linecap:butt;stroke-linejoin:miter;stroke-opacity:1;filter:url(#filter1440)" />
    <path
       inkscape:original-d="m 157.05095,71.162851 -1.36881,28.799922 c 0,0 7.16496,1.646657 7.84424,0.979467 0.67927,-0.66717 1.16061,-2.024971 0.6987,-3.292615 -0.4619,-1.267644 -5.22608,-21.027862 -6.15507,-23.701508 -0.92901,-2.67365 -1.01906,-2.785266 -1.01906,-2.785266 z"
       style="fill:#e7e7e7;fill-opacity:0.635294;stroke:none;stroke-width:0.166111px;stroke-linecap:butt;stroke-linejoin:miter;stroke-opacity:1;filter:url(#filter1886)"
       d="m 157.90838,77.566503 -0.97681,20.552031 c 0,0 5.11302,1.175078 5.59777,0.698962 0.48473,-0.476102 0.82822,-1.445049 0.49859,-2.349657 -0.32962,-0.904609 -3.7294,-15.00578 -4.39234,-16.913731 -0.66295,-1.907954 -0.72721,-1.987605 -0.72721,-1.987605 z"
       id="path903" />
    <path
       inkscape:original-d="m 151.30061,111.64549 c 0,0 5.84898,-4.31046 7.09644,-4.11825 1.24746,0.19221 0.0371,3.37372 -0.16456,3.92166 -0.20164,0.54794 -0.55749,-1.69678 -0.55749,-1.69678 z"
       style="fill:#7c7c7c;fill-opacity:1;stroke:none;stroke-width:0.327223px;stroke-linecap:butt;stroke-linejoin:miter;stroke-opacity:1"
       d="m 151.30061,111.64549 c 0,0 5.84898,-4.31046 7.09644,-4.11825 1.24746,0.19221 0.0371,3.37372 -0.16456,3.92166 -0.20164,0.54794 -0.55749,-1.69678 -0.55749,-1.69678 z"
       id="path905" />
    <path
       inkscape:original-d="m 142.6733,111.04114 -5.41308,-2.85371 -0.15722,2.47103 c 0,0 -0.11527,-0.31324 5.5703,0.38268 z"
       style="fill:#7c7c7c;fill-opacity:1;stroke:none;stroke-width:0.27702px;stroke-linecap:butt;stroke-linejoin:miter;stroke-opacity:1"
       d="m 142.6733,111.04114 -5.41308,-2.85371 -0.15722,2.47103 c 0,0 -0.11527,-0.31324 5.5703,0.38268 z"
       id="path907" />
    <path
       inkscape:original-d="m 192.56077,36.601382 c 0,0 -4.04452,-0.439641 -5.8171,1.500861 -1.77261,1.940509 -1.79632,4.87236 -1.39134,7.32514 0.51896,3.142988 2.01301,6.660181 4.69522,8.251986 3.23747,1.921331 7.98177,1.994087 11.20952,0.05551 2.78439,-1.672284 5.07909,-5.716219 4.72108,-8.690932 -0.35803,-2.974715 -1.13384,-6.494478 -4.80101,-7.211067 -3.66716,-0.716589 -8.61637,-1.231501 -8.61637,-1.2315 z"
       style="fill:none;stroke:#3dd2d5;stroke-width:0.373688px;stroke-linecap:butt;stroke-linejoin:miter;stroke-opacity:1"
       d="m 192.56077,36.601382 c 0,0 -4.04452,-0.439641 -5.8171,1.500861 -1.77261,1.940509 -1.79632,4.87236 -1.39134,7.32514 0.51896,3.142988 2.01301,6.660181 4.69522,8.251986 3.23747,1.921331 7.98177,1.994087 11.20952,0.05551 2.78439,-1.672284 5.07909,-5.716219 4.72108,-8.690932 -0.35803,-2.974715 -1.13384,-6.494478 -4.80101,-7.211067 -3.66716,-0.716589 -8.61637,-1.231501 -8.61637,-1.2315 z"
       id="path923"
       sodipodi:nodetypes="csaaasscc" />
    <path
       inkscape:original-d="m 197.41583,35.938162 c 0,0 3.97997,-0.420088 5.72428,1.434106 1.74433,1.854198 1.76766,4.655648 1.36914,6.999334 -0.51068,3.003195 -1.98089,6.363952 -4.62031,7.884956 -3.1858,1.835874 -7.8544,1.905396 -11.03066,0.05304 -2.73995,-1.597905 -4.99806,-5.461976 -4.64576,-8.304379 0.35231,-2.842408 1.11575,-6.205621 4.72441,-6.890338 3.60866,-0.684715 8.4789,-1.176725 8.4789,-1.176725 z"
       sodipodi:nodetypes="csaaasscc"
       id="path919"
       d="m 197.41583,35.938162 c 0,0 3.97997,-0.420088 5.72428,1.434106 1.74433,1.854198 1.76766,4.655648 1.36914,6.999334 -0.51068,3.003195 -1.98089,6.363952 -4.62031,7.884956 -3.1858,1.835874 -7.8544,1.905396 -11.03066,0.05304 -2.73995,-1.597905 -4.99806,-5.461976 -4.64576,-8.304379 0.35231,-2.842408 1.11575,-6.205621 4.72441,-6.890338 3.60866,-0.684715 8.4789,-1.176725 8.4789,-1.176725 z"
       style="fill:#000000;stroke:#000000;stroke-width:0.362358px;stroke-linecap:butt;stroke-linejoin:miter;stroke-opacity:1" />
    <g
       transform="matrix(1.2367509,0,0,1.2367509,16.211389,-69.273186)"
       id="g898">
      <path
         inkscape:original-d="m 87.578721,198.60759 c 0,0 3.37856,-4.97852 3.61795,-7.90188 0.2394,-2.92336 -2.91847,-6.32499 -3.72272,-10.77612 -0.80426,-4.45113 -0.24652,-9.43516 1.41188,-10.51509 1.65839,-1.07993 8.1635,-0.89413 12.751829,8.25684 4.58833,9.15097 6.47874,10.18118 5.05021,13.73335 -1.42852,3.55217 -2.65579,6.79742 -2.65579,6.79742 z"
         style="fill:#b9b9b9;fill-opacity:1;stroke:none;stroke-width:0.264583px;stroke-linecap:butt;stroke-linejoin:miter;stroke-opacity:1;filter:url(#filter876)"
         d="m 87.578721,198.60759 c 0,0 3.37856,-4.97852 3.61795,-7.90188 0.2394,-2.92336 -2.91847,-6.32499 -3.72272,-10.77612 -0.80426,-4.45113 -0.24652,-9.43516 1.41188,-10.51509 1.65839,-1.07993 8.1635,-0.89413 12.751829,8.25684 4.58833,9.15097 6.47874,10.18118 5.05021,13.73335 -1.42852,3.55217 -2.65579,6.79742 -2.65579,6.79742 z"
         id="path850"
         sodipodi:nodetypes="csssssccc"
         transform="matrix(0.88883905,0,0,0.88566753,9.6833123,22.707297)" />
      <path
         inkscape:original-d="m 86.643331,203.77319 c 0,0 3.559833,-8.9456 2.889686,-11.80116 0,0 -1.201315,-5.89672 -2.005565,-10.34785 -0.80426,-4.45113 -0.24652,-9.43516 1.41188,-10.51509 1.65839,-1.07993 9.929382,3.09405 13.090938,7.04972 3.0452,3.81008 4.82287,16.9873 4.62087,21.86061 -0.18782,3.79704 -1.9463,3.38107 -1.9463,3.38107 z"
         id="path874"
         d="m 86.643331,203.77319 c 0,0 3.559833,-8.9456 2.889686,-11.80116 0,0 -1.201315,-5.89672 -2.005565,-10.34785 -0.80426,-4.45113 -0.24652,-9.43516 1.41188,-10.51509 1.65839,-1.07993 9.929382,3.09405 13.090938,7.04972 3.0452,3.81008 4.82287,16.9873 4.62087,21.86061 -0.18782,3.79704 -1.9463,3.38107 -1.9463,3.38107 z"
         style="fill:#eeeeee;fill-opacity:1;stroke:none;stroke-width:0.264583px;stroke-linecap:butt;stroke-linejoin:miter;stroke-opacity:1;filter:url(#filter864)"
         sodipodi:nodetypes="cssssccc"
         transform="matrix(0.88567734,0,0,0.88567734,9.9128262,21.204489)" />
    </g>
    <path
       inkscape:original-d="m 125.6505,144.74951 c 0,0 3.25806,-0.74908 4.95478,4.67839 1.69671,5.42747 0.6586,9.87117 0.6586,9.87117 0,0 1.95718,-8.25545 0.48676,-11.96715 -0.80175,-2.02377 -4.66197,-4.57295 -4.66197,-4.57295 -0.59559,-0.99655 -1.43817,1.99054 -1.43817,1.99054 z"
       sodipodi:nodetypes="cscacc"
       id="path880"
       d="m 124.06299,147.92453 c 0,0 3.25806,-0.74908 4.95478,4.67839 1.69671,5.42747 0.6586,9.87117 0.6586,9.87117 0,0 1.95718,-8.25545 0.48676,-11.96715 -0.80175,-2.02377 -4.66197,-4.57295 -4.66197,-4.57295 -0.59559,-0.99655 -1.43817,1.99054 -1.43817,1.99054 z"
       style="fill:#a7a7a7;fill-opacity:0.960784;stroke:none;stroke-width:0.327223px;stroke-linecap:butt;stroke-linejoin:miter;stroke-opacity:1" />
    <g
       transform="matrix(1.2367509,0,0,1.2367509,-34.050227,-31.496265)"
       id="g890">
      <g
         transform="translate(-13.768113,3.5658702)"
         id="g894">
        <path
           inkscape:original-d="m 157.83804,166.74075 c 1.5249,-2.00089 0.85518,-5.5731 0.87384,-8.38227 0.0129,-1.93935 -0.52635,-5.79432 -0.52635,-5.79432 0,0 -0.92245,-4.05317 -4.57462,-9.33489 -0.72192,-1.04403 -2.46752,-2.21805 -3.95601,-3.1198 -2.78641,-1.68806 -5.59468,-2.7777 -5.59468,-2.7777 l 0.11417,0.0268 c 0,0 20.59591,4.84896 21.17467,5.45385 0.60509,0.63241 0.53517,0.33856 0.53517,0.33856 0,0 -6.98215,-3.03637 -11.35038,-2.52206 -4.36822,0.51431 -2.79274,0.0604 -2.79274,0.0604 l 1.8698,2.53996"
           sodipodi:nodetypes="cacssccscscc"
           id="path884"
           d="m 157.83804,166.74075 c 1.5249,-2.00089 0.85518,-5.5731 0.87384,-8.38227 0.0129,-1.93935 -0.52635,-5.79432 -0.52635,-5.79432 0,0 -0.92245,-4.05317 -4.57462,-9.33489 -0.72192,-1.04403 -2.46752,-2.21805 -3.95601,-3.1198 -2.78641,-1.68806 -5.59468,-2.7777 -5.59468,-2.7777 l 0.11417,0.0268 c 0,0 20.59591,4.84896 21.17467,5.45385 0.60509,0.63241 0.53517,0.33856 0.53517,0.33856 0,0 -6.98215,-3.03637 -11.35038,-2.52206 -4.36822,0.51431 -2.79274,0.0604 -2.79274,0.0604 l 1.8698,2.53996"
           style="fill:none;fill-opacity:0.960784;stroke:#525252;stroke-width:0.465;stroke-linecap:butt;stroke-linejoin:miter;stroke-miterlimit:4;stroke-dasharray:none;stroke-opacity:0.960784" />
        <path
           inkscape:original-d="m 141.25477,166.5343 c 0,0 2.52608,-5.60178 2.60518,-8.59419 0.0767,-2.90141 -1.71894,-5.57503 -2.0822,-8.45463 -0.34566,-2.74005 -0.81336,-5.62265 -0.0787,-8.28492 0.40187,-1.45638 1.19425,-3.011 2.36122,-3.86879 0.0654,-0.0481 0.23704,0.0562 0.23704,0.0562"
           sodipodi:nodetypes="caaasc"
           id="path886"
           d="m 141.25477,166.5343 c 0,0 2.52608,-5.60178 2.60518,-8.59419 0.0767,-2.90141 -1.71894,-5.57503 -2.0822,-8.45463 -0.34566,-2.74005 -0.81336,-5.62265 -0.0787,-8.28492 0.40187,-1.45638 1.19425,-3.011 2.36122,-3.86879 0.0654,-0.0481 0.23704,0.0562 0.23704,0.0562"
           style="fill:none;stroke:#585858;stroke-width:0.465;stroke-linecap:butt;stroke-linejoin:miter;stroke-miterlimit:4;stroke-dasharray:none;stroke-opacity:1" />
      </g>
    </g>
    <path
       inkscape:original-d="M 7.8662187,3.8719086 C 5.3244099,28.439352 5.1315769,70.063717 6.8862197,77.961188 c 1.7546453,7.897471 2.0474609,8.708158 2.0474609,8.708158 0,0 -2.4686117,-18.123329 5.4507294,-47.515557 7.91934,-29.3922307 8.674873,-30.6590401 8.674873,-30.6590401 0,0 -7.686814,42.8408961 -1.919272,68.7034021 5.767543,25.862459 5.767543,26.090739 5.767543,26.090739 0,0 -5.639605,-38.99983 -1.673055,-50.899436 3.966549,-11.899611 4.31219,-12.423061 4.31219,-12.423061 0,0 1.076743,45.59533 1.40729,50.392138 0.330545,4.796789 2.484932,22.841459 6.063905,33.668779 0.634202,1.91864 2.692885,5.43126 2.692885,5.43126 0,0 -3.091765,-21.2126 -2.669899,-31.862205 0.801874,-20.242543 9.849669,-59.971794 9.849669,-59.971794 0,0 -7.881412,38.494102 -2.954236,65.532459 4.927181,27.03839 12.478692,54.84195 12.478692,54.84195 0,0 -2.493439,-35.84386 -1.502415,-47.90442 0.991019,-12.060558 1.618259,-12.116218 1.618259,-12.116218 0,0 -2.26041,16.385148 7.524479,34.247908 9.784883,17.86278 10.589056,17.96745 10.589056,17.96745 0,0 -8.700486,-25.00776 -10.074953,-36.65729 -1.374463,-11.64951 -1.169356,-11.51726 -1.169356,-11.51726 0,0 4.675895,17.84875 9.446502,25.58903 0.758524,1.2307 2.959607,3.17026 2.959607,3.17026 0,0 -9.94572,-32.998885 -8.977675,-40.662994 0.968044,-7.664139 2.126184,-4.200419 2.126184,-4.200419 0,0 4.828442,13.948436 9.984625,18.840353 0.945989,0.89751 3.548103,1.64763 3.548103,1.64763 0,0 -8.896913,-10.751263 -10.38319,-27.247609 -1.486277,-16.496364 -1.486277,-16.935864 -1.486277,-16.935864 0,0 2.030463,9.808189 6.720567,17.896251 l 4.690103,8.088063 c 0,0 -3.867339,-3.844279 -6.414939,-31.891055 -2.547597,-28.046772 -0.872251,-35.022301 -0.872251,-35.022301 0,0 2.984807,18.055246 7.29756,24.88731 4.312752,6.832065 4.622296,7.141609 4.622296,7.141609 0,0 -5.672415,-23.572956 -6.36672,-35.611753 -0.205781,-3.568129 0.661091,-10.7017732 0.661091,-10.7017732 0,0 34.280679,52.4373692 41.094619,58.2773912 l 6.81394,5.840023 c 0,0 -14.03892,-18.828924 -15.18821,-24.339662 -1.14928,-5.510738 -1.14928,-5.786034 -1.14928,-5.786034 0,0 15.98039,22.794467 20.81146,27.028606 l 4.83106,4.23414 c 0,0 -2.89389,-2.032281 -15.61209,-26.004389 -12.71822,-23.972106 -12.71822,-24.26785 -12.71822,-24.26785 0,0 25.70031,37.903473 41.40895,43.946617 l 15.70863,6.043144 c 0,0 -12.69931,-6.495973 -14.41798,-11.301242 l -1.71869,-4.805273 c 0,0 5.87669,9.128978 19.87595,14.083212 l 13.99925,4.954232 c 0,0 -9.94049,-6.249079 -15.02119,-12.604731 l -5.08071,-6.355656 c 0,0 10.23191,6.542121 14.11482,6.835847 l 3.88293,0.293729 c 0,0 -28.66629,-17.282996 -36.18131,-28.288784 -7.51501,-11.005789 -7.51501,-11.332937 -7.51501,-11.332937 0,0 8.84448,17.02998 28.69842,24.510898 19.85393,7.480923 20.14281,7.480923 20.14281,7.480923 0,0 -25.0959,-15.075345 -30.0488,-25.419438 l -4.95291,-10.344095 c 0,0 14.60806,13.934857 22.76228,16.894599 8.15421,2.95974 8.36359,2.750353 8.36359,2.750353 0,0 -11.64991,-4.02433 -12.22513,-7.824788 L 171.0596,27.704262 271.78767,59.382859 283.50683,60.166438 270.65893,1.3657234 8.7204227,-0.49978161 c 0,0 -0.701401,2.89476111 -0.854204,4.37165221 z"
       style="opacity:1;fill:#000000;fill-opacity:1;stroke:none;stroke-width:0.327223px;stroke-linecap:butt;stroke-linejoin:miter;stroke-opacity:1"
       d="M 7.8662187,3.8719086 C 5.3244099,28.439352 5.1315769,70.063717 6.8862197,77.961188 c 1.7546453,7.897471 2.0474609,8.708158 2.0474609,8.708158 0,0 -2.4686117,-18.123329 5.4507294,-47.515557 7.91934,-29.3922307 8.674873,-30.6590401 8.674873,-30.6590401 0,0 -7.686814,42.8408961 -1.919272,68.7034021 5.767543,25.862459 5.767543,26.090739 5.767543,26.090739 0,0 -5.639605,-38.99983 -1.673055,-50.899436 3.966549,-11.899611 4.31219,-12.423061 4.31219,-12.423061 0,0 1.076743,45.59533 1.40729,50.392138 0.330545,4.796789 2.484932,22.841459 6.063905,33.668779 0.634202,1.91864 2.692885,5.43126 2.692885,5.43126 0,0 -3.091765,-21.2126 -2.669899,-31.862205 0.801874,-20.242543 9.849669,-59.971794 9.849669,-59.971794 0,0 -7.881412,38.494102 -2.954236,65.532459 4.927181,27.03839 12.478692,54.84195 12.478692,54.84195 0,0 -2.493439,-35.84386 -1.502415,-47.90442 0.991019,-12.060558 1.618259,-12.116218 1.618259,-12.116218 0,0 -2.26041,16.385148 7.524479,34.247908 9.784883,17.86278 10.589056,17.96745 10.589056,17.96745 0,0 -8.700486,-25.00776 -10.074953,-36.65729 -1.374463,-11.64951 -1.169356,-11.51726 -1.169356,-11.51726 0,0 4.675895,17.84875 9.446502,25.58903 0.758524,1.2307 2.959607,3.17026 2.959607,3.17026 0,0 -9.94572,-32.998885 -8.977675,-40.662994 0.968044,-7.664139 2.126184,-4.200419 2.126184,-4.200419 0,0 4.828442,13.948436 9.984625,18.840353 0.945989,0.89751 3.548103,1.64763 3.548103,1.64763 0,0 -8.896913,-10.751263 -10.38319,-27.247609 -1.486277,-16.496364 -1.486277,-16.935864 -1.486277,-16.935864 0,0 2.030463,9.808189 6.720567,17.896251 l 4.690103,8.088063 c 0,0 -3.867339,-3.844279 -6.414939,-31.891055 -2.547597,-28.046772 -0.872251,-35.022301 -0.872251,-35.022301 0,0 2.984807,18.055246 7.29756,24.88731 4.312752,6.832065 4.622296,7.141609 4.622296,7.141609 0,0 -5.672415,-23.572956 -6.36672,-35.611753 -0.205781,-3.568129 0.661091,-10.7017732 0.661091,-10.7017732 0,0 34.280679,52.4373692 41.094619,58.2773912 l 6.81394,5.840023 c 0,0 -14.03892,-18.828924 -15.18821,-24.339662 -1.14928,-5.510738 -1.14928,-5.786034 -1.14928,-5.786034 0,0 15.98039,22.794467 20.81146,27.028606 l 4.83106,4.23414 c 0,0 -2.89389,-2.032281 -15.61209,-26.004389 -12.71822,-23.972106 -12.71822,-24.26785 -12.71822,-24.26785 0,0 25.70031,37.903473 41.40895,43.946617 l 15.70863,6.043144 c 0,0 -12.69931,-6.495973 -14.41798,-11.301242 l -1.71869,-4.805273 c 0,0 5.87669,9.128978 19.87595,14.083212 l 13.99925,4.954232 c 0,0 -9.94049,-6.249079 -15.02119,-12.604731 l -5.08071,-6.355656 c 0,0 10.23191,6.542121 14.11482,6.835847 l 3.88293,0.293729 c 0,0 -28.66629,-17.282996 -36.18131,-28.288784 -7.51501,-11.005789 -7.51501,-11.332937 -7.51501,-11.332937 0,0 8.84448,17.02998 28.69842,24.510898 19.85393,7.480923 20.14281,7.480923 20.14281,7.480923 0,0 -25.0959,-15.075345 -30.0488,-25.419438 l -4.95291,-10.344095 c 0,0 14.60806,13.934857 22.76228,16.894599 8.15421,2.95974 8.36359,2.750353 8.36359,2.750353 0,0 -11.64991,-4.02433 -12.22513,-7.824788 L 171.0596,27.704262 271.78767,59.382859 283.50683,60.166438 270.65893,1.3657234 8.7204227,-0.49978161 c 0,0 -0.701401,2.89476111 -0.854204,4.37165221 z"
       id="path849"
       sodipodi:nodetypes="sscscscscsacacscscscscacscacscscscscacscscscscscscscscscscscscscscccccss" />
    <path
       inkscape:original-d="m 219.47486,43.594843 c 0,0 2.69346,9.25552 -0.51772,37.059774 -3.21118,27.804203 -3.96661,28.278113 -3.96661,28.278113 0,0 11.11805,-20.501387 12.57967,-31.497793 1.46162,-10.996408 1.97672,-46.122281 1.97672,-46.122281 z"
       id="path974"
       d="m 219.47486,43.594843 c 0,0 2.69346,9.25552 -0.51772,37.059774 -3.21118,27.804203 -3.96661,28.278113 -3.96661,28.278113 0,0 11.11805,-20.501387 12.57967,-31.497793 1.46162,-10.996408 1.97672,-46.122281 1.97672,-46.122281 z"
       style="fill:#000000;stroke:#000000;stroke-width:0.327223px;stroke-linecap:butt;stroke-linejoin:miter;stroke-opacity:1" />
    <path
       inkscape:original-d="m 8.1110285,56.786674 c 0,0 -2.2907903,3.005462 6.9957095,-25.772188 L 24.06766,3.2457579 c 0,0 -3.710752,32.0524151 -3.461507,48.1378771 0.146412,9.449008 2.260144,28.333813 2.260144,28.333813 0,0 -1.046052,-27.899618 2.960997,-37.520594 3.208038,-7.702538 7.128285,-12.303889 7.128285,-12.303889 0,0 -0.281034,22.879765 -0.153763,34.318757 0.117491,10.55994 0.846807,31.670462 0.846807,31.670462 0,0 3.247165,-28.287772 6.652387,-42.071424 1.835243,-7.428699 7.386052,-21.735441 7.386052,-21.735441 l -1.316368,27.241654 c -1.326515,27.451631 5.830905,68.354707 5.830905,68.354707 l 1.551697,-45.270581 5.341338,-39.517407 c 0,0 -0.980407,31.392041 -1.129709,47.093771 -0.147266,15.487477 7.025068,44.270257 7.632936,39.054127 0,0 -4.551855,-17.71865 -4.463692,-29.448647 l 0.239022,-31.801718 c 0,0 2.272463,41.725395 11.473376,59.826955 0.655064,1.28874 2.959607,3.17026 2.959607,3.17026 -9.984157,-8.42403 -9.547097,-66.73769 -9.547097,-66.73769 -0.407699,7.608142 7.098695,28.611272 7.098695,28.611272 0,0 -0.68818,2.032461 -2.673486,-14.411303 L 65.046514,31.544493 c 0.04994,17.194235 10.102275,38.133797 10.102275,38.133797 0,0 -1.389115,-11.100489 -1.961517,-17.970515 -2.547597,-28.046772 0.0848,-41.545967 0.0848,-41.545967 l 5.439151,20.476861 2.466637,7.341441 c 0,0 -4.040423,-17.540979 -2.757188,-26.242523 0.469198,-3.1816031 3.735033,-8.8957388 3.735033,-8.8957388 0,0 22.430005,35.3903648 27.228625,42.9738268 l 3.20728,5.068606 -2.4691,-9.301029 -2.97221,-11.083955 c 0,0 2.13232,4.16987 6.04655,9.263593 l 6.15243,5.580785 -5.66827,-11.479459 -12.53972,-26.7023752 c 0,0 20.82647,28.4560352 31.32928,39.6888612 5.26039,5.626022 15.93536,12.938475 15.93536,12.938475 L 120.1374,17.101726 c 0,0 21.20177,31.195165 33.53703,39.46347 l 15.52905,10.409094 -5.83714,-7.155576 c 0,0 -11.15031,-10.045753 -11.1291,-11.499003 l 12.86743,7.228284 6.78078,2.367095 c 0,0 -19.48106,-10.894931 -26.99608,-21.900719 C 137.37435,25.008582 131.6248,5.8180924 131.6248,5.8180924 c 0,0 16.11425,34.6681586 35.96819,42.1490766 19.85393,7.480923 20.14281,7.480923 20.14281,7.480923 0,0 -25.5969,-14.850049 -30.0488,-25.419438 L 149.85661,11.43834 c 0,0 17.48554,22.181076 25.63976,25.140818 8.15421,2.95974 8.36359,2.750353 8.36359,2.750353 0,0 -10.77668,-4.264405 -12.22513,-7.824788 l -3.58303,-8.80728 67.98863,24.083643 -23.45879,-26.505844 36.49557,28.789277 c 0,0 -25.44746,-32.66743 -32.27956,-40.2558521 0,0 17.79958,18.6395151 25.37322,23.7592431 7.94374,5.36991 26.29883,18.602509 26.29883,18.602509 0,0 -3.63357,-44.3222242 -3.04785,-41.3564087 0,0 8.40438,31.1141217 9.29946,47.0883427 0.50874,9.079003 -4.19587,31.232595 -2.26245,27.185753 11.50258,-24.075963 5.45328,-84.78294985 5.45328,-84.78294985 L 10.329366,-1.47751 C 7.0541908,16.942308 7.23577,38.067278 8.1110285,56.786674 Z"
       sodipodi:nodetypes="cscscscacacscccscscacccsccccccacscccscccsccscccccscscscscscccccscsasccc"
       id="path978"
       d="m 8.1110285,56.786674 c 0,0 -2.2907903,3.005462 6.9957095,-25.772188 L 24.06766,3.2457579 c 0,0 -3.710752,32.0524151 -3.461507,48.1378771 0.146412,9.449008 2.260144,28.333813 2.260144,28.333813 0,0 -1.046052,-27.899618 2.960997,-37.520594 3.208038,-7.702538 7.128285,-12.303889 7.128285,-12.303889 0,0 -0.281034,22.879765 -0.153763,34.318757 0.117491,10.55994 0.846807,31.670462 0.846807,31.670462 0,0 3.247165,-28.287772 6.652387,-42.071424 1.835243,-7.428699 7.386052,-21.735441 7.386052,-21.735441 l -1.316368,27.241654 c -1.326515,27.451631 5.830905,68.354707 5.830905,68.354707 l 1.551697,-45.270581 5.341338,-39.517407 c 0,0 -0.980407,31.392041 -1.129709,47.093771 -0.147266,15.487477 7.025068,44.270257 7.632936,39.054127 0,0 -4.551855,-17.71865 -4.463692,-29.448647 l 0.239022,-31.801718 c 0,0 2.272463,41.725395 11.473376,59.826955 0.655064,1.28874 2.959607,3.17026 2.959607,3.17026 -9.984157,-8.42403 -9.547097,-66.73769 -9.547097,-66.73769 -0.407699,7.608142 7.098695,28.611272 7.098695,28.611272 0,0 -0.68818,2.032461 -2.673486,-14.411303 L 65.046514,31.544493 c 0.04994,17.194235 10.102275,38.133797 10.102275,38.133797 0,0 -1.389115,-11.100489 -1.961517,-17.970515 -2.547597,-28.046772 0.0848,-41.545967 0.0848,-41.545967 l 5.439151,20.476861 2.466637,7.341441 c 0,0 -4.040423,-17.540979 -2.757188,-26.242523 0.469198,-3.1816031 3.735033,-8.8957388 3.735033,-8.8957388 0,0 22.430005,35.3903648 27.228625,42.9738268 l 3.20728,5.068606 -2.4691,-9.301029 -2.97221,-11.083955 c 0,0 2.13232,4.16987 6.04655,9.263593 l 6.15243,5.580785 -5.66827,-11.479459 -12.53972,-26.7023752 c 0,0 20.82647,28.4560352 31.32928,39.6888612 5.26039,5.626022 15.93536,12.938475 15.93536,12.938475 L 120.1374,17.101726 c 0,0 21.20177,31.195165 33.53703,39.46347 l 15.52905,10.409094 -5.83714,-7.155576 c 0,0 -11.15031,-10.045753 -11.1291,-11.499003 l 12.86743,7.228284 6.78078,2.367095 c 0,0 -19.48106,-10.894931 -26.99608,-21.900719 C 137.37435,25.008582 131.6248,5.8180924 131.6248,5.8180924 c 0,0 16.11425,34.6681586 35.96819,42.1490766 19.85393,7.480923 20.14281,7.480923 20.14281,7.480923 0,0 -25.5969,-14.850049 -30.0488,-25.419438 L 149.85661,11.43834 c 0,0 17.48554,22.181076 25.63976,25.140818 8.15421,2.95974 8.36359,2.750353 8.36359,2.750353 0,0 -10.77668,-4.264405 -12.22513,-7.824788 l -3.58303,-8.80728 67.98863,24.083643 -23.45879,-26.505844 36.49557,28.789277 c 0,0 -25.44746,-32.66743 -32.27956,-40.2558521 0,0 17.79958,18.6395151 25.37322,23.7592431 7.94374,5.36991 26.29883,18.602509 26.29883,18.602509 0,0 -3.63357,-44.3222242 -3.04785,-41.3564087 0,0 8.40438,31.1141217 9.29946,47.0883427 0.50874,9.079003 -4.19587,31.232595 -2.26245,27.185753 11.50258,-24.075963 5.45328,-84.78294985 5.45328,-84.78294985 L 10.329366,-1.47751 C 7.0541908,16.942308 7.23577,38.067278 8.1110285,56.786674 Z"
       style="opacity:1;fill:#2d2d2d;fill-opacity:1;stroke:none;stroke-width:0.327223px;stroke-linecap:butt;stroke-linejoin:miter;stroke-opacity:1" />
    <path
       transform="translate(18.414175,147.04538)"
       clip-path="url(#clipPath1668)"
       style="opacity:0.492432;fill:#ffffff;fill-opacity:0.271235;stroke:none;stroke-width:0.327223px;stroke-linecap:butt;stroke-linejoin:miter;stroke-opacity:1"
       d="m -11.361481,-93.433728 c 0,0 -5.19921,1.898666 6.9957098,-25.772192 l 11.7464919,-26.65335 c 0,0 -4.8240297,31.17385 -4.5747847,47.259308 0.146412,9.449008 1.2362178,27.964034 1.2362178,27.964034 0,0 -1.694418,-27.766644 2.312631,-37.387622 3.208038,-7.70254 7.1282852,-12.30389 7.1282852,-12.30389 0,0 -0.484311,29.521953 -0.153763,34.31876 -1.77796,13.759987 0.846807,31.670462 0.846807,31.670462 0,0 3.247165,-28.287772 6.652387,-42.071424 1.835243,-7.428698 7.386052,-21.735448 7.386052,-21.735448 l -1.316368,27.241661 c -1.326515,27.451631 5.830905,68.354708 5.830905,68.354708 l 1.551697,-45.270582 5.341338,-39.517407 c 0,0 -0.980407,31.392041 -1.129709,47.093771 -0.147266,15.487478 7.025068,44.270258 7.632936,39.054128 0,0 -4.551855,-17.71865 -4.463692,-29.448648 l 0.239022,-31.801718 c 0,0 2.272463,41.725396 11.473376,59.826956 0.655064,1.28874 2.959607,3.17026 2.959607,3.17026 -9.984157,-8.42403 -9.547097,-66.737691 -9.547097,-66.737691 -0.407699,7.608142 7.098695,28.611272 7.098695,28.611272 0,0 -0.68818,2.032461 -2.673486,-14.411303 l -5.637772,-46.696227 c 0.04994,17.19424 10.102275,38.133798 10.102275,38.133798 0,0 -1.389115,-11.100489 -1.961517,-17.970515 -2.547597,-28.046773 0.0848,-41.545973 0.0848,-41.545973 l 5.439151,20.47686 2.466637,7.34144 c 0,0 -4.040423,-17.54098 -2.757188,-26.24252 0.469198,-3.1816 3.735033,-8.89574 3.735033,-8.89574 0,0 22.430004,35.39037 27.228624,42.97383 l 3.20728,5.068609 -2.4691,-9.301029 -2.97221,-11.08396 c 0,0 2.13232,4.16987 6.04655,9.26359 l 6.15243,5.58079 -5.66827,-11.47946 -12.53972,-26.70238 c 0,0 20.82647,28.45604 31.32928,39.68887 5.26039,5.626022 15.93536,12.938475 15.93536,12.938475 l -28.26853,-42.687455 c 0,0 21.20177,31.19517 33.53703,39.463474 l 15.52905,10.409094 -5.83714,-7.155576 c 0,0 -11.15031,-10.045752 -11.1291,-11.499002 l 12.86743,7.228283 6.78078,2.367095 c 0,0 -19.48106,-10.894928 -26.99608,-21.900728 -7.51502,-11.00578 -13.26457,-30.19627 -13.26457,-30.19627 0,0 16.11425,34.66816 35.96819,42.14908 19.85393,7.48092 20.14281,7.48092 20.14281,7.48092 0,0 -25.5969,-14.85005 -30.0488,-25.41944 l -7.83039,-18.59032 c 0,0 17.48554,22.18108 25.63976,25.14082 8.15421,2.95974 8.36359,2.75035 8.36359,2.75035 0,0 -10.77668,-4.2644 -12.22513,-7.82478 l -3.58303,-8.80728 67.98863,24.08364 -23.45879,-26.50584 36.49557,28.78928 c 0,0 -25.44746,-32.66744 -32.27956,-40.25586 0,0 17.79958,18.63952 25.37322,23.75924 7.94374,5.36991 34.70689,15.74815 34.70689,15.74815 0,0 -12.04163,-41.46786 -11.45591,-38.50205 0,0 8.40438,31.11413 9.29946,47.088351 0.50874,9.079003 -4.19587,31.232595 -2.26245,27.185753 11.50258,-24.075963 5.30546,-83.402974 5.30546,-83.402974 l -266.3766192,1.01238 c -3.2751748,18.41982 -4.1519298,36.36976 -3.2766718,55.089162 z"
       id="path1622"
       sodipodi:nodetypes="cscscscccacscccscscacccsccccccacscccscccsccscccccscscscscscccccscsasccc" />
    <path
       id="path1688"
       d="m 175.98154,58.248162 c 0,0 3.99316,4.941141 15.07901,6.277472 11.08585,1.336331 21.21638,-1.367298 23.27824,-3.801681 2.06186,-2.434387 2.06186,-2.434387 2.06186,-2.434387"
       style="fill:none;stroke:#000000;stroke-width:0.665;stroke-linecap:butt;stroke-linejoin:miter;stroke-miterlimit:4;stroke-dasharray:none;stroke-opacity:1;filter:url(#filter1792)" />
    <path
       style="fill:none;stroke:#000000;stroke-width:0.665;stroke-linecap:butt;stroke-linejoin:miter;stroke-miterlimit:4;stroke-dasharray:none;stroke-opacity:1;filter:url(#filter1788)"
       d="m 77.597883,60.635951 c 0,0 3.993163,4.941141 15.079016,6.277472 11.085851,1.336331 21.216381,-1.367298 23.278241,-3.801681 2.06186,-2.434387 2.06186,-2.434387 2.06186,-2.434387"
       id="path1690" />
    <path
       id="path1798"
       d="m 40.195176,88.46942 c 0,0 -2.25973,17.30151 -2.25973,18.17127 0,0.86977 5.14688,39.61535 5.42903,40.75789 0.28214,1.14255 4.87914,7.61962 5.06813,9.88747 0.18899,2.26786 0.93612,2.38356 0.93612,2.38356 0,0 -5.86812,-38.74534 -5.93901,-47.76687 -0.0709,-9.02153 -3.23454,-23.43332 -3.23454,-23.43332 z"
       style="fill:#a2a2a2;fill-opacity:1;stroke:none;stroke-width:0.264583px;stroke-linecap:butt;stroke-linejoin:miter;stroke-opacity:1;filter:url(#filter1812)" />
    <path
       sodipodi:nodetypes="ccccc"
       id="path1800"
       d="M 0.12657005,167.53475 4.25051,179.06738 10.075272,179.2382 -0.01159039,156.36303 Z"
       style="fill:#a2a2a2;fill-opacity:1;stroke:none;stroke-width:0.264583px;stroke-linecap:butt;stroke-linejoin:miter;stroke-opacity:1;filter:url(#filter1808)" />
    <path
       sodipodi:nodetypes="scccs"
       id="path1806"
       d="M 5.0936719,83.741581 2.7357037,87.562156 0.39034215,94.675548 0.28964619,84.931505 c 0,0 6.19560941,-3.444683 4.80402571,-1.189924 z"
       style="fill:#a2a2a2;fill-opacity:1;stroke:none;stroke-width:0.264583px;stroke-linecap:butt;stroke-linejoin:miter;stroke-opacity:1;filter:url(#filter1828)" />
    <path
       sodipodi:nodetypes="caczcccccccc"
       id="path2634"
       d="m 242.01812,12.07095 c 0,0 8.61478,7.517907 10.7559,12.61116 1.21814,2.897685 0.84512,9.392008 0.84512,9.392008 0,0 2.99247,-7.545327 3.89907,-10.940905 0.90659,-3.395577 1.41536,-9.432241 1.41536,-9.432241 l 5.59294,-13.16920053 -23.90566,0.90667203 -7.35118,8.9212785 -16.47202,-1.5510553 16.98413,11.2834933 9.94255,6.117596 z"
       style="fill:#494949;fill-opacity:1;stroke:none;stroke-width:0.264583px;stroke-linecap:butt;stroke-linejoin:miter;stroke-opacity:1" />
  </g>
</svg>
