<?xml version="1.0" encoding="UTF-8" standalone="no"?>
<svg
   xmlns:dc="http://purl.org/dc/elements/1.1/"
   xmlns:cc="http://creativecommons.org/ns#"
   xmlns:rdf="http://www.w3.org/1999/02/22-rdf-syntax-ns#"
   xmlns:svg="http://www.w3.org/2000/svg"
   xmlns="http://www.w3.org/2000/svg"
   xmlns:sodipodi="http://sodipodi.sourceforge.net/DTD/sodipodi-0.dtd"
   xmlns:inkscape="http://www.inkscape.org/namespaces/inkscape"
   id="svg5117"
   version="1.1"
   viewBox="0 0 210 297"
   height="297mm"
   width="210mm"
   sodipodi:docname="man.svg"
   inkscape:version="0.92.4 (fd57863, 2020-04-02)">
  <sodipodi:namedview
     pagecolor="#ffffff"
     bordercolor="#666666"
     borderopacity="1"
     objecttolerance="10"
     gridtolerance="10"
     guidetolerance="10"
     inkscape:pageopacity="0"
     inkscape:pageshadow="2"
     inkscape:window-width="1600"
     inkscape:window-height="813"
     id="namedview5868"
     showgrid="false"
     inkscape:zoom="1.5219183"
     inkscape:cx="380.94482"
     inkscape:cy="794.21856"
     inkscape:window-x="0"
     inkscape:window-y="0"
     inkscape:window-maximized="1"
     inkscape:current-layer="layer1" />
  <defs
     id="defs5111">
    <inkscape:perspective
       sodipodi:type="inkscape:persp3d"
       inkscape:vp_x="0 : 148.5 : 1"
       inkscape:vp_y="0 : 1000 : 0"
       inkscape:vp_z="210 : 148.5 : 1"
       inkscape:persp3d-origin="105 : 99 : 1"
       id="perspective935" />
  </defs>
  <metadata
     id="metadata5114">
    <rdf:RDF>
      <cc:Work
         rdf:about="">
        <dc:format>image/svg+xml</dc:format>
        <dc:type
           rdf:resource="http://purl.org/dc/dcmitype/StillImage" />
        <dc:title />
      </cc:Work>
    </rdf:RDF>
  </metadata>
  <g
     id="layer1"
     transform="translate(42.657092,-65.585278)">
    <path
       style="opacity:1;fill:#ff2a2a;fill-opacity:1;stroke:#000000;stroke-width:1;stroke-miterlimit:4;stroke-dasharray:none;stroke-opacity:1"
       d="m 28.068409,117.32117 c -14.018818,0 -25.3049098,15.25456 -25.3049098,34.203 v 32.49942 c 0,0.26324 0.0029,0.52583 0.0072,0.78761 H 53.366055 c 0.0043,-0.26178 0.0067,-0.52437 0.0067,-0.78761 v -32.49942 c 0,-18.94844 -11.28558,-34.203 -25.304398,-34.203 z"
       id="rect73"
       inkscape:connector-curvature="0" />
    <path
       id="rect5666"
       d="m 17.878822,181.0962 c -3.474817,0 -6.272161,3.3624 -6.272161,7.5391 v 6.0146 h 31.81998 v -6.0146 c 0,-4.1767 -2.797344,-7.5391 -6.272161,-7.5391 z"
       style="opacity:1;fill:#ffccaa;fill-opacity:1;stroke:#000000;stroke-width:0.99999994;stroke-miterlimit:4;stroke-dasharray:none;stroke-opacity:1"
       inkscape:connector-curvature="0" />
    <rect
       style="opacity:1;fill:#ffccaa;fill-opacity:1;stroke:#000000;stroke-width:0.99999994;stroke-miterlimit:4;stroke-dasharray:none;stroke-opacity:1"
       id="rect5664"
       width="9.6417208"
       height="16.710035"
       x="22.695778"
       y="169.95638"
       ry="5.1795907" />
    <path
       id="rect5119"
       d="m 27.715361,121.44987 c -10.329683,0 -18.6513924,7.55833 -18.7056884,16.96552 a 4.9686077,9.0614359 0 0 0 -1.0660554,-0.16576 4.9686077,9.0614359 0 0 0 -4.838907,9.21464 4.9686077,9.0614359 0 0 0 5.010743,8.90471 4.9686077,9.0614359 0 0 0 0.8927994,-0.16878 v 3.2232 c 0,9.45014 8.3435514,17.05789 18.7071084,17.05789 h 0.220597 c 10.363556,0 18.707108,-7.60775 18.707108,-17.05789 v -3.74767 a 4.9686077,9.0614359 0 0 0 1.94844,0.69325 4.9686077,9.0614359 0 0 0 4.925541,-9.06097 l -0.0028,-0.31295 a 4.9686077,9.0614359 0 0 0 -5.094537,-8.74543 4.9686077,9.0614359 0 0 0 -1.776603,0.69239 v -0.43425 c 0,-9.45015 -8.343552,-17.0579 -18.707108,-17.0579 z"
       style="opacity:1;fill:#ffccaa;fill-opacity:1;stroke:#000000;stroke-width:0.99999994;stroke-miterlimit:4;stroke-dasharray:none;stroke-opacity:1"
       inkscape:connector-curvature="0" />
    <path
       id="path5696"
       d="m 9.0082526,156.20019 c 0.7429477,-9.13506 -0.02115,-9.49486 -0.07359,-9.52218 h 0.09615 v 0"
       style="fill:none;stroke:#000000;stroke-width:0.99999994;stroke-linecap:butt;stroke-linejoin:miter;stroke-miterlimit:4;stroke-dasharray:none;stroke-opacity:1"
       inkscape:connector-curvature="0" />
    <path
       style="fill:none;stroke:#000000;stroke-width:0.99999994;stroke-linecap:butt;stroke-linejoin:miter;stroke-miterlimit:4;stroke-dasharray:none;stroke-opacity:1"
       d="m 46.643066,155.67573 c -0.742949,-9.13506 0.02115,-9.49487 0.07359,-9.52219 h -0.09615 v 0"
       id="path5698"
       inkscape:connector-curvature="0" />
    <path
       d="m 21.137266,149.32042 a 3.1399229,3.5739703 0 0 1 -3.11281,3.57383 3.1399229,3.5739703 0 0 1 -3.166567,-3.51211 3.1399229,3.5739703 0 0 1 3.058123,-3.63449 3.1399229,3.5739703 0 0 1 3.219381,3.44935"
       id="path5700"
       style="opacity:1;fill:#000000;fill-opacity:1;stroke:#000000;stroke-width:0.99999994;stroke-miterlimit:4;stroke-dasharray:none;stroke-opacity:1"
       inkscape:connector-curvature="0" />
    <path
       style="opacity:1;fill:#000000;fill-opacity:1;stroke:#000000;stroke-width:0.99999994;stroke-miterlimit:4;stroke-dasharray:none;stroke-opacity:1"
       id="path5704"
       d="m 41.447563,149.1038 a 3.1399229,3.5739703 0 0 1 -3.11281,3.57384 3.1399229,3.5739703 0 0 1 -3.166567,-3.51212 3.1399229,3.5739703 0 0 1 3.058123,-3.63449 3.1399229,3.5739703 0 0 1 3.219381,3.44935"
       inkscape:connector-curvature="0" />
    <path
       id="path5706"
       d="m 20.169248,165.1408 a 7.2947024,5.4259243 0 0 0 7.330166,4.96811 7.2947024,5.4259243 0 0 0 7.200956,-4.96811 z"
       style="opacity:1;fill:#f9f9f9;fill-opacity:1;stroke:#000000;stroke-width:0.99999994;stroke-miterlimit:4;stroke-dasharray:none;stroke-opacity:1"
       inkscape:connector-curvature="0" />
    <path
       style="opacity:1;fill:#ff2a2a;fill-opacity:1;stroke:#000000;stroke-width:1;stroke-miterlimit:4;stroke-dasharray:none;stroke-opacity:1"
       d="m 28.068282,117.32114 c -0.564329,0 -1.123534,0.0273 -1.67845,0.076 a 17.23178,11.398197 19.828956 0 0 -1.590082,1.37098 17.23178,11.398197 19.828956 0 0 6.526215,17.19378 17.23178,11.398197 19.828956 0 0 19.931083,1.81023 C 47.354595,125.71014 38.463539,117.32114 28.068282,117.32114 Z"
       id="path956"
       inkscape:connector-curvature="0" />
    <path
       style="opacity:1;fill:#ff2a2a;fill-opacity:1;stroke:#000000;stroke-width:0.99999988;stroke-miterlimit:4;stroke-dasharray:none;stroke-opacity:1"
       d="m 28.068282,117.32114 c -10.606725,0 -19.6474251,8.73361 -23.4207887,21.19147 a 12.348979,16.650235 58.428632 0 0 0.3906737,0.25735 12.348979,16.650235 58.428632 0 0 21.946977,-5.42706 12.348979,16.650235 58.428632 0 0 2.528528,-15.96544 c -0.478457,-0.0361 -0.960022,-0.0563 -1.44539,-0.0563 z"
       id="path954"
       inkscape:connector-curvature="0" />
    <path
       inkscape:connector-curvature="0"
       id="path975"
       d="m 43.821823,144.1547 c -6.781199,-5.00733 -10.216217,-0.9663 -10.216217,-0.9663 v 0"
       style="fill:none;stroke:#000000;stroke-width:1.32291663;stroke-linecap:butt;stroke-linejoin:miter;stroke-miterlimit:4;stroke-dasharray:none;stroke-opacity:1" />
    <path
       style="fill:none;stroke:#000000;stroke-width:1.32291663;stroke-linecap:butt;stroke-linejoin:miter;stroke-miterlimit:4;stroke-dasharray:none;stroke-opacity:1"
       d="m 12.380359,143.96618 c 6.781199,-5.00733 10.216217,-0.9663 10.216217,-0.9663 v 0"
       id="path986"
       inkscape:connector-curvature="0" />
    <path
       inkscape:connector-curvature="0"
       style="opacity:1;fill:#ffccaa;fill-opacity:1;stroke:#000000;stroke-width:0.99999994;stroke-miterlimit:4;stroke-dasharray:none;stroke-opacity:1"
       d="m 81.409798,180.90768 c -3.474802,0 -6.272127,3.3624 -6.272127,7.5391 v 6.0146 h 31.819839 v -6.0146 c 0,-4.1767 -2.79734,-7.5391 -6.27216,-7.5391 z"
       id="path990" />
    <rect
       ry="5.1795907"
       y="169.76785"
       x="86.226875"
       height="16.710035"
       width="9.6417208"
       id="rect992"
       style="opacity:1;fill:#ffccaa;fill-opacity:1;stroke:#000000;stroke-width:0.99999994;stroke-miterlimit:4;stroke-dasharray:none;stroke-opacity:1" />
    <path
       inkscape:connector-curvature="0"
       style="opacity:1;fill:#ffccaa;fill-opacity:1;stroke:#000000;stroke-width:0.99999994;stroke-miterlimit:4;stroke-dasharray:none;stroke-opacity:1"
       d="m 91.246281,121.26135 c -10.32962,0 -18.651285,7.55833 -18.705585,16.96552 a 4.9686077,9.0614359 0 0 0 -1.066054,-0.16576 4.9686077,9.0614359 0 0 0 -4.83888,9.21464 4.9686077,9.0614359 0 0 0 5.01072,8.90471 4.9686077,9.0614359 0 0 0 0.892794,-0.16878 v 3.2232 c 0,9.45014 8.343505,17.05789 18.707005,17.05789 h 0.2206 c 10.363499,0 18.707049,-7.60775 18.707049,-17.05789 v -3.74767 a 4.9686077,9.0614359 0 0 0 1.94844,0.69325 4.9686077,9.0614359 0 0 0 4.92555,-9.06097 l -0.003,-0.31295 a 4.9686077,9.0614359 0 0 0 -5.09454,-8.74543 4.9686077,9.0614359 0 0 0 -1.7766,0.69239 v -0.43425 c 0,-9.45015 -8.34356,-17.0579 -18.707059,-17.0579 z"
       id="path994" />
    <path
       inkscape:connector-curvature="0"
       style="fill:none;stroke:#000000;stroke-width:0.99999994;stroke-linecap:butt;stroke-linejoin:miter;stroke-miterlimit:4;stroke-dasharray:none;stroke-opacity:1"
       d="m 72.539276,156.01167 c 0.742947,-9.13506 -0.0212,-9.49486 -0.0736,-9.52218 h 0.0961 v 0"
       id="path996" />
    <path
       inkscape:connector-curvature="0"
       id="path998"
       d="m 110.17393,155.48721 c -0.74294,-9.13506 0.0212,-9.49487 0.0736,-9.52219 h -0.0961 v 0"
       style="fill:none;stroke:#000000;stroke-width:0.99999994;stroke-linecap:butt;stroke-linejoin:miter;stroke-miterlimit:4;stroke-dasharray:none;stroke-opacity:1" />
    <path
       inkscape:connector-curvature="0"
       style="opacity:1;fill:#000000;fill-opacity:1;stroke:#000000;stroke-width:0.99999994;stroke-miterlimit:4;stroke-dasharray:none;stroke-opacity:1"
       id="path1000"
       d="m 84.668217,149.1319 a 3.1399229,3.5739703 0 0 1 -3.112792,3.57383 3.1399229,3.5739703 0 0 1 -3.166542,-3.51211 3.1399229,3.5739703 0 0 1 3.058105,-3.63449 3.1399229,3.5739703 0 0 1 3.219359,3.44935" />
    <path
       inkscape:connector-curvature="0"
       d="m 104.97843,148.91528 a 3.1399229,3.5739703 0 0 1 -3.11281,3.57384 3.1399229,3.5739703 0 0 1 -3.166561,-3.51212 3.1399229,3.5739703 0 0 1 3.058121,-3.63449 3.1399229,3.5739703 0 0 1 3.21938,3.44935"
       id="path1002"
       style="opacity:1;fill:#000000;fill-opacity:1;stroke:#000000;stroke-width:0.99999994;stroke-miterlimit:4;stroke-dasharray:none;stroke-opacity:1" />
    <path
       inkscape:connector-curvature="0"
       style="opacity:1;fill:#f9f9f9;fill-opacity:1;stroke:#000000;stroke-width:0.99999994;stroke-miterlimit:4;stroke-dasharray:none;stroke-opacity:1"
       d="m 84.108513,167.48049 a 7.2947024,5.4259243 0 0 0 7.330118,4.96811 7.2947024,5.4259243 0 0 0 7.200918,-4.96811 z"
       id="path1004" />
    <path
       style="fill:none;stroke:#000000;stroke-width:1.32291663;stroke-linecap:butt;stroke-linejoin:miter;stroke-miterlimit:4;stroke-dasharray:none;stroke-opacity:1"
       d="m 107.35269,143.96618 c -6.7812,-5.00733 -10.216202,-0.9663 -10.216202,-0.9663 v 0"
       id="path1010"
       inkscape:connector-curvature="0" />
    <path
       inkscape:connector-curvature="0"
       id="path1012"
       d="m 75.911368,143.77766 c 6.781161,-5.00733 10.216153,-0.9663 10.216153,-0.9663 v 0"
       style="fill:none;stroke:#000000;stroke-width:1.32291663;stroke-linecap:butt;stroke-linejoin:miter;stroke-miterlimit:4;stroke-dasharray:none;stroke-opacity:1" />
    <path
       style="opacity:1;fill:#ff0000;fill-opacity:1;stroke:#000000;stroke-width:0.79374999;stroke-miterlimit:4;stroke-dasharray:none;stroke-opacity:1"
       d="m 88.164079,169.24333 a 4.8072471,5.3728056 0 0 0 -1.937338,0.52452 7.2947024,5.4259241 0 0 0 6.343244,2.68097 7.2947024,5.4259241 0 0 0 0.111617,-0.005 4.8072471,5.3728056 0 0 0 -0.353977,-0.72243 7.2947024,5.4259241 20.618209 0 0 3.603889,-1.13379 4.8072471,5.3728056 20.618209 0 0 -1.595761,-0.97823 4.8072471,5.3728056 20.618209 0 0 -3.664349,0.34882 4.8072471,5.3728056 0 0 0 -2.507325,-0.71469 z"
       id="path1014"
       inkscape:connector-curvature="0" />
    <path
       style="fill:#501616;stroke:#000000;stroke-width:0.26458332px;stroke-linecap:butt;stroke-linejoin:miter;stroke-opacity:1"
       d="m 91.246191,121.26147 c -10.32962,0 -18.651425,7.55818 -18.705725,16.96537 l 9.966776,-8.27443 -3.204952,7.352 9.426236,-6.22132 1.696531,5.46736 3.770286,-3.58169 10.556947,1.69654 -2.45049,-3.58221 7.72976,5.15317 c -1.12072,-8.4598 -8.97534,-14.97479 -18.564709,-14.97479 z"
       id="path1029"
       inkscape:connector-curvature="0" />
  </g>
</svg>
