<?xml version="1.0" encoding="UTF-8" standalone="no"?>
<svg
   xmlns:dc="http://purl.org/dc/elements/1.1/"
   xmlns:cc="http://creativecommons.org/ns#"
   xmlns:rdf="http://www.w3.org/1999/02/22-rdf-syntax-ns#"
   xmlns:svg="http://www.w3.org/2000/svg"
   xmlns="http://www.w3.org/2000/svg"
   xmlns:sodipodi="http://sodipodi.sourceforge.net/DTD/sodipodi-0.dtd"
   xmlns:inkscape="http://www.inkscape.org/namespaces/inkscape"
   inkscape:export-ydpi="300"
   inkscape:export-xdpi="300"
   inkscape:export-filename="/home/omkarpathak/Documents/GIT/illustrations/pngs/minakshi.png"
   sodipodi:docname="minakshi.svg"
   inkscape:version="1.0 (6e3e5246a0, 2020-05-07)"
   id="svg8"
   version="1.1"
   viewBox="0 0 210 297"
   height="297mm"
   width="210mm">
  <defs
     id="defs2" />
  <sodipodi:namedview
     inkscape:window-maximized="1"
     inkscape:window-y="0"
     inkscape:window-x="0"
     inkscape:window-height="813"
     inkscape:window-width="1600"
     showgrid="false"
     inkscape:document-rotation="0"
     inkscape:current-layer="layer1"
     inkscape:document-units="mm"
     inkscape:cy="560.55871"
     inkscape:cx="235.00368"
     inkscape:zoom="0.45216373"
     inkscape:pageshadow="2"
     inkscape:pageopacity="0"
     borderopacity="1.0"
     bordercolor="#666666"
     pagecolor="#ffffff"
     id="base" />
  <metadata
     id="metadata5">
    <rdf:RDF>
      <cc:Work
         rdf:about="">
        <dc:format>image/svg+xml</dc:format>
        <dc:type
           rdf:resource="http://purl.org/dc/dcmitype/StillImage" />
        <dc:title></dc:title>
      </cc:Work>
    </rdf:RDF>
  </metadata>
  <g
     id="layer1"
     inkscape:groupmode="layer"
     inkscape:label="Layer 1">
    <rect
       ry="2.0629296"
       y="-5.3555417"
       x="-0.7101227"
       height="305.63016"
       width="222.73055"
       id="rect906"
       style="opacity:1;fill:#afafe9;fill-opacity:1;stroke:none;stroke-width:1.23236;stroke-opacity:0.978802;paint-order:stroke fill markers" />
    <path
       sodipodi:nodetypes="caaaaaaaac"
       id="path904"
       d="m 69.63852,21.706382 c 0,0 -44.832757,28.233881 -48.000874,51.481595 -4.781088,35.083733 54.221824,59.220603 49.008688,94.242743 -3.719539,24.98807 -57.185083,29.22182 -53.035656,54.14211 2.529022,15.1886 27.160317,14.58675 41.273217,20.7443 30.559405,13.33327 63.973365,50.03258 93.714875,34.96287 38.30718,-19.40986 27.36625,-81.71879 35.07595,-123.96501 6.577,-36.03944 35.60487,-83.944229 9.36055,-109.504623 C 164.95336,12.564515 94.357607,91.259316 63.52201,58.782896 54.897315,49.699264 69.63852,21.706382 69.63852,21.706382 Z"
       style="fill:#d7d7f4;stroke:none;stroke-width:0.264583px;stroke-linecap:butt;stroke-linejoin:miter;stroke-opacity:1" />
    <path
       d="m 161.53491,231.56033 a 8.7148533,3.1906006 0 0 1 -8.70094,3.1906 8.7148533,3.1906006 0 0 1 -8.72873,-3.18041 8.7148533,3.1906006 0 0 1 8.67306,-3.20075 8.7148533,3.1906006 0 0 1 8.75643,3.17018"
       sodipodi:arc-type="arc"
       sodipodi:open="true"
       sodipodi:end="6.2767974"
       sodipodi:start="0"
       sodipodi:ry="3.1906006"
       sodipodi:rx="8.7148533"
       sodipodi:cy="231.56033"
       sodipodi:cx="152.82005"
       sodipodi:type="arc"
       id="path902"
       style="opacity:1;fill:#a1a1a1;fill-opacity:1;stroke:none;stroke-width:0.887989;stroke-opacity:0.978802;paint-order:stroke fill markers" />
    <path
       style="fill:#dedede;fill-opacity:1;stroke:none;stroke-width:0.264583px;stroke-linecap:butt;stroke-linejoin:miter;stroke-opacity:1"
       d="m -0.84154665,157.5467 c 0,0 50.31746965,-9.18808 59.15992165,-9.292 8.842454,-0.10391 56.840085,0.36887 80.346175,1.56536 23.50609,1.19649 26.82029,1.94943 26.82029,-0.63847 0,-2.5879 -4.5752,-15.79047 -4.5752,-15.79047 L 62.495603,106.005 -0.28858936,124.91864 Z"
       id="path898" />
    <path
       sodipodi:nodetypes="cssscccc"
       style="fill:#e5e5e5;fill-opacity:1;stroke:none;stroke-width:0.264583px;stroke-linecap:butt;stroke-linejoin:miter;stroke-opacity:1"
       d="m -0.84154715,157.5467 c 0,0 50.31747015,-9.18808 59.15992215,-9.292 8.842454,-0.10391 56.840085,0.36887 80.346175,1.56536 23.50609,1.19649 26.82029,1.94943 26.82029,-0.63847 0,-2.5879 -0.0789,-5.61397 -0.0789,-5.61397 L 62.495603,106.005 -0.28858986,124.91864 Z"
       id="path896" />
    <path
       sodipodi:nodetypes="cssscccc"
       id="path894"
       d="m -0.60332865,152.54251 c 0,0 50.31746965,-9.18808 59.15992165,-9.292 8.842454,-0.10391 56.840087,0.36887 80.346177,1.56536 23.50609,1.19649 26.82029,1.94943 26.82029,-0.63847 0,-2.5879 -4.5752,-15.79047 -4.5752,-15.79047 L 62.733821,101.00081 -0.6888088,119.91445 Z"
       style="fill:#f9f9f9;fill-opacity:1;stroke:none;stroke-width:0.264583px;stroke-linecap:butt;stroke-linejoin:miter;stroke-opacity:1" />
    <path
       sodipodi:nodetypes="ccaccc"
       id="path900"
       d="m 147.671,150.93481 1.1864,78.77154 c 0,0 2.12239,1.24008 3.30635,1.31917 1.3243,0.0885 3.86168,-0.97051 3.86168,-0.97051 l 0.78257,-80.49225 z"
       style="fill:#767676;fill-opacity:1;stroke:none;stroke-width:0.264583px;stroke-linecap:butt;stroke-linejoin:miter;stroke-opacity:1" />
  </g>
  <g
     inkscape:label="Layer 2"
     id="layer2"
     inkscape:groupmode="layer">
    <path
       sodipodi:nodetypes="cssssssc"
       id="path892"
       d="m 119.26796,236.83399 c 0,0 -5.69994,17.16918 -6.08622,19.59146 -0.38628,2.42227 -1.15708,9.82687 0.20084,11.38222 1.35792,1.55536 2.92535,4.00818 5.30727,4.00818 2.38192,0 7.70493,-3.93676 7.17218,-6.7677 -0.47873,-2.5439 2.87353,-12.35653 3.50799,-18.69712 0.38047,-3.80236 -1.60905,-11.20891 -2.4052,-11.20891 -0.79614,0 -7.69686,1.69187 -7.69686,1.69187 z"
       style="fill:#f9f9f9;fill-opacity:1;stroke:none;stroke-width:0.264583px;stroke-linecap:butt;stroke-linejoin:miter;stroke-opacity:1" />
    <path
       sodipodi:nodetypes="caaasaaasc"
       id="path890"
       d="m 96.309703,226.62702 c 0,0 -2.377594,3.34698 -3.041097,5.26071 -1.984299,5.72327 -1.547832,12.01999 -2.595798,17.98615 -0.530763,3.02168 -2.353142,5.98278 -1.868398,9.01218 0.432731,2.70435 2.783935,7.12303 4.09503,7.12303 1.311093,0 4.910068,-1.7342 6.532719,-3.62291 2.497091,-2.90652 3.349531,-7.00164 3.996861,-10.77845 0.77749,-4.53627 -0.10282,-9.20454 -0.21552,-13.80558 -0.0545,-2.2231 -0.0553,-6.36829 -0.22259,-6.66759 -0.16724,-0.2993 -6.681207,-4.50754 -6.681207,-4.50754 z"
       style="fill:#f9f9f9;fill-opacity:1;stroke:none;stroke-width:0.264583px;stroke-linecap:butt;stroke-linejoin:miter;stroke-opacity:1" />
    <path
       sodipodi:nodetypes="casaaacc"
       id="path888"
       d="m 119.26796,236.83399 c 0,0 -0.92547,2.56807 -0.81633,3.88774 0.10966,1.32598 0.4155,2.88284 1.45083,3.71851 1.52738,1.23282 4.07115,1.83758 5.8139,0.93449 1.6832,-0.87223 2.63692,-3.21726 2.50054,-5.10812 -0.11531,-1.59878 -1.24652,-3.32201 -2.71222,-3.97096 -0.52987,-0.2346 -1.72193,0.23902 -1.72193,0.23902 z"
       style="fill:#ffd5b8;fill-opacity:1;stroke:none;stroke-width:0.264583px;stroke-linecap:butt;stroke-linejoin:miter;stroke-opacity:1" />
    <path
       id="path886"
       d="m 95.095046,229.87957 c 0,0 -2.476577,8.05196 -1.280195,9.34813 1.196383,1.29616 5.01441,3.16127 6.475009,2.01988 1.46061,-1.14139 3.56635,-8.26335 3.56635,-8.26335 z"
       style="fill:#ffd5b8;stroke:none;stroke-width:0.264583px;stroke-linecap:butt;stroke-linejoin:miter;stroke-opacity:1;fill-opacity:1" />
    <path
       sodipodi:nodetypes="cacssssassscaaacc"
       id="path884"
       d="m 131.36363,92.054261 c 0,0 -0.32758,12.515559 1.02638,18.562939 2.33134,10.41279 12.0307,29.66503 12.0307,29.66503 0,0 -1.73588,2.65179 -1.74895,4.15417 -0.0181,2.08149 1.02437,4.16958 2.32257,5.79672 0.349,0.43743 0.97002,0.57482 1.38076,0.95486 0.34553,0.3197 0.45915,0.90815 0.8909,1.09574 2.09971,0.91231 4.75729,0.45452 6.85199,-0.46924 0.88099,-0.38851 1.43882,-1.28476 2.08912,-1.99482 0.76888,-0.83953 2.05454,-1.53163 2.13287,-2.66734 0.12975,-1.88125 -1.67723,-3.42001 -2.89297,-4.86151 -1.59231,-1.88799 -5.63684,-4.80889 -5.63684,-4.80889 0,0 -2.67268,-14.79809 -4.04696,-22.19014 -0.56222,-3.02406 -1.21963,-6.03108 -1.71768,-9.06637 -0.67548,-4.11663 -1.63103,-8.225318 -1.72206,-12.396009 -0.0276,-1.263255 0.35727,-3.773795 0.35727,-3.773795 z"
       style="fill:#ffcfad;fill-opacity:1;stroke:none;stroke-width:0.264583px;stroke-linecap:butt;stroke-linejoin:miter;stroke-opacity:1" />
    <path
       id="path882"
       d="m 77.260716,84.989902 c 0,0 3.911793,13.052763 3.69021,17.644418 -0.221583,4.59164 1.885625,25.16238 1.885625,25.16238 l 1.099978,8.87055 -4.991983,4.54387 c 0,0 -1.1414,2.18796 0.118792,4.4553 1.260192,2.26734 3.742955,5.27111 4.989685,5.27111 1.24673,0 11.546681,-2.10241 11.546681,-2.10241 L 92.554535,77.963391 Z"
       style="fill:#ffcfad;stroke:none;stroke-width:0.264583px;stroke-linecap:butt;stroke-linejoin:miter;stroke-opacity:1;fill-opacity:1" />
    <path
       sodipodi:nodetypes="cccccc"
       id="path880"
       d="m 99.316844,46.220679 6.722586,5.981017 -4.83268,10.72701 10.94729,15.929824 14.30512,-20.110807 z"
       style="fill:#ffcfad;fill-opacity:1;stroke:none;stroke-width:0.264583px;stroke-linecap:butt;stroke-linejoin:miter;stroke-opacity:1" />
    <path
       sodipodi:nodetypes="ccsccscscc"
       id="path856"
       d="m 110.39528,144.8924 c 0,0 -20.885744,-9.64354 -26.481987,-1.7349 0,0 8.59412,24.10221 11.98248,28.8321 3.388362,4.72988 9.455107,18.09805 9.455107,18.09805 l 11.69096,46.97548 c 0,0 3.73075,3.51849 6.56135,2.14447 2.8306,-1.37402 5.34195,-5.62335 5.34195,-5.62335 0,0 -2.68786,-14.11914 -2.10283,-17.6976 0.58502,-3.57847 -4.72986,-44.86376 -4.72986,-44.86376 z"
       style="opacity:1;fill:#080d1c;fill-opacity:1;stroke:none;stroke-width:0.264583px;stroke-linecap:butt;stroke-linejoin:miter;stroke-opacity:1" />
    <path
       id="path854"
       d="m 110.39528,144.8924 c 0,0 -2.88883,17.56331 -3.49368,26.44753 -0.60486,8.88422 -1.55072,18.74772 -1.55072,18.74772 l -3.83757,14.78826 c 0,0 -2.754656,8.84313 -3.619169,14.37719 -0.864512,5.53406 -2.799093,10.62647 -2.799093,10.62647 0,0 0.381725,4.99135 4.490178,5.76842 4.108454,0.77707 7.941164,-0.85411 8.754234,-3.00702 0.81308,-2.15291 1.26622,-6.54531 2.92443,-8.72859 1.65821,-2.18327 8.61972,-18.08034 12.46203,-26.59947 3.84231,-8.51914 10.68511,-30.82018 13.3924,-37.13906 2.70729,-6.31888 1.78445,-15.35798 1.78445,-15.35798 z"
       style="fill:#0d1730;stroke:none;stroke-width:0.264583px;stroke-linecap:butt;stroke-linejoin:miter;stroke-opacity:1;fill-opacity:1;opacity:1" />
    <path
       sodipodi:nodetypes="cssaascsasssaacasccscacscaascc"
       id="path852"
       d="m 101.20675,62.928706 c 0,0 0.63363,1.362487 5.78244,2.035622 5.14881,0.673131 10.89945,-0.481738 12.03831,-1.40012 1.13886,-0.918379 8.07114,-3.447428 12.27731,-3.097659 3.06272,0.254684 6.47887,1.338542 8.44437,3.70115 3.05945,3.677576 3.28259,9.205915 3.27305,13.973191 -0.005,2.36871 0.0452,6.484932 0.56489,7.083657 0.51964,0.598726 2.72294,0.631205 2.77521,1.717914 0.2068,4.299467 -6.57785,5.617949 -10.27687,7.819178 -1.63158,0.970927 -3.99091,0.178059 -5.1934,2.339088 -2.16254,3.886343 1.49554,7.914203 0.66361,12.283203 -0.24273,1.2747 -0.0595,2.58561 -0.0392,3.88306 0.0307,1.95839 0.64617,3.5364 1.11076,5.27076 1.58752,5.92634 4.55876,11.47068 5.71571,17.49589 0.55315,2.88073 0.55982,8.78223 0.55982,8.78223 0,0 -42.555071,13.90099 -54.347292,0.14865 -2.306581,-2.68999 1.819154,-7.00097 1.650605,-10.50155 -0.06524,-1.35495 1.986978,-5.64306 1.986978,-5.64306 v 0 c 0,0 1.851989,-20.25875 -0.07135,-30.157315 -0.429003,-2.207887 0.935143,-6.682425 0.935143,-6.682425 0,0 -4.516897,-0.406901 -6.463376,-1.449131 -2.955745,-1.582635 -7.272346,-6.948631 -7.272346,-6.948631 0,0 1.167574,-1.475004 1.267824,-2.352128 0.407096,-3.561853 0.847195,-11.141711 0.847195,-11.141711 0,0 -0.0043,-0.04514 0,-0.06708 0.537885,-2.728913 1.099989,-5.858343 3.166385,-7.720142 4.037195,-3.637467 13.674539,-6.570601 15.64419,-4.58588 1.969651,1.984725 4.960024,5.213237 4.960024,5.213237 z"
       style="opacity:1;fill:#4f194f;fill-opacity:1;stroke:none;stroke-width:0.264583px;stroke-linecap:butt;stroke-linejoin:miter;stroke-opacity:1" />
    <path
       sodipodi:nodetypes="cscscscscscsccssscc"
       id="path860"
       d="m 117.18495,54.468376 c 0,0 -3.88736,13.099872 -2.36886,20.786227 1.5185,7.686355 -3.21782,13.591445 -3.21782,13.591445 0,0 5.96195,-5.079458 6.71518,-7.844105 0.75323,-2.764647 0.75323,-2.938613 0.75323,-2.938613 0,0 2.06183,10.44811 -2.81521,12.926755 l -4.87704,2.478646 c 0,0 9.12658,-2.789875 10.71708,-7.211023 l 1.5905,-4.42115 c 0,0 1.89841,10.241195 -1.39995,13.935379 -3.29837,3.694181 -3.29837,3.626506 -3.29837,3.626506 0,0 7.848,-6.085456 7.848,-7.728524 v -1.773737 l 2.21296,7.204543 c 0,0 -0.35215,-3.180906 3.86651,-14.373302 4.21866,-11.192396 -2.23159,-17.117705 -2.23159,-23.674112 0,-6.556409 7.98315,-33.79295 -2.94187,-38.536984 -4.00931,-1.740985 -6.46718,11.794745 -6.46718,11.794745 z"
       style="opacity:1;fill:#1a1a1a;fill-opacity:1;stroke:none;stroke-width:0.264583px;stroke-linecap:butt;stroke-linejoin:miter;stroke-opacity:1" />
    <path
       sodipodi:nodetypes="sasaaaasssaas"
       id="path850"
       d="m 119.96923,22.002012 c -3.76883,0.321846 -7.2407,2.171042 -9.90093,4.668395 -3.99563,3.750995 -7.02162,9.281691 -7.93623,14.399019 -0.3474,1.943732 0.2062,4.253257 1.2512,6.014184 1.45462,2.451196 3.99906,4.19802 6.51385,5.539707 2.2698,1.210979 4.89767,2.56929 7.42697,2.099096 2.58804,-0.481112 4.6647,-2.68849 6.31985,-4.735415 1.47856,-1.828542 2.29282,-4.14954 2.95482,-6.405967 0.29671,-1.011352 0.3275,-2.083326 0.43676,-3.131627 0.17752,-1.703271 -0.0906,-3.033223 0.35486,-5.125222 0.44543,-2.091992 1.40789,-5.471086 0.7433,-8.099571 -0.42117,-1.665749 -1.41573,-3.352445 -2.85413,-4.292191 -1.50445,-0.982901 -4.14984,-1.029511 -5.31032,-0.930408 z"
       style="opacity:1;fill:#ffd5b8;fill-opacity:1;stroke:none;stroke-width:0.264583px;stroke-linecap:butt;stroke-linejoin:miter;stroke-opacity:1" />
    <path
       sodipodi:nodetypes="saaaaaaacsacasscccacaczccsssaaassss"
       id="path858"
       d="m 129.42811,26.992685 c 0.79336,-1.863667 1.94155,-3.811341 1.7282,-5.825579 -0.26395,-2.491993 -1.65395,-5.021376 -3.60054,-6.5995 -2.75269,-2.231635 -6.64128,-3.147303 -10.18364,-3.051372 -3.92059,0.106174 -7.85712,1.735294 -11.0717,3.982247 -3.63861,2.54335 -6.700207,6.179953 -8.538705,10.220754 -3.254125,7.152181 -3.061464,15.448438 -3.709244,23.279365 -0.585371,7.076465 2.175054,14.592309 -0.150344,21.301373 -2.217693,6.39832 -11.026027,9.427638 -12.459438,16.045945 0.270747,3.344519 0.435695,4.569761 0.639874,4.454341 0.25982,-0.146872 0.378576,-3.714261 1.308705,-5.265205 1.225743,-2.043867 5.308709,-4.789168 5.308709,-4.789168 0,0 -4.472285,4.601386 -4.759866,7.567463 -0.359083,3.703536 1.134775,8.369964 4.0174,10.41473 0,0 -4.936989,-4.522951 -1.73179,-9.295904 2.851066,-4.245604 4.195167,-7.55897 4.195167,-7.55897 0,0 -3.477377,4.149401 -1.364046,10.106965 1.534211,3.517344 2.836577,5.081243 2.836577,5.081243 0,0 -2.240542,-5.679529 -1.643817,-8.504494 0.318057,-1.505717 2.634522,-3.791357 2.634522,-3.791357 0,0 2.004627,5.654782 1.537229,8.49384 -0.549597,3.338349 -4.913944,8.881038 -4.913944,8.881038 0,0 6.772326,-5.185895 7.812656,-7.328747 1.040331,-2.142853 0.309642,-3.566758 0.309642,-3.566758 l 2.971213,7.734085 c 0,0 0.4605,-14.737995 3.0274,-19.917118 2.5669,-5.179124 3.35894,-22.29653 2.4111,-26.860206 0,0 -0.26807,-3.166582 -0.94783,-4.563679 -0.29852,-0.613552 -0.22445,-1.40824 -0.21952,-2.118008 0.0273,-3.930349 -0.0985,-8.068061 1.37829,-11.710499 1.57981,-3.896432 3.90234,-8.142457 7.66601,-10.016697 3.48893,-1.737426 8.16425,-1.732034 11.69256,-0.07604 1.59698,0.749535 1.59733,4.242878 3.35508,4.093012 0.3121,-0.02661 0.3414,-0.528897 0.46409,-0.817103 z"
       style="opacity:1;fill:#000000;fill-opacity:1;stroke:none;stroke-width:0.264583px;stroke-linecap:butt;stroke-linejoin:miter;stroke-opacity:1" />
  </g>
</svg>
