<?xml version="1.0" encoding="UTF-8" standalone="no"?>
<svg
   xmlns:dc="http://purl.org/dc/elements/1.1/"
   xmlns:cc="http://creativecommons.org/ns#"
   xmlns:rdf="http://www.w3.org/1999/02/22-rdf-syntax-ns#"
   xmlns:svg="http://www.w3.org/2000/svg"
   xmlns="http://www.w3.org/2000/svg"
   xmlns:sodipodi="http://sodipodi.sourceforge.net/DTD/sodipodi-0.dtd"
   xmlns:inkscape="http://www.inkscape.org/namespaces/inkscape"
   sodipodi:docname="omkar_stand.svg"
   inkscape:version="1.0 (5b275a35d9, 2020-05-03)"
   id="svg8"
   version="1.1"
   viewBox="0 0 297 210"
   height="210mm"
   width="297mm">
  <defs
     id="defs2" />
  <sodipodi:namedview
     inkscape:window-maximized="1"
     inkscape:window-y="0"
     inkscape:window-x="0"
     inkscape:window-height="1041"
     inkscape:window-width="1920"
     showgrid="false"
     inkscape:document-rotation="0"
     inkscape:current-layer="layer1"
     inkscape:document-units="mm"
     inkscape:cy="391.1177"
     inkscape:cx="393.55071"
     inkscape:zoom="0.70710678"
     inkscape:pageshadow="2"
     inkscape:pageopacity="0.0"
     borderopacity="1.0"
     bordercolor="#666666"
     pagecolor="#ffffff"
     id="base" />
  <metadata
     id="metadata5">
    <rdf:RDF>
      <cc:Work
         rdf:about="">
        <dc:format>image/svg+xml</dc:format>
        <dc:type
           rdf:resource="http://purl.org/dc/dcmitype/StillImage" />
        <dc:title></dc:title>
      </cc:Work>
    </rdf:RDF>
  </metadata>
  <g
     id="layer1"
     inkscape:groupmode="layer"
     inkscape:label="Layer 1">
    <path
       sodipodi:nodetypes="ccssccsscccccsssssscsscccc"
       d="m 62.918702,14.057278 c 0,0 -1.434416,0.949942 -1.719708,1.84335 -0.601149,0.792541 -0.514608,1.711233 -0.653646,2.554057 -0.110714,0.671198 -0.333554,1.598866 -0.955391,1.979951 -0.491942,0.301479 -1.060012,1.114484 -1.060012,1.114484 0,0 -0.506904,2.901631 -0.404637,4.459656 0.135556,2.064048 0.05031,4.159789 0.456511,6.188012 0.197113,0.984229 0.469834,1.97711 0.951939,2.857532 0.688327,1.257061 1.700179,2.317256 2.700171,3.345173 L 61.134148,58.601096 77.32196,59.16339 76.778391,37.912722 c 0.180739,-0.156019 0.349744,-0.314781 0.486775,-0.478999 0.957699,-1.147642 1.350932,-2.677385 1.840757,-4.0896 0.386278,-1.113687 0.604347,-2.279357 0.856825,-3.43077 0.360953,-1.646071 0.769528,-3.290619 0.939832,-4.967183 0.138335,-1.361802 0.475473,-2.800774 0.06311,-4.106029 -0.188695,-0.597383 -0.111742,-0.124746 -1.103244,-1.521712 -0.991461,-1.396953 -2.517944,-2.388415 -2.392376,-3.250932 0.05862,-0.402489 0.09425,-0.561196 0.117587,-0.629438 -0.181318,0.17504 -1.938514,1.743384 -6.395519,1.278762 -4.715055,-0.491536 -8.074335,-2.688314 -8.273447,-2.659543 z m 14.668966,1.380781 c 0.01061,-0.01021 0.03631,-0.03372 0.03631,-0.03372 0,0 -0.0098,-0.04427 -0.03631,0.03372 z"
       style="opacity:1;fill:#dea074;fill-opacity:1;stroke:none;stroke-width:0.268464;stroke-linecap:butt;stroke-linejoin:miter;stroke-miterlimit:4;stroke-dasharray:none;stroke-opacity:1"
       id="path863" />
    <g
       transform="matrix(1.3717475,0,0,1.3717475,-50.373677,-25.060226)"
       id="g1506">
      <path
         id="rect833"
         style="fill:#e2e6e7;fill-opacity:0.959733;stroke-width:0.162"
         d="m 87.848254,101.33917 114.079336,-0.44597 8.90057,9.86617 H 75.579559 Z"
         sodipodi:nodetypes="ccccc" />
      <rect
         style="fill:#bfc8c9;fill-opacity:0.959733;stroke-width:0.162"
         id="rect836"
         width="135.31148"
         height="4.3717585"
         x="75.579559"
         y="110.75937" />
      <rect
         style="fill:#e2e6e7;fill-opacity:0.959733;stroke-width:0.162"
         id="rect838"
         width="24.67568"
         height="39.862492"
         x="75.579559"
         y="115.13113" />
      <rect
         y="115.13113"
         x="186.21536"
         height="39.862492"
         width="24.67568"
         id="rect840"
         style="fill:#e2e6e7;fill-opacity:0.959733;stroke-width:0.162" />
      <path
         style="fill:#bfc8c9;fill-opacity:0.959733;stroke:none;stroke-width:0.264583px;stroke-linecap:butt;stroke-linejoin:miter;stroke-opacity:1"
         d="m 100.25524,115.13113 v 39.86249 l 6.73424,-9.91852 -0.0246,-29.93044 z"
         id="path842"
         sodipodi:nodetypes="ccccc" />
      <path
         id="path844"
         d="m 186.21536,115.1176 v 39.86249 l -7.29138,-11.58516 0.10967,-28.88258 z"
         style="fill:#bfc8c9;fill-opacity:0.959733;stroke:none;stroke-width:0.264583px;stroke-linecap:butt;stroke-linejoin:miter;stroke-opacity:1"
         sodipodi:nodetypes="ccccc" />
      <path
         style="fill:#000000;fill-opacity:0.960784;stroke:#000000;stroke-width:0.106125px;stroke-linecap:butt;stroke-linejoin:miter;stroke-opacity:1"
         d="m 84.5703,123.13042 -1.99884,-1.69423 10.8022,-0.14713 -2.16004,1.78565 z"
         id="path864"
         sodipodi:nodetypes="ccccc" />
      <path
         sodipodi:nodetypes="ccccc"
         id="path866"
         d="m 84.687145,131.17114 -1.99884,-1.69423 10.8022,-0.14713 -2.16004,1.78565 z"
         style="fill:#000000;fill-opacity:0.960784;stroke:#000000;stroke-width:0.106125px;stroke-linecap:butt;stroke-linejoin:miter;stroke-opacity:1" />
      <path
         style="fill:#000000;fill-opacity:0.960784;stroke:#000000;stroke-width:0.106125px;stroke-linecap:butt;stroke-linejoin:miter;stroke-opacity:1"
         d="m 84.756105,143.22971 -1.99884,-1.69423 10.8022,-0.14713 -2.16004,1.78565 z"
         id="path868"
         sodipodi:nodetypes="ccccc" />
      <path
         sodipodi:nodetypes="ccccc"
         id="path870"
         d="m 194.97891,122.22684 -1.99884,-1.69423 10.8022,-0.14713 -2.16004,1.78565 z"
         style="fill:#000000;fill-opacity:0.960784;stroke:#000000;stroke-width:0.106125px;stroke-linecap:butt;stroke-linejoin:miter;stroke-opacity:1" />
      <path
         style="fill:#000000;fill-opacity:0.960784;stroke:#000000;stroke-width:0.106125px;stroke-linecap:butt;stroke-linejoin:miter;stroke-opacity:1"
         d="m 194.84662,130.12642 -1.99884,-1.69423 10.8022,-0.14713 -2.16004,1.78565 z"
         id="path872"
         sodipodi:nodetypes="ccccc" />
      <path
         sodipodi:nodetypes="ccccc"
         id="path874"
         d="m 195.1733,137.59528 -1.99884,-1.69423 10.8022,-0.14713 -2.16004,1.78565 z"
         style="fill:#000000;fill-opacity:0.960784;stroke:#000000;stroke-width:0.106125px;stroke-linecap:butt;stroke-linejoin:miter;stroke-opacity:1" />
      <path
         style="fill:#000000;fill-opacity:0.960784;stroke:#000000;stroke-width:0.106125px;stroke-linecap:butt;stroke-linejoin:miter;stroke-opacity:1"
         d="m 195.43788,146.44967 -1.99884,-1.69423 10.8022,-0.14713 -2.16004,1.78565 z"
         id="path876"
         sodipodi:nodetypes="ccccc" />
    </g>
    <path
       id="path1512"
       d="m 55.850569,188.45253 0.452547,13.00412 13.227463,-0.55879 L 68.22514,187.385 Z"
       style="fill:#dea074;fill-opacity:1;stroke:none;stroke-width:0.362941px;stroke-linecap:butt;stroke-linejoin:miter;stroke-opacity:1" />
    <path
       sodipodi:nodetypes="ccccc"
       style="fill:#dea074;fill-opacity:1;stroke:none;stroke-width:0.362941px;stroke-linecap:butt;stroke-linejoin:miter;stroke-opacity:1"
       d="m 105.25689,159.70112 5.9312,16.9289 7.74882,-4.48355 -1.30545,-13.51287 z"
       id="path1514" />
    <path
       sodipodi:nodetypes="cscsscccccssssasscc"
       id="path1491"
       d="m 45.617116,119.48182 c 0,0 2.414404,27.29986 5.441364,40.62191 2.298352,10.11531 3.602508,31.30616 3.602508,31.30616 0,0 12.525635,2.26316 15.775904,-1.4769 0.664526,-0.76466 -1.06534,-2.04826 -1.104614,-3.06058 l -1.18298,-30.48391 -1.384617,-18.26706 5.810258,-8.93379 20.609779,0.48975 11.410572,25.97563 c 0,0 -2.85686,5.1449 -2.07028,6.32266 2.98029,4.46231 13.66152,5.30764 16.74,0.64863 0.5839,-0.88366 0.24408,-1.34067 -0.26489,-1.78768 -0.56421,-0.49553 -1.36025,-1.21847 -1.85484,-7.68449 -0.71128,-9.29876 -2.97838,-20.0809 -4.38618,-30.13296 -0.18527,-1.32285 0.23071,-2.87651 -0.53435,-3.97147 -0.79842,-1.14271 -2.58493,-2.40718 -3.84365,-3.00628 L 84.112216,98.434249 Z"
       style="fill:#2c3152;fill-opacity:1;stroke:none;stroke-width:0.470379px;stroke-linecap:butt;stroke-linejoin:miter;stroke-opacity:1" />
    <path
       sodipodi:nodetypes="csccscc"
       id="path1477"
       d="m 63.721841,47.522396 c 0,0 5.822465,1.48735 9.692107,-0.159447 3.86964,-1.646786 4.177612,-1.434678 4.177612,-1.434678 l 6.520656,52.505978 c 0,0 -6.783943,15.520071 -17.403658,15.520071 h -10.80592 z"
       style="fill:#7779f3;fill-opacity:1;stroke:none;stroke-width:0.508354px;stroke-linecap:butt;stroke-linejoin:miter;stroke-opacity:1" />
    <path
       sodipodi:nodetypes="csscsccsccsc"
       id="path1473"
       d="m 64.524334,44.201518 c 0,0 -2.557137,-8.468599 -4.97163,-6.360574 -1.478808,1.291107 -1.432363,2.99974 -6.55662,3.706807 -5.124256,0.707072 -10.828564,4.022679 -10.828564,4.022679 0,0 -6.104961,5.461077 -6.149689,11.903077 -0.08485,12.222833 -3.923227,36.458902 -3.923227,36.458902 L 46.999155,83.8124 c 0,0 -4.770453,6.17753 -4.302055,19.49836 0.473754,13.47308 0.580195,20.34429 0.580195,20.34429 l 25.716179,-5.93191 c 0,0 -9.433619,-15.55853 -7.662898,-34.943844 1.770722,-19.385305 7.559119,-19.990606 3.193758,-38.577778 z"
       style="fill:#2c3152;fill-opacity:1;stroke:none;stroke-width:0.44268px;stroke-linecap:butt;stroke-linejoin:miter;stroke-opacity:1" />
    <path
       sodipodi:nodetypes="csscscscscscssc"
       id="path1475"
       d="m 76.754419,39.19182 c 0,0 0.653445,17.144288 0.205582,33.771591 -0.448991,16.669178 4.420586,33.445449 5.671974,36.184859 1.251387,2.73944 0.656521,1.96631 0.656521,1.96631 0,0 14.118131,1.84701 16.014564,-2.9165 1.89641,-4.76351 -7.042187,-12.143083 -7.042187,-12.143083 0,0 -8.763031,-13.467892 -7.656333,-22.205267 1.106701,-8.73736 0.958072,-9.032832 0.958072,-9.032832 0,0 3.732955,10.520889 2.66446,16.929313 -1.06851,6.408407 0.515613,6.242919 0.515613,6.242919 0,0 2.952329,-3.083547 6.431272,-1.06874 3.478922,2.014806 3.79562,2.944576 3.79562,2.944576 0,0 2.593183,-13.88022 1.267793,-24.368164 C 98.845829,54.485475 94.143419,46.650538 92.040475,45.987774 89.937532,45.325011 76.754419,39.19182 76.754419,39.19182 Z"
       style="fill:#2c3152;fill-opacity:1;stroke:none;stroke-width:0.44268px;stroke-linecap:butt;stroke-linejoin:miter;stroke-opacity:1" />
    <path
       style="fill:#000000;fill-opacity:1;stroke:none;stroke-width:0.268042px;stroke-linecap:butt;stroke-linejoin:miter;stroke-opacity:1"
       d="m 58.200943,27.71131 c 0,0 -0.270378,-1.887841 -0.692643,-2.72428 -0.369205,-0.731318 -1.239383,-1.146436 -1.556925,-1.901627 -0.687219,-1.634363 -0.638929,-3.514637 -0.583989,-5.286758 0.07267,-2.343092 1.501746,-4.603674 1.203702,-6.928875 -0.04342,-0.338424 -0.422749,-0.220388 -0.423879,-0.931679 -10e-4,-0.7112972 -0.08751,-0.6122984 -0.0299,-0.9104181 0.141378,-0.7314925 -0.157708,-1.4704963 0.900666,-2.045584 1.05838,-0.5751028 1.135045,-0.5314487 1.135045,-0.5314487 0,0 -0.915661,0.8593784 -0.798473,1.6164571 0.117202,0.757086 0.281175,0.647394 0.281175,0.647394 0,0 0.94955,-2.9517715 1.404207,-3.3223505 0.454643,-0.3706036 1.879226,-1.8742556 2.770516,-1.5495603 0.891279,0.324694 1.769802,0.8857813 1.769802,0.8857813 0,0 0.515251,-1.2098401 1.065762,-1.443985 0.631193,-0.2684759 2.040203,0.2681642 2.040203,0.2681642 0,0 0.883452,-0.8960462 1.444869,-1.1469415 0.812702,-0.3631675 1.75858,-0.6215705 2.632176,-0.4506301 0.750952,0.1469169 1.355542,0.7295284 1.949793,1.2115824 0.672016,0.5451544 1.215092,1.6460985 1.795442,1.8749827 0.580346,0.228883 1.636884,-0.1735699 2.407557,0.050892 1.203289,0.3505021 2.960265,0.7919739 3.213789,1.9515274 0.253523,1.159577 1.672944,1.8240573 2.457837,2.7800286 0.953206,1.1609715 2.181806,2.1866665 2.730499,3.5850045 0.607401,1.547969 1.283386,3.309343 0.482804,4.965203 -0.800603,1.65586 -2.395092,4.019622 -2.395092,4.019622 0,0 -1.591692,2.403429 -1.941902,3.767491 -0.350204,1.364064 -1.030611,1.524917 -1.030611,1.524917 v 0 l 0.251741,-6.861721 c 0,0 -2.82285,-2.685502 -3.230383,-4.481253 -0.0704,-0.310216 0.169207,-0.939186 0.169207,-0.939186 0,0 -2.392416,2.597296 -6.488855,1.625478 -4.096438,-0.971828 -2.829802,-0.493758 -4.175234,-0.97608 -1.414291,-0.50702 -4.041147,-1.996184 -4.041147,-1.996184 0,0 -1.638873,2.015889 -2.109123,3.205284 -0.248319,0.628069 -0.09339,1.369744 -0.344851,1.996565 -0.353538,0.881311 -1.140508,1.527334 -1.589574,2.364027 -0.224247,0.417822 -0.545061,1.314027 -0.545061,1.314027 z"
       id="path865"
       inkscape:connector-curvature="0"
       sodipodi:nodetypes="casssssccccsscacasssssssscccccacsscasacc" />
    <path
       sodipodi:nodetypes="ccaaascc"
       id="path1487"
       d="M 34.528304,92.236715 46.235659,113.7488 c 0,0 5.763103,8.72125 10.349248,9.16139 1.921475,0.18442 4.321879,-1.1315 4.986962,-2.94361 0.768308,-2.09336 -0.797513,-4.58093 -2.193388,-6.31991 -1.167053,-1.45388 -3.564135,-3.33361 -4.762171,-2.9333 -1.198039,0.40033 -9.119018,-25.917896 -9.119018,-25.917896 z"
       style="fill:#dea074;fill-opacity:1;stroke:none;stroke-width:0.400283px;stroke-linecap:butt;stroke-linejoin:miter;stroke-opacity:1" />
    <path
       style="fill:#dea074;fill-opacity:1;stroke:none;stroke-width:0.345247px;stroke-linecap:butt;stroke-linejoin:miter;stroke-opacity:1"
       d="m 98.969577,89.864966 -9.917344,16.976484 c 0,0 -4.329517,8.13772 -8.295534,8.68694 -1.649163,0.22839 -3.639059,-1.01137 -4.30129,-2.53889 -0.742439,-1.71255 0.135736,-3.94526 1.21885,-5.46541 0.933103,-1.30964 3.074089,-2.87528 4.107405,-2.53001 1.033315,0.34529 7.558622,-17.570813 7.558622,-17.570813 0,0 2.641437,-1.400782 3.634034,-1.257288 0.581359,0.08404 1.91356,0.575217 3.104511,1.356734 1.543514,1.012881 2.890746,2.342253 2.890746,2.342253 z"
       id="path1489"
       sodipodi:nodetypes="ccaaascssc" />
    <path
       sodipodi:nodetypes="csscccc"
       id="path1527"
       d="m 109.09588,176.18296 c 0,0 -2.55612,-4.50194 0.71752,-5.55876 3.27363,-1.05683 7.82879,-3.28552 9.4942,-1.2434 2.98325,3.65806 4.86011,4.28334 8.46323,7.2505 0.77769,2.39901 -1.26079,4.37383 -2.49611,5.11321 -6.62549,1.58301 -11.43723,-2.22602 -15.27107,-4.20062 z"
       style="fill:#000000;fill-opacity:1;stroke:#000000;stroke-width:0.387771px;stroke-linecap:butt;stroke-linejoin:miter;stroke-opacity:1" />
    <path
       style="fill:#000000;fill-opacity:1;stroke:#000000;stroke-width:0.362941px;stroke-linecap:butt;stroke-linejoin:miter;stroke-opacity:1"
       d="m 46.740833,203.92038 c 0,0 -2.188459,-3.6601 0.875559,-4.64925 3.064004,-0.98914 8.297672,-2.76219 10.755488,-2.55666 2.771779,0.2318 9.24824,0.11783 11.12431,0.34215 1.876057,0.22439 2.11196,3.78024 1.304893,5.47328 -3.256856,1.72335 -13.667019,4.25008 -17.384916,4.41117 -2.44049,-0.0948 -5.39297,-0.96833 -6.675334,-3.02069 z"
       id="path1529"
       sodipodi:nodetypes="csssccc" />
    <g
       transform="matrix(1.3717475,0,0,1.3717475,-50.373677,-28.689642)"
       id="g1556">
      <g
         id="g1546"
         transform="translate(2.3296204,2.6333961)">
        <rect
           ry="2.1062977"
           y="46.820438"
           x="132.51106"
           height="43.556911"
           width="66.375473"
           id="rect1531"
           style="opacity:1;fill:#2c3152;fill-opacity:1;stroke:none;stroke-width:0.162" />
        <path
           sodipodi:nodetypes="sssssssss"
           d="m 159.32255,88.968118 h 12.77341 c 0.68782,0 1.08812,0.662598 1.24156,1.440554 l 1.43653,7.283388 c 0.15344,0.777957 -1.99027,0.540818 -2.67809,0.540818 h -12.77341 c -0.68783,0 -2.70099,0.291835 -2.5605,-0.48941 l 1.31893,-7.334796 c 0.14049,-0.781244 0.55374,-1.440554 1.24157,-1.440554 z"
           style="opacity:1;fill:#2c3152;fill-opacity:1;stroke:none;stroke-width:0.127587"
           id="rect1535" />
        <path
           sodipodi:nodetypes="cccsscc"
           d="m 153.48311,98.114764 h 24.36545 c 2.05753,0.399283 3.0519,2.303826 3.89712,3.568446 0.49755,0.74441 -2.73024,0.51843 -3.89712,0.51843 h -24.36545 c -1.16689,0 -4.7867,0.18451 -4.13149,-0.49648 1.04044,-0.95267 2.98029,-3.560443 4.13149,-3.590396 z"
           style="opacity:1;fill:#2c3152;fill-opacity:1;stroke:none;stroke-width:0.136048"
           id="rect1538" />
      </g>
      <rect
         ry="1.6980746"
         y="51.718266"
         x="137.48531"
         height="35.115112"
         width="61.269115"
         id="rect1533"
         style="opacity:1;fill:#f4f4f8;fill-opacity:1;stroke:none;stroke-width:0.13975" />
      <ellipse
         style="opacity:1;fill:#f4f4f8;fill-opacity:1;stroke:none;stroke-width:0.162"
         id="path1548"
         cx="168.21866"
         cy="92.184143"
         rx="2.8235557"
         ry="2.7516468" />
    </g>
    <path
       sodipodi:nodetypes="ccccc"
       d="m 136.01138,117.75352 54.07835,0.0382 2.96118,6.35424 h -60.3198 z"
       style="opacity:1;fill:#2c3152;fill-opacity:1;stroke:none;stroke-width:0.159197"
       id="rect1558" />
    <ellipse
       transform="matrix(0.9654313,0.26065764,-0.7318941,0.68141839,0,0)"
       ry="3.6914659"
       rx="6.1427197"
       cy="74.130531"
       cx="268.1506"
       id="path1561"
       style="opacity:1;fill:#2c3152;fill-opacity:1;stroke:none;stroke-width:0.0986105" />
    <ellipse
       ry="1.0566207"
       rx="1.6122998"
       cy="120.12294"
       cx="207.10883"
       id="path1563"
       style="opacity:1;fill:#f4f4f8;fill-opacity:1;stroke:none;stroke-width:0.162793" />
    <rect
       y="61.715263"
       x="170.19405"
       height="2.0837348"
       width="20.362915"
       id="rect1565"
       style="opacity:1;fill:#7779f3;fill-opacity:1;stroke:none;stroke-width:0.118872" />
    <rect
       style="opacity:1;fill:#7779f3;fill-opacity:1;stroke:none;stroke-width:0.118872"
       id="rect1567"
       width="20.362915"
       height="2.0837348"
       x="150.40883"
       y="73.245422" />
    <rect
       style="opacity:1;fill:#7779f3;fill-opacity:1;stroke:none;stroke-width:0.206978"
       id="rect1569"
       width="61.735039"
       height="2.0837348"
       x="150.29025"
       y="67.043243" />
    <rect
       y="50.584209"
       x="171.60019"
       height="2.0837348"
       width="39.953468"
       id="rect1571"
       style="opacity:1;fill:#7779f3;fill-opacity:1;stroke:none;stroke-width:0.166508" />
    <rect
       y="56.021664"
       x="173.28325"
       height="2.0837348"
       width="20.362915"
       id="rect1573"
       style="opacity:1;fill:#7779f3;fill-opacity:1;stroke:none;stroke-width:0.118872" />
    <rect
       style="opacity:1;fill:#7779f3;fill-opacity:1;stroke:none;stroke-width:0.105025"
       id="rect1575"
       width="15.895269"
       height="2.0837348"
       x="196.09372"
       y="55.714832" />
    <rect
       style="opacity:1;fill:#7779f3;fill-opacity:1;stroke:none;stroke-width:0.0872501"
       id="rect1577"
       width="10.970253"
       height="2.0837348"
       x="192.97417"
       y="61.721298" />
    <rect
       y="61.560795"
       x="205.96703"
       height="2.0837348"
       width="5.669301"
       id="rect1579"
       style="opacity:1;fill:#7779f3;fill-opacity:1;stroke:none;stroke-width:0.0627225" />
    <rect
       y="61.649143"
       x="150.52777"
       height="2.0837348"
       width="15.895269"
       id="rect1581"
       style="opacity:1;fill:#7779f3;fill-opacity:1;stroke:none;stroke-width:0.105025" />
    <rect
       style="opacity:1;fill:#7779f3;fill-opacity:1;stroke:none;stroke-width:0.0627225"
       id="rect1583"
       width="5.669301"
       height="2.0837348"
       x="173.74055"
       y="73.03817" />
    <rect
       y="72.903885"
       x="197.00688"
       height="2.0837348"
       width="5.669301"
       id="rect1585"
       style="opacity:1;fill:#7779f3;fill-opacity:1;stroke:none;stroke-width:0.0627225" />
    <rect
       style="opacity:1;fill:#7779f3;fill-opacity:1;stroke:none;stroke-width:0.0627225"
       id="rect1587"
       width="5.669301"
       height="2.0837348"
       x="189.19691"
       y="73.034508" />
    <rect
       y="73.096535"
       x="181.9482"
       height="2.0837348"
       width="5.669301"
       id="rect1589"
       style="opacity:1;fill:#7779f3;fill-opacity:1;stroke:none;stroke-width:0.0627225" />
    <rect
       style="opacity:1;fill:#7779f3;fill-opacity:1;stroke:none;stroke-width:0.0627225"
       id="rect1591"
       width="5.669301"
       height="2.0837348"
       x="205.36974"
       y="73.106865" />
    <rect
       y="50.725613"
       x="150.02068"
       height="6.6383977"
       width="19.689301"
       id="rect1593"
       style="opacity:1;fill:#7779f3;fill-opacity:1;stroke:none;stroke-width:0.352171" />
  </g>
</svg>
