<?xml version="1.0" encoding="UTF-8" standalone="no"?>
<svg
   xmlns:dc="http://purl.org/dc/elements/1.1/"
   xmlns:cc="http://creativecommons.org/ns#"
   xmlns:rdf="http://www.w3.org/1999/02/22-rdf-syntax-ns#"
   xmlns:svg="http://www.w3.org/2000/svg"
   xmlns="http://www.w3.org/2000/svg"
   xmlns:sodipodi="http://sodipodi.sourceforge.net/DTD/sodipodi-0.dtd"
   xmlns:inkscape="http://www.inkscape.org/namespaces/inkscape"
   inkscape:export-ydpi="300"
   inkscape:export-xdpi="300"
   inkscape:export-filename="/home/omkarpathak/Documents/GIT/illustrations/pngs/omkar_lean.png"
   sodipodi:docname="omkar_lean.svg"
   inkscape:version="1.0 (6e3e5246a0, 2020-05-07)"
   id="svg993"
   version="1.1"
   viewBox="0 0 297 210"
   height="210mm"
   width="297mm">
  <defs
     id="defs987">
    <inkscape:perspective
       id="perspective1586"
       inkscape:persp3d-origin="199.36627 : 36.009246 : 1"
       inkscape:vp_z="237.97384 : 145.48392 : 1"
       inkscape:vp_y="-711.21254 : 702.97701 : 0"
       inkscape:vp_x="90.348654 : -3.8707153 : 1"
       sodipodi:type="inkscape:persp3d" />
  </defs>
  <sodipodi:namedview
     inkscape:window-maximized="1"
     inkscape:window-y="0"
     inkscape:window-x="0"
     inkscape:window-height="1041"
     inkscape:window-width="1920"
     showgrid="false"
     inkscape:document-rotation="0"
     inkscape:current-layer="layer1"
     inkscape:document-units="mm"
     inkscape:cy="442.89373"
     inkscape:cx="526.15246"
     inkscape:zoom="0.98994949"
     inkscape:pageshadow="2"
     inkscape:pageopacity="0.0"
     borderopacity="1.0"
     bordercolor="#666666"
     pagecolor="#ffffff"
     id="base" />
  <metadata
     id="metadata990">
    <rdf:RDF>
      <cc:Work
         rdf:about="">
        <dc:format>image/svg+xml</dc:format>
        <dc:type
           rdf:resource="http://purl.org/dc/dcmitype/StillImage" />
        <dc:title></dc:title>
      </cc:Work>
    </rdf:RDF>
  </metadata>
  <g
     id="layer1"
     inkscape:groupmode="layer"
     inkscape:label="Layer 1">
    <path
       sodipodi:nodetypes="saaaaacs"
       id="path1725"
       d="M 198.42631,19.632011 C 161.897,5.7106598 111.33113,-1.252734 81.219696,23.6772 65.759544,36.477013 71.407787,62.639186 67.948748,82.410026 61.548718,118.99074 28.696392,165.9191 54.149041,192.96111 c 19.032444,20.2209 56.112609,1.08275 83.138409,-5.29889 41.3691,-9.76855 98.06403,-11.84302 117.44825,-49.67273 C 267.5921,112.89931 221.60347,89.564097 235.97906,55.518758 256.21134,40.276539 214.60553,25.797921 198.42631,19.632011 Z"
       style="fill:#aaccff;stroke:none;stroke-width:0.264583px;stroke-linecap:butt;stroke-linejoin:miter;stroke-opacity:1" />
    <path
       sodipodi:nodetypes="cscsscc"
       id="path1672"
       d="m 163.56909,148.83003 c 0,0 0.62429,7.51328 1.86502,8.83948 1.24072,1.32619 5.57867,1.71568 5.57867,1.71568 0,0 6.74784,0.9809 5.82651,0.0235 -0.92134,-0.95727 -2.53894,-3.86719 -3.31196,-4.22629 -0.77303,-0.35909 -2.99123,-2.58885 -2.99123,-2.58885 z"
       style="fill:#f9f9f9;fill-opacity:1;stroke:none;stroke-width:0.264583px;stroke-linecap:butt;stroke-linejoin:miter;stroke-opacity:1" />
    <path
       sodipodi:nodetypes="cccccc"
       id="path1670"
       d="m 195.65503,147.27747 9.46202,2.23093 -3.22671,7.11377 -8.9906,-2.09976 2.55822,-7.38605 z"
       style="fill:#dea074;fill-opacity:1;stroke:none;stroke-width:0.264583px;stroke-linecap:butt;stroke-linejoin:miter;stroke-opacity:1" />
    <g
       transform="matrix(1.8420243,0,0,1.8420243,22.95361,-141.38998)"
       id="g1729"
       style="fill:#ffeeaa;stroke-width:0.542881">
      <path
         sodipodi:nodetypes="ccccc"
         id="path1676"
         d="m 83.970766,148.84625 2.831352,-0.006 -1.061919,4.06407 -0.708631,-1.6731 z"
         style="fill:#ffeeaa;fill-opacity:1;stroke:none;stroke-width:0.143637px;stroke-linecap:butt;stroke-linejoin:miter;stroke-opacity:1" />
      <path
         sodipodi:nodetypes="ccccc"
         id="path1678"
         d="m 85.740199,152.90432 -0.60693,-1.46197 0.591918,-2.59355 1.076931,-0.008 z"
         style="fill:#ffe167;fill-opacity:1;stroke:none;stroke-width:0.143637px;stroke-linecap:butt;stroke-linejoin:miter;stroke-opacity:1" />
    </g>
    <path
       id="path1640"
       d="m 147.9298,140.83875 c 0,0 11.52009,-37.50427 17.35664,-32.53712 5.83657,4.96716 19.35039,37.66016 19.35039,37.66016 z"
       style="fill:#5e60f3;fill-opacity:1;stroke:none;stroke-width:0.264583px;stroke-linecap:butt;stroke-linejoin:miter;stroke-opacity:1" />
    <path
       id="path1731"
       d="m 179.57797,152.68447 c 0,0 1.80144,4.58094 3.50096,5.51255 1.69952,0.93161 7.33469,-3.6493 7.33469,-3.6493 z"
       style="fill:#f9f9f9;fill-opacity:1;stroke:none;stroke-width:0.264583px;stroke-linecap:butt;stroke-linejoin:miter;stroke-opacity:1" />
    <path
       sodipodi:nodetypes="ccsccc"
       id="path1584"
       d="m 163.77444,148.77237 33.5578,8.14518 c 0,0 2.54009,-2.2069 2.48712,-5.96124 -0.0429,-3.04179 -2.12438,-6.22314 -2.12438,-6.22314 l -37.0422,-11.80746 z"
       style="fill:#7779f3;fill-opacity:1;stroke:none;stroke-width:0.264583px;stroke-linecap:butt;stroke-linejoin:miter;stroke-opacity:1" />
    <path
       sodipodi:nodetypes="cccccssscssscscssscsssssssscccssssccccccssscc"
       inkscape:connector-curvature="0"
       id="path847"
       d="m 106.23227,64.772437 3.45268,-1.82528 1.6709,-1.779101 -1.08757,-2.015875 1.31325,-1.758175 c 0,0 -1.32233,-1.97174 -2.12489,-2.839334 -1.20696,-1.304743 -2.83504,-1.496792 -3.90361,-2.917527 -0.63631,-0.845968 -0.20512,-1.724061 -0.93113,-2.494211 -0.74373,-0.788847 -3.5543,-1.669758 -3.5543,-1.669758 0,0 0.97373,0.916665 0.36028,1.293912 -0.501,0.308317 -0.93163,-1.086316 -1.499557,-0.932506 -0.612637,0.165965 -0.26179,1.713008 -0.891127,1.684788 -1.097094,-0.04973 -1.767608,-1.167401 -1.767608,-1.167401 0,0 -2.12453,-1.488393 -3.563327,-1.169576 -0.770557,0.170941 -2.302864,0.907971 -2.302864,0.907971 0,0 1.630397,-0.530742 2.087517,0.12157 0.159537,0.227692 0.229455,0.641025 0.02875,0.833995 -0.820222,0.792089 -2.293999,-0.01099 -3.408872,-0.247163 -0.987839,-0.208075 -2.852767,-1.018326 -2.852767,-1.018326 0,0 1.410909,1.001213 1.242384,1.676371 -0.402126,1.610132 -3.170423,1.128644 -4.492092,2.129177 -2.181403,1.651319 -4.606753,3.564354 -5.399528,6.186052 -0.50957,1.684771 0.568194,3.480137 0.684021,5.236677 0.09578,1.441347 0.05016,2.889537 0.01085,4.333506 -0.02454,0.787131 -0.362452,1.605874 -0.13424,2.359463 0.259097,0.852088 1.289502,1.299793 1.608382,2.131136 0.329905,0.860529 -0.125036,1.905993 0.23845,2.755558 0.30287,0.717665 1.528845,1.766454 1.528845,1.766454 l 1.131478,1.605128 0.549395,-5.697756 c 0,0 -1.206407,-0.768007 -1.572744,-1.355702 -0.556692,-0.892423 -0.853382,-1.985043 -0.799105,-3.053155 0.03365,-0.597082 0.853139,-0.805002 1.427355,-0.967217 0.793918,-0.223747 1.685582,-0.160623 2.372142,0.296934 0.399359,0.265915 0.774168,1.102176 0.774168,1.102176 l 0.422527,2.228718 2.318746,0.248861 -0.144874,-4.12813 3.380378,-3.414009 1.395995,-5.221705 c 0,0 2.427802,1.340221 3.759137,1.662427 1.675101,0.405411 3.568895,-0.358567 5.161045,0.302202 1.10326,0.457818 2.0145,1.389918 2.67671,2.385567 0.47268,0.711069 0.83364,2.423645 0.83364,2.423645 z"
       style="opacity:1;fill:#fafafa;fill-opacity:1;stroke:#000000;stroke-width:0.341;stroke-linecap:butt;stroke-linejoin:miter;stroke-miterlimit:4;stroke-dasharray:none;stroke-opacity:1" />
    <path
       sodipodi:nodetypes="ccccccscscccccccccscccccsccccc"
       inkscape:connector-curvature="0"
       id="path826"
       d="m 93.801716,57.998669 3.759229,1.662536 c 0,0 3.498775,-0.272766 5.160965,0.302186 1.1783,0.64806 1.93021,1.388793 2.67662,2.385331 0.72007,1.41519 1.00247,2.43134 1.03559,3.587133 -0.41106,1.702245 -0.75641,3.285654 -1.41688,4.681001 0,0 0.92486,1.683331 0.97599,2.622601 0.0519,0.95015 -0.3292,1.72743 -0.89157,2.674183 -0.46673,1.164694 -1.43483,2.185353 -1.85278,3.409958 -0.35214,1.030158 -0.19119,2.148978 -0.74237,3.02587 -0.25308,0.398393 -0.63619,0.809004 -1.10008,0.888984 -1.23238,0.212036 -2.509951,0.170009 -3.776505,-0.06737 l -0.343277,0.212811 -2.430266,13.261578 c 0,0 -9.572464,0.170573 -12.432912,0.07061 l 2.605951,-10.465304 0.709276,-3.737334 c -0.552818,-1.572036 -2.060151,-4.553483 -2.060151,-4.553483 0,0 -1.160853,-6.536314 0.54939,-5.697728 1.459592,0.715635 1.947064,-0.89799 1.947064,-0.89799 0,0 -0.360271,1.006227 -0.840975,1.105642 -0.666699,0.137834 -1.447966,-0.34161 -2.022901,-0.86029 -0.930043,-0.839094 -1.423119,-2.178799 -1.346345,-3.718787 0.02923,-0.555464 0.992174,-0.900555 0.992174,-0.900555 0.928941,-0.373602 2.209409,-0.173335 2.963713,0.485969 0.796891,0.696342 0.93169,3.037455 0.93169,3.037455 l 2.318767,0.248876 -0.144856,-4.12813 3.38037,-3.413855 z"
       style="opacity:1;fill:#fafafa;fill-opacity:1;stroke:none;stroke-width:0.341;stroke-linecap:butt;stroke-linejoin:miter;stroke-miterlimit:4;stroke-dasharray:none;stroke-opacity:1" />
    <path
       id="path1580"
       d="m 97.286648,83.383911 -4.720826,-1.973952 4.165562,3.986463 z"
       style="fill:#f2f2f2;stroke:none;stroke-width:0.264583px;stroke-linecap:butt;stroke-linejoin:miter;stroke-opacity:1" />
    <path
       sodipodi:nodetypes="ssascs"
       id="path1564"
       d="m 83.271417,87.145789 c 11.139588,-2.523065 15.238662,-1.7773 18.861843,2.622339 9.49729,11.532542 16.8505,28.807432 29.25445,39.520872 7.16778,6.19091 26.42835,10.45787 25.05399,13.40291 -1.37438,2.94507 -48.65822,10.15857 -48.65822,10.15857 0,0 -39.299499,-62.355405 -24.512063,-65.704691 z"
       style="fill:#9597f4;fill-opacity:1;stroke:none;stroke-width:0.264583px;stroke-linecap:butt;stroke-linejoin:miter;stroke-opacity:1" />
    <path
       d="m 155.13013,100.02929 -13.53211,23.86108 H 123.5035 v 4.57861 h 34.82499 v -0.0544 l 8.77264,0.0544 15.91277,-28.40543 z"
       style="fill:#d7e3f4;fill-opacity:1;stroke:none;stroke-width:0.5;stroke-miterlimit:4;stroke-dasharray:none;stroke-opacity:1;paint-order:stroke fill markers"
       id="rect1644" />
    <path
       id="path1646"
       d="m 125.03637,141.80281 c 0,0 -0.6439,-14.13328 6.18101,-14.30809 6.8249,-0.17481 29.69666,-3.07421 34.825,-3e-5 5.12835,3.07418 -3.06939,11.33442 -3.06939,11.33442 z"
       style="fill:#ffcc00;stroke:none;stroke-width:0.264583px;stroke-linecap:butt;stroke-linejoin:miter;stroke-opacity:1" />
    <path
       style="opacity:1;fill:#000000;fill-opacity:1;stroke:#000000;stroke-width:0.341;stroke-linecap:butt;stroke-linejoin:miter;stroke-miterlimit:4;stroke-dasharray:none;stroke-opacity:1"
       d="m 106.23227,64.772437 3.45268,-1.82528 1.6709,-1.779101 -1.08757,-2.015875 1.31325,-1.758175 c 0,0 -1.32233,-1.97174 -2.12489,-2.839334 -1.20696,-1.304743 -2.83504,-1.496792 -3.90361,-2.917527 -0.63631,-0.845968 -0.20512,-1.724061 -0.93113,-2.494211 -0.74373,-0.788847 -3.5543,-1.669758 -3.5543,-1.669758 0,0 0.97373,0.916665 0.36028,1.293912 -0.501,0.308317 -0.93163,-1.086316 -1.499557,-0.932506 -0.612637,0.165965 -0.26179,1.713008 -0.891127,1.684788 -1.097094,-0.04973 -1.767608,-1.167401 -1.767608,-1.167401 0,0 -2.12453,-1.488393 -3.563327,-1.169576 -0.770557,0.170941 -2.302864,0.907971 -2.302864,0.907971 0,0 1.630397,-0.530742 2.087517,0.12157 0.159537,0.227692 0.229455,0.641025 0.02875,0.833995 -0.820222,0.792089 -2.293999,-0.01099 -3.408872,-0.247163 -0.987839,-0.208075 -2.852767,-1.018326 -2.852767,-1.018326 0,0 1.410909,1.001213 1.242384,1.676371 -0.402126,1.610132 -3.170423,1.128644 -4.492092,2.129177 -2.181403,1.651319 -4.606753,3.564354 -5.399528,6.186052 -0.50957,1.684771 0.568194,3.480137 0.684021,5.236677 0.09578,1.441347 0.05016,2.889537 0.01085,4.333506 -0.02454,0.787131 -0.362452,1.605874 -0.13424,2.359463 0.259097,0.852088 1.289502,1.299793 1.608382,2.131136 0.329905,0.860529 -0.125036,1.905993 0.23845,2.755558 0.30287,0.717665 1.528845,1.766454 1.528845,1.766454 l 1.131478,1.605128 0.549395,-5.697756 c 0,0 -1.206407,-0.768007 -1.572744,-1.355702 -0.556692,-0.892423 -0.853382,-1.985043 -0.799105,-3.053155 0.03365,-0.597082 0.853139,-0.805002 1.427355,-0.967217 0.793918,-0.223747 1.685582,-0.160623 2.372142,0.296934 0.399359,0.265915 0.774168,1.102176 0.774168,1.102176 l 0.422527,2.228718 2.318746,0.248861 -0.144874,-4.12813 3.380378,-3.414009 1.395995,-5.221705 c 0,0 2.427802,1.340221 3.759137,1.662427 1.675101,0.405411 3.568895,-0.358567 5.161045,0.302202 1.10326,0.457818 2.0145,1.389918 2.67671,2.385567 0.47268,0.711069 0.83364,2.423645 0.83364,2.423645 z"
       id="path1568"
       inkscape:connector-curvature="0"
       sodipodi:nodetypes="cccccssscssscscssscsssssssscccssssccccccssscc" />
    <path
       sodipodi:nodetypes="csssscc"
       id="path1668"
       d="m 202.56639,148.13784 c 0,0 1.54053,2.30449 3.88324,0.40957 2.34272,-1.89489 5.53171,-8.65227 6.76658,-5.48902 1.23487,3.16323 -0.88102,9.10456 -2.14174,11.8592 -2.87389,6.27945 -3.8679,3.51032 -7.46527,2.86511 -3.59736,-0.6452 -3.30637,-1.13742 -3.30637,-1.13742 z"
       style="fill:#f9f9f9;stroke:none;stroke-width:0.264583px;stroke-linecap:butt;stroke-linejoin:miter;stroke-opacity:1" />
    <path
       id="path1733"
       d="m 166.92349,149.49335 22.87447,5.59467 -22.38817,-7.87068 z"
       style="fill:#5e60f3;stroke:none;stroke-width:0.264583px;stroke-linecap:butt;stroke-linejoin:miter;stroke-opacity:1;fill-opacity:1" />
    <g
       transform="matrix(1.8420243,0,0,1.8420243,26.452651,-141.35254)"
       style="fill:#ffeeaa;stroke-width:0.542881"
       id="g1689">
      <path
         style="fill:#aaeeff;stroke:none;stroke-width:0.143637px;stroke-linecap:butt;stroke-linejoin:miter;stroke-opacity:1"
         d="m 102.1369,169.65741 2.3225,10.94604 c 0,0 -0.79255,0.67285 -1.43604,0.4368 -0.64348,-0.23605 -0.6055,-0.55211 -0.6055,-0.55211 l -4.215049,-11.17176 z"
         id="path1705" />
      <path
         style="fill:#aaeeff;stroke:none;stroke-width:0.143637px;stroke-linecap:butt;stroke-linejoin:miter;stroke-opacity:1"
         d="m 87.3342,169.81504 -2.322541,10.94603 c 0,0 0.792571,0.67285 1.436065,0.4368 0.643494,-0.23604 0.60551,-0.55211 0.60551,-0.55211 l 4.215087,-11.17175 z"
         id="path1701" />
      <path
         id="path1703"
         d="m 91.271431,169.48416 -2.32254,10.94603 c 0,0 0.79257,0.67285 1.43606,0.4368 0.6435,-0.23604 0.60552,-0.55211 0.60552,-0.55211 l 4.21508,-11.17175 z"
         style="fill:#aaeeff;stroke:none;stroke-width:0.143637px;stroke-linecap:butt;stroke-linejoin:miter;stroke-opacity:1" />
      <path
         id="path1707"
         d="m 106.22821,169.65124 2.32255,10.94604 c 0,0 -0.79258,0.67285 -1.43607,0.43679 -0.64349,-0.23604 -0.60552,-0.55211 -0.60552,-0.55211 l -4.21504,-11.17175 z"
         style="fill:#aaeeff;stroke:none;stroke-width:0.143637px;stroke-linecap:butt;stroke-linejoin:miter;stroke-opacity:1" />
      <path
         id="path1693"
         d="m 42.866309,168.4533 -3.167546,12.60131 c 0,0 1.080931,0.7746 1.958546,0.50285 0.877615,-0.27174 0.825812,-0.6356 0.825812,-0.6356 l 5.748653,-12.86116 z"
         style="fill:#aaeeff;stroke:none;stroke-width:0.143637px;stroke-linecap:butt;stroke-linejoin:miter;stroke-opacity:1" />
      <path
         style="fill:#aaeeff;stroke:none;stroke-width:0.143637px;stroke-linecap:butt;stroke-linejoin:miter;stroke-opacity:1"
         d="m 52.391315,168.4533 -3.167546,12.60131 c 0,0 1.080931,0.7746 1.958546,0.50285 0.877615,-0.27174 0.825812,-0.6356 0.825812,-0.6356 L 57.75678,168.0607 Z"
         id="path1695" />
      <path
         id="path1697"
         d="m 70.965396,168.60316 3.167546,12.60131 c 0,0 -1.080931,0.7746 -1.958546,0.50285 -0.877615,-0.27174 -0.825812,-0.6356 -0.825812,-0.6356 l -5.748653,-12.86116 z"
         style="fill:#aaeeff;stroke:none;stroke-width:0.143637px;stroke-linecap:butt;stroke-linejoin:miter;stroke-opacity:1" />
      <path
         style="fill:#aaeeff;stroke:none;stroke-width:0.143637px;stroke-linecap:butt;stroke-linejoin:miter;stroke-opacity:1"
         d="m 78.338583,168.52347 3.167546,12.60131 c 0,0 -1.080931,0.7746 -1.958546,0.50285 -0.877615,-0.27174 -0.825812,-0.6356 -0.825812,-0.6356 l -5.748653,-12.86116 z"
         id="path1699" />
      <path
         sodipodi:nodetypes="ccccc"
         id="path1709"
         d="m 42.866309,168.4533 -0.919437,3.61563 4.265421,0.47984 2.019481,-4.48807 z"
         style="fill:#7ce5ff;fill-opacity:1;stroke:none;stroke-width:0.143637px;stroke-linecap:butt;stroke-linejoin:miter;stroke-opacity:1" />
      <path
         sodipodi:nodetypes="ccccc"
         style="fill:#7ce5ff;fill-opacity:1;stroke:none;stroke-width:0.143637px;stroke-linecap:butt;stroke-linejoin:miter;stroke-opacity:1"
         d="m 52.391315,168.4533 -0.919437,3.61563 4.287799,0.40682 1.997103,-4.41505 z"
         id="path1711" />
      <path
         sodipodi:nodetypes="ccccc"
         id="path1713"
         d="m 71.049063,168.4533 0.763584,3.66157 -4.27637,0.4339 -1.852679,-4.48807 z"
         style="fill:#7ce5ff;fill-opacity:1;stroke:none;stroke-width:0.143637px;stroke-linecap:butt;stroke-linejoin:miter;stroke-opacity:1" />
      <path
         sodipodi:nodetypes="ccccc"
         style="fill:#7ce5ff;fill-opacity:1;stroke:none;stroke-width:0.143637px;stroke-linecap:butt;stroke-linejoin:miter;stroke-opacity:1"
         d="m 78.472378,168.4533 0.74441,3.6848 -4.257196,0.41067 -1.852679,-4.48807 z"
         id="path1715" />
      <g
         transform="matrix(0.90982599,0,0,1,1.4861264,0)"
         style="fill:#ffeeaa;stroke-width:0.569148"
         id="g1682">
        <path
           sodipodi:nodetypes="ccccccc"
           id="path1566"
           d="m 16.480651,121.91501 22.268729,47.73578 42.725715,-0.12836 3.538514,-20.66262 -45.256627,-0.31334 -12.651941,-26.76902 z"
           style="fill:#ffeeaa;stroke:none;stroke-width:0.150587px;stroke-linecap:butt;stroke-linejoin:miter;stroke-opacity:1" />
        <path
           sodipodi:nodetypes="cccccccc"
           id="path1674"
           d="m 85.013608,148.85981 v 0 l 1.330233,0.0465 -1.706504,9.40528 4.465579,1.02824 -1.707682,10.24198 -5.920139,-0.0594 z"
           style="fill:#ffe167;fill-opacity:1;stroke:none;stroke-width:0.150587px;stroke-linecap:butt;stroke-linejoin:miter;stroke-opacity:1" />
      </g>
      <path
         id="path1717"
         d="m 87.561343,168.87492 -0.560533,2.66409 3.331424,0.34251 0.936086,-2.40751 z"
         style="fill:#7ce5ff;fill-opacity:1;stroke:none;stroke-width:0.143637px;stroke-linecap:butt;stroke-linejoin:miter;stroke-opacity:1" />
      <path
         style="fill:#7ce5ff;fill-opacity:1;stroke:none;stroke-width:0.143637px;stroke-linecap:butt;stroke-linejoin:miter;stroke-opacity:1"
         d="m 91.268321,169.47401 -0.560533,2.66409 3.331424,0.34251 0.936089,-2.40751 z"
         id="path1719" />
      <path
         id="path1721"
         d="m 102.02019,169.17872 0.56052,2.66409 -3.331379,0.34251 -0.93609,-2.40751 z"
         style="fill:#7ce5ff;fill-opacity:1;stroke:none;stroke-width:0.143637px;stroke-linecap:butt;stroke-linejoin:miter;stroke-opacity:1" />
      <path
         style="fill:#7ce5ff;fill-opacity:1;stroke:none;stroke-width:0.143637px;stroke-linecap:butt;stroke-linejoin:miter;stroke-opacity:1"
         d="m 106.00107,168.71112 0.56053,2.66409 -3.3314,0.34251 -0.93607,-2.40751 z"
         id="path1723" />
    </g>
    <path
       sodipodi:nodetypes="cssaascscc"
       id="path1582"
       d="m 95.950247,110.09641 c 0,0 8.678653,17.89984 18.619963,21.84419 3.81734,1.51458 7.98387,1.21415 10.42094,1.64619 3.90966,0.6931 4.46791,2.38559 6.87547,2.24972 1.13181,-0.0639 3.04256,-0.28205 3.09268,-1.41455 0.2983,-6.74005 -13.08563,-7.31745 -17.59035,-10.01174 -4.50472,-2.69431 -10.36237,-15.27861 -10.36237,-15.27861 0,0 -3.66802,0.9937 -5.55023,1.05475 -1.896507,0.0614 -5.506103,-0.0899 -5.506103,-0.0899 z"
       style="fill:#f9f9f9;fill-opacity:1;stroke:none;stroke-width:0.264583px;stroke-linecap:butt;stroke-linejoin:miter;stroke-opacity:1" />
    <path
       style="fill:#282aef;fill-opacity:1;stroke:none;stroke-width:0.264583px;stroke-linecap:butt;stroke-linejoin:miter;stroke-opacity:1"
       d="m 102.34573,96.727892 7.80558,12.744198 c 0,0 -5.6536,2.31773 -7.68204,2.40546 -2.02843,0.0877 -8.425354,-0.34862 -8.425354,-0.34862 L 87.9324,97.410971 v 0"
       id="path1606" />
    <rect
       ry="2.4201777"
       y="157.26286"
       x="184.93817"
       height="14.861056"
       width="39.138943"
       id="rect1602"
       style="fill:#ffe167;fill-opacity:1;stroke:none;stroke-width:0.5;stroke-miterlimit:4;stroke-dasharray:none;stroke-opacity:1;paint-order:stroke fill markers" />
    <rect
       ry="1.9595922"
       style="fill:#ffeeaa;fill-opacity:1;stroke:none;stroke-width:0.5;stroke-miterlimit:4;stroke-dasharray:none;stroke-opacity:1;paint-order:stroke fill markers"
       id="rect1691"
       width="33.973866"
       height="14.861056"
       x="184.93817"
       y="157.26286" />
    <path
       id="path1604"
       d="m 102.03135,95.845376 8.11996,12.744184 c 0,0 -5.88132,2.31772 -7.99146,2.40548 -2.11012,0.0877 -8.764696,-0.34864 -8.764696,-0.34864 L 87.037491,96.528456 v 0"
       style="fill:#5e60f3;fill-opacity:1;stroke:none;stroke-width:0.264583px;stroke-linecap:butt;stroke-linejoin:miter;stroke-opacity:1" />
  </g>
</svg>
