<?xml version="1.0" encoding="UTF-8" standalone="no"?>
<svg
   xmlns:dc="http://purl.org/dc/elements/1.1/"
   xmlns:cc="http://creativecommons.org/ns#"
   xmlns:rdf="http://www.w3.org/1999/02/22-rdf-syntax-ns#"
   xmlns:svg="http://www.w3.org/2000/svg"
   xmlns="http://www.w3.org/2000/svg"
   xmlns:sodipodi="http://sodipodi.sourceforge.net/DTD/sodipodi-0.dtd"
   xmlns:inkscape="http://www.inkscape.org/namespaces/inkscape"
   sodipodi:docname="plants.svg"
   inkscape:version="1.0 (6e3e5246a0, 2020-05-07)"
   id="svg949"
   version="1.1"
   viewBox="0 0 297 210"
   height="210mm"
   width="297mm">
  <defs
     id="defs943" />
  <sodipodi:namedview
     inkscape:window-maximized="1"
     inkscape:window-y="0"
     inkscape:window-x="0"
     inkscape:window-height="1041"
     inkscape:window-width="1920"
     showgrid="false"
     inkscape:document-rotation="0"
     inkscape:current-layer="layer1"
     inkscape:document-units="mm"
     inkscape:cy="315.14719"
     inkscape:cx="502.93527"
     inkscape:zoom="0.98994949"
     inkscape:pageshadow="2"
     inkscape:pageopacity="0.0"
     borderopacity="1.0"
     bordercolor="#666666"
     pagecolor="#ffffff"
     id="base" />
  <metadata
     id="metadata946">
    <rdf:RDF>
      <cc:Work
         rdf:about="">
        <dc:format>image/svg+xml</dc:format>
        <dc:type
           rdf:resource="http://purl.org/dc/dcmitype/StillImage" />
        <dc:title></dc:title>
      </cc:Work>
    </rdf:RDF>
  </metadata>
  <g
     id="layer1"
     inkscape:groupmode="layer"
     inkscape:label="Layer 1">
    <g
       transform="matrix(0.48256333,0,0,0.48256333,-21.925372,28.366189)"
       id="g1594">
      <path
         style="opacity:0.949401;fill:#f0f0f0;fill-opacity:0.996078;stroke:none;stroke-width:0.593008;stroke-miterlimit:4;stroke-dasharray:none;stroke-opacity:1;paint-order:stroke fill markers"
         id="path4036"
         sodipodi:type="arc"
         sodipodi:cx="109.38772"
         sodipodi:cy="109.91367"
         sodipodi:rx="48.298676"
         sodipodi:ry="3.8636179"
         sodipodi:start="0"
         sodipodi:end="6.2767974"
         sodipodi:open="true"
         sodipodi:arc-type="arc"
         d="m 157.68639,109.91367 a 48.298676,3.8636179 0 0 1 -48.22154,3.86362 48.298676,3.8636179 0 0 1 -48.375561,-3.85128 48.298676,3.8636179 0 0 1 48.067031,-3.87591 48.298676,3.8636179 0 0 1 48.52909,3.83889" />
      <g
         id="g4034"
         transform="translate(-106.44026,-78.844699)">
        <path
           sodipodi:nodetypes="cccc"
           id="path4019"
           d="m 197.44168,190.08516 5.91757,-113.624692 3.9676,114.422272 z"
           style="fill:#b2b3f8;fill-opacity:0.556502;stroke:none;stroke-width:0.264583px;stroke-linecap:butt;stroke-linejoin:miter;stroke-opacity:1" />
        <path
           style="fill:#b2b3f8;fill-opacity:0.556502;stroke:none;stroke-width:0.0822511px;stroke-linecap:butt;stroke-linejoin:miter;stroke-opacity:1"
           d="M 206.42881,174.16289 241.11026,139.39734 206.64991,179.299 Z"
           id="path4021"
           sodipodi:nodetypes="cccc" />
        <path
           sodipodi:nodetypes="cccc"
           id="path4023"
           d="m 205.37047,139.83599 18.59346,-19.97002 -18.47492,22.9203 z"
           style="fill:#b2b3f8;fill-opacity:0.556502;stroke:none;stroke-width:0.0456444px;stroke-linecap:butt;stroke-linejoin:miter;stroke-opacity:1" />
        <path
           style="fill:#b2b3f8;fill-opacity:0.556502;stroke:none;stroke-width:0.0456444px;stroke-linecap:butt;stroke-linejoin:miter;stroke-opacity:1"
           d="m 200.68045,127.66508 -18.59346,-19.97002 18.47492,22.9203 z"
           id="path4025"
           sodipodi:nodetypes="cccc" />
        <path
           sodipodi:nodetypes="cccc"
           id="path4027"
           d="m 198.77666,167.28368 -34.68145,-34.76555 34.46035,39.90166 z"
           style="fill:#b2b3f8;fill-opacity:0.556502;stroke:none;stroke-width:0.0822511px;stroke-linecap:butt;stroke-linejoin:miter;stroke-opacity:1" />
        <path
           style="fill:#b2b3f8;fill-opacity:0.556502;stroke:none;stroke-width:0.264583px;stroke-linecap:butt;stroke-linejoin:miter;stroke-opacity:1"
           d="m 197.44168,190.08516 5.91757,-113.624692 3.9676,114.422272 z"
           id="path3446"
           sodipodi:nodetypes="cccc" />
      </g>
      <path
         style="fill:none;stroke:#000000;stroke-width:0.253271px;stroke-linecap:butt;stroke-linejoin:miter;stroke-opacity:1"
         d="m 134.22599,113.14039 c 0,0 15.76006,-18.760382 15.76006,-42.342972 0,-23.58259 -21.78523,-39.175427 -16.78299,-65.9483985 5.00223,-26.7729535 15.29979,-46.7714845 15.29979,-46.7714845"
         id="path3981" />
      <g
         id="g3993"
         transform="translate(-130.78193,-47.623859)">
        <path
           sodipodi:nodetypes="cacscc"
           id="path3983"
           d="m 274.58583,24.955873 c 1.54014,-1.744409 4.33384,-1.847012 6.63453,-1.913365 2.61739,-0.07549 7.66074,1.738133 7.66074,1.738133 0,0 -5.71544,12.499539 -11.43981,11.273031 -5.72435,-1.226504 -8.55692,-1.999672 -8.55692,-1.999672 0,0 2.85189,-5.888457 5.70146,-9.098127 z"
           style="fill:#acadf8;fill-opacity:1;stroke:#a8aaf7;stroke-width:0.228607px;stroke-linecap:butt;stroke-linejoin:miter;stroke-opacity:1" />
        <path
           id="path3985"
           d="m 268.88437,34.053999 16.11574,-7.903814"
           style="fill:none;stroke:#d2d2fb;stroke-width:0.264583px;stroke-linecap:butt;stroke-linejoin:miter;stroke-opacity:1" />
      </g>
      <path
         sodipodi:nodetypes="cacscc"
         id="path3987"
         d="m 134.3607,-37.431961 c -2.12245,-0.954044 -3.04831,-3.591861 -3.79344,-5.769555 -0.84772,-2.477461 -0.61005,-7.831726 -0.61005,-7.831726 0,0 13.63179,1.754739 14.15667,7.585456 0.52489,5.830694 0.62582,8.765154 0.62582,8.765154 0,0 -6.46908,-0.978869 -10.379,-2.749329 z"
         style="fill:#b2b3f8;fill-opacity:1;stroke:none;stroke-width:0.228607px;stroke-linecap:butt;stroke-linejoin:miter;stroke-opacity:1" />
      <path
         id="path3989"
         d="M 144.7397,-34.682632 132.4153,-47.732401"
         style="fill:none;stroke:#d2d2fb;stroke-width:0.264583px;stroke-linecap:butt;stroke-linejoin:miter;stroke-opacity:1" />
      <g
         id="g3999"
         transform="translate(-134.50458,-2.7762715)">
        <path
           style="fill:#acadf8;fill-opacity:1;stroke:#a8aaf7;stroke-width:0.228607px;stroke-linecap:butt;stroke-linejoin:miter;stroke-opacity:1"
           d="m 274.58583,24.955873 c 1.54014,-1.744409 4.33384,-1.847012 6.63453,-1.913365 2.61739,-0.07549 7.66074,1.738133 7.66074,1.738133 0,0 -5.71544,12.499539 -11.43981,11.273031 -5.72435,-1.226504 -8.55692,-1.999672 -8.55692,-1.999672 0,0 2.85189,-5.888457 5.70146,-9.098127 z"
           id="path3995"
           sodipodi:nodetypes="cacscc" />
        <path
           style="fill:none;stroke:#d2d2fb;stroke-width:0.264583px;stroke-linecap:butt;stroke-linejoin:miter;stroke-opacity:1"
           d="m 268.88437,34.053999 16.11574,-7.903814"
           id="path3997" />
      </g>
      <g
         transform="rotate(-95.698611,189.61154,83.142231)"
         id="g4005">
        <path
           sodipodi:nodetypes="cacscc"
           id="path4001"
           d="m 274.58583,24.955873 c 1.54014,-1.744409 4.33384,-1.847012 6.63453,-1.913365 2.61739,-0.07549 7.66074,1.738133 7.66074,1.738133 0,0 -5.71544,12.499539 -11.43981,11.273031 -5.72435,-1.226504 -8.55692,-1.999672 -8.55692,-1.999672 0,0 2.85189,-5.888457 5.70146,-9.098127 z"
           style="fill:#acadf8;fill-opacity:1;stroke:#a8aaf7;stroke-width:0.228607px;stroke-linecap:butt;stroke-linejoin:miter;stroke-opacity:1" />
        <path
           id="path4003"
           d="m 268.88437,34.053999 16.11574,-7.903814"
           style="fill:none;stroke:#d2d2fb;stroke-width:0.264583px;stroke-linecap:butt;stroke-linejoin:miter;stroke-opacity:1" />
      </g>
      <g
         transform="translate(-118.39406,41.579878)"
         id="g4011">
        <path
           sodipodi:nodetypes="cacscc"
           id="path4007"
           d="m 274.58583,24.955873 c 1.54014,-1.744409 4.33384,-1.847012 6.63453,-1.913365 2.61739,-0.07549 7.66074,1.738133 7.66074,1.738133 0,0 -5.71544,12.499539 -11.43981,11.273031 -5.72435,-1.226504 -8.55692,-1.999672 -8.55692,-1.999672 0,0 2.85189,-5.888457 5.70146,-9.098127 z"
           style="fill:#acadf8;fill-opacity:1;stroke:#a8aaf7;stroke-width:0.228607px;stroke-linecap:butt;stroke-linejoin:miter;stroke-opacity:1" />
        <path
           id="path4009"
           d="m 268.88437,34.053999 16.11574,-7.903814"
           style="fill:none;stroke:#d2d2fb;stroke-width:0.264583px;stroke-linecap:butt;stroke-linejoin:miter;stroke-opacity:1" />
      </g>
      <g
         id="g4017"
         transform="rotate(-108.73267,220.57374,93.243205)">
        <path
           style="fill:#acadf8;fill-opacity:1;stroke:#a8aaf7;stroke-width:0.228607px;stroke-linecap:butt;stroke-linejoin:miter;stroke-opacity:1"
           d="m 274.58583,24.955873 c 1.54014,-1.744409 4.33384,-1.847012 6.63453,-1.913365 2.61739,-0.07549 7.66074,1.738133 7.66074,1.738133 0,0 -5.71544,12.499539 -11.43981,11.273031 -5.72435,-1.226504 -8.55692,-1.999672 -8.55692,-1.999672 0,0 2.85189,-5.888457 5.70146,-9.098127 z"
           id="path4013"
           sodipodi:nodetypes="cacscc" />
        <path
           style="fill:none;stroke:#d2d2fb;stroke-width:0.264583px;stroke-linecap:butt;stroke-linejoin:miter;stroke-opacity:1"
           d="m 268.88437,34.053999 16.11574,-7.903814"
           id="path4015" />
      </g>
    </g>
    <g
       transform="matrix(0.1381461,-0.44285439,0.44285439,0.1381461,61.137307,116.76427)"
       id="g1673">
      <path
         style="fill:none;stroke:#000000;stroke-width:0.264583px;stroke-linecap:butt;stroke-linejoin:miter;stroke-opacity:1"
         d="m 115.71933,108.81197 c 0,0 23.3907,-37.961703 57.31355,-38.025364 33.92285,-0.06366 53.7799,-11.135963 63.15277,-32.951984"
         id="path1614"
         sodipodi:nodetypes="csc" />
      <g
         id="g1622">
        <path
           id="path1616"
           d="m 156.98772,73.897342 c 0,0 -0.46048,-24.799169 21.58318,-45.494738 22.04366,-20.6955681 16.39906,-44.389706 16.39906,-44.389706 0,0 21.05211,17.8848805 8.2071,48.241927 -12.84502,30.357049 -30.68676,36.672766 -30.68676,36.672766 z"
           style="fill:#acadf8;fill-opacity:1;stroke:none;stroke-width:0.262811px;stroke-linecap:butt;stroke-linejoin:miter;stroke-opacity:1" />
        <path
           sodipodi:nodetypes="csc"
           id="path1618"
           d="m 156.98772,73.897341 c 0,0 24.2226,-24.524697 33.39584,-38.962345 3.22621,-5.077682 9.49927,-22.689112 9.49927,-22.689112"
           style="fill:none;stroke:#ffffff;stroke-width:0.264583px;stroke-linecap:butt;stroke-linejoin:miter;stroke-opacity:1" />
      </g>
      <g
         id="g1628"
         transform="matrix(1,0,0,-1,25.871659,143.92615)">
        <path
           style="fill:#acadf8;fill-opacity:1;stroke:none;stroke-width:0.262811px;stroke-linecap:butt;stroke-linejoin:miter;stroke-opacity:1"
           d="m 156.98772,73.897342 c 0,0 -0.46048,-24.799169 21.58318,-45.494738 22.04366,-20.6955681 16.39906,-44.389706 16.39906,-44.389706 0,0 21.05211,17.8848805 8.2071,48.241927 -12.84502,30.357049 -30.68676,36.672766 -30.68676,36.672766 z"
           id="path1624" />
        <path
           style="fill:none;stroke:#ffffff;stroke-width:0.264583px;stroke-linecap:butt;stroke-linejoin:miter;stroke-opacity:1"
           d="m 156.98772,73.897341 c 0,0 24.2226,-24.524697 33.39584,-38.962345 3.22621,-5.077682 9.49927,-22.689112 9.49927,-22.689112"
           id="path1626"
           sodipodi:nodetypes="csc" />
      </g>
      <g
         transform="matrix(0.89263076,-0.45078856,-0.45078856,-0.89263076,86.57231,206.3176)"
         id="g1634">
        <path
           id="path1630"
           d="m 156.98772,73.897342 c 0,0 -0.46048,-24.799169 21.58318,-45.494738 22.04366,-20.6955681 16.39906,-44.389706 16.39906,-44.389706 0,0 21.05211,17.8848805 8.2071,48.241927 -12.84502,30.357049 -30.68676,36.672766 -30.68676,36.672766 z"
           style="fill:#acadf8;fill-opacity:1;stroke:none;stroke-width:0.262811px;stroke-linecap:butt;stroke-linejoin:miter;stroke-opacity:1" />
        <path
           sodipodi:nodetypes="csc"
           id="path1632"
           d="m 156.98772,73.897341 c 0,0 24.2226,-24.524697 33.39584,-38.962345 3.22621,-5.077682 9.49927,-22.689112 9.49927,-22.689112"
           style="fill:none;stroke:#ffffff;stroke-width:0.264583px;stroke-linecap:butt;stroke-linejoin:miter;stroke-opacity:1" />
      </g>
      <g
         id="g1640"
         transform="translate(36.404582,-4.3110499)">
        <path
           style="fill:#acadf8;fill-opacity:1;stroke:none;stroke-width:0.262811px;stroke-linecap:butt;stroke-linejoin:miter;stroke-opacity:1"
           d="m 156.98772,73.897342 c 0,0 -0.46048,-24.799169 21.58318,-45.494738 22.04366,-20.6955681 16.39906,-44.389706 16.39906,-44.389706 0,0 21.05211,17.8848805 8.2071,48.241927 -12.84502,30.357049 -30.68676,36.672766 -30.68676,36.672766 z"
           id="path1636" />
        <path
           style="fill:none;stroke:#ffffff;stroke-width:0.264583px;stroke-linecap:butt;stroke-linejoin:miter;stroke-opacity:1"
           d="m 156.98772,73.897341 c 0,0 24.2226,-24.524697 33.39584,-38.962345 3.22621,-5.077682 9.49927,-22.689112 9.49927,-22.689112"
           id="path1638"
           sodipodi:nodetypes="csc" />
      </g>
      <g
         transform="rotate(-37.481226,159.74611,85.552965)"
         id="g1646">
        <path
           id="path1642"
           d="m 156.98772,73.897342 c 0,0 -0.46048,-24.799169 21.58318,-45.494738 22.04366,-20.6955681 16.39906,-44.389706 16.39906,-44.389706 0,0 21.05211,17.8848805 8.2071,48.241927 -12.84502,30.357049 -30.68676,36.672766 -30.68676,36.672766 z"
           style="fill:#acadf8;fill-opacity:1;stroke:none;stroke-width:0.262811px;stroke-linecap:butt;stroke-linejoin:miter;stroke-opacity:1" />
        <path
           sodipodi:nodetypes="csc"
           id="path1644"
           d="m 156.98772,73.897341 c 0,0 24.2226,-24.524697 33.39584,-38.962345 3.22621,-5.077682 9.49927,-22.689112 9.49927,-22.689112"
           style="fill:none;stroke:#ffffff;stroke-width:0.264583px;stroke-linecap:butt;stroke-linejoin:miter;stroke-opacity:1" />
      </g>
      <g
         id="g1652"
         transform="matrix(0.79355277,0.60850144,0.60850144,-0.79355277,4.9502034,32.248202)">
        <path
           style="fill:#acadf8;fill-opacity:1;stroke:none;stroke-width:0.262811px;stroke-linecap:butt;stroke-linejoin:miter;stroke-opacity:1"
           d="m 156.98772,73.897342 c 0,0 -0.46048,-24.799169 21.58318,-45.494738 22.04366,-20.6955681 16.39906,-44.389706 16.39906,-44.389706 0,0 21.05211,17.8848805 8.2071,48.241927 -12.84502,30.357049 -30.68676,36.672766 -30.68676,36.672766 z"
           id="path1648" />
        <path
           style="fill:none;stroke:#ffffff;stroke-width:0.264583px;stroke-linecap:butt;stroke-linejoin:miter;stroke-opacity:1"
           d="m 156.98772,73.897341 c 0,0 24.2226,-24.524697 33.39584,-38.962345 3.22621,-5.077682 9.49927,-22.689112 9.49927,-22.689112"
           id="path1650"
           sodipodi:nodetypes="csc" />
      </g>
    </g>
  </g>
</svg>
