<?xml version="1.0" encoding="UTF-8" standalone="no"?>
<svg
   xmlns:dc="http://purl.org/dc/elements/1.1/"
   xmlns:cc="http://creativecommons.org/ns#"
   xmlns:rdf="http://www.w3.org/1999/02/22-rdf-syntax-ns#"
   xmlns:svg="http://www.w3.org/2000/svg"
   xmlns="http://www.w3.org/2000/svg"
   xmlns:xlink="http://www.w3.org/1999/xlink"
   xmlns:sodipodi="http://sodipodi.sourceforge.net/DTD/sodipodi-0.dtd"
   xmlns:inkscape="http://www.inkscape.org/namespaces/inkscape"
   inkscape:export-ydpi="300"
   inkscape:export-xdpi="300"
   inkscape:export-filename="/home/omkarpathak/Documents/GIT/illustrations/pngs/parser3.png"
   sodipodi:docname="resume_parser.svg"
   inkscape:version="1.0 (6e3e5246a0, 2020-05-07)"
   id="svg8"
   version="1.1"
   viewBox="0 0 85.318207 74.493881"
   height="74.493881mm"
   width="85.318207mm">
  <defs
     id="defs2">
    <pattern
       patternTransform="matrix(5.7787111,-1.4881571e-7,-3.711684e-8,5.794834,-70.323621,121.39581)"
       id="pattern2890"
       xlink:href="#Strips1_2white"
       inkscape:collect="always" />
    <pattern
       inkscape:collect="always"
       patternUnits="userSpaceOnUse"
       width="3"
       height="1"
       patternTransform="translate(0,0) scale(10,10)"
       id="Strips1_2white"
       inkscape:stockid="Stripes 1:2 white">
      <rect
         style="fill:white;stroke:none"
         x="0"
         y="-0.5"
         width="1"
         height="2"
         id="rect1897" />
    </pattern>
    <pattern
       patternTransform="matrix(5.7787111,-1.4881571e-7,-3.711684e-8,5.794834,-70.323621,121.39581)"
       id="pattern2862"
       xlink:href="#Strips1_1.5"
       inkscape:collect="always" />
    <pattern
       inkscape:collect="always"
       patternUnits="userSpaceOnUse"
       width="2.5"
       height="1"
       patternTransform="translate(0,0) scale(10,10)"
       id="Strips1_1.5"
       inkscape:stockid="Stripes 1:1.5">
      <rect
         style="fill:black;stroke:none"
         x="0"
         y="-0.5"
         width="1"
         height="2"
         id="rect1888" />
    </pattern>
  </defs>
  <sodipodi:namedview
     fit-margin-bottom="0"
     fit-margin-right="0"
     fit-margin-left="0"
     fit-margin-top="0"
     inkscape:window-maximized="1"
     inkscape:window-y="0"
     inkscape:window-x="0"
     inkscape:window-height="813"
     inkscape:window-width="1600"
     showgrid="false"
     inkscape:document-rotation="0"
     inkscape:current-layer="layer1"
     inkscape:document-units="mm"
     inkscape:cy="122.35299"
     inkscape:cx="122.9333"
     inkscape:zoom="2.2438929"
     inkscape:pageshadow="2"
     inkscape:pageopacity="0.0"
     borderopacity="1.0"
     bordercolor="#666666"
     pagecolor="#ffffff"
     id="base" />
  <metadata
     id="metadata5">
    <rdf:RDF>
      <cc:Work
         rdf:about="">
        <dc:format>image/svg+xml</dc:format>
        <dc:type
           rdf:resource="http://purl.org/dc/dcmitype/StillImage" />
        <dc:title />
      </cc:Work>
    </rdf:RDF>
  </metadata>
  <g
     transform="translate(-62.525239,-79.984026)"
     id="layer1"
     inkscape:groupmode="layer"
     inkscape:label="Layer 1">
    <rect
       ry="0.024821553"
       y="90.107079"
       x="78.256798"
       height="64.370827"
       width="49.579189"
       id="rect833"
       style="opacity:1;fill:#c2c2c2;stroke-width:0.0696454;paint-order:stroke fill markers" />
    <rect
       ry="0.022327743"
       y="97.321678"
       x="77.200073"
       height="57.903526"
       width="45.133099"
       id="rect839"
       style="opacity:1;fill:#aaaaaa;fill-opacity:1;stroke-width:0.0630234;paint-order:stroke fill markers"
       transform="matrix(0.99970918,-0.02411542,0.03322906,0.99944776,0,0)" />
    <rect
       transform="matrix(0.99889957,-0.04690031,0.05600562,0.99843045,0,0)"
       style="opacity:1;fill:#ffffff;fill-opacity:1;stroke:#000000;stroke-width:0.0630234;stroke-opacity:1;paint-order:stroke fill markers"
       id="rect835"
       width="45.133099"
       height="57.903526"
       x="74.327011"
       y="98.653671"
       ry="0.022327743" />
    <path
       sodipodi:nodetypes="ccssssscc"
       id="path837"
       d="m 86.620915,94.519826 32.415495,-0.02423 c 0,0 -0.20085,-5.322321 -2.12231,-6.209564 -2.15963,-0.997217 -4.91011,0.232148 -7.10015,-1.026979 -2.19002,-1.259117 -3.15173,-5.239335 -6.35462,-4.680652 -4.351247,0.758992 -2.96301,4.610907 -8.41628,4.796717 -5.445819,0.185565 -7.752248,-0.04776 -8.313104,2.282437 -0.631036,2.621819 -0.805258,4.748384 -0.805258,4.748384 z"
       style="fill:#c2c2c2;fill-opacity:1;stroke:#000000;stroke-width:0.0383642;stroke-linecap:butt;stroke-linejoin:miter;stroke-miterlimit:4;stroke-dasharray:none;stroke-opacity:1" />
    <rect
       ry="0.016163874"
       y="103.10358"
       x="86.056763"
       height="1.862828"
       width="16.286686"
       id="rect861"
       style="opacity:1;fill:#333333;fill-opacity:1;stroke:none;stroke-width:0.0309588;stroke-miterlimit:4;stroke-dasharray:none;stroke-opacity:1;paint-order:stroke fill markers" />
    <rect
       style="opacity:1;fill:#333333;fill-opacity:1;stroke:none;stroke-width:0.0309588;stroke-miterlimit:4;stroke-dasharray:none;stroke-opacity:1;paint-order:stroke fill markers"
       id="rect863"
       width="16.286686"
       height="1.862828"
       x="86.04924"
       y="118.14987"
       ry="0.016163874" />
    <rect
       ry="0.016163874"
       y="133.28716"
       x="86.297905"
       height="1.862828"
       width="16.286686"
       id="rect865"
       style="opacity:1;fill:#333333;fill-opacity:1;stroke:none;stroke-width:0.0309588;stroke-miterlimit:4;stroke-dasharray:none;stroke-opacity:1;paint-order:stroke fill markers" />
    <rect
       style="opacity:1;fill:#e1e1e1;fill-opacity:1;stroke:none;stroke-width:0.0452895;stroke-miterlimit:4;stroke-dasharray:none;stroke-opacity:1;paint-order:stroke fill markers"
       id="rect867"
       width="34.854351"
       height="1.862828"
       x="86.239105"
       y="107.02878"
       ry="0.016163874" />
    <rect
       ry="0.016163874"
       y="110.46432"
       x="86.239105"
       height="1.862828"
       width="34.854351"
       id="rect869"
       style="opacity:1;fill:#e1e1e1;fill-opacity:1;stroke:none;stroke-width:0.0452895;stroke-miterlimit:4;stroke-dasharray:none;stroke-opacity:1;paint-order:stroke fill markers" />
    <rect
       style="opacity:1;fill:#e1e1e1;fill-opacity:1;stroke:none;stroke-width:0.0452895;stroke-miterlimit:4;stroke-dasharray:none;stroke-opacity:1;paint-order:stroke fill markers"
       id="rect871"
       width="34.854351"
       height="1.862828"
       x="86.239105"
       y="113.58756"
       ry="0.016163874" />
    <rect
       ry="0.016163874"
       y="121.70798"
       x="86.239105"
       height="1.862828"
       width="34.854351"
       id="rect873"
       style="opacity:1;fill:#e1e1e1;fill-opacity:1;stroke:none;stroke-width:0.0452895;stroke-miterlimit:4;stroke-dasharray:none;stroke-opacity:1;paint-order:stroke fill markers" />
    <rect
       style="opacity:1;fill:#e1e1e1;fill-opacity:1;stroke:none;stroke-width:0.0452895;stroke-miterlimit:4;stroke-dasharray:none;stroke-opacity:1;paint-order:stroke fill markers"
       id="rect875"
       width="34.854351"
       height="1.862828"
       x="86.239105"
       y="125.14352"
       ry="0.016163874" />
    <rect
       ry="0.016163874"
       y="128.89136"
       x="86.239105"
       height="1.862828"
       width="34.854351"
       id="rect877"
       style="opacity:1;fill:#e1e1e1;fill-opacity:1;stroke:none;stroke-width:0.0452895;stroke-miterlimit:4;stroke-dasharray:none;stroke-opacity:1;paint-order:stroke fill markers" />
    <rect
       style="opacity:1;fill:#e1e1e1;fill-opacity:1;stroke:none;stroke-width:0.0452895;stroke-miterlimit:4;stroke-dasharray:none;stroke-opacity:1;paint-order:stroke fill markers"
       id="rect879"
       width="34.854351"
       height="1.862828"
       x="86.239105"
       y="137.01167"
       ry="0.016163874" />
    <rect
       ry="0.016163874"
       y="140.75951"
       x="86.239105"
       height="1.862828"
       width="34.854351"
       id="rect881"
       style="opacity:1;fill:#e1e1e1;fill-opacity:1;stroke:none;stroke-width:0.0452895;stroke-miterlimit:4;stroke-dasharray:none;stroke-opacity:1;paint-order:stroke fill markers" />
    <path
       sodipodi:nodetypes="sssssssss"
       d="m 86.609638,92.230804 h 28.530112 c 0.009,0 0.0158,0.007 0.0158,0.01581 v 1.830481 c 0,0.0088 -0.007,0.01581 -0.0158,0.01581 l -28.494779,0.257627 c -0.009,8.8e-5 -0.627678,-0.02423 -0.626463,-0.03301 l 0.277197,-2.026793 c 0.0012,-0.0088 0.304975,-0.06058 0.313933,-0.06058 z"
       style="opacity:1;fill:#aaaaaa;fill-opacity:1;stroke:none;stroke-width:0.0409984;stroke-miterlimit:4;stroke-dasharray:none;stroke-opacity:1;paint-order:stroke fill markers"
       id="rect2958" />
    <g
       id="g889"
       inkscape:export-filename="/home/omkarpathak/Documents/GIT/illustrations/pngs/parser2.png"
       inkscape:export-xdpi="300"
       inkscape:export-ydpi="300"
       transform="rotate(-10.74648,123.26284,131.19914)">
      <path
         style="opacity:1;fill:#ffffff;fill-opacity:1;stroke:none;stroke-width:0.0433879;stroke-miterlimit:4;stroke-dasharray:none;stroke-opacity:1;paint-order:stroke fill markers"
         id="path841"
         sodipodi:type="arc"
         sodipodi:cx="103.58162"
         sodipodi:cy="88.089508"
         sodipodi:rx="1.5220611"
         sodipodi:ry="1.4851611"
         sodipodi:start="0"
         sodipodi:end="6.2767974"
         sodipodi:open="true"
         sodipodi:arc-type="arc"
         d="m 105.10368,88.089508 a 1.5220611,1.4851611 0 0 1 -1.51963,1.485159 1.5220611,1.4851611 0 0 1 -1.52448,-1.480415 1.5220611,1.4851611 0 0 1 1.51476,-1.489888 1.5220611,1.4851611 0 0 1 1.52932,1.475657" />
      <path
         d="M 50.135841,151.86023 A 15.064568,14.528633 0 0 1 35.095332,166.38884 15.064568,14.528633 0 0 1 20.006783,151.90663 15.064568,14.528633 0 0 1 34.999101,137.33176 15.064568,14.528633 0 0 1 50.135534,151.76742"
         sodipodi:arc-type="arc"
         sodipodi:open="true"
         sodipodi:end="6.2767974"
         sodipodi:start="0"
         sodipodi:ry="14.528633"
         sodipodi:rx="15.064568"
         sodipodi:cy="151.86023"
         sodipodi:cx="35.071274"
         sodipodi:type="arc"
         id="path885"
         style="opacity:0.575738;fill:#f9f9f9;fill-opacity:1;stroke:none;stroke-width:0.0305423;stroke-miterlimit:4;stroke-dasharray:none;stroke-opacity:1;paint-order:stroke fill markers"
         transform="matrix(0.77890518,-0.62714171,0.60830654,0.79370218,0,0)" />
      <rect
         style="opacity:1;fill:#353771;fill-opacity:0.995703;stroke:none;stroke-width:0.0383642;stroke-miterlimit:4;stroke-dasharray:none;stroke-opacity:1;paint-order:stroke fill markers"
         id="rect914"
         width="3.7525079"
         height="22.351265"
         x="31.603247"
         y="171.9864"
         ry="0.024821477"
         transform="rotate(-38.151353)" />
      <g
         id="g2912"
         style="fill:#1b1c39;fill-opacity:0.840122"
         transform="matrix(0.59021848,0,0,0.59021848,43.102597,48.039084)">
        <path
           d="m 132.05905,54.124022 a 30.829546,32.153931 51.848647 0 0 -20.5357,7.192843 30.829546,32.153931 51.848647 0 0 -6.05854,44.088815 30.829546,32.153931 51.848647 0 0 44.30944,4.27159 30.829546,32.153931 51.848647 0 0 6.20013,-44.074877 l -0.12247,-0.153998 A 30.829546,32.153931 51.848647 0 0 132.05905,54.124022 Z m -0.81081,6.183604 a 24.873892,25.942432 51.848647 0 1 19.38125,9.136393 l 0.0987,0.124539 a 24.873892,25.942432 51.848647 0 1 -5.00279,35.560642 24.873892,25.942432 51.848647 0 1 -35.74976,-3.44683 24.873892,25.942432 51.848647 0 1 4.88859,-35.571482 24.873892,25.942432 51.848647 0 1 16.38401,-5.803262 z"
           style="opacity:1;fill:#353771;fill-opacity:0.995703;stroke:none;stroke-width:0.0649999;stroke-miterlimit:4;stroke-dasharray:none;stroke-opacity:1;paint-order:stroke fill markers"
           id="path887" />
        <path
           d="m 143.42558,112.85941 a 7.2113552,7.2928212 51.848647 0 0 1.25755,2.44243 7.2113552,7.2928212 51.848647 0 0 10.18454,1.1404 7.2113552,7.2928212 51.848647 0 0 1.27099,-10.1689 l -0.0288,-0.0359 a 7.2113552,7.2928212 51.848647 0 0 -1.99209,-1.72281 30.829546,32.153931 51.848647 0 1 -4.79562,4.62216 30.829546,32.153931 51.848647 0 1 -5.89656,3.72257 z"
           style="opacity:1;fill:#343670;fill-opacity:0.996078;stroke:none;stroke-width:0.0649999;stroke-miterlimit:4;stroke-dasharray:none;stroke-opacity:1;paint-order:stroke fill markers"
           id="path898" />
        <rect
           transform="rotate(-38.151353)"
           ry="0.042054728"
           y="186.3526"
           x="49.549816"
           height="33.793629"
           width="3.2041504"
           id="rect916"
           style="opacity:1;fill:#2b2d5d;fill-opacity:0.996078;stroke:none;stroke-width:0.0649999;stroke-miterlimit:4;stroke-dasharray:none;stroke-opacity:1;paint-order:stroke fill markers" />
      </g>
      <path
         style="fill:#2b2d5d;fill-opacity:0.996078;stroke:none;stroke-width:0.156162px;stroke-linecap:butt;stroke-linejoin:miter;stroke-opacity:1"
         d="m 133.16455,118.21033 c 0,0 1.22511,-1.0999 1.88123,-0.87932 0.92508,0.31099 0.48649,-2.03285 0.48649,-2.03285 l -2.89425,2.27362 z"
         id="path918"
         sodipodi:nodetypes="csccc" />
      <path
         style="opacity:1;fill:url(#pattern2890);fill-opacity:1;stroke:url(#pattern2862);stroke-width:0.03067;stroke-miterlimit:4;stroke-dasharray:none;stroke-opacity:1;paint-order:stroke fill markers"
         id="path920"
         sodipodi:type="arc"
         sodipodi:cx="34.301773"
         sodipodi:cy="151.81973"
         sodipodi:rx="15.248533"
         sodipodi:ry="14.661253"
         sodipodi:start="0"
         sodipodi:end="6.2767974"
         sodipodi:open="true"
         sodipodi:arc-type="arc"
         d="M 49.550306,151.81973 A 15.248533,14.661253 0 0 1 34.326125,166.48097 15.248533,14.661253 0 0 1 19.053318,151.86656 15.248533,14.661253 0 0 1 34.228719,137.15865 15.248533,14.661253 0 0 1 49.549995,151.72608"
         transform="matrix(0.78283294,-0.62223194,0.61324228,0.78989487,0,0)" />
    </g>
    <g
       id="g2932"
       style="fill:#f2f2f2;stroke:#000000;stroke-opacity:1"
       transform="matrix(0.59021848,0,0,0.59021848,40.88993,40.000515)" />
    <g
       id="g2956"
       transform="matrix(0.42654647,0,0,0.42654647,49.721399,59.64805)">
      <path
         transform="matrix(0.26458333,0,0,0.26458333,13.803065,7.269652)"
         d="m 151.67773,159.26953 a 90.329163,93.49621 0 0 0 -89.894527,93.79297 90.329163,93.49621 0 0 0 90.472657,93.19727 90.329163,93.49621 0 0 0 63.04102,-26.68165 l 63.0039,45.39454 L 234.75,290.51367 a 90.329163,93.49621 0 0 0 7.69141,-37.75 l -0.002,-0.5957 a 90.329163,93.49621 0 0 0 -90.76172,-92.89844 z"
         style="fill:#f2f2f2;fill-opacity:0.996078;stroke:#000000;stroke-width:0.999999px;stroke-linecap:butt;stroke-linejoin:miter;stroke-opacity:1"
         id="path2907" />
      <rect
         ry="0.042054728"
         y="62.463688"
         x="41.027046"
         height="1.5364474"
         width="10.637345"
         id="rect2934"
         style="opacity:1;fill:#999999;fill-opacity:0.996078;stroke:none;stroke-width:0.053;stroke-miterlimit:4;stroke-dasharray:none;stroke-opacity:1;paint-order:stroke fill markers" />
      <rect
         style="opacity:1;fill:#999999;fill-opacity:0.996078;stroke:none;stroke-width:0.053;stroke-miterlimit:4;stroke-dasharray:none;stroke-opacity:1;paint-order:stroke fill markers"
         id="rect2936"
         width="10.637345"
         height="1.5364474"
         x="42.014591"
         y="84.375793"
         ry="0.042054728" />
      <rect
         style="opacity:1;fill:#cccccc;fill-opacity:0.996078;stroke:none;stroke-width:0.0826554;stroke-miterlimit:4;stroke-dasharray:none;stroke-opacity:1;paint-order:stroke fill markers"
         id="rect2938"
         width="25.871632"
         height="1.5364474"
         x="41.027046"
         y="66.167854"
         ry="0.042054728" />
      <rect
         ry="0.042054728"
         y="69.872017"
         x="41.027054"
         height="1.5364474"
         width="25.871632"
         id="rect2940"
         style="opacity:1;fill:#cccccc;fill-opacity:0.996078;stroke:none;stroke-width:0.0826554;stroke-miterlimit:4;stroke-dasharray:none;stroke-opacity:1;paint-order:stroke fill markers" />
      <rect
         style="opacity:1;fill:#cccccc;fill-opacity:0.996078;stroke:none;stroke-width:0.0826554;stroke-miterlimit:4;stroke-dasharray:none;stroke-opacity:1;paint-order:stroke fill markers"
         id="rect2942"
         width="25.871632"
         height="1.5364474"
         x="41.20853"
         y="76.684891"
         ry="0.042054728" />
      <rect
         ry="0.042054728"
         y="72.908394"
         x="41.136642"
         height="1.5364474"
         width="25.871632"
         id="rect2944"
         style="opacity:1;fill:#cccccc;fill-opacity:0.996078;stroke:none;stroke-width:0.0826554;stroke-miterlimit:4;stroke-dasharray:none;stroke-opacity:1;paint-order:stroke fill markers" />
    </g>
  </g>
</svg>
