<?xml version="1.0" encoding="UTF-8" standalone="no"?>
<svg
   xmlns:dc="http://purl.org/dc/elements/1.1/"
   xmlns:cc="http://creativecommons.org/ns#"
   xmlns:rdf="http://www.w3.org/1999/02/22-rdf-syntax-ns#"
   xmlns:svg="http://www.w3.org/2000/svg"
   xmlns="http://www.w3.org/2000/svg"
   xmlns:xlink="http://www.w3.org/1999/xlink"
   xmlns:sodipodi="http://sodipodi.sourceforge.net/DTD/sodipodi-0.dtd"
   xmlns:inkscape="http://www.inkscape.org/namespaces/inkscape"
   sodipodi:docname="skills.svg"
   inkscape:version="1.0 (6e3e5246a0, 2020-05-07)"
   id="svg937"
   version="1.1"
   viewBox="0 0 297 210"
   height="210mm"
   width="297mm">
  <defs
     id="defs931">
    <linearGradient
       id="linearGradient3959"
       inkscape:collect="always">
      <stop
         id="stop3955"
         offset="0"
         style="stop-color:#c7c8ee;stop-opacity:1;" />
      <stop
         id="stop3957"
         offset="1"
         style="stop-color:#787bd8;stop-opacity:1" />
    </linearGradient>
    <filter
       height="1.1080488"
       y="-0.054024378"
       width="1.1266022"
       x="-0.063301082"
       id="filter3907"
       style="color-interpolation-filters:sRGB"
       inkscape:collect="always">
      <feGaussianBlur
         id="feGaussianBlur3909"
         stdDeviation="0.77494332"
         inkscape:collect="always" />
    </filter>
    <filter
       height="1.2411268"
       y="-0.12056338"
       width="1.1449255"
       x="-0.072462753"
       id="filter3945"
       style="color-interpolation-filters:sRGB"
       inkscape:collect="always">
      <feGaussianBlur
         id="feGaussianBlur3947"
         stdDeviation="5.0625313"
         inkscape:collect="always" />
    </filter>
    <linearGradient
       gradientUnits="userSpaceOnUse"
       y2="147.5812"
       x2="323.77605"
       y1="147.5812"
       x1="5.020546"
       id="linearGradient3961"
       xlink:href="#linearGradient3959"
       inkscape:collect="always" />
    <linearGradient
       gradientTransform="matrix(1.6602624,0,0,2.5289443,99.882873,-137.36764)"
       gradientUnits="userSpaceOnUse"
       y2="85.636681"
       x2="79.419136"
       y1="89.378456"
       x1="81.944832"
       id="linearGradient1001"
       xlink:href="#linearGradient999"
       inkscape:collect="always" />
    <linearGradient
       id="linearGradient999"
       inkscape:collect="always">
      <stop
         id="stop995"
         offset="0"
         style="stop-color:#d6976d;stop-opacity:1;" />
      <stop
         id="stop997"
         offset="1"
         style="stop-color:#d6976d;stop-opacity:0;" />
    </linearGradient>
  </defs>
  <sodipodi:namedview
     inkscape:window-maximized="1"
     inkscape:window-y="0"
     inkscape:window-x="0"
     inkscape:window-height="813"
     inkscape:window-width="1600"
     showgrid="false"
     inkscape:document-rotation="0"
     inkscape:current-layer="layer1"
     inkscape:document-units="mm"
     inkscape:cy="273.16357"
     inkscape:cx="96.548411"
     inkscape:zoom="1.0246491"
     inkscape:pageshadow="2"
     inkscape:pageopacity="0.0"
     borderopacity="1.0"
     bordercolor="#666666"
     pagecolor="#ffffff"
     id="base" />
  <metadata
     id="metadata934">
    <rdf:RDF>
      <cc:Work
         rdf:about="">
        <dc:format>image/svg+xml</dc:format>
        <dc:type
           rdf:resource="http://purl.org/dc/dcmitype/StillImage" />
        <dc:title />
      </cc:Work>
    </rdf:RDF>
  </metadata>
  <g
     id="layer1"
     inkscape:groupmode="layer"
     inkscape:label="Layer 1">
    <path
       style="opacity:1;fill:#ebebeb;fill-opacity:0.99607843;stroke:#000000;stroke-width:0.141;stroke-linecap:butt;stroke-linejoin:miter;stroke-miterlimit:4;stroke-dasharray:none;stroke-opacity:1"
       d="m 42.548085,26.377356 3.52739,1.125977 c 0,0 3.108696,-0.579775 4.65304,-0.225133 1.11779,0.466462 1.862415,1.056713 2.626617,1.876271 0.780683,1.196511 1.131014,2.078133 1.271376,3.108588 -0.205286,1.561812 -0.363069,3.010992 -0.821213,4.322277 0,0 0.989855,1.416609 1.125629,2.251722 0.137443,0.844728 -0.129537,1.576434 -0.542745,2.477085 -0.306646,1.086416 -1.076287,2.092096 -1.33349,3.227394 -0.216841,0.955074 0.03446,1.9402 -0.375367,2.777299 -0.188595,0.380569 -0.492538,0.784548 -0.900509,0.900597 -1.083882,0.30793 -2.232594,0.393004 -3.390123,0.302252 l -0.287185,0.223261 -1.593563,3.832894 -9.114044,-0.09247 v 0 l 0.277589,-3.410402 c -0.645861,-1.352815 -2.281914,-3.874471 -2.281914,-3.874471 0,0 -1.666043,-5.734023 -0.05338,-5.148228 1.37629,0.499904 1.658528,-0.989976 1.658528,-0.989976 0,0 -0.226437,0.934465 -0.647618,1.069496 -0.584167,0.187042 -1.33005,-0.166499 -1.894851,-0.57518 -0.913646,-0.661133 -1.483724,-1.811905 -1.562412,-3.196505 -0.02703,-0.499566 0.802718,-0.90061 0.802718,-0.90061 0.796528,-0.423277 1.962964,-0.367124 2.701947,0.150147 0.780683,0.546258 1.125649,2.626966 1.125649,2.626966 h 2.101388 l -0.525102,-3.677893 2.701792,-3.377489 z"
       id="path826-3"
       inkscape:connector-curvature="0"
       sodipodi:nodetypes="ccccccscscccccccccscccccsccccc" />
    <path
       style="opacity:1;fill:#4d4d4d;fill-opacity:1;stroke:#000000;stroke-width:0.141;stroke-linecap:butt;stroke-linejoin:miter;stroke-miterlimit:4;stroke-dasharray:none;stroke-opacity:1"
       d="m 54.334242,31.241988 2.918714,-1.963758 1.326711,-1.75146 -1.16749,-1.69838 1.008264,-1.698388 c 0,0 -1.373587,-1.636412 -2.175759,-2.335284 -1.206337,-1.050977 -2.683453,-1.066446 -3.776917,-2.234455 -0.651132,-0.695464 -0.348878,-1.522128 -1.073117,-2.141206 -0.74191,-0.634056 -3.344478,-1.152085 -3.344478,-1.152085 0,0 0.960231,0.726311 0.446724,1.122568 -0.419357,0.323823 -0.938749,-0.882072 -1.432882,-0.690011 -0.533015,0.207152 -0.07048,1.557079 -0.637077,1.592241 -0.987739,0.06075 -1.695538,-0.874335 -1.695538,-0.874335 0,0 -2.046058,-1.127143 -3.304643,-0.703928 -0.674039,0.226788 -1.976364,1.033053 -1.976364,1.033053 0,0 1.409962,-0.631151 1.881992,-0.09171 0.164742,0.188285 0.26698,0.551232 0.105684,0.743047 -0.659038,0.787108 -2.056546,0.209165 -3.077937,0.106191 -0.904996,-0.09128 -2.653511,-0.636874 -2.653511,-0.636874 0,0 1.360018,0.759968 1.273673,1.379937 -0.206097,1.478539 -2.732531,1.313664 -3.820893,2.335288 -1.796343,1.686169 -3.786194,3.629792 -4.245433,6.050492 -0.295226,1.55561 0.842356,3.057755 1.114351,4.617492 0.223869,1.27981 0.321646,2.579344 0.424695,3.874445 0.05338,0.706303 -0.170959,1.470937 0.105684,2.122988 0.313741,0.737139 1.27983,1.038622 1.645149,1.751468 0.378002,0.737943 0.07048,1.71656 0.477537,2.44142 0.340094,0.61275 1.538972,1.433019 1.538972,1.433019 l 1.167489,1.326867 -0.05338,-5.148248 c 0,0 -1.154455,-0.571058 -1.538971,-1.061481 -0.584235,-0.744639 -0.954697,-1.693288 -1.008356,-2.653739 -0.02703,-0.537205 0.687297,-0.801813 1.186248,-1.001984 0.689905,-0.276306 1.49484,-0.305565 2.153817,0.03784 0.383273,0.199475 0.799184,0.911388 0.799184,0.911388 l 0.592005,1.952584 h 2.101368 l -0.525109,-3.677894 2.701786,-3.377654 0.75072,-4.803764 c 0,0 2.303599,0.965507 3.527296,1.125882 1.539681,0.201779 3.163315,-0.663227 4.653114,-0.225132 1.032337,0.303544 1.938043,1.049636 2.626719,1.876475 0.491592,0.590526 0.979015,2.087447 0.979015,2.087447 z"
       id="path847-6"
       inkscape:connector-curvature="0"
       sodipodi:nodetypes="cccccssscssscscssscsssssssscccssssccccccssscc" />
    <path
       style="fill:url(#linearGradient1001);fill-opacity:1;stroke:none;stroke-width:0.130187px;stroke-linecap:butt;stroke-linejoin:miter;stroke-opacity:1"
       d="m 46.508725,46.623017 c 0,0 -2.337263,-0.902827 -4.95411,-2.70492 -2.085264,-1.435944 -4.2907,-3.606195 -4.405689,-5.161613 -0.182447,-2.473556 3.359797,-0.611467 5.275804,-0.601196 3.373453,0.01757 8.116108,7.840801 8.116108,7.840801 l -4.748898,0.435306 z"
       id="path993"
       inkscape:connector-curvature="0"
       sodipodi:nodetypes="csssccc" />
    <path
       style="opacity:0.949401;fill:#f0f0f0;fill-opacity:0.996078;stroke:none;stroke-width:0.593007;stroke-miterlimit:4;stroke-dasharray:none;stroke-opacity:1;paint-order:stroke fill markers"
       id="path4038"
       sodipodi:type="arc"
       sodipodi:cx="52.316856"
       sodipodi:cy="179.23328"
       sodipodi:rx="48.298676"
       sodipodi:ry="3.8636179"
       sodipodi:start="0"
       sodipodi:end="6.2767974"
       sodipodi:open="true"
       sodipodi:arc-type="arc"
       d="m 100.61553,179.23328 a 48.298676,3.8636179 0 0 1 -48.221542,3.86361 48.298676,3.8636179 0 0 1 -48.3755608,-3.85127 48.298676,3.8636179 0 0 1 48.0670348,-3.87592 48.298676,3.8636179 0 0 1 48.529088,3.8389" />
    <path
       d="m 281.58916,173.41252 a 48.298676,3.8636179 0 0 1 -48.22155,3.86361 48.298676,3.8636179 0 0 1 -48.37556,-3.85127 48.298676,3.8636179 0 0 1 48.06704,-3.87591 48.298676,3.8636179 0 0 1 48.52908,3.83889"
       sodipodi:arc-type="arc"
       sodipodi:open="true"
       sodipodi:end="6.2767974"
       sodipodi:start="0"
       sodipodi:ry="3.8636179"
       sodipodi:rx="48.298676"
       sodipodi:cy="173.41252"
       sodipodi:cx="233.29048"
       sodipodi:type="arc"
       id="path4036"
       style="opacity:0.949401;fill:#f0f0f0;fill-opacity:0.996078;stroke:none;stroke-width:0.593007;stroke-miterlimit:4;stroke-dasharray:none;stroke-opacity:1;paint-order:stroke fill markers" />
    <g
       transform="translate(17.462505,-15.345837)"
       id="g4034">
      <path
         style="fill:#b2b3f8;fill-opacity:0.556502;stroke:none;stroke-width:0.264583px;stroke-linecap:butt;stroke-linejoin:miter;stroke-opacity:1"
         d="m 197.44168,190.08516 5.91757,-113.624692 3.9676,114.422272 z"
         id="path4019"
         sodipodi:nodetypes="cccc" />
      <path
         sodipodi:nodetypes="cccc"
         id="path4021"
         d="M 206.42881,174.16289 241.11026,139.39734 206.64991,179.299 Z"
         style="fill:#b2b3f8;fill-opacity:0.556502;stroke:none;stroke-width:0.0822511px;stroke-linecap:butt;stroke-linejoin:miter;stroke-opacity:1" />
      <path
         style="fill:#b2b3f8;fill-opacity:0.556502;stroke:none;stroke-width:0.0456444px;stroke-linecap:butt;stroke-linejoin:miter;stroke-opacity:1"
         d="m 205.37047,139.83599 18.59346,-19.97002 -18.47492,22.9203 z"
         id="path4023"
         sodipodi:nodetypes="cccc" />
      <path
         sodipodi:nodetypes="cccc"
         id="path4025"
         d="m 200.68045,127.66508 -18.59346,-19.97002 18.47492,22.9203 z"
         style="fill:#b2b3f8;fill-opacity:0.556502;stroke:none;stroke-width:0.0456444px;stroke-linecap:butt;stroke-linejoin:miter;stroke-opacity:1" />
      <path
         style="fill:#b2b3f8;fill-opacity:0.556502;stroke:none;stroke-width:0.0822511px;stroke-linecap:butt;stroke-linejoin:miter;stroke-opacity:1"
         d="m 198.77666,167.28368 -34.68145,-34.76555 34.46035,39.90166 z"
         id="path4027"
         sodipodi:nodetypes="cccc" />
      <path
         sodipodi:nodetypes="cccc"
         id="path3446"
         d="m 197.44168,190.08516 5.91757,-113.624692 3.9676,114.422272 z"
         style="fill:#b2b3f8;fill-opacity:0.556502;stroke:none;stroke-width:0.264583px;stroke-linecap:butt;stroke-linejoin:miter;stroke-opacity:1" />
    </g>
    <path
       style="fill:#e6e6e6;fill-opacity:0.99607801;stroke:none;stroke-width:0.237029px;stroke-linecap:butt;stroke-linejoin:miter;stroke-opacity:1"
       d="m 72.736406,56.495375 c 0,0 2.810615,-4.696971 4.364223,-3.620427 0.612815,0.424637 -0.782255,1.637031 -0.732485,2.113338 0.04982,0.476307 2.603716,-0.405704 4.105717,-2.110918 1.501964,-1.705213 4.889273,1.867783 4.848853,3.952669 -0.0828,4.269433 -10.23578,7.703365 -10.23578,7.703365 z"
       id="path3951"
       sodipodi:nodetypes="cassacc" />
    <g
       transform="matrix(0.89586192,0,0,0.89586192,-65.508379,-15.133366)"
       id="g1510">
      <rect
         transform="matrix(0.96611442,0,0,0.92992875,11.058697,11.670611)"
         style="opacity:0.949401;fill:#b7b7b7;fill-opacity:1;stroke:none;stroke-width:0.499999;stroke-miterlimit:4;stroke-dasharray:none;paint-order:stroke fill markers;filter:url(#filter3945)"
         id="rect3939"
         width="167.67339"
         height="100.7775"
         x="162.5676"
         y="38.708004"
         ry="0.017938301" />
      <path
         sodipodi:nodetypes="cccc"
         id="path3873"
         d="m 119.87689,80.2945 c 15.51683,15.944349 17.15511,4.810741 34.22879,-2.66771 l 3.59345,13.199316 c -21.65829,13.890334 -24.98978,15.941714 -39.93679,-7.388341"
         style="fill:#7072dc;fill-opacity:1;stroke:none;stroke-width:0.18799px;stroke-linecap:butt;stroke-linejoin:miter;stroke-opacity:1" />
      <path
         sodipodi:nodetypes="ccccccc"
         id="path1516"
         d="m 121.86844,178.81675 7.17858,31.51763 14.06021,-0.53498 -3.09906,-38.36913 -6.0095,-32.23448 -16.1916,4.08554 z"
         style="fill:#ececec;stroke:none;stroke-width:0.264583px;stroke-linecap:butt;stroke-linejoin:miter;stroke-opacity:1" />
      <path
         style="fill:#050533;fill-opacity:0.718923;stroke:none;stroke-width:0.264583px;stroke-linecap:butt;stroke-linejoin:miter;stroke-opacity:1"
         d="m 121.33927,178.81675 7.17858,31.51763 14.06021,-0.53498 -2.56989,-38.36913 -6.53867,-32.23448 -16.1916,4.08554 z"
         id="path3853"
         sodipodi:nodetypes="ccccccc" />
      <path
         sodipodi:nodetypes="ccccccc"
         id="path1514"
         d="m 102.09675,141.07042 0.75428,25.89705 -18.825734,44.73041 13.34875,-0.3584 27.295114,-43.17694 3.39354,-27.13869 z"
         style="fill:#f2f2f2;stroke:none;stroke-width:0.264583px;stroke-linecap:butt;stroke-linejoin:miter;stroke-opacity:1" />
      <g
         id="g905">
        <path
           style="fill:#ececec;stroke:none;stroke-width:0.5;stroke-linecap:butt;stroke-linejoin:miter;stroke-miterlimit:4;stroke-dasharray:none;stroke-opacity:1"
           d="m 128.58156,74.991511 c -17.35597,-0.631617 -17.48902,-0.631617 -17.48902,-0.631617 0,0 -10.62595,21.954483 -12.26474,42.008476 -1.063755,13.01727 -5.92749,22.43508 -5.92749,22.43508 0,0 2.598021,2.14794 8.35166,2.14794 16.39728,0 36.11618,2.08397 32.34223,-1.90644 -4.90403,-5.18532 3.47122,-26.33367 1.98685,-39.399467 -0.96432,-8.488176 -6.99949,-24.653972 -6.99949,-24.653972 z"
           id="path1512"
           sodipodi:nodetypes="ccscssac" />
        <path
           sodipodi:nodetypes="ccssssac"
           id="path1520"
           d="m 128.58156,74.991511 c -17.35597,-0.631617 -17.48902,-0.631617 -17.48902,-0.631617 0,0 -10.62595,21.954483 -12.26474,42.008476 -1.125813,13.77668 -5.948384,22.57483 -5.948384,22.57483 0.711566,1.22479 8.372554,2.00819 8.372554,2.00819 16.39728,0 37.05933,1.82604 33.28538,-2.16437 -4.90403,-5.18532 2.89594,-25.74855 1.32282,-38.48906 -1.07562,-8.711307 -7.27861,-25.306449 -7.27861,-25.306449 z"
           style="fill:#7779f3;fill-opacity:0.615719;stroke:none;stroke-width:0.5;stroke-linecap:butt;stroke-linejoin:miter;stroke-miterlimit:4;stroke-dasharray:none;stroke-opacity:1" />
      </g>
      <path
         style="fill:#7072dc;fill-opacity:1;stroke:none;stroke-width:0.18799px;stroke-linecap:butt;stroke-linejoin:miter;stroke-opacity:1"
         d="m 128.58156,74.991511 c 1.38441,27.610529 6.45565,32.796839 25.7442,21.838944 l 0.14116,13.678995 C 121.00432,123.81974 119.65855,100.71 111.09254,74.359894"
         id="path1522"
         sodipodi:nodetypes="cccc" />
      <path
         style="fill:#070851;fill-opacity:0.622791;stroke:none;stroke-width:0.264583px;stroke-linecap:butt;stroke-linejoin:miter;stroke-opacity:1"
         d="m 102.09675,141.07042 0.75428,25.89705 -18.825734,44.73041 13.34875,-0.3584 27.295114,-43.17694 3.39354,-27.13869 z"
         id="path3851"
         sodipodi:nodetypes="ccccccc" />
      <path
         sodipodi:nodetypes="ccsssscc"
         id="path3875"
         d="m 84.009943,211.69788 13.364103,-0.3584 c 0,0 5.237774,2.82545 8.059454,5.69361 2.04919,2.08295 -9.173498,1.65779 -16.563968,1.19053 -0.995268,-0.0629 -1.458201,-0.82228 -2.274051,-0.84385 -0.720843,-0.0191 -0.726201,0.46323 -1.244505,0.73711 -0.942198,0.49786 -2.13019,0.23078 -2.13019,0.23078 z"
         style="fill:#000000;stroke:#000000;stroke-width:0.194748px;stroke-linecap:butt;stroke-linejoin:miter;stroke-opacity:1" />
      <path
         style="fill:#000000;stroke:#000000;stroke-width:0.194748px;stroke-linecap:butt;stroke-linejoin:miter;stroke-opacity:1"
         d="m 128.46013,209.5812 13.36418,-0.3584 c 0,0 6.80279,2.82545 9.62447,5.69361 2.04919,2.08295 -10.73852,1.65779 -18.12903,1.19053 -0.99528,-0.0629 -1.45821,-0.82228 -2.27407,-0.84385 -0.72084,-0.0191 -0.7262,0.46323 -1.24451,0.73711 -0.9422,0.49786 -2.1302,0.23078 -2.1302,0.23078 z"
         id="path3877"
         sodipodi:nodetypes="ccsssscc" />
      <rect
         ry="0.017938301"
         y="38.708004"
         x="162.5676"
         height="100.7775"
         width="167.67339"
         id="rect3879"
         style="opacity:0.949401;fill:#f2f2f2;fill-opacity:1;stroke:none;stroke-width:0.499999;stroke-miterlimit:4;stroke-dasharray:none;paint-order:stroke fill markers" />
      <rect
         ry="0.018054241"
         y="38.708004"
         x="162.5676"
         height="100.7775"
         width="40.240738"
         id="rect3881"
         style="opacity:0.949401;fill:#7779f3;fill-opacity:1;stroke:none;stroke-width:0.541993;stroke-miterlimit:4;stroke-dasharray:none;paint-order:stroke fill markers" />
      <rect
         ry="0.013291486"
         y="52.677841"
         x="166.6756"
         height="5.0637245"
         width="31.660295"
         id="rect3883"
         style="opacity:0.949401;fill:#696bf1;fill-opacity:1;stroke:none;stroke-width:0.430393;stroke-miterlimit:4;stroke-dasharray:none;paint-order:stroke fill markers" />
      <rect
         style="opacity:0.949401;fill:#4b4ed3;fill-opacity:1;stroke:none;stroke-width:0.430393;stroke-miterlimit:4;stroke-dasharray:none;paint-order:stroke fill markers"
         id="rect3885"
         width="31.660295"
         height="5.0637245"
         x="166.6756"
         y="62.20285"
         ry="0.013291486" />
      <rect
         ry="0.013291486"
         y="71.198692"
         x="166.6756"
         height="5.0637245"
         width="31.660295"
         id="rect3887"
         style="opacity:0.949401;fill:#696bf1;fill-opacity:1;stroke:none;stroke-width:0.430393;stroke-miterlimit:4;stroke-dasharray:none;paint-order:stroke fill markers" />
      <rect
         style="opacity:0.949401;fill:#696bf1;fill-opacity:1;stroke:none;stroke-width:0.430393;stroke-miterlimit:4;stroke-dasharray:none;paint-order:stroke fill markers"
         id="rect3889"
         width="31.660295"
         height="5.0637245"
         x="166.6756"
         y="79.665367"
         ry="0.013291486" />
      <rect
         style="opacity:0.949401;fill:#858585;fill-opacity:1;stroke:none;stroke-width:0.499999;stroke-miterlimit:4;stroke-dasharray:none;paint-order:stroke fill markers;filter:url(#filter3907)"
         id="rect3905"
         width="29.381235"
         height="34.426384"
         x="221.09975"
         y="51.848087"
         ry="0.017938301" />
      <rect
         ry="0.017938301"
         y="51.31892"
         x="220.04143"
         height="34.426384"
         width="29.381235"
         id="rect3891"
         style="opacity:0.949401;fill:#ffffff;fill-opacity:1;stroke:none;stroke-width:0.499999;stroke-miterlimit:4;stroke-dasharray:none;paint-order:stroke fill markers" />
      <rect
         ry="0.017938301"
         y="51.848087"
         x="262.37439"
         height="34.426384"
         width="29.381235"
         id="rect3911"
         style="opacity:0.949401;fill:#858585;fill-opacity:1;stroke:none;stroke-width:0.499999;stroke-miterlimit:4;stroke-dasharray:none;paint-order:stroke fill markers;filter:url(#filter3907)" />
      <rect
         style="opacity:0.949401;fill:#ffffff;fill-opacity:1;stroke:none;stroke-width:0.499999;stroke-miterlimit:4;stroke-dasharray:none;paint-order:stroke fill markers"
         id="rect3913"
         width="29.381235"
         height="34.426384"
         x="261.31604"
         y="51.31892"
         ry="0.017938301" />
      <rect
         style="opacity:0.949401;fill:#858585;fill-opacity:1;stroke:none;stroke-width:0.499999;stroke-miterlimit:4;stroke-dasharray:none;paint-order:stroke fill markers;filter:url(#filter3907)"
         id="rect3915"
         width="29.381235"
         height="34.426384"
         x="262.37439"
         y="94.181458"
         ry="0.017938301" />
      <rect
         ry="0.017938301"
         y="93.65229"
         x="261.31604"
         height="34.426384"
         width="29.381235"
         id="rect3917"
         style="opacity:0.949401;fill:#ffffff;fill-opacity:1;stroke:none;stroke-width:0.499999;stroke-miterlimit:4;stroke-dasharray:none;paint-order:stroke fill markers" />
      <rect
         ry="0.017938301"
         y="94.181458"
         x="222.15808"
         height="34.426384"
         width="29.381235"
         id="rect3919"
         style="opacity:0.949401;fill:#858585;fill-opacity:1;stroke:none;stroke-width:0.499999;stroke-miterlimit:4;stroke-dasharray:none;paint-order:stroke fill markers;filter:url(#filter3907)" />
      <rect
         style="opacity:0.949401;fill:#ffffff;fill-opacity:1;stroke:none;stroke-width:0.499999;stroke-miterlimit:4;stroke-dasharray:none;paint-order:stroke fill markers"
         id="rect3921"
         width="29.381235"
         height="34.426384"
         x="221.09976"
         y="93.65229"
         ry="0.017938301" />
      <rect
         ry="0.017938301"
         y="75.952415"
         x="220.04231"
         height="9.7928848"
         width="29.380352"
         id="rect3923"
         style="opacity:0.949401;fill:#ececec;fill-opacity:1;stroke:#929292;stroke-width:0.499999;stroke-miterlimit:4;stroke-dasharray:none;stroke-opacity:1;paint-order:stroke fill markers" />
      <rect
         style="opacity:0.949401;fill:#ececec;fill-opacity:1;stroke:#929292;stroke-width:0.499999;stroke-miterlimit:4;stroke-dasharray:none;stroke-opacity:1;paint-order:stroke fill markers"
         id="rect3925"
         width="29.380352"
         height="9.7928848"
         x="261.31693"
         y="75.952415"
         ry="0.017938301" />
      <rect
         ry="0.017938301"
         y="118.28577"
         x="261.31693"
         height="9.7928848"
         width="29.380352"
         id="rect3927"
         style="opacity:0.949401;fill:#ececec;fill-opacity:1;stroke:#929292;stroke-width:0.499999;stroke-miterlimit:4;stroke-dasharray:none;stroke-opacity:1;paint-order:stroke fill markers" />
      <rect
         style="opacity:0.949401;fill:#ececec;fill-opacity:1;stroke:#929292;stroke-width:0.499999;stroke-miterlimit:4;stroke-dasharray:none;stroke-opacity:1;paint-order:stroke fill markers"
         id="rect3929"
         width="29.380352"
         height="9.7928848"
         x="221.10065"
         y="118.28577"
         ry="0.017938301" />
      <path
         d="m 241.45132,64.408897 a 7.0026684,6.3550529 0 0 1 -6.99148,6.355045 7.0026684,6.3550529 0 0 1 -7.01382,-6.334747 7.0026684,6.3550529 0 0 1 6.96909,-6.375278 7.0026684,6.3550529 0 0 1 7.03607,6.314385"
         sodipodi:arc-type="arc"
         sodipodi:open="true"
         sodipodi:end="6.2767974"
         sodipodi:start="0"
         sodipodi:ry="6.3550529"
         sodipodi:rx="7.0026684"
         sodipodi:cy="64.408897"
         sodipodi:cx="234.44865"
         sodipodi:type="arc"
         id="path3931"
         style="opacity:0.949401;fill:#ececec;fill-opacity:1;stroke:#929292;stroke-width:0.499999;stroke-miterlimit:4;stroke-dasharray:none;stroke-opacity:1;paint-order:stroke fill markers" />
      <path
         style="opacity:0.949401;fill:#ececec;fill-opacity:1;stroke:#929292;stroke-width:0.499999;stroke-miterlimit:4;stroke-dasharray:none;stroke-opacity:1;paint-order:stroke fill markers"
         id="path3933"
         sodipodi:type="arc"
         sodipodi:cx="274.66531"
         sodipodi:cy="64.408897"
         sodipodi:rx="7.0026684"
         sodipodi:ry="6.3550529"
         sodipodi:start="0"
         sodipodi:end="6.2767974"
         sodipodi:open="true"
         sodipodi:arc-type="arc"
         d="m 281.66798,64.408897 a 7.0026684,6.3550529 0 0 1 -6.99148,6.355045 7.0026684,6.3550529 0 0 1 -7.01382,-6.334747 7.0026684,6.3550529 0 0 1 6.96908,-6.375278 7.0026684,6.3550529 0 0 1 7.03608,6.314385" />
      <path
         d="m 281.66798,105.15477 a 7.0026684,6.3550529 0 0 1 -6.99148,6.35504 7.0026684,6.3550529 0 0 1 -7.01382,-6.33474 7.0026684,6.3550529 0 0 1 6.96908,-6.37528 7.0026684,6.3550529 0 0 1 7.03608,6.31438"
         sodipodi:arc-type="arc"
         sodipodi:open="true"
         sodipodi:end="6.2767974"
         sodipodi:start="0"
         sodipodi:ry="6.3550529"
         sodipodi:rx="7.0026684"
         sodipodi:cy="105.15477"
         sodipodi:cx="274.66531"
         sodipodi:type="arc"
         id="path3935"
         style="opacity:0.949401;fill:#ececec;fill-opacity:1;stroke:#929292;stroke-width:0.499999;stroke-miterlimit:4;stroke-dasharray:none;stroke-opacity:1;paint-order:stroke fill markers" />
      <path
         style="opacity:0.949401;fill:#ececec;fill-opacity:1;stroke:#929292;stroke-width:0.499999;stroke-miterlimit:4;stroke-dasharray:none;stroke-opacity:1;paint-order:stroke fill markers"
         id="path3937"
         sodipodi:type="arc"
         sodipodi:cx="236.03613"
         sodipodi:cy="105.15477"
         sodipodi:rx="7.0026684"
         sodipodi:ry="6.3550529"
         sodipodi:start="0"
         sodipodi:end="6.2767974"
         sodipodi:open="true"
         sodipodi:arc-type="arc"
         d="m 243.0388,105.15477 a 7.0026684,6.3550529 0 0 1 -6.99148,6.35504 7.0026684,6.3550529 0 0 1 -7.01382,-6.33474 7.0026684,6.3550529 0 0 1 6.96908,-6.37528 7.0026684,6.3550529 0 0 1 7.03608,6.31438" />
    </g>
    <path
       sodipodi:nodetypes="cassacc"
       id="path3949"
       d="m 72.702767,73.680921 c 0,0 3.960407,-3.778371 5.171049,-2.32681 0.477527,0.572558 -1.190127,1.369443 -1.269058,1.841795 -0.07895,0.472353 2.617702,0.302666 4.5197,-0.940742 1.902011,-1.243408 4.214946,3.102922 3.620529,5.101683 -1.217261,4.093064 -11.918193,4.697816 -11.918193,4.697816 z"
       style="fill:#e6e6e6;fill-opacity:0.99607801;stroke:none;stroke-width:0.237029px;stroke-linecap:butt;stroke-linejoin:miter;stroke-opacity:1" />
    <path
       id="path3981"
       d="m 258.12876,176.63925 c 0,0 15.76006,-18.76038 15.76006,-42.34297 0,-23.58259 -21.78523,-39.175429 -16.78299,-65.948398 5.00223,-26.772956 15.29979,-46.771485 15.29979,-46.771485"
       style="fill:none;stroke:#000000;stroke-width:0.253271px;stroke-linecap:butt;stroke-linejoin:miter;stroke-opacity:1" />
    <g
       transform="translate(-6.8791668,15.875004)"
       id="g3993">
      <path
         style="fill:#acadf8;fill-opacity:1;stroke:#a8aaf7;stroke-width:0.228607px;stroke-linecap:butt;stroke-linejoin:miter;stroke-opacity:1"
         d="m 274.58583,24.955873 c 1.54014,-1.744409 4.33384,-1.847012 6.63453,-1.913365 2.61739,-0.07549 7.66074,1.738133 7.66074,1.738133 0,0 -5.71544,12.499539 -11.43981,11.273031 -5.72435,-1.226504 -8.55692,-1.999672 -8.55692,-1.999672 0,0 2.85189,-5.888457 5.70146,-9.098127 z"
         id="path3983"
         sodipodi:nodetypes="cacscc" />
      <path
         style="fill:none;stroke:#d2d2fb;stroke-width:0.264583px;stroke-linecap:butt;stroke-linejoin:miter;stroke-opacity:1"
         d="m 268.88437,34.053999 16.11574,-7.903814"
         id="path3985" />
    </g>
    <path
       style="fill:#b2b3f8;fill-opacity:1;stroke:none;stroke-width:0.228607px;stroke-linecap:butt;stroke-linejoin:miter;stroke-opacity:1"
       d="m 258.26347,26.066901 c -2.12245,-0.954044 -3.04831,-3.591861 -3.79344,-5.769555 -0.84772,-2.477461 -0.61005,-7.831726 -0.61005,-7.831726 0,0 13.63179,1.754739 14.15667,7.585456 0.52489,5.830694 0.62582,8.765154 0.62582,8.765154 0,0 -6.46908,-0.978869 -10.379,-2.749329 z"
       id="path3987"
       sodipodi:nodetypes="cacscc" />
    <path
       style="fill:none;stroke:#d2d2fb;stroke-width:0.264583px;stroke-linecap:butt;stroke-linejoin:miter;stroke-opacity:1"
       d="M 268.64247,28.81623 256.31807,15.766462"
       id="path3989" />
    <g
       transform="translate(-10.601816,60.722589)"
       id="g3999">
      <path
         sodipodi:nodetypes="cacscc"
         id="path3995"
         d="m 274.58583,24.955873 c 1.54014,-1.744409 4.33384,-1.847012 6.63453,-1.913365 2.61739,-0.07549 7.66074,1.738133 7.66074,1.738133 0,0 -5.71544,12.499539 -11.43981,11.273031 -5.72435,-1.226504 -8.55692,-1.999672 -8.55692,-1.999672 0,0 2.85189,-5.888457 5.70146,-9.098127 z"
         style="fill:#acadf8;fill-opacity:1;stroke:#a8aaf7;stroke-width:0.228607px;stroke-linecap:butt;stroke-linejoin:miter;stroke-opacity:1" />
      <path
         id="path3997"
         d="m 268.88437,34.053999 16.11574,-7.903814"
         style="fill:none;stroke:#d2d2fb;stroke-width:0.264583px;stroke-linecap:butt;stroke-linejoin:miter;stroke-opacity:1" />
    </g>
    <g
       id="g4005"
       transform="rotate(-95.698611,280.30181,58.814647)">
      <path
         style="fill:#acadf8;fill-opacity:1;stroke:#a8aaf7;stroke-width:0.228607px;stroke-linecap:butt;stroke-linejoin:miter;stroke-opacity:1"
         d="m 274.58583,24.955873 c 1.54014,-1.744409 4.33384,-1.847012 6.63453,-1.913365 2.61739,-0.07549 7.66074,1.738133 7.66074,1.738133 0,0 -5.71544,12.499539 -11.43981,11.273031 -5.72435,-1.226504 -8.55692,-1.999672 -8.55692,-1.999672 0,0 2.85189,-5.888457 5.70146,-9.098127 z"
         id="path4001"
         sodipodi:nodetypes="cacscc" />
      <path
         style="fill:none;stroke:#d2d2fb;stroke-width:0.264583px;stroke-linecap:butt;stroke-linejoin:miter;stroke-opacity:1"
         d="m 268.88437,34.053999 16.11574,-7.903814"
         id="path4003" />
    </g>
    <g
       id="g4011"
       transform="translate(5.5087037,105.07874)">
      <path
         style="fill:#acadf8;fill-opacity:1;stroke:#a8aaf7;stroke-width:0.228607px;stroke-linecap:butt;stroke-linejoin:miter;stroke-opacity:1"
         d="m 274.58583,24.955873 c 1.54014,-1.744409 4.33384,-1.847012 6.63453,-1.913365 2.61739,-0.07549 7.66074,1.738133 7.66074,1.738133 0,0 -5.71544,12.499539 -11.43981,11.273031 -5.72435,-1.226504 -8.55692,-1.999672 -8.55692,-1.999672 0,0 2.85189,-5.888457 5.70146,-9.098127 z"
         id="path4007"
         sodipodi:nodetypes="cacscc" />
      <path
         style="fill:none;stroke:#d2d2fb;stroke-width:0.264583px;stroke-linecap:butt;stroke-linejoin:miter;stroke-opacity:1"
         d="m 268.88437,34.053999 16.11574,-7.903814"
         id="path4009" />
    </g>
    <g
       transform="rotate(-108.73267,305.28372,80.584729)"
       id="g4017">
      <path
         sodipodi:nodetypes="cacscc"
         id="path4013"
         d="m 274.58583,24.955873 c 1.54014,-1.744409 4.33384,-1.847012 6.63453,-1.913365 2.61739,-0.07549 7.66074,1.738133 7.66074,1.738133 0,0 -5.71544,12.499539 -11.43981,11.273031 -5.72435,-1.226504 -8.55692,-1.999672 -8.55692,-1.999672 0,0 2.85189,-5.888457 5.70146,-9.098127 z"
         style="fill:#acadf8;fill-opacity:1;stroke:#a8aaf7;stroke-width:0.228607px;stroke-linecap:butt;stroke-linejoin:miter;stroke-opacity:1" />
      <path
         id="path4015"
         d="m 268.88437,34.053999 16.11574,-7.903814"
         style="fill:none;stroke:#d2d2fb;stroke-width:0.264583px;stroke-linecap:butt;stroke-linejoin:miter;stroke-opacity:1" />
    </g>
  </g>
</svg>
