<?xml version="1.0" encoding="UTF-8" standalone="no"?>
<svg
   xmlns:dc="http://purl.org/dc/elements/1.1/"
   xmlns:cc="http://creativecommons.org/ns#"
   xmlns:rdf="http://www.w3.org/1999/02/22-rdf-syntax-ns#"
   xmlns:svg="http://www.w3.org/2000/svg"
   xmlns="http://www.w3.org/2000/svg"
   xmlns:xlink="http://www.w3.org/1999/xlink"
   xmlns:sodipodi="http://sodipodi.sourceforge.net/DTD/sodipodi-0.dtd"
   xmlns:inkscape="http://www.inkscape.org/namespaces/inkscape"
   inkscape:export-ydpi="300"
   inkscape:export-xdpi="300"
   inkscape:export-filename="/Users/omkarpathak/Documents/GITS/illustrations/pngs/swaraa-line-drawing.png"
   sodipodi:docname="swaraa-line-drawing.svg"
   inkscape:version="1.0 (4035a4f, 2020-05-01)"
   id="svg8"
   version="1.1"
   viewBox="0 0 210.53275 267.98511"
   height="267.98511mm"
   width="210.53275mm">
  <defs
     id="defs2">
    <linearGradient
       id="linearGradient1047"
       inkscape:collect="always">
      <stop
         id="stop1043"
         offset="0"
         style="stop-color:#ff8080;stop-opacity:1" />
      <stop
         id="stop1045"
         offset="1"
         style="stop-color:#ffd5d5;stop-opacity:1" />
    </linearGradient>
    <linearGradient
       y2="139.1246"
       x2="154.96237"
       y1="138.74663"
       x1="115.27487"
       gradientUnits="userSpaceOnUse"
       id="linearGradient1051"
       xlink:href="#linearGradient1047"
       inkscape:collect="always" />
    <linearGradient
       y2="139.1246"
       x2="154.96237"
       y1="138.74663"
       x1="115.27487"
       gradientUnits="userSpaceOnUse"
       id="linearGradient1150"
       xlink:href="#linearGradient1047"
       inkscape:collect="always" />
  </defs>
  <sodipodi:namedview
     fit-margin-bottom="0"
     fit-margin-right="0"
     fit-margin-left="0"
     fit-margin-top="0"
     inkscape:window-maximized="0"
     inkscape:window-y="0"
     inkscape:window-x="0"
     inkscape:window-height="1120"
     inkscape:window-width="1792"
     showgrid="false"
     inkscape:document-rotation="0"
     inkscape:current-layer="layer1"
     inkscape:document-units="mm"
     inkscape:cy="520.85194"
     inkscape:cx="653.16179"
     inkscape:zoom="0.7"
     inkscape:pageshadow="2"
     inkscape:pageopacity="0.0"
     borderopacity="1.0"
     bordercolor="#666666"
     pagecolor="#ffffff"
     id="base" />
  <metadata
     id="metadata5">
    <rdf:RDF>
      <cc:Work
         rdf:about="">
        <dc:format>image/svg+xml</dc:format>
        <dc:type
           rdf:resource="http://purl.org/dc/dcmitype/StillImage" />
        <dc:title></dc:title>
      </cc:Work>
    </rdf:RDF>
  </metadata>
  <g
     transform="translate(0.37797621,-28.348215)"
     id="layer1"
     inkscape:groupmode="layer"
     inkscape:label="Layer 1">
    <rect
       y="28.348215"
       x="-0.37797621"
       height="267.98511"
       width="210.53275"
       id="rect1214"
       style="fill:#ffffff;fill-opacity:1;stroke:none;stroke-width:2;stroke-miterlimit:4;stroke-dasharray:none;stroke-opacity:1" />
    <path
       sodipodi:nodetypes="cscsssssasc"
       id="path977"
       d="m 74.839284,202.21721 c 0,0 5.147582,10.43598 23.812496,12.8512 16.23418,2.10068 31.75,-13.60715 31.75,-13.60715 0,0 32.49352,-6.99923 53.49764,-3.93099 4.37268,0.63875 9.69043,2.01188 11.55687,5.33219 8.84336,15.73194 3.50462,52.87867 -2.92097,57.79236 -6.4256,4.91368 -57.59782,12.6219 -90.48175,12.99988 -32.883928,0.37799 -57.45238,9.07143 -69.547619,-9.4494 -12.095237,-18.52083 -13.594148,-32.55787 -7.937499,-47.625 3.838616,-10.22459 17.386905,-20.41071 25.324405,-20.78869 7.9375,-0.37797 24.946427,6.4256 24.946427,6.4256 z"
       style="fill:#ffe680;stroke:none;stroke-width:0.265;stroke-linecap:butt;stroke-linejoin:miter;stroke-miterlimit:4;stroke-dasharray:none;stroke-opacity:1" />
    <path
       sodipodi:nodetypes="caaaassscc"
       id="path24"
       d="m 64.679226,107.97689 c -0.53454,8.55262 -0.160309,17.82408 2.397558,26.21928 2.534807,8.31951 6.844004,16.30027 12.51581,22.89346 5.781438,6.72064 12.411524,14.71689 21.168016,16.10102 11.09474,1.75373 23.26097,-3.84202 31.80507,-11.1336 6.98546,-5.96144 10.43854,-15.26545 13.07722,-24.24881 2.63868,-8.98336 5.46161,-17.71301 4.53571,-27.75805 C 148.94462,96.662655 146.06576,80.947809 137.91107,71.628232 131.79175,64.634775 123.4157,58.878289 114.39136,56.661139 86.319395,53.225544 75.609325,84.868144 64.679226,107.97689 Z"
       style="fill:#ffffff;fill-opacity:1;stroke:#000000;stroke-width:2;stroke-linecap:butt;stroke-linejoin:miter;stroke-miterlimit:4;stroke-dasharray:none;stroke-opacity:1" />
    <path
       sodipodi:nodetypes="csassasscc"
       id="path967"
       d="m 104.24624,39.998716 c 0,0 57.90554,16.319735 60.55138,59.409022 2.64583,43.089282 30.58785,83.734412 14.36309,120.952382 -4.61233,10.58022 -16.62258,18.30234 -27.97024,20.41071 -10.00608,1.85911 -29.6487,1.72578 -29.48214,-7.9375 0.16657,-9.66328 31.91561,-80.40137 28.7262,-122.08631 -1.07807,-14.090163 -6.64018,-28.61313 -15.87501,-39.30952 -6.06203,-7.021436 -28.35962,-5.749781 -35.874241,-9.040792 -2.7783,-1.21675 2.990311,-10.235996 2.990311,-10.235996 z"
       style="fill:#ffffff;stroke:none;stroke-width:0.264583px;stroke-linecap:butt;stroke-linejoin:miter;stroke-opacity:1" />
    <path
       sodipodi:nodetypes="czczc"
       id="path943"
       d="m 116.41667,106.96726 c 0,0 5.39291,-3.78722 8.69344,-3.77976 3.30053,0.007 9.44941,4.15773 9.44941,4.15773 0,0 -7.42253,2.08744 -10.52634,1.91281 -3.10381,-0.17463 -7.61651,-2.29078 -7.61651,-2.29078 z"
       style="fill:none;stroke:#000000;stroke-width:2;stroke-linecap:butt;stroke-linejoin:miter;stroke-miterlimit:4;stroke-dasharray:none;stroke-opacity:1" />
    <path
       sodipodi:nodetypes="cacccc"
       id="path951"
       d="m 91.806246,145.32795 c 0,0 9.960654,3.46163 15.118094,3.31934 5.12424,-0.14137 14.81609,-4.12115 14.81609,-4.12115 0,0 -10.89459,-0.70732 -12.24715,-2.38921 -3.21104,2.04002 -5.6312,-0.14801 -6.06683,0.22162 -1.21984,1.01224 -3.870504,2.02046 -11.620204,2.9694 z"
       style="fill:#ff5555;stroke:none;stroke-width:0.264583px;stroke-linecap:butt;stroke-linejoin:miter;stroke-opacity:1" />
    <path
       style="fill:#000000;stroke:#000000;stroke-width:0.2;stroke-linecap:butt;stroke-linejoin:miter;stroke-miterlimit:4;stroke-dasharray:none;stroke-opacity:1"
       d="m 134.80254,96.657697 c -4.51777,-2.124126 -12.09669,-0.3286 -14.95954,0.715618 -2.86286,1.044218 -4.34683,-0.503089 -3.72615,-2.700669 0.62068,-2.197577 8.04198,-3.351053 12.08678,-2.572013 3.36381,0.647881 6.83137,2.749406 8.53827,5.719504 2.46273,4.285293 0.45399,0.109318 -1.93936,-1.16244 z"
       id="path953"
       sodipodi:nodetypes="cssasc" />
    <path
       sodipodi:nodetypes="caassssssssc"
       id="path955"
       d="m 104.24624,39.998716 c 0,0 -26.011522,14.901587 -35.454575,26.147116 -11.046506,13.155045 -18.316373,29.599377 -22.953629,46.139518 -4.913133,17.52415 -1.255374,42.06321 -4.638631,54.40214 -6.425597,23.43453 -16.029399,37.43641 -3.401785,46.49108 7.463037,5.35139 22.860457,5.74313 32.619192,-0.77666 7.10078,-4.74401 9.793303,-15.99304 11.226045,-17.74417 1.518423,-1.85586 -1.475827,-15.0903 -6.090457,-29.33518 -2.633833,-8.13037 -9.780887,-14.91549 -11.73106,-23.27845 -2.287846,-9.811 1.012198,-21.0824 3.836396,-28.65125 6.77141,-18.147378 26.406419,-40.037214 34.849424,-55.486014 3.33909,-6.109781 1.73908,-17.90813 1.73908,-17.90813 z"
       style="fill:#ffffff;fill-opacity:1;stroke:none;stroke-width:0.265;stroke-linecap:butt;stroke-linejoin:miter;stroke-miterlimit:4;stroke-dasharray:none;stroke-opacity:1" />
    <path
       sodipodi:nodetypes="csc"
       id="path851"
       d="m 80.448128,167.84526 c 0,0 6.23891,17.14324 -0.710099,32.3776 -6.949006,15.23436 -15.658193,16.54059 -15.658193,16.54059"
       style="fill:none;stroke:#000000;stroke-width:2;stroke-linecap:butt;stroke-linejoin:miter;stroke-miterlimit:4;stroke-dasharray:none;stroke-opacity:1" />
    <path
       sodipodi:nodetypes="cassc"
       id="path957"
       d="m 104.24624,39.998717 c 0,0 -9.064588,1.743144 -12.980256,4.01996 C 81.94204,49.440207 73.496516,59.052128 67.657737,66.145833 55.416941,81.017538 46.800064,104.8307 43.726383,118.74177 c -5.025793,22.74608 -1.771027,36.98441 -1.771027,36.98441"
       style="fill:none;stroke:#000000;stroke-width:2;stroke-linecap:butt;stroke-linejoin:miter;stroke-miterlimit:4;stroke-dasharray:none;stroke-opacity:1" />
    <path
       sodipodi:nodetypes="czsac"
       id="path959"
       d="m 102.05357,58.208332 c 0,0 -4.946388,-1.374597 -12.806864,7.210137 -7.860477,8.584734 -17.441204,34.03148 -22.722898,50.242241 -8.496215,26.07688 -16.809439,55.02378 -10.205357,81.64286 1.11098,4.47803 7.9375,11.33928 7.9375,11.33928"
       style="fill:none;stroke:#000000;stroke-width:2;stroke-linecap:butt;stroke-linejoin:miter;stroke-miterlimit:4;stroke-dasharray:none;stroke-opacity:1" />
    <path
       sodipodi:nodetypes="cssc"
       id="path961"
       d="m 52.53869,123.59821 c 0,0 -18.520833,63.12203 -20.410714,74.46131 -1.889882,11.33928 5.669642,15.11905 7.559524,15.11905 h 2.645833"
       style="fill:none;stroke:#000000;stroke-width:2;stroke-linecap:butt;stroke-linejoin:miter;stroke-miterlimit:4;stroke-dasharray:none;stroke-opacity:1" />
    <path
       sodipodi:nodetypes="cac"
       id="path963"
       d="m 46.869048,179.91661 c 0,0 -0.646303,11.25827 1.511905,16.25298 1.133014,2.62212 5.66964,6.4256 5.66964,6.4256"
       style="fill:none;stroke:#000000;stroke-width:2;stroke-linecap:butt;stroke-linejoin:miter;stroke-miterlimit:4;stroke-dasharray:none;stroke-opacity:1" />
    <path
       sodipodi:nodetypes="cac"
       id="path965"
       d="m 69.547617,162.15178 c 0,0 -0.274621,10.62399 1.511907,15.49703 1.371414,3.74075 6.803569,9.82738 6.803569,9.82738"
       style="fill:none;stroke:#000000;stroke-width:2;stroke-linecap:butt;stroke-linejoin:miter;stroke-miterlimit:4;stroke-dasharray:none;stroke-opacity:1" />
    <path
       sodipodi:nodetypes="czczc"
       id="path867"
       d="m 99.40774,106.96726 c 0,0 -6.183917,-3.49626 -9.556192,-3.42472 -3.372275,0.0715 -9.342618,3.8027 -9.342618,3.8027 0,0 6.835823,3.55077 10.205361,3.40178 3.369538,-0.14899 8.693449,-3.77976 8.693449,-3.77976 z"
       style="fill:none;stroke:#000000;stroke-width:2;stroke-linecap:butt;stroke-linejoin:miter;stroke-miterlimit:4;stroke-dasharray:none;stroke-opacity:1" />
    <path
       id="path945"
       d="m 106.21131,113.77083 c 0,0 1.51191,7.55952 0,12.09524 -1.51191,4.53571 -1.51191,4.53571 -1.51191,4.53571"
       style="fill:none;stroke:#000000;stroke-width:2;stroke-linecap:butt;stroke-linejoin:miter;stroke-miterlimit:4;stroke-dasharray:none;stroke-opacity:1" />
    <path
       sodipodi:nodetypes="cssasc"
       id="path947"
       d="m 80.853251,96.941179 c 4.517779,-2.124126 12.096692,-0.3286 14.959546,0.715618 2.862854,1.044218 4.346833,-0.503089 3.726152,-2.700669 -0.620683,-2.197577 -8.041983,-3.351053 -12.08678,-2.572013 -3.363811,0.647881 -6.831376,2.749406 -8.538272,5.719504 -2.462726,4.285291 -0.453992,0.109318 1.939354,-1.16244 z"
       style="fill:#000000;stroke:#000000;stroke-width:0.2;stroke-linecap:butt;stroke-linejoin:miter;stroke-miterlimit:4;stroke-dasharray:none;stroke-opacity:1" />
    <path
       sodipodi:nodetypes="czac"
       id="path969"
       d="m 107.96576,56.661139 c 0,0 15.07416,1.330015 27.34972,15.154331 12.27556,13.824316 28.38695,47.25707 30.09705,73.75515 1.54325,23.91264 -7.47256,50.81957 -18.37979,69.49783"
       style="fill:none;stroke:#000000;stroke-width:2;stroke-linecap:butt;stroke-linejoin:miter;stroke-miterlimit:4;stroke-dasharray:none;stroke-opacity:1" />
    <path
       sodipodi:nodetypes="casaaac"
       id="path971"
       d="m 104.24624,39.998716 c 0,0 9.56888,-0.519943 14.03604,0.903139 6.35563,2.024685 12.62077,7.149214 17.03319,10.502907 13.58452,10.325011 23.05694,25.929321 29.86012,41.577379 12.55115,28.868999 20.2674,61.173289 18.52084,92.604169 -0.82903,14.91913 -3.24475,31.94616 -13.60715,42.71131 -6.68866,6.94863 -27.21428,9.82738 -27.21428,9.82738"
       style="fill:none;stroke:#000000;stroke-width:2;stroke-linecap:butt;stroke-linejoin:miter;stroke-miterlimit:4;stroke-dasharray:none;stroke-opacity:1" />
    <g
       transform="translate(-28.029021,28.072752)"
       id="g1209">
      <g
         id="g1194"
         transform="rotate(16.678313,186.79347,130.81307)">
        <g
           id="g1180">
          <path
             id="path1093"
             d="m 186.04878,99.85085 1.75516,100.38007"
             style="fill:none;stroke:#003380;stroke-width:5;stroke-linecap:butt;stroke-linejoin:miter;stroke-miterlimit:4;stroke-dasharray:none;stroke-opacity:1" />
          <path
             transform="translate(51.496481,-56.080549)"
             sodipodi:nodetypes="caasccccccc"
             id="path1109"
             d="m 109.01882,119.7697 c -2.04525,3.74962 0.4456,12.89863 3.50286,18.30766 5.06656,8.96396 12.70255,20.68757 22.99907,20.62151 9.74271,-0.0625 19.89758,-11.63548 21.50989,-19.78998 1.72333,-8.71603 2.96395,-11.77605 1.012,-21.02833 -3.10999,-0.10416 -6.64479,0.74164 -9.95385,6.24499 -2.4042,-4.04283 -3.05888,-6.58292 -7.53734,-6.69348 -3.09146,0.14012 -5.2675,3.79751 -5.94024,6.26421 -1.88489,-3.25812 -4.35225,-6.5985 -7.47606,-5.99694 -2.73887,-0.22958 -5.66696,3.20321 -7.36719,5.36268 -3.57973,-4.90762 -10.74914,-3.29232 -10.74914,-3.29232 z"
             style="fill:url(#linearGradient1150);fill-opacity:1;stroke:none;stroke-width:0.156972px;stroke-linecap:butt;stroke-linejoin:miter;stroke-opacity:1" />
          <g
             transform="matrix(0.61661742,0,0,0.61661742,101.83156,30.585394)"
             id="g1121">
            <path
               style="fill:none;stroke:#003380;stroke-width:2;stroke-linecap:butt;stroke-linejoin:miter;stroke-miterlimit:4;stroke-dasharray:none;stroke-opacity:1"
               d="m 138.98015,178.53604 c 0,0 14.69983,-30.20145 32.07235,-37.15046 17.37251,-6.94901 17.37251,-6.68174 17.37251,-6.68174 0,0 -15.23436,40.3577 -49.44486,43.8322 z"
               id="path1117" />
            <path
               style="fill:none;stroke:#003380;stroke-width:2;stroke-linecap:butt;stroke-linejoin:miter;stroke-miterlimit:4;stroke-dasharray:none;stroke-opacity:1"
               d="m 138.98015,178.53604 49.44486,-43.8322"
               id="path1119" />
          </g>
          <g
             id="g1127"
             transform="matrix(-0.07989984,-0.61141889,0.61141889,-0.07989984,88.263474,268.21378)">
            <path
               id="path1123"
               d="m 138.98015,178.53604 c 0,0 14.69983,-30.20145 32.07235,-37.15046 17.37251,-6.94901 17.37251,-6.68174 17.37251,-6.68174 0,0 -15.23436,40.3577 -49.44486,43.8322 z"
               style="fill:none;stroke:#003380;stroke-width:2;stroke-linecap:butt;stroke-linejoin:miter;stroke-miterlimit:4;stroke-dasharray:none;stroke-opacity:1" />
            <path
               id="path1125"
               d="m 138.98015,178.53604 49.44486,-43.8322"
               style="fill:none;stroke:#003380;stroke-width:2;stroke-linecap:butt;stroke-linejoin:miter;stroke-miterlimit:4;stroke-dasharray:none;stroke-opacity:1" />
          </g>
        </g>
      </g>
      <path
         sodipodi:nodetypes="sscssssss"
         id="path1111"
         d="m 187.48162,97.440634 c 0.63127,-1.39738 3.10803,-1.35181 4.53265,-0.7847 1.74209,0.69349 3.36689,4.506266 3.36689,4.506266 0,0 4.22919,-2.499626 6.06916,-1.518116 1.15579,0.616536 1.8761,2.506186 1.33133,3.697496 -0.83357,1.82287 -2.84999,3.12789 -5.01642,3.699 -1.47926,0.38995 -2.97243,0.50936 -4.42742,-0.0644 -1.05398,-0.41562 -2.14965,-1.14487 -3.12139,-2.05414 -2.22756,-2.08434 -3.80401,-5.114606 -2.7348,-7.481416 z"
         style="fill:#003380;fill-opacity:1;stroke:none;stroke-width:0.264583px;stroke-linecap:butt;stroke-linejoin:miter;stroke-opacity:1" />
    </g>
    <path
       sodipodi:nodetypes="cac"
       id="path973"
       d="m 172.35714,182.94047 c 0,0 -1.30457,13.94934 -3.77976,20.41072 -1.90153,4.96386 -8.31548,13.60714 -8.31548,13.60714"
       style="fill:none;stroke:#000000;stroke-width:2;stroke-linecap:butt;stroke-linejoin:miter;stroke-miterlimit:4;stroke-dasharray:none;stroke-opacity:1" />
    <path
       sodipodi:nodetypes="czc"
       id="path975"
       d="m 150.8125,119.81845 c 0,0 -3.7,39.71959 -8.69346,56.31845 -4.99345,16.59886 -11.71726,33.26191 -16.7148,42.44404"
       style="fill:none;stroke:#000000;stroke-width:2;stroke-linecap:butt;stroke-linejoin:miter;stroke-miterlimit:4;stroke-dasharray:none;stroke-opacity:1" />
    <path
       sodipodi:nodetypes="cac"
       id="path979"
       d="m 71.479294,213.54576 c 0,0 10.451899,7.50777 16.528512,9.17743 5.837167,1.60387 18.152644,0.53454 18.152644,0.53454"
       style="fill:none;stroke:#000000;stroke-width:1;stroke-linecap:butt;stroke-linejoin:miter;stroke-miterlimit:4;stroke-dasharray:none;stroke-opacity:1" />
    <path
       id="path981"
       d="m 81.188121,216.64626 1.466261,-5.07893"
       style="fill:none;stroke:#000000;stroke-width:1;stroke-linecap:butt;stroke-linejoin:miter;stroke-miterlimit:4;stroke-dasharray:none;stroke-opacity:1" />
    <path
       style="fill:none;stroke:#000000;stroke-width:1;stroke-linecap:butt;stroke-linejoin:miter;stroke-miterlimit:4;stroke-dasharray:none;stroke-opacity:1"
       d="m 100.93266,221.72439 1.46626,-5.07893"
       id="path983" />
    <path
       id="path985"
       d="m 28.063301,217.10339 c 0,0 4.81085,3.74177 7.483546,8.81989 2.672694,5.07813 2.672694,5.07813 2.672694,5.07813"
       style="fill:none;stroke:#000000;stroke-width:1;stroke-linecap:butt;stroke-linejoin:miter;stroke-miterlimit:4;stroke-dasharray:none;stroke-opacity:1" />
    <path
       sodipodi:nodetypes="cac"
       inkscape:transform-center-y="-0.26726953"
       inkscape:transform-center-x="1.6036172"
       id="path987"
       d="m 194.30494,214.69796 c 0,0 -0.85672,4.39135 -2.09696,6.17761 -1.51821,2.1866 -6.18839,5.04771 -6.18839,5.04771"
       style="fill:none;stroke:#000000;stroke-width:1;stroke-linecap:butt;stroke-linejoin:miter;stroke-miterlimit:4;stroke-dasharray:none;stroke-opacity:1" />
    <ellipse
       ry="2.7875743"
       rx="2.6458333"
       cy="107.10901"
       cx="90.336304"
       id="path989"
       style="fill:#000000;fill-opacity:1;stroke:none;stroke-width:1;stroke-miterlimit:4;stroke-dasharray:none;stroke-opacity:1" />
    <ellipse
       ry="0.8976934"
       rx="0.9921875"
       cy="106.82551"
       cx="91.895462"
       id="path991"
       style="fill:#f2f2f2;fill-opacity:1;stroke:none;stroke-width:1;stroke-miterlimit:4;stroke-dasharray:none;stroke-opacity:1" />
    <path
       sodipodi:nodetypes="cc"
       id="path993"
       d="m 91.806246,145.32795 c 11.066254,1.26885 19.287744,0.49087 29.934184,-0.80181"
       style="fill:none;stroke:#8e0000;stroke-width:0.264583px;stroke-linecap:butt;stroke-linejoin:miter;stroke-opacity:1" />
    <path
       id="path1075"
       d="m 139.09588,135.49132 1.75516,100.38007"
       style="fill:none;stroke:#003380;stroke-width:5;stroke-linecap:butt;stroke-linejoin:miter;stroke-miterlimit:4;stroke-dasharray:none;stroke-opacity:1" />
    <g
       transform="translate(-6.6817382,-22.845505)"
       id="g1039">
      <path
         style="fill:#ffffff;stroke:none;stroke-width:0.264583px;stroke-linecap:butt;stroke-linejoin:miter;stroke-opacity:1"
         d="m 149.40367,291.59104 c 0,0 -7.91664,-3.96011 -15.26694,-6.98478 -4.29924,-1.76915 -8.75638,-1.45995 -10.39094,-4.50779 -0.76836,-1.43271 -0.43866,-3.76003 0.80181,-4.81087 2.92302,-2.47617 11.75986,2.6727 11.75986,2.6727 l 2.93997,-11.49259 8.81988,-5.61265 -10.80064,-1.55777 -4.43372,-3.78763 11.36436,-4.80754 11.88809,-0.80511 c 0,0 16.27253,6.41486 21.1143,12.29438 8.48976,10.30943 8.81989,36.08139 8.81989,36.08139 l -34.2105,2.40543 z"
         id="path1029"
         sodipodi:nodetypes="cssscccccccsccc" />
      <g
         id="g1027"
         transform="translate(11.22532,2.4054257)">
        <path
           sodipodi:nodetypes="csssc"
           id="path1009"
           d="m 138.17835,289.18562 c 0,0 -5.87993,-4.81085 -10.95805,-6.14719 -5.07812,-1.33635 -15.23437,-3.20724 -15.76891,-5.87994 -0.53454,-2.67269 0.53454,-4.00904 1.60362,-4.27631 1.06908,-0.26727 33.40869,4.81085 33.40869,4.81085"
           style="fill:none;stroke:#000000;stroke-width:2;stroke-linecap:butt;stroke-linejoin:miter;stroke-miterlimit:4;stroke-dasharray:none;stroke-opacity:1" />
        <path
           id="path1011"
           d="m 140.03849,276.35132 -7.75081,-4.54358"
           style="fill:none;stroke:#000000;stroke-width:2;stroke-linecap:butt;stroke-linejoin:miter;stroke-miterlimit:4;stroke-dasharray:none;stroke-opacity:1" />
        <path
           id="path1013"
           d="m 124.81487,272.88218 c 0,0 -1.33635,2.6727 0.80181,-3.20723 2.13815,-5.87993 2.67269,-7.48355 5.87993,-6.68174 3.20723,0.80181 19.77794,5.07812 19.77794,5.07812"
           style="fill:none;stroke:#000000;stroke-width:2;stroke-linecap:butt;stroke-linejoin:miter;stroke-miterlimit:4;stroke-dasharray:none;stroke-opacity:1" />
        <path
           id="path1015"
           d="m 132.29842,262.1914 c 0,0 0,-2.93996 2.93996,-4.00904 2.93997,-1.06908 11.75986,-0.26727 16.30344,1.06908 4.54358,1.33635 4.54358,1.33635 4.54358,1.33635"
           style="fill:none;stroke:#000000;stroke-width:2;stroke-linecap:butt;stroke-linejoin:miter;stroke-miterlimit:4;stroke-dasharray:none;stroke-opacity:1" />
        <path
           sodipodi:nodetypes="csssssc"
           id="path1017"
           d="m 136.30746,256.31147 c 0,0 -8.28536,2.13816 -11.75986,0 -3.4745,-2.13815 -4.54358,-3.20723 -2.40543,-4.27631 2.13816,-1.06908 16.30344,-4.27631 20.04521,-4.54358 3.74178,-0.26727 2.40543,-0.80181 10.69079,3.20723 8.28535,4.00904 15.23436,9.08717 16.57071,14.16529 1.33635,5.07812 2.40543,18.97613 2.40543,18.97613"
           style="fill:none;stroke:#000000;stroke-width:2;stroke-linecap:butt;stroke-linejoin:miter;stroke-miterlimit:4;stroke-dasharray:none;stroke-opacity:1" />
        <path
           id="path1019"
           d="m 155.01633,250.43154 c 0,0 2.40542,-5.61266 6.41446,-6.41447 4.00905,-0.8018 7.75082,-2.67269 6.41447,3.20724 -1.33635,5.87993 -2.13815,9.6217 -2.13815,9.6217"
           style="fill:#ffffff;fill-opacity:1;stroke:#000000;stroke-width:2;stroke-linecap:butt;stroke-linejoin:miter;stroke-miterlimit:4;stroke-dasharray:none;stroke-opacity:1" />
        <path
           sodipodi:nodetypes="caasccccccc"
           id="path1041"
           d="m 109.01882,119.7697 c -2.04525,3.74962 0.4456,12.89863 3.50286,18.30766 5.06656,8.96396 12.70255,20.68757 22.99907,20.62151 9.74271,-0.0625 19.89758,-11.63548 21.50989,-19.78998 1.72333,-8.71603 2.96395,-11.77605 1.012,-21.02833 -3.10999,-0.10416 -6.64479,0.74164 -9.95385,6.24499 -2.4042,-4.04283 -3.05888,-6.58292 -7.53734,-6.69348 -3.09146,0.14012 -5.2675,3.79751 -5.94024,6.26421 -1.88489,-3.25812 -4.35225,-6.5985 -7.47606,-5.99694 -2.73887,-0.22958 -5.66696,3.20321 -7.36719,5.36268 -3.57973,-4.90762 -10.74914,-3.29232 -10.74914,-3.29232 z"
           style="fill:url(#linearGradient1051);fill-opacity:1;stroke:none;stroke-width:0.156972px;stroke-linecap:butt;stroke-linejoin:miter;stroke-opacity:1" />
        <path
           sodipodi:nodetypes="sscssssss"
           id="path1057"
           d="m 125.88395,154.87665 c 0.16089,-1.52489 2.52685,-2.25882 4.05748,-2.16739 1.87171,0.1118 4.61087,3.22214 4.61087,3.22214 0,0 3.23121,-3.70047 5.28623,-3.34591 1.29088,0.22272 2.56777,1.79089 2.42435,3.09297 -0.21946,1.99237 -1.72452,3.86422 -3.60232,5.0863 -1.28217,0.83444 -2.66245,1.41637 -4.22399,1.32817 -1.13117,-0.0639 -2.40033,-0.4125 -3.60832,-0.97091 -2.7691,-1.28006 -5.21681,-3.66259 -4.9443,-6.24537 z"
           style="fill:#003380;fill-opacity:1;stroke:none;stroke-width:0.264583px;stroke-linecap:butt;stroke-linejoin:miter;stroke-opacity:1" />
      </g>
    </g>
    <g
       transform="matrix(0.61661742,0,0,0.61661742,54.878657,66.225864)"
       id="g1083">
      <path
         style="fill:none;stroke:#003380;stroke-width:2;stroke-linecap:butt;stroke-linejoin:miter;stroke-miterlimit:4;stroke-dasharray:none;stroke-opacity:1"
         d="m 138.98015,178.53604 c 0,0 14.69983,-30.20145 32.07235,-37.15046 17.37251,-6.94901 17.37251,-6.68174 17.37251,-6.68174 0,0 -15.23436,40.3577 -49.44486,43.8322 z"
         id="path1077" />
      <path
         style="fill:none;stroke:#003380;stroke-width:2;stroke-linecap:butt;stroke-linejoin:miter;stroke-miterlimit:4;stroke-dasharray:none;stroke-opacity:1"
         d="m 138.98015,178.53604 49.44486,-43.8322"
         id="path1079" />
    </g>
    <g
       id="g1089"
       transform="matrix(-0.07989984,-0.61141889,0.61141889,-0.07989984,41.310574,303.85425)">
      <path
         id="path1085"
         d="m 138.98015,178.53604 c 0,0 14.69983,-30.20145 32.07235,-37.15046 17.37251,-6.94901 17.37251,-6.68174 17.37251,-6.68174 0,0 -15.23436,40.3577 -49.44486,43.8322 z"
         style="fill:none;stroke:#003380;stroke-width:2;stroke-linecap:butt;stroke-linejoin:miter;stroke-miterlimit:4;stroke-dasharray:none;stroke-opacity:1" />
      <path
         id="path1087"
         d="m 138.98015,178.53604 49.44486,-43.8322"
         style="fill:none;stroke:#003380;stroke-width:2;stroke-linecap:butt;stroke-linejoin:miter;stroke-miterlimit:4;stroke-dasharray:none;stroke-opacity:1" />
    </g>
  </g>
</svg>
